<?xml version="1.0" standalone="no"?>
<!DOCTYPE svg PUBLIC "-//W3C//DTD SVG 20010904//EN"
 "http://www.w3.org/TR/2001/REC-SVG-20010904/DTD/svg10.dtd">
<svg version="1.0" xmlns="http://www.w3.org/2000/svg"
 width="220.000000pt" height="220.000000pt" viewBox="0 0 220.000000 220.000000"
 preserveAspectRatio="xMidYMid meet">
<metadata>
Created by potrace 1.10, written by Peter Selinger 2001-2011
</metadata>
<g transform="translate(0.000000,220.000000) scale(0.100000,-0.100000)"
fill="#3b50ba" stroke="none">
<path d="M1092 2043 l-912 -3 1 -743 c1 -408 4 -775 6 -814 l5 -73 95 0 c53 0
93 3 90 6 -4 4 -40 7 -80 7 -41 -1 -80 3 -87 7 -9 6 -13 173 -16 711 -3 387
-2 745 2 794 l7 91 284 2 283 3 6 -30 c4 -17 13 -36 20 -42 9 -7 11 -17 5 -28
-8 -15 8 -105 24 -130 3 -5 0 -22 -6 -38 -14 -37 -14 -100 0 -117 6 -7 9 -20
5 -29 -4 -12 -1 -14 15 -10 22 6 29 23 9 23 -6 0 -9 3 -5 6 3 4 -1 13 -9 21
-8 8 -13 23 -10 32 2 9 8 35 11 59 l7 44 21 -23 c11 -12 24 -42 27 -66 7 -47
-6 -60 -16 -15 -11 44 -18 49 -25 17 -7 -38 6 -65 31 -65 13 0 17 -5 14 -14
-3 -8 -1 -23 6 -33 9 -14 10 -1 7 62 -4 67 -9 88 -32 120 -15 22 -31 39 -36
37 -5 -1 -8 10 -7 25 1 16 -4 38 -10 49 -13 24 -5 125 11 135 5 4 49 7 98 8
l89 2 -6 -39 c-4 -25 -2 -42 5 -46 6 -4 11 -3 11 3 0 6 21 8 51 6 l51 -4 -4
40 -4 39 43 0 c33 0 43 -4 48 -20 3 -11 10 -20 15 -20 5 0 17 -3 27 -6 17 -5
17 -5 0 9 -11 9 -14 18 -8 21 5 4 13 1 17 -5 4 -8 9 -7 15 2 8 12 11 12 18 0
8 -12 12 -12 25 -2 11 9 16 10 16 2 0 -6 7 -11 15 -11 8 0 15 -7 15 -15 0 -8
4 -15 10 -15 5 0 7 13 4 30 l-6 30 310 0 310 0 4 -37 c3 -21 6 -381 7 -800 l2
-763 -125 0 c-70 0 -126 -3 -126 -8 0 -4 59 -8 130 -8 l130 0 0 56 c0 30 3
197 7 370 6 332 -5 1212 -16 1208 -3 -2 -417 -4 -919 -5z m6 -25 c5 -7 12 -22
16 -33 5 -17 1 -20 -23 -20 -16 0 -33 3 -37 7 -4 4 -13 3 -21 -3 -17 -14 -17
0 -1 36 12 27 48 34 66 13z"/>
<path d="M838 1975 c3 -19 8 -23 15 -16 8 8 7 16 -5 27 -14 14 -15 14 -10 -11z"/>
<path d="M1283 1975 c4 -8 2 -17 -3 -20 -13 -8 -13 -25 0 -25 6 0 10 7 10 15
0 18 16 20 23 3 4 -9 6 -8 6 3 1 16 -17 39 -32 39 -5 0 -7 -7 -4 -15z"/>
<path d="M1332 1954 c0 -39 -19 -59 -39 -42 -9 7 -14 6 -17 -3 -3 -8 -10 -30
-16 -51 -12 -39 -43 -75 -104 -119 -55 -41 -116 -40 -179 2 -61 40 -90 76
-113 138 -10 28 -22 51 -26 51 -14 0 -9 -18 22 -82 31 -64 86 -116 154 -145
60 -27 126 -11 175 41 25 26 48 36 35 15 -4 -7 -10 -37 -13 -68 -5 -46 -3 -59
12 -74 12 -12 15 -26 11 -45 -5 -26 -5 -26 10 -8 9 11 16 28 16 38 0 10 5 18
10 18 6 0 10 9 10 21 0 21 0 21 -18 -1 -10 -13 -24 -20 -30 -16 -13 8 -5 74
12 95 8 11 8 13 -1 8 -7 -5 -10 -1 -8 10 14 69 17 76 25 64 13 -22 30 -2 30
35 0 27 4 34 20 34 10 0 23 8 29 18 11 22 13 102 1 102 -4 0 -8 -16 -8 -36z"/>
<path d="M1370 1931 c0 -11 -3 -28 -6 -38 -6 -16 -5 -16 9 2 18 22 22 55 7 55
-5 0 -10 -9 -10 -19z"/>
<path d="M1020 1884 c-7 -8 -19 -14 -26 -14 -20 0 -17 -14 11 -44 13 -14 35
-26 49 -26 64 0 113 47 82 78 -21 21 -101 25 -116 6z m100 -24 c0 -5 -22 -10
-50 -10 -27 0 -50 5 -50 10 0 6 23 10 50 10 28 0 50 -4 50 -10z m-21 -31 c-18
-11 -66 -12 -73 -1 -3 5 16 9 41 10 31 0 42 -3 32 -9z"/>
<path d="M1343 1855 c-3 -9 -3 -18 -1 -21 3 -3 8 4 11 16 6 23 -1 27 -10 5z"/>
<path d="M1321 1784 c0 -11 3 -14 6 -6 3 7 2 16 -1 19 -3 4 -6 -2 -5 -13z"/>
<path d="M1250 1756 c0 -7 6 -16 14 -19 14 -6 27 -51 28 -99 1 -16 5 -28 9
-28 12 0 15 43 5 75 -1 6 -6 22 -11 38 -8 31 -45 58 -45 33z"/>
<path d="M910 1749 c0 -4 12 -27 26 -53 23 -41 25 -55 20 -104 l-5 -57 15 44
c14 35 14 50 5 82 -10 33 -60 105 -61 88z"/>
<path d="M1240 1663 c0 -30 9 -27 15 6 2 11 0 21 -6 21 -5 0 -9 -12 -9 -27z"/>
<path d="M740 1581 c-8 -5 -44 -12 -79 -15 -128 -14 -240 -74 -241 -128 0 -18
5 -28 15 -28 9 0 15 -9 15 -22 0 -35 12 -13 14 25 1 20 -3 33 -8 30 -5 -3 -7
0 -4 8 3 8 18 21 34 29 16 8 34 22 41 30 8 10 15 11 20 5 15 -20 35 -16 28 5
-6 18 -2 20 34 20 33 0 41 -3 41 -19 0 -10 7 -24 15 -31 21 -17 20 3 -1 35
-16 24 -15 25 4 25 12 0 24 -5 27 -11 4 -6 13 -8 20 -6 8 4 11 -3 9 -19 -1
-13 2 -24 6 -24 5 0 10 17 12 37 3 34 23 59 26 31 0 -7 3 -22 6 -33 2 -11 8
-41 11 -67 4 -26 13 -56 20 -65 11 -15 12 -10 4 30 -5 27 -11 53 -14 58 -4 5
-2 9 4 9 5 0 14 -6 18 -12 4 -7 19 -22 32 -33 14 -11 6 3 -17 30 -23 28 -45
65 -48 83 -7 33 -17 38 -44 23z"/>
<path d="M1297 1569 c-10 -35 -9 -39 7 -33 10 4 15 -10 20 -53 4 -32 7 -67 7
-78 0 -20 0 -20 15 -1 17 23 18 33 4 41 -5 3 -10 24 -10 46 0 33 3 39 22 39
21 0 21 0 2 -14 -10 -8 -16 -18 -12 -22 5 -4 17 1 27 10 15 14 29 16 65 11 29
-5 46 -12 46 -21 0 -8 8 -14 18 -14 13 0 14 -2 3 -9 -8 -5 -9 -11 -3 -15 6 -3
13 -2 16 3 9 14 -5 42 -18 34 -8 -4 -8 -3 0 6 7 8 21 6 55 -11 24 -11 39 -23
33 -25 -7 -2 -7 -22 3 -66 12 -59 15 -177 3 -177 -3 0 -6 -22 -6 -48 -3 -70
-26 -110 -69 -118 -19 -3 -38 -10 -41 -15 -7 -11 -8 -12 49 6 26 8 45 11 43 6
-3 -4 -15 -50 -26 -102 -12 -51 -25 -98 -29 -104 -5 -5 -11 -22 -15 -37 -3
-16 -11 -28 -16 -28 -6 0 -8 -10 -5 -23 4 -15 1 -28 -10 -37 -8 -7 -20 -32
-26 -56 -6 -24 -14 -42 -18 -39 -4 2 -13 -24 -20 -57 -7 -34 -24 -83 -37 -110
l-24 -48 30 0 c30 0 41 15 18 22 -9 3 -8 11 4 30 9 14 20 48 23 74 3 27 11 58
19 69 7 11 16 33 20 48 3 15 23 63 43 105 38 81 57 156 92 360 17 97 20 148
16 245 l-5 122 -37 16 c-33 14 -88 26 -206 44 -16 3 -37 15 -46 27 l-18 21 -6
-24z"/>
<path d="M1201 1564 c0 -11 3 -14 6 -6 3 7 2 16 -1 19 -3 4 -6 -2 -5 -13z"/>
<path d="M1196 1524 c-9 -23 -2 -28 13 -10 7 8 8 17 3 20 -6 3 -13 -1 -16 -10z"/>
<path d="M1258 1493 c-14 -16 -44 -45 -67 -67 -23 -21 -40 -41 -37 -44 5 -5
25 11 88 71 16 15 33 27 38 27 7 0 20 23 20 36 0 12 -20 1 -42 -23z"/>
<path d="M1137 1493 c-10 -9 -9 -23 1 -23 5 0 9 7 9 15 0 17 -1 18 -10 8z"/>
<path d="M1441 1482 c-17 -31 -13 -40 5 -14 9 13 14 26 11 29 -3 2 -10 -4 -16
-15z"/>
<path d="M950 1470 l-25 -6 25 -7 c26 -7 34 -4 29 11 -2 4 -15 5 -29 2z"/>
<path d="M685 1460 c3 -5 8 -10 11 -10 2 0 4 5 4 10 0 6 -5 10 -11 10 -5 0 -7
-4 -4 -10z"/>
<path d="M576 1445 c4 -8 11 -15 16 -15 6 0 5 6 -2 15 -7 8 -14 15 -16 15 -2
0 -1 -7 2 -15z"/>
<path d="M1266 1419 c-10 -17 -16 -33 -13 -36 3 -3 13 9 22 27 9 18 15 34 13
36 -2 2 -12 -10 -22 -27z"/>
<path d="M520 1431 c0 -6 4 -13 10 -16 6 -3 7 1 4 9 -7 18 -14 21 -14 7z"/>
<path d="M1552 1420 c-8 -13 -8 -20 -2 -20 6 0 13 7 17 15 9 24 -1 27 -15 5z"/>
<path d="M1355 1390 c-3 -5 -1 -10 4 -10 6 0 11 5 11 10 0 6 -2 10 -4 10 -3 0
-8 -4 -11 -10z"/>
<path d="M435 1319 c13 -157 51 -286 144 -493 27 -60 30 -74 21 -97 -8 -18 -8
-34 -2 -46 27 -52 14 -148 -17 -128 -19 11 -12 -3 14 -31 l25 -27 2 37 c1 20
3 51 4 69 1 17 -2 49 -8 71 -15 59 -2 55 30 -10 16 -33 50 -98 75 -147 24 -48
42 -89 38 -90 -3 -2 -32 -4 -64 -5 -52 -2 -59 0 -64 18 -3 11 -9 20 -14 20 -5
0 -6 7 -3 15 4 8 2 15 -4 15 -15 0 -24 -32 -12 -40 6 -4 8 -14 4 -23 -6 -15 7
-17 137 -16 92 1 129 4 101 8 -46 8 -57 19 -100 101 -16 30 -48 86 -71 125
-22 38 -48 92 -56 120 -8 28 -21 68 -30 88 -8 20 -15 39 -16 42 0 5 -20 55
-42 108 -7 15 -16 27 -22 27 -5 0 -1 7 9 15 19 15 19 15 -3 15 -19 0 -21 3
-12 14 9 10 8 15 -2 19 -16 6 -33 80 -47 201 -12 109 -23 128 -15 25z"/>
<path d="M1661 1358 c12 -40 32 -267 32 -360 0 -38 3 -68 7 -68 14 0 20 78 10
130 -6 29 -10 82 -10 117 0 67 -25 199 -40 208 -5 3 -4 -9 1 -27z"/>
<path d="M699 1363 c22 -37 48 -65 54 -56 3 5 -8 23 -24 41 -33 35 -45 41 -30
15z"/>
<path d="M1229 1348 c-6 -12 -22 -33 -35 -44 -21 -20 -22 -34 -3 -34 9 0 61
91 55 97 -2 3 -10 -6 -17 -19z"/>
<path d="M473 1305 c0 -8 4 -12 9 -9 5 3 6 10 3 15 -9 13 -12 11 -12 -6z"/>
<path d="M826 1265 c-43 -38 -36 -44 19 -18 24 12 31 19 23 25 -10 6 -10 8 0
8 6 0 12 5 12 10 0 17 -13 11 -54 -25z"/>
<path d="M1043 1249 c-49 -31 -38 -48 12 -20 6 3 16 6 23 7 19 3 25 11 17 23
-9 15 -15 14 -52 -10z"/>
<path d="M1110 1249 c0 -5 5 -7 10 -4 6 3 10 8 10 11 0 2 -4 4 -10 4 -5 0 -10
-5 -10 -11z"/>
<path d="M1140 1248 c0 -14 30 -22 41 -11 7 7 2 12 -15 15 -14 3 -26 1 -26 -4z"/>
<path d="M1214 1249 c-4 -7 -1 -10 7 -7 17 6 39 -15 39 -38 0 -13 -3 -14 -15
-4 -10 8 -15 9 -15 2 0 -6 8 -16 18 -21 15 -8 18 -5 20 19 3 41 -36 77 -54 49z"/>
<path d="M1288 1215 c4 -44 5 -45 39 -45 20 0 32 4 28 10 -4 6 -10 8 -15 5
-20 -12 -40 8 -40 41 0 19 -3 34 -8 34 -4 0 -6 -20 -4 -45z"/>
<path d="M745 1230 c-25 -10 -70 -58 -63 -66 3 -3 16 9 28 25 12 17 28 31 35
31 8 0 17 5 20 10 7 12 7 12 -20 0z"/>
<path d="M1519 1223 c-13 -16 -12 -17 4 -4 16 13 21 21 13 21 -2 0 -10 -8 -17
-17z"/>
<path d="M795 1160 c-51 -63 -82 -81 -96 -59 -4 7 -11 11 -14 7 -4 -3 4 -15
16 -26 l22 -21 45 55 c26 29 52 54 58 54 12 0 30 37 22 45 -2 2 -26 -23 -53
-55z"/>
<path d="M600 1185 c0 -18 19 -40 26 -32 4 4 0 15 -9 24 -9 10 -17 13 -17 8z"/>
<path d="M1380 1165 c0 -14 5 -25 11 -25 6 0 9 7 5 15 -3 8 -1 15 5 15 6 0 7
5 4 10 -11 18 -25 10 -25 -15z"/>
<path d="M1490 1131 c0 -7 -4 -9 -10 -6 -5 3 -10 2 -10 -4 0 -15 14 -21 30
-11 12 7 12 12 2 22 -9 9 -12 9 -12 -1z"/>
<path d="M1096 1123 c-4 -4 -40 -18 -79 -30 -40 -12 -68 -22 -63 -22 5 -1 2
-8 -5 -18 -12 -14 -10 -14 20 2 19 9 43 19 55 20 48 8 57 12 72 33 15 21 15
29 0 15z"/>
<path d="M1150 1109 c0 -5 5 -7 10 -4 6 3 10 8 10 11 0 2 -4 4 -10 4 -5 0 -10
-5 -10 -11z"/>
<path d="M1360 1110 c-8 -5 -10 -10 -5 -10 6 0 17 5 25 10 8 5 11 10 5 10 -5
0 -17 -5 -25 -10z"/>
<path d="M1088 1071 l-23 -26 28 24 c15 14 27 20 27 14 0 -5 6 -10 14 -10 8 0
12 6 10 12 -8 19 -32 13 -56 -14z"/>
<path d="M1248 1093 c7 -3 16 -2 19 1 4 3 -2 6 -13 5 -11 0 -14 -3 -6 -6z"/>
<path d="M1362 1080 c-21 -12 -28 -19 -19 -23 8 -3 27 5 43 19 34 27 23 29
-24 4z"/>
<path d="M1500 1087 c0 -19 18 -22 40 -6 13 9 13 10 -1 6 -9 -3 -22 0 -28 6
-8 8 -11 7 -11 -6z"/>
<path d="M1180 1079 c0 -5 5 -7 10 -4 6 3 10 8 10 11 0 2 -4 4 -10 4 -5 0 -10
-5 -10 -11z"/>
<path d="M1039 1059 c-23 -19 -23 -20 -2 -10 12 6 25 16 28 21 10 16 -1 12
-26 -11z"/>
<path d="M985 1044 c-19 -15 -22 -21 -9 -15 18 9 52 41 43 41 -2 0 -17 -12
-34 -26z"/>
<path d="M1250 1059 c0 -5 5 -7 10 -4 6 3 10 8 10 11 0 2 -4 4 -10 4 -5 0 -10
-5 -10 -11z"/>
<path d="M1290 1066 c0 -2 7 -7 16 -10 8 -3 12 -2 9 4 -6 10 -25 14 -25 6z"/>
<path d="M1386 1052 c-2 -4 4 -13 15 -20 22 -14 25 -7 5 14 -8 8 -17 11 -20 6z"/>
<path d="M605 1040 l-40 -7 42 -2 c23 0 45 4 48 9 3 6 3 9 -2 9 -4 -1 -26 -5
-48 -9z"/>
<path d="M675 1040 c-3 -5 -1 -10 4 -10 6 0 11 5 11 10 0 6 -2 10 -4 10 -3 0
-8 -4 -11 -10z"/>
<path d="M1045 1030 c-3 -5 1 -10 10 -10 9 0 13 5 10 10 -3 6 -8 10 -10 10 -2
0 -7 -4 -10 -10z"/>
<path d="M670 1000 c0 -5 5 -10 10 -10 6 0 10 5 10 10 0 6 -4 10 -10 10 -5 0
-10 -4 -10 -10z"/>
<path d="M1070 990 c0 -6 7 -10 15 -10 8 0 15 2 15 4 0 2 -7 6 -15 10 -8 3
-15 1 -15 -4z"/>
<path d="M1114 983 c11 -11 45 -13 51 -3 4 6 -7 10 -26 10 -18 0 -29 -3 -25
-7z"/>
<path d="M1190 985 c0 -8 82 -47 87 -41 3 2 -13 14 -36 25 -41 22 -51 25 -51
16z"/>
<path d="M1345 949 c-4 -6 -14 -8 -24 -4 -13 5 -14 4 -3 -6 10 -11 15 -10 29
4 10 9 14 17 11 17 -4 0 -10 -5 -13 -11z"/>
<path d="M1397 924 c3 -7 9 -14 14 -14 14 0 10 17 -5 23 -10 4 -13 1 -9 -9z"/>
<path d="M763 916 c-9 -11 -7 -13 12 -13 16 0 22 4 18 13 -6 17 -15 17 -30 0z"/>
<path d="M1270 923 c-20 -8 -56 -43 -44 -43 6 0 16 6 23 13 10 10 14 8 22 -6
13 -23 29 -13 29 19 0 24 -4 27 -30 17z"/>
<path d="M1700 886 c0 -14 0 -29 -1 -33 0 -4 4 -9 10 -11 14 -5 15 55 1 63 -6
4 -10 -5 -10 -19z"/>
<path d="M646 884 c-5 -14 -4 -15 9 -4 17 14 19 20 6 20 -5 0 -12 -7 -15 -16z"/>
<path d="M1425 890 c3 -5 8 -10 11 -10 2 0 4 5 4 10 0 6 -5 10 -11 10 -5 0 -7
-4 -4 -10z"/>
<path d="M680 860 c0 -6 7 -10 15 -10 8 0 15 2 15 4 0 2 -7 6 -15 10 -8 3 -15
1 -15 -4z"/>
<path d="M1310 862 c0 -11 28 -36 58 -51 33 -17 27 -8 -18 28 -22 17 -40 28
-40 23z"/>
<path d="M1208 787 c27 -34 54 -73 61 -85 20 -37 25 -18 5 20 -21 41 -92 128
-105 128 -5 0 12 -28 39 -63z"/>
<path d="M1404 841 c8 -12 46 -21 46 -11 0 8 -24 20 -41 20 -6 0 -8 -4 -5 -9z"/>
<path d="M660 830 c0 -5 5 -10 11 -10 5 0 7 5 4 10 -3 6 -8 10 -11 10 -2 0 -4
-4 -4 -10z"/>
<path d="M1710 779 c0 -17 -5 -40 -11 -51 -8 -14 -8 -23 0 -31 15 -15 18 -9
25 56 5 38 4 57 -3 57 -6 0 -11 -14 -11 -31z"/>
<path d="M313 785 c4 -9 7 -19 7 -21 0 -2 7 -4 15 -4 22 0 18 18 -7 31 -18 10
-20 9 -15 -6z"/>
<path d="M1220 716 c0 -8 5 -18 10 -21 6 -3 10 1 10 9 0 8 -4 18 -10 21 -5 3
-10 -1 -10 -9z"/>
<path d="M320 625 c0 -8 7 -15 16 -15 14 0 14 3 4 15 -7 8 -14 15 -16 15 -2 0
-4 -7 -4 -15z"/>
<path d="M1690 610 c-8 -5 -12 -12 -9 -15 4 -3 12 1 19 10 14 17 11 19 -10 5z"/>
<path d="M1735 597 c-13 -15 -20 -38 -20 -72 -1 -27 -5 -65 -9 -82 -6 -23 -5
-33 3 -33 19 0 32 48 25 91 -6 33 -3 43 15 60 23 22 25 28 13 46 -6 9 -13 7
-27 -10z"/>
<path d="M1325 590 c-3 -5 -1 -10 4 -10 6 0 11 5 11 10 0 6 -2 10 -4 10 -3 0
-8 -4 -11 -10z"/>
<path d="M358 563 c12 -2 30 -2 40 0 9 3 -1 5 -23 4 -22 0 -30 -2 -17 -4z"/>
<path d="M310 491 c0 -12 5 -21 10 -21 6 0 10 6 10 14 0 8 -4 18 -10 21 -5 3
-10 -3 -10 -14z"/>
<path d="M365 440 c-3 -5 -1 -10 4 -10 6 0 11 5 11 10 0 6 -2 10 -4 10 -3 0
-8 -4 -11 -10z"/>
<path d="M568 413 c7 -3 16 -2 19 1 4 3 -2 6 -13 5 -11 0 -14 -3 -6 -6z"/>
<path d="M943 413 c31 -2 83 -2 115 0 31 2 5 3 -58 3 -63 0 -89 -1 -57 -3z"/>
<path d="M1228 413 c7 -3 16 -2 19 1 4 3 -2 6 -13 5 -11 0 -14 -3 -6 -6z"/>
<path d="M1308 413 c6 -2 18 -2 25 0 6 3 1 5 -13 5 -14 0 -19 -2 -12 -5z"/>
<path d="M1528 413 c7 -3 16 -2 19 1 4 3 -2 6 -13 5 -11 0 -14 -3 -6 -6z"/>
<path d="M1531 323 c-14 -17 -19 -33 -15 -47 9 -28 9 -28 39 -28 26 0 31 -11
37 -72 3 -34 25 -46 35 -20 10 27 -16 167 -35 182 -24 18 -38 15 -61 -15z m51
-15 c-15 -15 -16 -32 -2 -23 16 10 11 -1 -7 -16 -11 -10 -14 -10 -9 -1 4 6 2
12 -3 12 -6 0 -11 4 -11 9 0 13 31 43 38 36 3 -3 0 -11 -6 -17z"/>
<path d="M1836 329 c-19 -28 -10 -49 26 -56 l30 -6 -3 -68 c-2 -41 1 -73 8
-80 19 -19 26 8 31 112 l5 98 -27 11 c-40 15 -53 13 -70 -11z m51 -23 c0 -8
-6 -12 -14 -9 -7 3 -13 9 -13 14 0 5 6 9 13 9 8 0 14 -6 14 -14z"/>
<path d="M408 335 c-3 -3 -39 -7 -79 -8 -90 -2 -92 -22 -2 -22 33 0 57 -3 51
-6 -6 -4 -5 -29 2 -70 17 -92 18 -95 33 -79 9 10 9 13 0 17 -7 3 -13 9 -13 14
0 6 5 7 12 3 11 -7 8 28 -8 100 l-7 29 71 -5 c76 -6 84 -4 75 18 -6 17 -74 19
-91 2 -9 -9 -12 -9 -12 0 0 12 -22 17 -32 7z"/>
<path d="M673 325 c-44 -19 -45 -56 -1 -95 31 -28 31 -30 13 -43 -10 -8 -27
-12 -38 -9 -14 4 -18 0 -16 -13 2 -10 10 -20 18 -23 8 -3 11 0 7 7 -4 6 0 11
9 11 9 0 13 -4 10 -10 -3 -5 -1 -10 5 -10 14 0 60 46 60 60 0 5 -16 28 -35 49
-34 38 -35 40 -15 46 12 4 32 4 46 1 29 -8 31 4 6 27 -22 20 -27 20 -69 2z"/>
<path d="M1701 306 c-19 -20 -21 -28 -12 -45 14 -26 31 -27 31 -2 0 21 27 48
37 37 4 -4 2 -15 -5 -24 -54 -75 -64 -106 -40 -130 27 -27 77 0 63 35 -6 17
-7 17 -19 1 -16 -21 -30 -24 -23 -4 3 7 0 19 -6 26 -9 10 -7 11 11 5 14 -4 22
-2 22 5 0 7 9 23 19 36 16 21 18 30 9 54 -13 38 -54 41 -87 6z"/>
<path d="M1426 298 c-3 -7 -7 -38 -10 -69 -10 -97 10 -145 44 -104 10 12 10
15 0 15 -9 0 -10 21 -5 85 7 75 5 85 -9 85 -9 0 -18 -6 -20 -12z"/>
<path d="M785 161 c-8 -15 3 -31 21 -31 9 0 14 7 12 17 -4 20 -24 28 -33 14z"/>
<path d="M500 146 c0 -10 9 -16 21 -16 24 0 21 23 -4 28 -10 2 -17 -3 -17 -12z"/>
</g>
</svg>
