<?xml version="1.0" standalone="no"?>
<!DOCTYPE svg PUBLIC "-//W3C//DTD SVG 20010904//EN"
 "http://www.w3.org/TR/2001/REC-SVG-20010904/DTD/svg10.dtd">
<svg version="1.0" xmlns="http://www.w3.org/2000/svg"
 width="300.000000pt" height="300.000000pt" viewBox="0 0 300.000000 300.000000"
 preserveAspectRatio="xMidYMid meet">
<metadata>
Created by potrace 1.10, written by Peter Selinger 2001-2011
</metadata>
<g transform="translate(0.000000,300.000000) scale(0.100000,-0.100000)"
fill="#f9eca9" stroke="none">
<path d="M856 2983 c3 -11 20 -31 37 -43 l32 -23 -30 34 c-16 19 -33 38 -37
43 -4 5 -5 0 -2 -11z"/>
<path d="M899 2983 c6 -12 26 -34 43 -48 22 -18 27 -25 13 -21 -17 5 -17 3 4
-14 13 -11 26 -18 30 -15 3 3 1 9 -4 13 -13 9 -17 32 -7 32 15 0 42 -36 35
-45 -5 -4 -3 -5 4 -1 6 3 14 2 17 -3 13 -20 125 -90 131 -81 3 6 18 11 33 11
20 1 17 3 -13 9 -22 4 -43 6 -47 3 -5 -2 -8 1 -8 7 0 6 -12 15 -26 20 -15 6
-22 14 -18 22 4 7 3 8 -5 4 -7 -5 -27 4 -47 19 -23 18 -32 30 -25 35 9 5 7 11
-4 20 -13 11 -15 10 -10 -2 11 -27 -34 -13 -71 23 -26 24 -33 28 -25 12z"/>
<path d="M760 2971 c5 -11 15 -23 21 -27 6 -3 3 5 -6 20 -20 30 -30 35 -15 7z"/>
<path d="M798 2954 c14 -27 79 -84 95 -84 7 0 23 -9 37 -20 36 -28 59 -26 33
3 -11 12 -23 31 -27 41 -3 10 -9 16 -13 13 -3 -4 -12 -2 -20 5 -11 8 -12 7 -7
-6 4 -11 13 -15 23 -11 12 5 13 3 5 -5 -18 -18 -51 -3 -96 43 -23 23 -36 32
-30 21z"/>
<path d="M769 2922 c36 -46 44 -51 120 -81 72 -29 64 -16 -12 19 -35 16 -81
46 -102 67 l-38 38 32 -43z"/>
<path d="M1328 2939 c12 -14 22 -31 22 -37 0 -7 5 -12 10 -12 20 0 8 26 -23
49 l-32 25 23 -25z"/>
<path d="M850 2941 c0 -5 7 -15 17 -22 15 -13 15 -12 4 9 -12 23 -21 28 -21
13z"/>
<path d="M1309 2928 c-7 -26 -4 -40 13 -49 27 -15 31 -7 8 18 -10 12 -16 24
-13 27 4 3 3 6 0 6 -4 0 -7 -1 -8 -2z"/>
<path d="M1044 2906 c11 -9 34 -15 50 -15 31 1 31 1 -4 8 -20 4 -42 11 -50 15
-8 4 -6 0 4 -8z"/>
<path d="M1190 2906 c0 -2 7 -7 16 -10 8 -3 12 -2 9 4 -6 10 -25 14 -25 6z"/>
<path d="M1238 2878 c12 -15 8 -16 -47 -13 -34 2 -61 -1 -61 -6 0 -5 9 -9 19
-9 11 0 23 -4 26 -10 3 -5 13 -10 21 -10 8 0 12 5 9 10 -4 6 -12 7 -18 4 -9
-5 -9 -4 0 6 7 7 17 9 25 4 23 -15 48 -14 54 1 4 8 14 15 23 15 14 0 14 2 1
10 -9 6 -17 5 -21 -2 -6 -9 -13 -8 -26 3 -16 13 -17 12 -5 -3z"/>
<path d="M505 2870 c3 -5 8 -10 11 -10 2 0 4 5 4 10 0 6 -5 10 -11 10 -5 0 -7
-4 -4 -10z"/>
<path d="M1000 2862 c0 -4 14 -20 32 -35 21 -19 34 -24 38 -17 5 8 15 2 29
-17 13 -15 32 -29 42 -29 19 -1 19 0 3 17 -10 11 -19 17 -22 14 -3 -3 -12 4
-19 15 -10 14 -21 19 -34 15 -10 -4 -19 -2 -19 3 0 5 -11 17 -25 26 -14 9 -25
13 -25 8z"/>
<path d="M1372 2840 c5 -17 15 -33 21 -37 7 -4 8 0 3 13 -5 10 -11 27 -13 37
-3 9 -9 17 -14 17 -4 0 -3 -14 3 -30z"/>
<path d="M1280 2850 c0 -6 7 -10 15 -10 8 0 15 2 15 4 0 2 -7 6 -15 10 -8 3
-15 1 -15 -4z"/>
<path d="M1336 2846 c10 -8 21 -12 24 -10 5 6 -21 24 -34 24 -6 0 -1 -6 10
-14z"/>
<path d="M530 2832 c0 -5 17 -16 37 -26 29 -14 34 -20 22 -27 -11 -7 -9 -9 7
-9 12 0 38 -13 59 -30 40 -31 50 -37 40 -20 -14 23 -165 125 -165 112z"/>
<path d="M574 2833 c3 -3 14 -11 24 -17 60 -36 120 -80 140 -104 15 -17 20
-20 13 -7 -11 24 -91 103 -91 90 0 -5 -10 1 -22 12 -20 17 -80 42 -64 26z"/>
<path d="M1232 2828 c2 -5 8 -10 13 -10 34 -4 103 -32 133 -54 31 -24 33 -25
23 -5 -7 11 -22 27 -34 35 -30 19 -139 47 -135 34z"/>
<path d="M1406 2825 c4 -8 11 -15 16 -15 6 0 5 6 -2 15 -7 8 -14 15 -16 15 -2
0 -1 -7 2 -15z"/>
<path d="M875 2820 c3 -5 8 -10 11 -10 2 0 4 5 4 10 0 6 -5 10 -11 10 -5 0 -7
-4 -4 -10z"/>
<path d="M925 2800 c37 -24 64 -60 65 -83 0 -16 -2 -16 -28 -3 -20 10 -32 12
-43 4 -11 -8 -11 -9 4 -4 9 3 17 2 17 -3 0 -4 16 -12 35 -18 l34 -11 -6 32
c-4 17 -12 37 -20 44 -15 16 -17 32 -3 32 6 0 10 8 10 18 0 10 -3 13 -8 7 -9
-14 -50 -17 -57 -4 -4 5 -12 9 -18 9 -7 0 1 -9 18 -20z"/>
<path d="M1061 2791 c-11 -7 -9 -10 8 -16 13 -4 21 -9 18 -11 -2 -3 -17 0 -32
6 -18 7 -32 7 -38 1 -11 -11 56 -27 71 -17 6 3 13 0 15 -6 4 -8 6 -9 6 -2 2
22 -33 54 -48 45z"/>
<path d="M1413 2788 c2 -7 9 -12 14 -11 6 1 21 -9 33 -22 13 -14 19 -25 13
-25 -6 0 -16 7 -23 15 -7 9 -15 13 -18 10 -3 -3 3 -12 14 -20 11 -8 14 -15 7
-15 -7 0 -13 -5 -13 -11 0 -6 5 -7 13 -2 6 4 19 6 29 5 9 -2 19 2 23 7 4 7 0
8 -11 4 -12 -4 -15 -3 -10 5 4 6 -2 19 -13 29 -11 9 -17 21 -14 26 3 6 1 7 -5
3 -6 -3 -13 -2 -17 4 -9 14 -28 12 -22 -2z"/>
<path d="M1180 2775 c11 -13 8 -16 -19 -21 -17 -4 -31 -10 -31 -15 0 -14 38
-11 42 3 3 7 18 11 36 10 25 -2 32 2 31 15 0 11 -3 13 -6 6 -5 -15 -33 -18
-33 -4 0 5 6 12 13 14 6 3 -1 6 -17 6 -24 1 -27 -1 -16 -14z"/>
<path d="M1266 2781 c-4 -5 3 -7 14 -4 23 6 26 13 6 13 -8 0 -17 -4 -20 -9z"/>
<path d="M1315 2770 c6 -10 -14 -15 -49 -11 -11 1 -17 -2 -13 -5 10 -10 67
-12 67 -3 0 4 10 5 23 2 21 -4 22 -4 3 11 -22 18 -40 21 -31 6z"/>
<path d="M840 2764 c0 -9 41 -44 52 -44 13 0 10 5 -22 28 -16 13 -30 20 -30
16z"/>
<path d="M813 2741 c10 -4 19 -11 19 -16 1 -6 8 -15 17 -22 9 -7 11 -12 4 -13
-6 0 -18 7 -27 15 -8 8 -20 15 -27 15 -7 0 -2 -9 10 -19 12 -11 37 -19 57 -19
l36 0 -24 16 c-13 9 -29 24 -36 34 -7 10 -21 18 -30 17 -15 0 -15 -1 1 -8z"/>
<path d="M940 2746 c0 -3 9 -10 20 -16 11 -6 20 -8 20 -6 0 3 -9 10 -20 16
-11 6 -20 8 -20 6z"/>
<path d="M1029 2729 c14 -5 32 -11 40 -13 9 -1 28 -9 44 -16 20 -10 33 -10 51
-2 17 7 27 7 35 -1 8 -8 11 -8 11 2 0 9 4 10 13 4 18 -15 70 -26 62 -13 -8 13
8 13 40 -2 16 -7 21 -14 14 -18 -6 -4 -7 -10 -3 -12 5 -3 17 2 27 12 16 16 17
18 0 31 -14 12 -16 12 -8 0 6 -11 4 -13 -9 -8 -10 4 -23 7 -29 7 -7 0 -6 4 3
10 13 9 13 10 0 11 -47 5 -58 7 -70 14 -8 5 -11 4 -6 -3 4 -7 -5 -9 -29 -5
-24 4 -35 2 -35 -6 0 -7 -5 -9 -11 -5 -6 3 -15 0 -20 -7 -7 -11 -11 -11 -17
-2 -4 7 -28 17 -52 22 -56 13 -83 13 -51 0z m260 -20 c-17 -11 -39 -12 -39 -1
0 4 12 8 27 9 19 1 22 -1 12 -8z"/>
<path d="M1330 2737 c0 -3 14 -13 32 -21 24 -12 34 -13 42 -5 8 9 8 10 -1 5
-6 -3 -13 -2 -15 3 -3 10 -58 27 -58 18z"/>
<path d="M1020 2701 c0 -18 6 -21 45 -21 38 0 44 2 33 13 -6 7 -21 13 -32 12
-12 -1 -27 2 -33 8 -10 7 -13 4 -13 -12z"/>
<path d="M1525 2690 c10 -11 20 -20 22 -20 2 0 -1 9 -7 20 -6 11 -16 20 -22
20 -6 0 -3 -9 7 -20z"/>
<path d="M791 2683 c8 -13 20 -23 28 -23 8 0 12 1 10 3 -2 1 -15 11 -28 22
l-24 20 14 -22z"/>
<path d="M1455 2689 c-10 -15 3 -25 16 -12 7 7 7 13 1 17 -6 3 -14 1 -17 -5z"/>
<path d="M481 2686 c2 -2 15 -9 29 -15 24 -11 24 -11 6 3 -16 13 -49 24 -35
12z"/>
<path d="M703 2673 c9 -2 23 -2 30 0 6 3 -1 5 -18 5 -16 0 -22 -2 -12 -5z"/>
<path d="M780 2648 c11 -18 26 -33 35 -33 28 0 20 -20 -8 -21 -18 -1 -32 6
-38 17 -5 11 -14 19 -20 19 -6 0 -17 7 -25 15 -9 8 -20 15 -26 15 -12 0 17
-28 55 -53 l22 -15 -27 2 c-14 0 -24 4 -22 8 3 4 -3 5 -12 1 -13 -5 -15 -3 -9
7 5 9 4 11 -4 6 -6 -4 -9 -11 -6 -16 6 -9 -58 -3 -85 8 -8 3 -19 7 -25 8 -5 1
-14 3 -20 4 -5 1 -17 3 -25 4 -8 0 -14 7 -12 14 1 8 -2 11 -7 8 -5 -4 -11 -2
-13 3 -1 4 -14 11 -28 15 -14 3 -19 3 -12 0 6 -3 10 -9 7 -13 -6 -10 86 -53
117 -55 13 -1 22 -6 21 -12 -1 -5 15 -8 35 -6 106 8 195 1 230 -19 31 -16 37
-17 40 -4 5 20 -27 60 -63 80 -28 15 -27 14 7 -18 21 -19 35 -37 32 -40 -8 -8
-55 14 -49 23 2 3 -16 23 -41 44 l-45 38 21 -34z m130 -78 c0 -5 -5 -10 -11
-10 -5 0 -7 5 -4 10 3 6 8 10 11 10 2 0 4 -4 4 -10z"/>
<path d="M1376 2661 c-15 -16 -15 -19 -1 -31 12 -10 18 -10 33 1 9 7 19 15 21
16 5 4 -20 33 -29 33 -4 0 -14 -8 -24 -19z m38 -12 c-3 -5 -13 -9 -22 -8 -11
0 -12 2 -4 6 6 2 10 9 7 14 -4 5 1 6 9 3 9 -3 13 -10 10 -15z"/>
<path d="M650 2666 c0 -2 8 -10 18 -17 15 -13 16 -12 3 4 -13 16 -21 21 -21
13z"/>
<path d="M885 2661 c6 -11 4 -13 -9 -8 -11 4 -15 3 -11 -4 4 -6 13 -8 20 -5
12 4 26 -14 29 -36 1 -3 5 -10 10 -15 5 -5 6 5 2 22 -4 16 -8 30 -9 30 -1 1
-11 7 -21 15 -17 13 -18 13 -11 1z"/>
<path d="M933 2663 c9 -2 17 -12 17 -21 0 -15 2 -15 10 -2 16 24 12 30 -17 29
-17 -1 -21 -3 -10 -6z"/>
<path d="M980 2663 c1 -12 29 -47 34 -42 7 7 -13 49 -24 49 -5 0 -10 -3 -10
-7z"/>
<path d="M1020 2660 c0 -5 5 -10 11 -10 5 0 7 5 4 10 -3 6 -8 10 -11 10 -2 0
-4 -4 -4 -10z"/>
<path d="M1507 2664 c-4 -4 11 -20 34 -37 22 -16 43 -27 46 -23 3 3 12 1 20
-5 10 -9 13 -8 13 3 0 22 -12 29 -27 16 -7 -6 -17 -8 -20 -4 -4 4 -1 12 7 17
12 9 11 10 -4 5 -12 -4 -27 1 -41 14 -12 11 -24 17 -28 14z"/>
<path d="M1060 2649 c0 -5 -7 -9 -15 -9 -8 0 -15 -4 -15 -9 0 -6 12 -6 28 -1
35 9 72 6 102 -10 12 -6 24 -9 28 -6 3 3 1 6 -5 6 -6 0 -10 8 -9 17 0 10 -7
19 -19 21 -20 4 -20 4 0 -12 22 -17 14 -21 -13 -7 -25 14 -82 21 -82 10z"/>
<path d="M1220 2650 c19 -13 30 -13 30 0 0 6 -10 10 -22 10 -19 0 -20 -2 -8
-10z"/>
<path d="M1467 2647 c-3 -8 -1 -20 5 -28 8 -11 9 -10 4 4 -3 9 -1 17 4 17 6 0
10 5 10 10 0 15 -17 12 -23 -3z"/>
<path d="M1270 2640 c8 -5 20 -10 25 -10 6 0 3 5 -5 10 -8 5 -19 10 -25 10 -5
0 -3 -5 5 -10z"/>
<path d="M1197 2628 c7 -8 10 -18 6 -21 -3 -4 -1 -7 6 -7 17 0 10 32 -9 38
-12 4 -13 3 -3 -10z"/>
<path d="M1496 2623 c-6 -14 -5 -15 5 -6 7 7 10 15 7 18 -3 3 -9 -2 -12 -12z"/>
<path d="M460 2621 c8 -5 26 -12 40 -15 l25 -7 -25 15 c-14 9 -32 15 -40 15
-13 0 -13 -1 0 -8z"/>
<path d="M990 2605 l23 -25 -22 -24 c-31 -33 -23 -71 16 -79 16 -3 29 -5 30
-4 1 1 -7 13 -18 26 -15 18 -19 20 -19 7 0 -10 -4 -15 -10 -11 -11 7 -2 35 19
55 9 8 17 26 19 40 1 18 0 21 -7 11 -7 -11 -12 -10 -22 8 -8 11 -18 21 -23 21
-5 0 1 -11 14 -25z"/>
<path d="M1230 2620 c0 -5 14 -10 32 -10 36 0 35 4 -4 14 -17 4 -28 2 -28 -4z"/>
<path d="M1310 2613 c0 -8 -12 -13 -31 -13 -24 0 -30 -3 -25 -16 3 -9 6 -19 6
-24 0 -4 10 -10 23 -14 18 -5 20 -8 7 -16 -11 -7 -11 -10 -2 -10 7 0 15 7 18
15 4 8 11 15 16 15 6 0 8 -6 5 -14 -4 -10 2 -13 18 -12 l24 1 -27 22 c-15 13
-35 21 -44 19 -10 -2 -22 2 -29 10 -9 11 -6 14 17 15 16 1 39 0 52 -1 12 -1
22 3 22 9 0 6 1 14 3 19 1 4 -10 7 -25 7 -17 1 -28 -4 -28 -12z"/>
<path d="M1409 2611 c-20 -16 -22 -22 -11 -33 11 -11 12 -10 6 6 -4 11 -3 17
2 14 5 -3 17 3 27 14 23 24 6 23 -24 -1z"/>
<path d="M1080 2610 c-8 -5 -12 -12 -9 -15 4 -3 12 1 19 10 14 17 11 19 -10 5z"/>
<path d="M1109 2603 c-13 -16 -12 -17 4 -4 9 7 17 15 17 17 0 8 -8 3 -21 -13z"/>
<path d="M1432 2598 c-17 -17 -15 -26 10 -39 18 -10 24 -8 35 7 15 21 17 34 4
34 -5 0 -13 -9 -16 -20 -4 -11 -11 -17 -17 -14 -6 4 -5 9 3 15 10 6 11 11 3
19 -7 7 -14 6 -22 -2z"/>
<path d="M470 2588 c0 -11 43 -20 81 -16 30 3 27 4 -23 13 -32 6 -58 7 -58 3z"/>
<path d="M1045 2580 c-3 -5 -2 -10 4 -10 5 0 16 -3 25 -6 9 -3 16 -1 16 6 0 6
-4 8 -10 5 -5 -3 -10 -1 -10 4 0 14 -17 14 -25 1z"/>
<path d="M1180 2582 c0 -4 10 -13 23 -21 22 -14 22 -14 3 8 -20 22 -26 25 -26
13z"/>
<path d="M1218 2583 c7 -3 16 -2 19 1 4 3 -2 6 -13 5 -11 0 -14 -3 -6 -6z"/>
<path d="M1502 2570 c0 -14 2 -19 5 -12 2 6 2 18 0 25 -3 6 -5 1 -5 -13z"/>
<path d="M1530 2571 c0 -12 5 -21 10 -21 6 0 10 6 10 14 0 8 -4 18 -10 21 -5
3 -10 -3 -10 -14z"/>
<path d="M1155 2569 c-4 -6 -5 -12 -2 -15 2 -3 7 2 10 11 7 17 1 20 -8 4z"/>
<path d="M700 2560 c-16 -10 -15 -12 23 -28 15 -6 27 -7 27 -2 0 5 -9 12 -21
15 -35 11 -13 17 25 7 20 -6 36 -7 36 -2 0 17 -66 25 -90 10z"/>
<path d="M1350 2559 c0 -6 7 -9 15 -6 8 4 17 1 21 -5 5 -7 2 -8 -7 -3 -11 7
-12 6 -2 -6 8 -10 25 -14 45 -12 28 3 30 2 13 -7 -18 -9 -18 -9 5 -7 32 3 29
21 -4 25 -13 2 -30 10 -36 18 -15 17 -50 19 -50 3z"/>
<path d="M1572 2554 c-7 -13 -6 -22 4 -32 13 -12 18 -12 39 2 14 9 25 20 25
23 0 4 -5 2 -12 -5 -17 -17 -26 -15 -24 4 2 24 -20 29 -32 8z m28 -3 c0 -6 -4
-13 -10 -16 -5 -3 -10 1 -10 9 0 9 5 16 10 16 6 0 10 -4 10 -9z"/>
<path d="M160 2555 c0 -5 145 -76 160 -79 3 -1 11 -5 19 -10 8 -5 44 -11 80
-13 36 -1 75 -7 86 -12 11 -5 40 -14 65 -21 25 -6 64 -20 87 -31 24 -10 48
-19 53 -19 6 0 8 -4 5 -10 -3 -5 3 -10 14 -10 10 0 28 -3 38 -7 16 -6 16 -5 4
11 -8 9 -20 15 -28 12 -8 -3 -12 -2 -9 3 8 12 -21 34 -37 28 -7 -3 -24 1 -38
9 -28 16 -17 19 14 3 21 -10 21 -10 2 6 -11 8 -26 13 -33 10 -13 -5 -90 10
-127 25 -11 4 -55 12 -99 18 -68 9 -82 14 -107 41 -15 17 -31 31 -35 31 -4 0
1 -9 12 -21 19 -21 19 -21 -8 -8 -15 6 -25 15 -23 19 2 4 -7 12 -22 19 -24 11
-25 11 -12 -5 13 -16 12 -16 -18 -1 -34 18 -43 20 -43 12z"/>
<path d="M461 2553 c-10 -4 -8 -9 10 -20 l24 -14 -25 6 c-21 5 -22 4 -7 -5 9
-6 22 -8 27 -5 6 4 24 -1 42 -9 34 -18 94 -21 103 -7 3 5 0 13 -6 17 -8 4 -9
3 -5 -4 10 -16 0 -15 -32 4 -21 12 -23 13 -9 1 17 -14 17 -15 -6 -13 -17 1
-23 6 -19 19 4 14 -3 17 -39 18 -37 1 -40 2 -19 9 l25 8 -25 0 c-14 0 -31 -2
-39 -5z"/>
<path d="M553 2548 c6 -4 29 -10 49 -13 21 -4 40 -11 44 -16 8 -14 85 -51 82
-40 -5 17 14 6 56 -32 41 -39 41 -39 11 -31 -27 7 -29 6 -16 -9 7 -9 18 -14
24 -10 5 3 7 1 3 -5 -3 -6 -2 -13 4 -17 5 -3 10 -11 10 -16 0 -6 -27 12 -61
40 -33 28 -72 54 -85 57 -43 11 -37 -4 10 -24 25 -12 68 -42 96 -68 30 -28 48
-39 44 -28 -7 18 -6 18 17 -1 13 -11 26 -22 29 -25 3 -3 20 -6 38 -8 19 -1 39
-8 46 -15 16 -15 17 -49 2 -44 -6 3 -10 10 -8 16 1 6 -5 11 -13 11 -8 0 -15
-6 -15 -12 0 -9 -3 -8 -9 2 -6 8 -7 18 -5 22 3 4 -2 8 -11 8 -15 0 -15 -2 0
-22 8 -13 19 -23 23 -24 25 -3 62 -18 62 -25 0 -5 4 -9 9 -9 12 0 -14 85 -35
113 -11 15 -15 16 -11 5 7 -19 -12 -25 -28 -9 -6 5 -21 11 -35 13 -32 4 -49
25 -50 60 0 15 -7 33 -15 42 -8 8 -15 21 -15 29 0 24 -40 52 -78 53 -45 1 -82
12 -82 24 0 5 8 7 18 3 13 -5 14 -3 6 6 -9 10 -17 10 -34 1 -12 -7 -20 -8 -16
-2 3 5 -11 9 -34 8 -21 0 -33 -4 -27 -8z m162 -48 c3 -6 -1 -7 -9 -4 -18 7
-21 14 -7 14 6 0 13 -4 16 -10z m70 -31 c11 -17 -1 -21 -15 -4 -8 9 -8 15 -2
15 6 0 14 -5 17 -11z"/>
<path d="M838 2549 c37 -11 44 -22 7 -13 -14 3 -25 3 -25 0 0 -9 72 -37 84
-32 6 2 3 5 -6 5 -9 1 -20 6 -24 12 -4 8 1 9 17 5 16 -5 12 0 -11 13 -19 11
-44 20 -55 20 -12 -1 -7 -5 13 -10z"/>
<path d="M1230 2539 c0 -11 4 -18 10 -14 5 3 7 12 3 20 -7 21 -13 19 -13 -6z"/>
<path d="M387 2544 c-4 -4 -4 -11 -1 -15 7 -12 41 -12 48 0 3 4 -6 6 -21 3
-18 -3 -24 -1 -19 7 8 12 3 15 -7 5z"/>
<path d="M1060 2546 c0 -2 7 -7 16 -10 8 -3 12 -2 9 4 -6 10 -25 14 -25 6z"/>
<path d="M350 2530 c0 -5 5 -10 11 -10 5 0 7 5 4 10 -3 6 -8 10 -11 10 -2 0
-4 -4 -4 -10z"/>
<path d="M784 2514 c14 -15 35 -47 46 -72 27 -61 34 -48 10 18 -22 61 -31 72
-61 77 -21 3 -21 2 5 -23z"/>
<path d="M1501 2521 c-25 -22 -20 -51 5 -30 7 6 11 15 8 20 -3 5 2 9 10 9 9 0
16 5 16 10 0 15 -15 12 -39 -9z"/>
<path d="M1190 2526 c0 -2 8 -10 18 -17 15 -13 16 -12 3 4 -13 16 -21 21 -21
13z"/>
<path d="M130 2512 c0 -19 12 -42 22 -42 6 0 5 6 -2 15 -8 10 -9 15 -2 15 6 0
16 -8 21 -19 12 -21 102 -54 125 -45 8 3 27 -4 42 -15 32 -25 24 -28 -12 -5
-13 9 -27 14 -30 11 -3 -3 19 -17 50 -32 54 -27 156 -122 156 -147 0 -14 79
-88 94 -88 5 0 -9 16 -32 36 -23 19 -42 41 -42 48 0 41 -225 239 -266 234 -12
-2 -27 2 -35 8 -8 6 -23 14 -34 16 -11 3 -28 9 -37 13 -10 4 -18 3 -18 -3z"/>
<path d="M320 2511 c0 -12 51 -24 110 -27 25 -1 65 -4 90 -8 44 -6 43 -5 -15
14 -70 23 -100 26 -89 8 6 -10 5 -10 -7 -1 -8 7 -24 10 -36 7 -11 -3 -24 -1
-27 5 -9 13 -26 15 -26 2z"/>
<path d="M951 2504 c0 -11 3 -14 6 -6 3 7 2 16 -1 19 -3 4 -6 -2 -5 -13z"/>
<path d="M1025 2510 c3 -5 14 -10 23 -10 15 0 15 2 2 10 -20 13 -33 13 -25 0z"/>
<path d="M1307 2490 c10 -11 19 -20 21 -20 1 0 -2 9 -8 20 -6 11 -15 20 -20
20 -6 0 -2 -9 7 -20z"/>
<path d="M1374 2495 c21 -8 42 -12 47 -9 5 3 9 2 9 -3 0 -4 -15 -18 -33 -30
-20 -15 -26 -23 -16 -23 9 0 34 16 55 35 l38 35 -30 0 c-16 1 -47 3 -69 5
l-40 5 39 -15z"/>
<path d="M1610 2494 c0 -8 5 -12 10 -9 6 3 10 10 10 16 0 5 -4 9 -10 9 -5 0
-10 -7 -10 -16z"/>
<path d="M38 2493 c7 -3 16 -2 19 1 4 3 -2 6 -13 5 -11 0 -14 -3 -6 -6z"/>
<path d="M847 2494 c7 -3 10 -11 7 -18 -3 -8 2 -16 12 -20 15 -6 15 -4 3 10
-13 16 -11 17 16 10 20 -5 27 -4 20 3 -5 5 -23 12 -40 15 -16 4 -25 4 -18 0z"/>
<path d="M1225 2480 c-10 -11 -16 -22 -14 -24 2 -2 12 7 22 20 22 29 17 32 -8
4z"/>
<path d="M1555 2493 c-11 -3 -32 -14 -47 -24 -15 -11 -34 -17 -45 -13 -13 4
-14 3 -5 -4 13 -9 -6 -20 -66 -37 -13 -4 -22 -8 -20 -10 7 -8 94 19 118 36 34
23 97 32 104 14 3 -9 0 -12 -10 -8 -8 3 -14 -1 -14 -11 0 -10 6 -13 15 -10 13
5 14 2 5 -20 -11 -29 -6 -33 15 -13 17 18 8 64 -17 81 -19 14 -19 14 -1 19 10
3 12 5 3 5 -8 0 -24 -3 -35 -5z"/>
<path d="M1058 2483 c7 -3 16 -2 19 1 4 3 -2 6 -13 5 -11 0 -14 -3 -6 -6z"/>
<path d="M1130 2475 c7 -9 15 -13 17 -11 7 7 -7 26 -19 26 -6 0 -6 -6 2 -15z"/>
<path d="M1641 2481 c-7 -5 -9 -10 -3 -12 5 -2 12 -15 16 -29 l7 -25 -21 25
c-11 14 -18 18 -15 10 10 -32 17 -76 17 -102 -1 -15 3 -30 7 -33 5 -3 7 4 4
15 -3 11 0 20 6 20 6 0 10 -3 9 -7 -3 -11 30 -93 38 -93 3 0 2 10 -2 22 -6 20
-5 21 10 9 25 -21 20 -41 -11 -42 l-28 -1 26 -7 c14 -5 35 -14 47 -20 26 -14
29 -4 5 15 -16 13 -16 13 7 10 14 -3 31 -5 38 -5 6 -1 12 -6 12 -12 0 -6 -7
-9 -15 -5 -9 3 -15 0 -15 -10 0 -11 5 -14 16 -10 11 4 15 2 11 -8 -5 -12 -2
-12 21 0 15 8 33 14 40 14 7 0 10 5 7 10 -4 6 -16 8 -27 4 -16 -5 -20 -3 -15
9 4 10 0 16 -11 16 -59 3 -65 6 -79 39 -7 18 -20 35 -28 39 -8 3 -15 13 -15
22 0 14 2 14 10 1 8 -13 10 -12 10 3 0 11 -5 17 -12 14 -8 -2 -12 -18 -11 -38
2 -28 1 -31 -8 -16 -5 9 -9 25 -8 35 4 28 -12 72 -24 65 -6 -3 -7 -1 -3 5 9
15 49 9 54 -8 3 -7 0 -10 -7 -6 -7 5 -9 1 -4 -9 4 -12 8 -13 13 -5 6 9 11 7
20 -6 10 -16 11 -16 6 -1 -3 9 -9 24 -13 34 -5 12 -3 14 8 8 12 -8 12 -6 0 8
-7 9 -17 15 -21 12 -5 -3 -11 1 -13 7 -3 8 -6 5 -6 -6 -1 -27 -29 -2 -33 29
-2 18 -7 22 -17 16z"/>
<path d="M38 2469 c22 -23 13 -30 -15 -13 l-28 16 24 -21 c12 -11 26 -19 31
-16 8 5 65 -55 92 -97 20 -30 113 -98 106 -78 -2 8 -13 18 -23 24 -21 12 -124
119 -138 142 -12 20 19 29 48 14 17 -9 27 -10 41 0 17 10 16 11 -7 7 -14 -2
-31 3 -38 10 -11 12 -17 12 -37 -2 -21 -14 -25 -14 -30 -1 -3 8 -13 17 -22 21
-14 5 -15 4 -4 -6z"/>
<path d="M935 2427 c0 -39 6 -61 23 -81 l22 -29 0 26 c0 14 -5 29 -12 33 -7 5
-8 3 -3 -6 6 -9 4 -11 -4 -5 -8 4 -11 25 -9 58 2 29 -1 52 -8 54 -6 2 -10 -17
-9 -50z"/>
<path d="M1025 2460 c-27 -10 -9 -17 75 -25 35 -4 72 -11 82 -16 10 -5 18 -7
18 -5 0 11 -56 33 -89 34 -18 2 -41 6 -50 11 -9 5 -25 5 -36 1z"/>
<path d="M561 2456 c2 -1 20 -8 39 -14 32 -11 33 -10 16 3 -16 12 -69 23 -55
11z"/>
<path d="M740 2452 c0 -12 19 -26 26 -19 2 2 -2 10 -11 17 -9 8 -15 8 -15 2z"/>
<path d="M906 2444 c-4 -10 -12 -14 -24 -9 -14 5 -15 4 -4 -6 10 -11 15 -10
29 4 9 9 14 19 11 22 -3 3 -8 -2 -12 -11z"/>
<path d="M980 2441 c0 -14 5 -19 15 -15 8 4 15 1 15 -5 0 -6 -6 -11 -14 -11
-11 0 -12 -6 -5 -27 5 -16 11 -45 14 -65 3 -21 10 -38 14 -38 5 0 11 -12 14
-28 9 -44 70 -112 131 -147 31 -17 53 -34 50 -37 -13 -13 34 -27 62 -18 28 8
28 8 4 10 -14 1 -32 1 -40 0 -8 -1 -12 2 -7 6 9 9 -22 44 -40 44 -7 0 -13 6
-13 13 0 7 15 12 39 12 36 1 78 21 66 33 -2 3 -11 -1 -20 -8 -8 -7 -35 -14
-59 -15 -37 -3 -47 1 -63 21 -12 17 -24 22 -38 18 -16 -5 -18 -4 -7 7 6 7 12
17 12 23 0 5 -6 1 -14 -9 -13 -18 -15 -16 -34 23 -11 23 -16 42 -11 42 6 0 7
5 4 10 -3 6 0 10 7 10 8 0 6 5 -4 11 -31 17 -20 30 12 14 23 -12 28 -12 24 -2
-3 8 -11 14 -19 15 -8 1 -22 3 -31 4 -14 1 -14 3 2 15 13 10 14 14 4 11 -8 -1
-17 2 -18 7 -2 6 -8 16 -14 23 -38 46 61 -3 105 -51 20 -24 27 -27 27 -14 0 9
-4 17 -10 17 -6 0 -9 6 -8 12 2 7 -16 23 -40 35 -24 12 -59 33 -78 48 -32 25
-34 25 -34 6z m58 -133 c8 -10 11 -18 6 -18 -17 0 -34 23 -33 45 0 14 2 16 6
5 3 -8 12 -23 21 -32z m117 -176 c11 -6 15 -12 8 -12 -7 0 -22 10 -35 23 -13
12 -17 17 -8 11 8 -6 24 -16 35 -22z"/>
<path d="M1495 2430 c-10 -11 -13 -20 -8 -20 6 0 13 6 16 14 4 9 14 12 28 9
15 -4 20 -3 15 5 -11 18 -31 14 -51 -8z"/>
<path d="M4 2420 c0 -10 4 -16 9 -13 4 2 13 0 20 -5 7 -6 17 -11 22 -11 6 -1
10 -5 10 -11 0 -10 35 -39 48 -40 18 0 -34 56 -70 77 -36 20 -39 20 -39 3z"/>
<path d="M420 2426 c23 -14 23 -15 5 -16 -12 0 -27 6 -35 13 -12 10 -12 9 -2
-4 13 -17 66 -33 56 -18 -4 8 25 14 49 10 4 0 7 3 7 8 0 4 -12 8 -27 8 -16 0
-39 3 -53 7 l-25 7 25 -15z"/>
<path d="M962 2415 c0 -16 2 -22 5 -12 2 9 2 23 0 30 -3 6 -5 -1 -5 -18z"/>
<path d="M105 2420 c3 -5 8 -10 11 -10 2 0 4 5 4 10 0 6 -5 10 -11 10 -5 0 -7
-4 -4 -10z"/>
<path d="M160 2414 c-25 -15 -25 -15 10 -8 33 6 34 5 15 -10 -19 -15 -19 -16
7 -6 30 10 89 9 82 -2 -5 -8 75 -32 82 -25 10 9 -108 58 -127 52 -11 -4 -25
-2 -32 3 -8 7 -20 6 -37 -4z"/>
<path d="M1778 2423 c7 -3 16 -2 19 1 4 3 -2 6 -13 5 -11 0 -14 -3 -6 -6z"/>
<path d="M534 2403 c41 -22 86 -34 86 -22 0 5 -8 9 -18 9 -10 0 -27 7 -38 15
-10 8 -28 14 -39 14 -16 0 -14 -3 9 -16z"/>
<path d="M1093 2409 c14 -8 22 -8 30 0 8 8 3 11 -18 11 -26 -1 -28 -2 -12 -11z"/>
<path d="M1270 2414 c0 -9 40 -23 44 -15 3 5 -5 11 -19 13 -14 3 -25 4 -25 2z"/>
<path d="M1554 2406 c1 -8 5 -18 8 -22 4 -3 5 1 4 10 -1 8 -5 18 -8 22 -4 3
-5 -1 -4 -10z"/>
<path d="M1811 2410 c-8 -4 -23 -7 -34 -4 -11 2 -17 0 -13 -3 7 -7 79 -33 82
-30 1 1 -3 12 -9 24 -9 15 -16 20 -26 13z"/>
<path d="M1135 2400 c-4 -6 4 -9 17 -7 20 2 22 -2 21 -38 l-2 -40 10 39 c7 30
6 42 -3 48 -18 11 -36 10 -43 -2z"/>
<path d="M526 2385 c12 -9 14 -14 6 -15 -7 0 -10 -4 -7 -10 8 -13 55 -13 55 1
0 5 -4 8 -9 5 -4 -3 -16 3 -26 14 -10 11 -23 20 -28 20 -6 0 -2 -7 9 -15z"/>
<path d="M1748 2378 c3 -13 11 -17 26 -13 11 2 15 2 9 -1 -7 -3 -13 -14 -13
-25 0 -10 -4 -19 -10 -19 -5 0 -9 4 -7 9 2 8 -3 11 -19 11 -3 0 4 -13 16 -30
12 -16 27 -30 33 -30 7 0 3 7 -7 15 -19 15 -19 15 4 15 19 0 21 3 12 12 -7 7
-12 15 -12 19 0 8 47 2 63 -8 6 -3 7 -1 3 6 -4 6 -29 22 -55 35 -45 21 -48 22
-43 4z"/>
<path d="M248 2371 c25 -22 29 -36 6 -27 -9 3 -12 2 -9 -5 4 -6 13 -8 21 -5 7
3 16 1 19 -4 6 -10 165 -93 165 -86 0 3 -25 19 -56 37 -41 23 -52 34 -42 41 8
5 3 6 -15 2 -29 -7 -61 11 -51 28 3 5 -3 12 -15 15 -12 3 -21 9 -21 14 0 5 -6
9 -12 9 -7 -1 -3 -9 10 -19z"/>
<path d="M470 2375 c7 -8 20 -15 29 -15 13 1 13 3 -3 15 -26 19 -42 19 -26 0z"/>
<path d="M850 2380 c0 -5 5 -10 11 -10 5 0 7 5 4 10 -3 6 -8 10 -11 10 -2 0
-4 -4 -4 -10z"/>
<path d="M1210 2386 c0 -2 8 -10 18 -17 15 -13 16 -12 3 4 -13 16 -21 21 -21
13z"/>
<path d="M1606 2373 c-8 -26 -17 -28 -35 -10 -10 10 -11 9 -6 -5 4 -10 13 -18
20 -18 17 0 38 27 33 42 -3 8 -8 4 -12 -9z"/>
<path d="M1255 2371 c4 -8 2 -17 -6 -22 -9 -6 -10 -9 -2 -9 19 0 27 21 13 33
-10 9 -11 9 -5 -2z"/>
<path d="M40 2366 c0 -2 22 -21 50 -42 36 -27 46 -40 37 -47 -8 -6 -6 -7 7 -3
13 5 17 2 13 -8 -4 -9 2 -17 14 -21 10 -4 19 -10 19 -14 0 -13 92 -59 132 -66
21 -4 35 -11 32 -16 -3 -5 5 -9 18 -9 19 0 20 -2 8 -11 -13 -10 -13 -10 1 -6
8 3 26 -1 40 -9 35 -19 45 -17 24 6 -9 10 -20 18 -24 17 -3 -1 -31 10 -61 25
-30 15 -70 32 -89 39 -18 7 -57 36 -86 66 -28 29 -56 53 -62 53 -6 0 -16 7
-23 16 -14 15 -50 38 -50 30z"/>
<path d="M33 2335 c15 -14 32 -25 38 -25 17 0 9 8 -29 29 l-37 22 28 -26z"/>
<path d="M594 2352 c4 -8 0 -12 -10 -12 -13 0 -15 -3 -7 -11 8 -8 17 -8 31 0
10 6 22 8 25 5 3 -3 34 -7 69 -9 50 -3 57 -2 33 5 -16 5 -51 12 -78 14 -26 3
-52 8 -59 12 -7 4 -8 3 -4 -4z"/>
<path d="M1921 2344 c0 -11 3 -14 6 -6 3 7 2 16 -1 19 -3 4 -6 -2 -5 -13z"/>
<path d="M343 2343 c26 -2 47 -8 47 -14 0 -5 -5 -9 -12 -9 -6 0 -9 -2 -6 -5 3
-3 13 -3 22 1 32 12 -3 34 -53 32 l-46 -2 48 -3z"/>
<path d="M490 2345 c0 -3 8 -18 19 -33 10 -15 25 -39 34 -53 10 -16 24 -25 39
-25 12 1 23 -4 23 -11 0 -7 7 -18 15 -25 12 -11 12 -11 1 5 -7 9 -10 17 -6 17
4 0 2 7 -5 15 -7 9 -22 14 -33 13 -11 -2 -22 3 -25 11 -3 8 0 11 6 7 6 -4 8 2
5 14 -8 28 -22 35 -16 8 4 -22 3 -22 -11 2 -21 34 -20 43 4 37 11 -3 20 -2 20
3 0 4 -10 10 -22 14 -29 7 -48 8 -48 1z"/>
<path d="M1617 2343 c-4 -3 -7 -23 -7 -44 0 -32 -3 -37 -20 -34 -11 2 -20 0
-20 -6 0 -14 -38 -11 -43 4 -4 9 -6 9 -6 -1 -2 -23 -28 -41 -67 -46 -22 -2
-45 1 -52 6 -9 8 -11 7 -6 -6 4 -10 1 -16 -7 -16 -7 0 -28 -14 -46 -32 -31
-30 -48 -28 -20 2 6 8 -5 0 -26 -18 -21 -18 -47 -32 -57 -32 -48 0 -7 -29 63
-46 33 -8 60 13 87 67 21 40 45 63 69 64 9 1 29 2 44 3 16 1 26 6 23 11 -8 12
18 21 59 21 19 0 35 -6 38 -14 4 -11 -3 -13 -32 -9 -24 3 -41 1 -46 -6 -5 -9
2 -11 28 -6 21 4 37 3 41 -4 14 -21 22 -11 25 30 1 29 -1 39 -10 33 -9 -5 -11
5 -7 40 6 48 5 50 -5 39z m-217 -160 c0 -14 -42 -77 -59 -90 -34 -26 -40 -11
-6 18 19 17 35 36 35 42 0 6 -15 -3 -33 -21 -23 -23 -42 -32 -62 -31 -28 2
-28 2 -5 6 14 3 30 9 35 15 7 8 6 9 -2 4 -7 -4 -13 -2 -13 4 0 7 6 10 14 7 8
-3 30 7 48 23 33 30 48 37 48 23z"/>
<path d="M1946 2323 c-6 -14 -5 -15 5 -6 7 7 10 15 7 18 -3 3 -9 -2 -12 -12z"/>
<path d="M205 2320 c3 -5 8 -10 11 -10 2 0 4 5 4 10 0 6 -5 10 -11 10 -5 0 -7
-4 -4 -10z"/>
<path d="M1530 2326 c0 -2 7 -7 16 -10 8 -3 12 -2 9 4 -6 10 -25 14 -25 6z"/>
<path d="M265 2300 c17 -11 36 -20 43 -20 18 0 75 -30 69 -37 -3 -2 -15 0 -26
7 -17 9 -21 8 -21 -4 0 -10 6 -13 17 -9 11 5 14 3 8 -6 -6 -10 -3 -11 12 -2
15 7 25 6 43 -6 18 -13 22 -13 18 -2 -2 8 -42 33 -89 56 -90 45 -123 56 -74
23z"/>
<path d="M600 2316 c0 -4 75 -56 100 -69 8 -5 2 3 -15 17 -27 23 -28 26 -10
32 11 5 20 3 23 -4 2 -7 12 -12 23 -12 10 0 38 -17 61 -37 l42 -38 -28 38
c-25 32 -26 37 -10 34 11 -1 30 -10 43 -20 30 -20 37 -16 21 12 -7 13 -22 22
-40 23 -17 0 -36 1 -42 2 -7 0 -29 6 -49 12 -27 9 -40 9 -48 1 -8 -8 -14 -8
-23 1 -11 11 -48 17 -48 8z"/>
<path d="M1838 2312 c-17 -3 -27 -23 -10 -21 19 3 22 -3 11 -22 -9 -17 -8 -20
2 -14 9 6 11 2 6 -14 -4 -18 -3 -20 9 -11 11 10 20 7 42 -12 31 -25 82 -32 90
-10 5 15 -34 16 -44 0 -5 -7 -10 -4 -15 10 -5 12 -15 22 -24 22 -8 0 -15 4
-15 10 0 5 -6 7 -14 4 -7 -3 -16 1 -19 10 -3 8 1 17 9 20 8 3 14 1 14 -3 0 -5
8 -12 17 -15 15 -6 15 -5 -1 13 -10 11 -22 18 -27 16 -4 -3 -9 1 -11 8 -2 7
-11 11 -20 9z"/>
<path d="M2045 2300 c21 -24 26 -25 19 -6 -3 8 -13 17 -22 21 -13 5 -13 2 3
-15z"/>
<path d="M30 2305 c0 -2 10 -10 23 -16 20 -11 21 -11 8 4 -13 16 -31 23 -31
12z"/>
<path d="M1250 2306 c0 -2 7 -7 16 -10 8 -3 12 -2 9 4 -6 10 -25 14 -25 6z"/>
<path d="M1420 2294 l-45 -14 44 5 c42 6 96 26 61 23 -8 0 -35 -7 -60 -14z"/>
<path d="M1915 2299 c-10 -15 3 -25 16 -12 7 7 7 13 1 17 -6 3 -14 1 -17 -5z"/>
<path d="M1656 2269 c3 -44 14 -49 14 -6 0 21 -4 37 -8 37 -5 0 -7 -14 -6 -31z"/>
<path d="M1793 2281 c-10 -16 -9 -20 3 -25 24 -9 29 -7 17 5 -6 6 -9 18 -6 25
7 20 0 17 -14 -5z"/>
<path d="M259 2270 c6 -18 16 -25 35 -26 31 -1 34 11 6 26 -14 7 -20 7 -20 0
0 -5 5 -10 12 -10 6 0 8 -3 4 -7 -4 -4 -16 3 -27 17 l-19 25 9 -25z"/>
<path d="M590 2283 c8 -4 21 -14 30 -25 13 -16 60 -34 60 -23 0 9 -76 55 -90
54 -13 0 -13 -1 0 -6z"/>
<path d="M1470 2275 c-11 -13 -10 -14 4 -9 9 3 16 10 16 15 0 13 -6 11 -20 -6z"/>
<path d="M1943 2272 c-7 -4 -9 -13 -4 -21 6 -9 10 -7 14 8 3 12 4 21 4 21 -1
0 -7 -4 -14 -8z"/>
<path d="M95 2260 c-3 -5 -1 -10 4 -10 6 0 11 5 11 10 0 6 -2 10 -4 10 -3 0
-8 -4 -11 -10z"/>
<path d="M870 2260 c1 -23 33 -75 49 -78 11 -2 10 4 -4 25 -39 61 -45 68 -45
53z"/>
<path d="M1395 2260 c-19 -8 -19 -9 2 -9 12 -1 25 4 28 9 7 12 -2 12 -30 0z"/>
<path d="M1997 2259 c7 -7 15 -10 18 -7 3 3 -2 9 -12 12 -14 6 -15 5 -6 -5z"/>
<path d="M810 2245 c7 -9 15 -13 17 -11 7 7 -7 26 -19 26 -6 0 -6 -6 2 -15z"/>
<path d="M725 2241 c-6 -11 33 -51 49 -51 6 0 -2 11 -19 25 -36 29 -19 34 19
4 14 -11 23 -25 20 -31 -5 -7 -2 -8 6 -3 10 6 5 15 -19 37 -33 30 -46 34 -56
19z"/>
<path d="M1000 2246 c0 -4 12 -30 26 -57 24 -44 105 -117 163 -148 34 -19 24
3 -11 24 -50 29 -118 95 -149 145 -16 25 -29 41 -29 36z"/>
<path d="M1188 2243 c6 -2 18 -2 25 0 6 3 1 5 -13 5 -14 0 -19 -2 -12 -5z"/>
<path d="M1214 2218 l-19 -23 23 19 c12 11 22 21 22 23 0 8 -8 2 -26 -19z"/>
<path d="M275 2220 c3 -6 11 -10 16 -10 10 0 69 -25 133 -56 35 -17 39 -17 31
-4 -4 6 -21 17 -38 24 -31 14 -31 14 -7 16 25 2 25 2 -5 15 -21 9 -34 10 -42
3 -9 -7 -18 -7 -28 2 -8 7 -15 10 -15 6 0 -3 -12 -1 -26 4 -16 7 -23 7 -19 0z
m105 -20 c0 -5 -5 -10 -11 -10 -5 0 -7 5 -4 10 3 6 8 10 11 10 2 0 4 -4 4 -10z"/>
<path d="M847 2216 c-4 -10 -3 -15 3 -11 6 3 7 -1 4 -9 -4 -11 0 -16 10 -16
20 0 20 10 3 34 -13 17 -14 18 -20 2z"/>
<path d="M937 2195 c9 -19 20 -32 24 -29 12 7 60 -7 54 -16 -3 -4 2 -13 10
-20 8 -7 15 -18 15 -24 0 -11 80 -59 87 -52 2 2 -13 16 -33 31 -20 15 -49 48
-65 73 -21 33 -29 40 -30 26 0 -10 -3 -13 -6 -6 -2 6 -9 10 -14 6 -10 -6 -41
21 -33 29 3 2 -2 7 -10 10 -13 5 -13 1 1 -28z"/>
<path d="M2062 2221 c-11 -7 -11 -9 2 -14 10 -4 16 -1 16 8 0 17 -1 17 -18 6z"/>
<path d="M636 2205 c4 -8 16 -14 28 -14 16 1 17 2 4 6 -10 2 -18 9 -18 14 0 5
-4 9 -10 9 -5 0 -7 -7 -4 -15z"/>
<path d="M1653 2200 c1 -11 6 -21 13 -24 7 -3 9 5 6 20 -5 29 -21 32 -19 4z"/>
<path d="M2015 2200 c10 -11 20 -20 22 -20 2 0 -2 9 -9 20 -7 11 -17 20 -22
20 -5 0 -1 -9 9 -20z"/>
<path d="M700 2200 c0 -5 5 -10 10 -10 6 0 10 5 10 10 0 6 -4 10 -10 10 -5 0
-10 -4 -10 -10z"/>
<path d="M1688 2175 c-2 -19 0 -35 4 -35 4 0 8 5 8 10 0 6 5 10 11 10 5 0 7
-4 4 -10 -3 -5 -1 -10 5 -10 7 0 9 -7 6 -16 -4 -9 -1 -23 6 -32 11 -13 10 -15
-9 -10 -13 4 -23 2 -23 -3 0 -4 -7 -6 -15 -3 -10 4 -15 0 -15 -11 0 -9 4 -13
10 -10 6 3 7 -1 4 -9 -3 -9 -2 -16 4 -16 5 0 12 -6 15 -14 5 -11 -3 -14 -38
-11 -36 3 -44 1 -48 -15 -4 -16 -2 -18 13 -10 24 13 77 13 85 0 3 -5 -3 -10
-14 -10 -25 0 -26 -4 -6 -34 14 -21 14 -24 -2 -37 -15 -12 -16 -12 -10 3 7 21
-20 51 -39 44 -8 -3 -14 -1 -14 4 0 6 -8 10 -17 9 -12 0 -13 -2 -5 -6 10 -4
10 -9 -3 -23 -12 -13 -13 -23 -5 -44 12 -33 12 -36 1 -36 -5 0 -14 17 -20 38
l-11 37 5 -47 c4 -40 1 -49 -17 -63 -13 -8 -17 -15 -11 -15 6 0 25 11 42 26
16 14 33 24 36 24 15 -3 14 8 0 20 -8 7 -15 21 -15 31 0 24 33 42 48 27 18
-18 14 -27 -8 -21 -14 4 -20 0 -20 -11 0 -21 29 -33 40 -16 4 7 10 8 14 2 3
-6 32 0 73 14 84 29 87 29 72 2 -11 -21 -11 -22 5 -9 23 19 47 67 38 76 -4 3
-2 5 3 4 6 -2 26 1 44 5 31 8 38 5 59 -20 15 -18 20 -21 13 -8 -18 36 -35 43
-101 41 -51 -2 -68 -7 -86 -24 -30 -30 -54 -30 -28 -2 19 22 19 22 -3 10 -13
-6 -23 -16 -23 -20 0 -17 -39 -19 -52 -3 -11 13 -10 15 5 9 9 -3 17 -2 17 3 0
6 7 10 15 10 8 0 15 5 15 11 0 5 -6 7 -12 3 -8 -4 -10 -3 -5 2 5 5 21 10 35
11 55 5 56 5 38 18 -9 7 -16 22 -16 34 0 11 -4 21 -9 21 -5 0 -7 -10 -4 -21 5
-19 3 -21 -28 -15 -25 5 -30 4 -19 -3 8 -6 26 -11 40 -11 16 0 21 -3 13 -8 -7
-4 -25 -8 -40 -7 -23 0 -28 6 -34 33 -5 26 -4 32 7 28 7 -3 26 2 43 10 28 14
29 16 13 32 -9 10 -19 14 -21 9 -2 -5 3 -14 10 -19 11 -7 9 -8 -6 -6 -14 2
-20 11 -20 31 -1 26 1 27 50 28 l50 2 -62 10 c-35 5 -63 14 -63 18 0 5 5 9 11
9 5 0 7 5 4 10 -14 22 -33 9 -37 -25z m132 -237 c-12 -10 -34 -21 -49 -25 -14
-3 -39 -13 -56 -21 -30 -15 -30 -15 -12 6 10 11 38 25 63 31 24 6 50 20 56 31
8 12 14 16 17 8 2 -6 -6 -20 -19 -30z"/>
<path d="M2095 2185 c1 -15 -3 -25 -11 -25 -21 0 37 -105 68 -124 15 -9 29
-25 33 -35 3 -10 11 -18 18 -17 14 1 17 -5 17 -36 0 -18 -2 -20 -9 -9 -5 8 -7
21 -3 29 3 10 1 13 -6 8 -6 -4 -18 4 -28 19 -9 14 -20 25 -25 25 -5 0 6 -24
25 -52 19 -29 39 -72 45 -96 5 -24 11 -46 14 -48 3 -3 1 -21 -5 -40 -8 -32 -6
-38 36 -88 52 -60 56 -78 24 -100 -12 -9 -19 -19 -15 -22 9 -9 37 16 47 41 8
22 -6 56 -39 94 -12 13 -21 31 -21 40 0 13 -2 14 -9 2 -6 -10 -9 -3 -8 22 0
20 3 34 5 32 10 -9 41 16 36 29 -3 8 -1 17 5 21 6 3 11 1 11 -5 0 -6 5 -8 10
-5 12 7 14 26 3 23 -11 -3 -53 25 -53 35 0 4 5 5 10 2 6 -3 10 -1 10 5 0 7 -6
10 -14 7 -7 -3 -19 0 -25 6 -14 14 -15 50 -1 42 6 -4 5 5 -2 20 -6 14 -17 24
-24 21 -8 -3 -15 7 -19 26 -5 23 -9 27 -16 17 -7 -11 -9 -11 -9 -1 0 7 -4 10
-10 7 -8 -5 -38 48 -45 81 -2 6 -6 22 -9 35 -7 23 -7 23 8 5 9 -11 16 -27 16
-37 0 -9 7 -22 15 -29 12 -10 15 -10 15 0 0 9 7 7 20 -5 27 -25 50 -28 43 -7
-3 10 6 5 21 -11 15 -16 24 -33 20 -38 -3 -6 2 -19 11 -29 16 -17 15 -20 -4
-39 -25 -25 -26 -37 -5 -45 8 -3 12 -2 9 4 -3 6 -2 10 2 10 13 0 63 -81 63
-102 0 -10 3 -18 8 -18 4 0 7 11 7 24 0 13 -4 22 -9 19 -4 -3 -5 4 -1 16 5 15
1 23 -12 28 -32 12 -43 36 -37 75 4 28 0 46 -14 71 -25 40 -78 81 -87 67 -7
-12 -25 -4 -25 11 0 6 5 7 12 3 7 -4 8 -3 4 5 -4 6 -11 9 -16 6 -4 -3 -11 2
-14 11 -3 8 -10 12 -16 9 -5 -3 -10 -2 -10 4 0 6 -9 15 -19 21 -17 8 -19 7
-16 -15z m64 -58 c1 -5 -3 -5 -9 -2 -5 3 -10 16 -9 28 0 21 1 21 9 2 5 -11 9
-24 9 -28z m54 -23 c-4 -12 -8 -13 -14 -3 -9 15 -2 32 11 24 5 -3 6 -13 3 -21z
m49 -226 c16 -24 18 -30 6 -26 -12 5 -14 2 -10 -14 3 -13 1 -19 -5 -15 -6 4
-13 19 -16 34 -3 16 -9 37 -13 47 -10 27 10 13 38 -26z"/>
<path d="M97 2179 c-5 -20 -11 -21 -54 -16 -33 4 -41 3 -26 -3 12 -5 48 -12
80 -15 32 -4 74 -11 94 -16 22 -5 52 -6 75 0 25 6 31 9 16 10 -14 1 -21 5 -16
12 3 6 -6 4 -21 -3 -23 -12 -35 -13 -77 -2 -28 8 -55 11 -59 8 -12 -7 -11 3 1
27 6 11 7 19 2 19 -6 0 -12 -10 -15 -21z"/>
<path d="M130 2189 c0 -5 5 -7 10 -4 6 3 10 8 10 11 0 2 -4 4 -10 4 -5 0 -10
-5 -10 -11z"/>
<path d="M445 2190 c3 -5 14 -10 23 -10 15 0 15 2 2 10 -20 13 -33 13 -25 0z"/>
<path d="M1898 2185 c8 -16 21 -21 54 -22 39 -1 41 0 18 9 -14 6 -31 10 -38 9
-8 -1 -21 4 -29 11 -14 11 -15 11 -5 -7z"/>
<path d="M1150 2186 c0 -2 8 -10 18 -17 15 -13 16 -12 3 4 -13 16 -21 21 -21
13z"/>
<path d="M1487 2176 c-4 -9 -17 -16 -31 -16 -17 0 -36 -14 -60 -44 -20 -23
-36 -46 -36 -50 0 -3 26 -5 58 -4 49 1 51 2 15 5 -24 2 -43 8 -43 13 0 4 17
22 37 40 33 30 38 31 49 16 7 -10 15 -13 18 -7 3 5 0 12 -6 15 -9 3 -8 5 2 4
8 -1 26 4 38 11 36 19 74 24 83 9 7 -10 9 -10 9 0 0 20 -30 26 -74 14 -27 -7
-43 -7 -47 0 -4 5 -9 3 -12 -6z"/>
<path d="M1990 2186 c0 -2 7 -7 16 -10 8 -3 12 -2 9 4 -6 10 -25 14 -25 6z"/>
<path d="M2189 2170 c13 -11 31 -18 38 -16 8 3 11 2 8 -4 -3 -5 6 -17 20 -26
14 -9 33 -30 41 -46 9 -17 17 -28 20 -25 9 8 -27 78 -43 84 -10 4 -28 18 -41
32 -13 14 -21 20 -17 14 8 -16 0 -16 -28 -2 -20 9 -20 8 2 -11z"/>
<path d="M738 2173 c12 -2 20 -9 17 -14 -3 -5 1 -6 10 -2 13 5 14 7 3 14 -7 5
-22 8 -33 7 -17 -1 -17 -1 3 -5z"/>
<path d="M1855 2160 c-16 -18 -17 -22 -3 -37 9 -10 13 -25 10 -33 -4 -12 -2
-13 9 -3 10 10 9 16 -4 31 -19 20 -23 37 -7 27 6 -3 10 -1 10 5 0 6 5 8 11 5
6 -4 8 -13 5 -20 -3 -8 3 -16 12 -19 28 -8 98 -17 84 -10 -10 5 -10 9 0 22 11
13 10 14 -8 4 -16 -9 -26 -8 -42 4 -17 12 -22 12 -23 2 -1 -7 -4 -2 -8 11 -9
32 -23 36 -46 11z"/>
<path d="M475 2150 c10 -11 20 -20 23 -20 3 0 -3 9 -13 20 -10 11 -20 20 -23
20 -3 0 3 -9 13 -20z"/>
<path d="M525 2155 c17 -8 37 -14 45 -14 8 0 2 7 -15 14 -16 8 -37 14 -45 14
-8 0 -1 -7 15 -14z"/>
<path d="M627 2149 c10 -9 34 -20 53 -23 l35 -7 -40 20 -40 19 35 5 c27 3 23
4 -13 4 -45 -1 -47 -2 -30 -18z"/>
<path d="M836 2154 c-4 -10 -4 -15 0 -11 4 4 13 -1 20 -11 18 -23 18 -1 1 22
-13 18 -14 18 -21 0z"/>
<path d="M870 2161 c0 -5 7 -17 16 -25 8 -9 13 -20 9 -26 -3 -6 1 -7 10 -4 10
4 32 -6 58 -26 l42 -33 -31 34 c-17 19 -30 39 -28 45 3 6 -6 19 -18 30 l-23
19 19 -23 c11 -12 16 -25 13 -29 -4 -3 -16 6 -28 20 -20 27 -39 35 -39 18z"/>
<path d="M1580 2160 c-9 -6 -10 -10 -3 -10 6 0 15 5 18 10 8 12 4 12 -15 0z"/>
<path d="M1598 2149 c-21 -11 -38 -21 -38 -22 0 -2 23 1 50 7 29 6 50 15 50
23 0 17 -17 15 -62 -8z"/>
<path d="M2005 2136 c0 -15 5 -22 13 -19 6 3 23 -2 37 -11 17 -11 26 -13 31
-4 4 7 3 8 -4 4 -10 -6 -17 7 -9 17 4 7 -25 37 -36 37 -6 0 -2 -7 9 -15 10 -8
14 -15 7 -15 -6 0 -18 7 -27 15 -19 20 -21 19 -21 -9z"/>
<path d="M966 2138 c5 -7 18 -21 31 -31 13 -10 20 -23 17 -29 -4 -7 -2 -8 4
-4 13 8 3 33 -24 60 -18 19 -38 21 -28 4z"/>
<path d="M1522 2138 c-15 -15 -16 -38 -1 -38 5 0 7 5 4 10 -4 6 -1 17 5 25 15
18 9 20 -8 3z"/>
<path d="M733 2126 c18 -14 18 -14 0 -19 -11 -3 -7 -5 11 -6 28 -1 29 -1 11
19 -10 11 -23 20 -29 20 -6 0 -3 -7 7 -14z"/>
<path d="M1795 2130 c-3 -5 -1 -10 4 -10 6 0 11 5 11 10 0 6 -2 10 -4 10 -3 0
-8 -4 -11 -10z"/>
<path d="M2978 2133 c7 -3 16 -2 19 1 4 3 -2 6 -13 5 -11 0 -14 -3 -6 -6z"/>
<path d="M60 2120 c13 -8 12 -10 -3 -10 -10 0 -16 -4 -13 -9 4 -5 0 -11 -6
-14 -7 -2 -10 -7 -7 -11 4 -4 18 4 30 18 23 23 27 24 74 14 62 -14 63 -15 39
-34 -18 -15 -18 -15 8 -10 17 4 32 1 42 -9 10 -10 17 -12 21 -5 5 8 15 6 31
-4 40 -27 38 -17 -6 19 -23 19 -52 37 -64 40 -124 28 -174 33 -146 15z m166
-41 c19 -22 19 -22 -3 -10 -13 6 -23 16 -23 21 0 15 5 12 26 -11z"/>
<path d="M530 2107 c14 -14 39 -28 55 -30 17 -3 24 -2 18 0 -7 2 -13 9 -13 14
0 5 -10 9 -22 9 -12 0 -31 8 -42 17 -13 11 -12 7 4 -10z"/>
<path d="M600 2120 c0 -5 7 -10 16 -10 8 0 12 5 9 10 -3 6 -10 10 -16 10 -5 0
-9 -4 -9 -10z"/>
<path d="M1595 2105 c-68 -35 -71 -41 -24 -44 23 -1 45 -2 48 -3 3 0 13 0 21
1 13 1 13 3 1 10 -8 5 -30 7 -49 4 -26 -5 -33 -3 -28 6 4 6 13 11 19 10 25 -3
38 1 32 11 -3 6 3 10 14 10 12 0 21 5 21 10 0 13 3 14 -55 -15z"/>
<path d="M1673 2106 c0 -8 8 -11 19 -8 10 2 15 8 12 13 -8 14 -31 11 -31 -5z"/>
<path d="M1810 2100 c-6 -11 -8 -20 -6 -20 3 0 10 9 16 20 6 11 8 20 6 20 -3
0 -10 -9 -16 -20z"/>
<path d="M654 2102 c-20 -6 -19 -9 15 -25 23 -11 29 -12 17 -3 -10 8 -15 19
-11 25 3 6 5 11 3 10 -2 -1 -13 -4 -24 -7z"/>
<path d="M1487 2091 c-4 -17 -3 -21 5 -13 5 5 8 16 6 23 -3 8 -7 3 -11 -10z"/>
<path d="M2941 2084 c-25 -32 -25 -33 -6 -124 14 -66 63 -190 64 -163 1 7 -8
29 -18 50 -11 21 -27 74 -37 119 -16 76 -16 82 0 107 10 14 27 28 39 30 l22 4
-22 2 c-13 0 -30 -10 -42 -25z"/>
<path d="M3 2083 c1 -13 5 -23 9 -23 13 0 9 -38 -4 -42 -7 -3 -6 -7 5 -11 12
-4 17 -1 17 9 0 12 6 15 21 11 12 -3 28 0 35 8 8 7 25 12 39 11 14 -2 25 1 25
7 0 5 -13 7 -30 3 -16 -3 -43 -9 -58 -12 -24 -5 -30 -1 -44 28 -13 26 -16 29
-15 11z"/>
<path d="M120 2085 c-10 -12 -10 -15 3 -15 19 0 31 16 18 24 -5 3 -14 -1 -21
-9z"/>
<path d="M490 2095 c0 -3 23 -16 51 -29 27 -13 50 -27 49 -31 -1 -10 101 -56
114 -52 6 2 -14 15 -44 30 -30 15 -77 40 -105 56 -50 30 -65 36 -65 26z"/>
<path d="M840 2091 c-8 -6 -18 -7 -24 -4 -5 3 -6 1 -2 -5 5 -9 13 -9 27 -1 17
8 24 7 35 -8 14 -17 14 -16 4 5 -12 24 -18 26 -40 13z"/>
<path d="M905 2089 c-4 -6 -5 -12 -2 -15 2 -3 7 2 10 11 7 17 1 20 -8 4z"/>
<path d="M1890 2090 c0 -5 9 -11 20 -15 15 -5 19 -13 16 -36 -4 -36 9 -26 18
13 5 22 2 28 -24 37 -17 5 -30 6 -30 1z"/>
<path d="M2032 2087 c26 -10 26 -11 6 -26 -16 -14 -18 -21 -9 -46 l11 -30 -19
22 c-20 24 -18 62 3 64 6 0 0 5 -13 10 -29 11 -39 4 -47 -37 -4 -21 -1 -34 13
-46 18 -16 143 -61 151 -54 1 2 -14 12 -35 23 -42 22 -72 68 -55 85 7 7 18 5
33 -6 44 -31 55 -16 14 19 -22 19 -49 34 -60 34 -16 -1 -15 -3 7 -12z m-34
-34 c-1 -16 3 -37 7 -48 8 -18 7 -19 -8 -6 -17 13 -23 61 -10 74 11 11 12 8
11 -20z"/>
<path d="M278 2077 c16 -19 77 -41 95 -34 7 3 5 6 -6 6 -16 1 -25 4 -79 33
-21 10 -22 10 -10 -5z"/>
<path d="M375 2079 c-4 -6 -5 -12 -2 -15 2 -3 7 2 10 11 7 17 1 20 -8 4z"/>
<path d="M460 2086 c0 -2 7 -7 16 -10 8 -3 12 -2 9 4 -6 10 -25 14 -25 6z"/>
<path d="M397 2064 c-3 -3 -3 -12 0 -20 4 -11 9 -11 26 -2 12 7 27 11 32 9 6
-1 4 3 -2 10 -10 10 -16 10 -25 1 -15 -15 -32 -16 -23 -2 7 11 2 14 -8 4z"/>
<path d="M1058 2058 c5 -5 16 -8 23 -6 8 3 3 7 -10 11 -17 4 -21 3 -13 -5z"/>
<path d="M1481 2051 c-20 -15 -31 -16 -74 -9 -28 5 -60 7 -71 3 -12 -3 -34 -8
-51 -11 -16 -3 -32 -8 -35 -11 -3 -3 8 -3 23 -1 26 5 27 4 12 -12 -8 -9 -12
-21 -8 -25 5 -5 1 -4 -9 3 -11 9 -18 10 -23 2 -4 -7 -12 -7 -18 -2 -7 4 -32
14 -57 21 -25 7 -56 17 -70 23 -22 8 -23 8 -10 -5 19 -18 94 -47 120 -47 11 0
20 -4 20 -9 0 -11 39 -2 58 12 8 6 35 12 60 13 37 1 166 30 180 39 5 4 -10 35
-17 35 -3 0 -17 -9 -30 -19z m-86 -36 c-34 -16 -71 -19 -79 -7 -3 5 8 9 25 10
17 0 34 3 37 6 3 3 15 6 26 5 17 0 16 -3 -9 -14z"/>
<path d="M2970 2042 c-18 -15 -20 -22 -12 -38 5 -10 15 -30 20 -44 10 -24 11
-23 11 12 1 20 -5 39 -11 42 -9 3 -7 9 6 20 11 9 17 18 14 21 -3 3 -15 -3 -28
-13z"/>
<path d="M630 2046 c0 -2 7 -7 16 -10 8 -3 12 -2 9 4 -6 10 -25 14 -25 6z"/>
<path d="M1855 2040 c-15 -6 -10 -8 18 -8 20 0 37 1 37 3 0 8 -38 11 -55 5z"/>
<path d="M465 2027 c21 -15 65 -28 65 -21 0 6 -65 34 -77 34 -4 0 1 -6 12 -13z"/>
<path d="M885 2030 c3 -5 11 -10 16 -10 6 0 7 5 4 10 -3 6 -11 10 -16 10 -6 0
-7 -4 -4 -10z"/>
<path d="M1541 2021 c-11 -11 -32 -21 -48 -24 -20 -3 -16 -4 15 -6 29 -1 41 3
36 10 -5 8 -1 8 14 0 11 -6 29 -11 39 -10 14 0 15 2 3 6 -8 4 -21 12 -28 20
-16 16 0 18 29 3 12 -7 19 -7 19 -1 0 5 12 12 28 14 15 2 1 5 -30 6 -45 1 -62
-3 -77 -18z"/>
<path d="M2210 2030 c0 -5 5 -10 11 -10 5 0 7 5 4 10 -3 6 -8 10 -11 10 -2 0
-4 -4 -4 -10z"/>
<path d="M107 2012 c3 -7 9 -10 12 -4 4 5 17 4 34 -3 15 -6 24 -15 20 -20 -5
-5 0 -3 10 4 18 14 22 22 10 20 -19 -3 -34 2 -29 9 2 4 -11 8 -29 8 -24 0 -32
-3 -28 -14z"/>
<path d="M215 2021 c14 -14 95 -31 95 -20 0 5 -11 11 -25 14 -14 3 -37 8 -52
11 -19 4 -25 2 -18 -5z"/>
<path d="M355 2010 c-17 -7 -17 -9 -2 -9 9 -1 17 -8 17 -16 0 -11 9 -14 34
-11 19 3 47 1 62 -5 27 -8 26 -9 -9 -5 -26 3 -35 1 -31 -6 5 -8 1 -9 -12 -4
-15 6 -16 4 -7 -5 9 -9 25 -8 70 3 l58 15 -50 11 c-28 6 -62 9 -77 8 -33 -4
-46 21 -15 27 19 4 19 4 2 5 -11 0 -29 -3 -40 -8z"/>
<path d="M426 2011 c10 -10 72 -26 63 -17 -4 4 -21 11 -39 16 -19 5 -29 6 -24
1z"/>
<path d="M1841 2003 c10 -11 54 -11 66 1 7 6 6 7 -44 9 -23 2 -29 -1 -22 -10z"/>
<path d="M50 2006 c0 -2 8 -10 18 -17 15 -13 16 -12 3 4 -13 16 -21 21 -21 13z"/>
<path d="M0 1993 c0 -13 66 -46 82 -40 9 4 5 8 -9 12 -13 4 -23 12 -23 17 0 5
-5 6 -10 3 -6 -4 -17 -1 -25 5 -8 7 -15 8 -15 3z"/>
<path d="M215 1990 c3 -5 1 -10 -5 -10 -6 0 -8 -5 -5 -10 4 -6 11 -8 16 -5 12
8 11 35 -2 35 -5 0 -7 -4 -4 -10z"/>
<path d="M588 1993 c7 -3 16 -2 19 1 4 3 -2 6 -13 5 -11 0 -14 -3 -6 -6z"/>
<path d="M2360 1990 c-8 -5 -10 -10 -5 -10 6 0 17 5 25 10 8 5 11 10 5 10 -5
0 -17 -5 -25 -10z"/>
<path d="M330 1976 c0 -9 5 -16 10 -16 6 0 10 4 10 9 0 6 -4 13 -10 16 -5 3
-10 -1 -10 -9z"/>
<path d="M530 1978 c47 -19 80 -27 80 -18 0 5 -17 14 -37 19 -48 14 -76 13
-43 -1z"/>
<path d="M1417 1984 c-3 -4 -26 -9 -49 -11 -51 -6 -56 -9 -25 -15 12 -2 45 3
72 13 28 10 41 18 29 18 -11 1 -23 -2 -27 -5z"/>
<path d="M2095 1981 c-3 -5 5 -11 17 -13 14 -2 31 -18 45 -43 23 -41 31 -81
13 -70 -6 3 -10 -5 -10 -18 0 -23 -4 -21 -51 24 -51 49 -89 69 -49 27 12 -13
33 -42 47 -66 19 -32 28 -40 34 -30 7 10 11 7 15 -9 9 -31 26 -29 18 1 -3 14
2 40 12 61 17 36 17 39 -1 72 -11 19 -31 43 -46 54 -31 22 -36 23 -44 10z"/>
<path d="M110 1972 c0 -6 18 -13 40 -17 23 -4 37 -11 34 -17 -3 -5 -17 -7 -31
-3 -14 3 -22 2 -19 -3 7 -11 204 -13 211 -2 3 5 0 12 -6 16 -8 5 -9 3 -4 -5 6
-10 -8 -11 -61 -6 -38 4 -71 11 -74 15 -3 4 -17 10 -32 13 -14 4 -33 10 -42
13 -9 3 -16 2 -16 -4z"/>
<path d="M1506 1969 c2 -4 -6 -15 -18 -23 -12 -9 -18 -16 -12 -16 6 0 23 10
37 23 24 20 25 23 8 23 -11 0 -18 -4 -15 -7z"/>
<path d="M1527 1943 c-31 -20 -55 -38 -52 -41 3 -3 19 4 35 17 17 12 35 19 40
16 6 -3 10 -1 10 5 0 7 6 10 13 7 8 -3 14 3 14 14 1 10 1 19 0 19 -1 0 -28
-16 -60 -37z"/>
<path d="M1418 1953 c7 -3 16 -2 19 1 4 3 -2 6 -13 5 -11 0 -14 -3 -6 -6z"/>
<path d="M5 1940 c6 -8 10 -19 10 -24 0 -5 10 -13 23 -17 15 -6 21 -5 17 1 -3
6 -13 10 -21 10 -8 0 -13 4 -10 9 3 5 -2 15 -11 22 -15 12 -16 12 -8 -1z"/>
<path d="M495 1941 c-3 -5 0 -13 6 -17 8 -4 9 -3 5 4 -4 7 -1 12 9 12 9 0 14
-4 11 -9 -3 -4 7 -6 22 -4 24 3 25 2 7 -7 -16 -8 -14 -9 13 -5 67 10 92 17 97
25 3 5 -11 4 -31 -2 -25 -7 -50 -6 -80 1 -52 13 -51 13 -59 2z"/>
<path d="M685 1940 c-3 -5 1 -10 10 -10 9 0 13 5 10 10 -3 6 -8 10 -10 10 -2
0 -7 -4 -10 -10z"/>
<path d="M56 1918 c3 -4 24 -13 47 -19 23 -6 61 -24 85 -40 29 -20 48 -27 58
-21 13 7 13 10 1 21 -8 6 -28 13 -43 16 -38 5 -108 42 -92 47 7 3 -3 4 -24 4
-20 -1 -34 -4 -32 -8z m184 -70 c0 -5 -9 -4 -20 2 -11 6 -20 12 -20 14 0 2 9
2 20 -1 11 -3 20 -9 20 -15z"/>
<path d="M360 1919 c0 -5 5 -7 10 -4 6 3 10 8 10 11 0 2 -4 4 -10 4 -5 0 -10
-5 -10 -11z"/>
<path d="M417 1917 c4 -6 0 -8 -10 -4 -11 4 -17 1 -17 -7 0 -7 12 -14 28 -14
25 -2 159 -61 138 -62 -5 0 1 -11 14 -24 l23 -25 -28 -7 c-33 -8 -159 12 -197
31 -30 15 -36 11 -15 -10 8 -7 46 -18 85 -24 84 -13 217 -14 187 -1 -11 4 -31
20 -45 35 l-25 28 25 -7 c14 -4 36 -9 50 -10 14 -2 38 -7 54 -11 21 -6 27 -5
22 4 -5 7 6 11 35 11 27 0 39 4 34 9 -6 6 -28 6 -55 1 -25 -4 -61 -7 -80 -5
-19 2 -39 4 -43 4 -5 1 -6 5 -2 10 3 5 0 13 -6 17 -8 5 -9 3 -4 -6 6 -10 4
-11 -11 -5 -10 4 -37 14 -59 22 -54 20 -71 38 -26 29 18 -3 42 -6 53 -6 12 0
16 -4 12 -12 -4 -7 -3 -8 5 -4 16 11 4 26 -22 26 -12 0 -46 7 -75 14 -33 9
-50 10 -45 3z m36 -14 c-7 -2 -19 -2 -25 0 -7 3 -2 5 12 5 14 0 19 -2 13 -5z"/>
<path d="M2085 1920 c-3 -5 3 -10 15 -10 12 0 18 5 15 10 -3 6 -10 10 -15 10
-5 0 -12 -4 -15 -10z"/>
<path d="M184 1909 c-3 -5 -2 -9 3 -9 4 0 19 -3 32 -7 16 -4 22 -2 18 4 -9 15
-46 23 -53 12z"/>
<path d="M255 1900 c-3 -5 -1 -10 4 -10 6 0 11 5 11 10 0 6 -2 10 -4 10 -3 0
-8 -4 -11 -10z"/>
<path d="M610 1903 c0 -5 11 -8 24 -8 13 0 22 3 19 8 -2 4 -13 7 -24 7 -10 0
-19 -3 -19 -7z"/>
<path d="M693 1903 c9 -2 25 -2 35 0 9 3 1 5 -18 5 -19 0 -27 -2 -17 -5z"/>
<path d="M583 1885 c0 -8 3 -13 5 -10 3 3 14 -3 24 -12 17 -15 20 -15 35 0 15
15 15 16 -6 10 -13 -3 -29 1 -40 11 -15 14 -18 14 -18 1z"/>
<path d="M1786 1885 c-10 -7 -15 -18 -11 -24 3 -6 -1 -11 -10 -11 -9 0 -29 -8
-43 -19 -27 -18 -66 -25 -56 -9 3 4 12 8 19 8 8 0 19 9 25 20 9 16 8 18 -5 14
-8 -4 -15 -11 -15 -16 0 -6 -8 -4 -17 3 -10 7 -15 9 -10 4 4 -4 -1 -18 -12
-29 -10 -12 -27 -34 -37 -51 l-18 -30 25 23 c14 12 29 19 32 15 4 -3 7 -1 7 5
0 7 7 12 16 12 14 0 14 -1 0 -16 -9 -8 -20 -12 -26 -9 -18 11 -11 -8 11 -32
26 -26 19 -40 -40 -74 -45 -28 -80 -58 -93 -83 -8 -14 -7 -17 3 -11 9 6 11 2
7 -12 -3 -12 -1 -27 4 -34 8 -11 9 -11 5 1 -2 8 3 21 11 29 13 13 12 16 -3 21
-19 7 -5 20 71 71 11 8 36 27 54 43 l34 28 -23 19 -23 19 21 26 c12 15 21 21
21 15 0 -8 8 -10 19 -6 17 5 19 2 14 -37 -3 -24 -12 -61 -19 -83 -8 -23 -14
-83 -14 -140 l0 -100 40 -49 c41 -50 47 -75 29 -123 -10 -27 -9 -27 8 -11 12
12 17 32 17 63 -1 39 2 45 19 45 25 0 18 9 -11 15 -20 4 -67 43 -67 57 0 4 -4
11 -10 17 -14 14 -7 193 7 185 6 -4 8 -2 4 4 -3 6 -2 13 3 16 5 3 7 22 4 42
-3 21 -1 34 4 31 6 -4 7 12 3 38 -6 39 -4 47 19 70 15 13 27 34 28 45 2 23 3
23 -21 5z"/>
<path d="M0 1882 c0 -4 9 -13 20 -20 22 -13 17 -37 -6 -28 -8 3 -11 0 -8 -8
10 -27 134 -69 134 -46 0 10 -15 14 -33 11 -14 -2 -77 22 -77 30 0 9 90 -1
112 -12 9 -5 23 -9 30 -9 7 1 -6 10 -30 21 -25 12 -40 24 -36 31 4 6 1 9 -7 6
-8 -3 -13 -11 -12 -17 2 -6 -6 -11 -17 -11 -11 0 -20 5 -20 10 0 10 -36 50
-45 50 -3 0 -5 -3 -5 -8z"/>
<path d="M284 1882 c6 -10 62 -19 139 -25 16 -1 33 -7 39 -14 6 -7 15 -13 20
-13 5 0 2 8 -7 17 -10 9 -40 20 -69 24 -28 4 -69 10 -90 14 -27 5 -37 4 -32
-3z"/>
<path d="M761 1874 c0 -11 3 -14 6 -6 3 7 2 16 -1 19 -3 4 -6 -2 -5 -13z"/>
<path d="M670 1876 c0 -2 9 -6 20 -9 11 -3 18 -1 14 4 -5 9 -34 13 -34 5z"/>
<path d="M130 1860 c8 -5 20 -10 25 -10 6 0 3 5 -5 10 -8 5 -19 10 -25 10 -5
0 -3 -5 5 -10z"/>
<path d="M1860 1866 c0 -2 8 -10 18 -17 15 -13 16 -12 3 4 -13 16 -21 21 -21
13z"/>
<path d="M2010 1866 c0 -2 7 -9 15 -16 9 -7 15 -8 15 -2 0 5 -7 12 -15 16 -8
3 -15 4 -15 2z"/>
<path d="M170 1846 c0 -2 7 -7 16 -10 8 -3 12 -2 9 4 -6 10 -25 14 -25 6z"/>
<path d="M317 1840 c15 -14 73 -22 73 -10 0 6 -4 8 -10 5 -5 -3 -10 -3 -10 2
0 4 -14 8 -31 9 -16 1 -27 -2 -22 -6z"/>
<path d="M278 1833 c7 -3 16 -2 19 1 4 3 -2 6 -13 5 -11 0 -14 -3 -6 -6z"/>
<path d="M413 1833 c9 -2 23 -2 30 0 6 3 -1 5 -18 5 -16 0 -22 -2 -12 -5z"/>
<path d="M2311 1813 c-10 -26 -10 -27 4 -9 8 11 15 23 15 28 0 15 -7 8 -19
-19z"/>
<path d="M260 1811 c0 -10 60 -24 68 -16 8 8 0 12 -35 18 -18 4 -33 3 -33 -2z"/>
<path d="M435 1810 c11 -5 29 -9 40 -9 17 -1 17 1 5 9 -8 5 -26 9 -40 9 -23 0
-23 -1 -5 -9z"/>
<path d="M544 1801 c4 -5 0 -12 -6 -14 -7 -3 -2 -6 11 -6 20 -1 21 1 11 14
-14 16 -25 21 -16 6z"/>
<path d="M1596 1803 c-3 -4 -12 -8 -19 -9 -7 -1 -20 -5 -29 -9 -10 -4 -18 -3
-18 3 0 6 -9 8 -19 5 -19 -5 -19 -33 1 -33 5 0 7 4 4 9 -3 5 4 9 17 9 12 0 31
2 42 5 11 3 26 6 33 6 6 1 12 6 12 11 0 12 -13 13 -24 3z"/>
<path d="M768 1793 c7 -3 16 -2 19 1 4 3 -2 6 -13 5 -11 0 -14 -3 -6 -6z"/>
<path d="M175 1780 c-3 -5 -1 -10 4 -10 6 0 11 5 11 10 0 6 -2 10 -4 10 -3 0
-8 -4 -11 -10z"/>
<path d="M31 1771 c-7 -5 -11 -15 -9 -22 3 -10 8 -7 17 9 13 24 12 26 -8 13z"/>
<path d="M196 1765 c-11 -8 -29 -13 -40 -10 -12 3 -16 2 -10 -1 7 -3 11 -13 9
-22 -1 -9 0 -12 2 -5 2 6 17 17 34 23 16 7 29 16 29 21 0 12 -1 11 -24 -6z"/>
<path d="M257 1759 c4 -4 24 -4 43 1 l35 8 -43 -1 c-23 0 -39 -4 -35 -8z"/>
<path d="M2028 1763 c7 -3 16 -2 19 1 4 3 -2 6 -13 5 -11 0 -14 -3 -6 -6z"/>
<path d="M105 1750 c-3 -5 -1 -10 4 -10 6 0 11 5 11 10 0 6 -2 10 -4 10 -3 0
-8 -4 -11 -10z"/>
<path d="M353 1753 c9 -2 25 -2 35 0 9 3 1 5 -18 5 -19 0 -27 -2 -17 -5z"/>
<path d="M410 1749 c0 -5 5 -7 10 -4 6 3 10 8 10 11 0 2 -4 4 -10 4 -5 0 -10
-5 -10 -11z"/>
<path d="M1470 1750 c-9 -6 -10 -10 -3 -10 6 0 15 5 18 10 8 12 4 12 -15 0z"/>
<path d="M1522 1749 c-18 -5 -30 -14 -27 -20 4 -5 12 -6 18 -2 7 4 17 8 22 9
6 1 21 7 35 12 21 9 22 11 5 10 -11 0 -35 -4 -53 -9z"/>
<path d="M33 1732 c-17 -5 -20 -11 -13 -22 7 -11 10 -11 10 -2 0 7 4 11 9 8 5
-3 11 1 15 9 3 8 4 15 3 14 -1 -1 -12 -4 -24 -7z"/>
<path d="M295 1730 c3 -5 8 -10 11 -10 2 0 4 5 4 10 0 6 -5 10 -11 10 -5 0 -7
-4 -4 -10z"/>
<path d="M495 1728 c-4 -9 -26 -13 -73 -12 -85 1 -163 -6 -158 -15 2 -3 63 -4
136 -1 72 3 139 2 148 -1 9 -4 21 -4 27 -1 5 4 -1 10 -15 14 -15 4 -7 5 19 2
24 -4 59 -13 77 -20 18 -8 44 -14 56 -13 16 0 12 4 -15 12 -23 7 -35 16 -30
21 4 5 3 6 -4 3 -6 -4 -13 -3 -15 2 -1 6 -36 13 -76 16 -55 5 -73 3 -77 -7z"/>
<path d="M70 1721 c0 -5 7 -12 16 -15 14 -5 15 -4 4 9 -14 17 -20 19 -20 6z"/>
<path d="M180 1719 c0 -5 5 -7 10 -4 6 3 10 8 10 11 0 2 -4 4 -10 4 -5 0 -10
-5 -10 -11z"/>
<path d="M1450 1704 c-25 -13 -25 -14 -2 -14 12 0 22 6 22 13 0 8 3 8 9 -2 8
-12 14 -12 33 -3 13 7 16 11 8 9 -8 -3 -22 -1 -30 3 -8 4 -26 1 -40 -6z"/>
<path d="M2506 1682 c-22 -27 -24 -32 -7 -17 20 17 47 55 39 55 -2 0 -16 -17
-32 -38z"/>
<path d="M226 1695 c-3 -8 -1 -15 4 -15 13 0 22 18 11 24 -5 3 -11 -1 -15 -9z"/>
<path d="M163 1693 c-7 -3 -13 -9 -13 -14 0 -6 5 -7 10 -4 6 4 22 0 35 -9 27
-18 45 -21 45 -7 0 5 -8 8 -17 7 -11 0 -17 5 -15 13 2 8 -3 11 -12 8 -8 -3
-16 -2 -18 2 -2 4 -9 6 -15 4z"/>
<path d="M537 1680 c-59 -11 -51 -15 34 -16 77 0 78 0 42 13 -21 7 -38 12 -38
12 0 -1 -17 -5 -38 -9z"/>
<path d="M2220 1677 c0 -10 8 -17 18 -17 9 0 13 4 7 8 -5 4 -13 11 -17 16 -5
5 -8 2 -8 -7z"/>
<path d="M350 1671 c0 -6 4 -13 10 -16 6 -3 7 1 4 9 -7 18 -14 21 -14 7z"/>
<path d="M753 1673 c9 -2 25 -2 35 0 9 3 1 5 -18 5 -19 0 -27 -2 -17 -5z"/>
<path d="M2176 1648 c-3 -14 0 -29 9 -37 12 -12 14 -9 12 22 -2 42 -12 48 -21
15z"/>
<path d="M285 1640 c10 -11 20 -18 23 -15 7 6 -18 35 -31 35 -5 0 -2 -9 8 -20z"/>
<path d="M180 1639 c0 -5 9 -9 20 -9 11 0 20 2 20 4 0 2 -9 6 -20 9 -11 3 -20
1 -20 -4z"/>
<path d="M236 1641 c-3 -5 1 -12 10 -15 20 -8 29 -1 19 13 -8 13 -22 14 -29 2z"/>
<path d="M416 1634 c-49 -13 -82 -32 -36 -21 14 4 32 7 41 7 8 0 24 7 35 15
10 8 17 14 14 13 -3 0 -27 -6 -54 -14z"/>
<path d="M620 1641 c-33 -4 -40 -8 -27 -14 11 -4 23 -4 29 -1 5 3 51 9 101 14
l92 7 -75 0 c-41 0 -95 -3 -120 -6z"/>
<path d="M2260 1640 c0 -5 -11 -10 -25 -10 -14 0 -25 -4 -25 -10 0 -5 7 -10
15 -10 11 0 14 -7 9 -25 -3 -14 -3 -33 0 -42 6 -15 8 -15 16 -3 5 8 7 23 4 32
-3 9 2 21 12 26 12 7 13 11 5 17 -9 5 -9 10 0 21 8 10 8 14 0 14 -6 0 -11 -4
-11 -10z"/>
<path d="M2413 1627 c-36 -39 -38 -53 -3 -20 18 18 31 35 28 38 -2 3 -14 -5
-25 -18z"/>
<path d="M482 1631 c-11 -7 -10 -10 3 -15 24 -9 27 -8 19 6 -5 7 -1 9 12 6 10
-3 25 -7 33 -9 7 -2 15 1 18 7 4 13 -66 17 -85 5z"/>
<path d="M2410 1583 l-45 -47 50 44 c28 24 52 45 54 47 2 2 0 3 -5 3 -6 0 -30
-21 -54 -47z"/>
<path d="M60 1610 c-9 -6 -10 -10 -3 -10 6 0 15 5 18 10 8 12 4 12 -15 0z"/>
<path d="M115 1600 c-10 -11 -26 -22 -36 -25 -11 -4 -19 -11 -19 -16 0 -5 11
-3 24 6 13 8 32 13 42 9 16 -5 16 -4 4 5 -13 10 -13 13 4 26 11 8 15 15 9 15
-5 0 -18 -9 -28 -20z"/>
<path d="M210 1611 c14 -5 43 -20 64 -35 43 -29 72 -36 35 -8 -49 37 -79 52
-101 51 -22 -1 -22 -1 2 -8z"/>
<path d="M6 1595 c-3 -8 -1 -15 4 -15 6 0 10 7 10 15 0 8 -2 15 -4 15 -2 0 -6
-7 -10 -15z"/>
<path d="M737 1604 c-3 -4 -49 -7 -101 -8 -53 -2 -99 -6 -103 -10 -5 -5 31 -6
80 -5 48 2 87 3 87 2 0 -2 -31 -18 -69 -38 l-69 -34 -61 24 c-33 14 -67 25
-76 25 -8 0 -15 3 -15 8 0 4 -14 8 -32 9 -17 1 -34 7 -38 12 -3 6 -11 6 -20 1
-11 -7 -6 -13 24 -25 21 -9 40 -14 43 -11 2 2 23 -4 46 -15 23 -10 50 -19 60
-19 10 0 32 -6 50 -13 18 -8 37 -15 42 -16 6 -2 19 -8 30 -13 15 -8 17 -8 9 1
-6 7 -20 14 -30 16 -11 2 -21 4 -23 4 -2 1 39 24 93 51 102 52 135 60 156 35
7 -8 17 -15 23 -15 5 0 -2 9 -16 20 -24 19 -77 27 -90 14z"/>
<path d="M195 1590 c3 -4 16 -10 30 -12 13 -3 22 -2 20 2 -3 4 -16 10 -30 12
-13 3 -22 2 -20 -2z"/>
<path d="M1809 1580 c-8 -22 34 -58 57 -49 17 7 17 8 -4 8 -13 1 -20 5 -17 11
3 6 -1 10 -9 10 -8 0 -16 8 -18 18 -3 14 -5 14 -9 2z"/>
<path d="M2286 1550 c-21 -23 -37 -42 -35 -44 8 -8 81 62 78 73 -2 6 -21 -6
-43 -29z"/>
<path d="M761 1540 c-24 -22 -39 -29 -55 -25 -16 5 -18 4 -6 -4 16 -11 15 -12
-15 -30 -18 -11 -18 -11 5 -5 14 3 43 23 65 44 22 21 47 40 55 43 13 5 13 6 0
6 -9 1 -30 -13 -49 -29z"/>
<path d="M127 1540 c3 -11 7 -20 9 -20 2 0 4 9 4 20 0 11 -4 20 -9 20 -5 0 -7
-9 -4 -20z"/>
<path d="M1487 1500 c-16 -33 -26 -66 -24 -73 3 -7 6 -4 6 6 1 11 10 31 20 46
18 25 38 81 30 81 -2 0 -17 -27 -32 -60z"/>
<path d="M2449 1528 c-22 -23 -24 -28 -11 -33 9 -3 13 -3 9 1 -4 4 3 18 15 31
12 12 20 24 17 26 -2 1 -16 -10 -30 -25z"/>
<path d="M25 1537 c-22 -25 -23 -33 -3 -34 13 -1 18 3 15 11 -3 8 0 19 6 25 6
6 7 11 1 11 -5 -1 -14 -6 -19 -13z"/>
<path d="M260 1546 c0 -3 9 -10 20 -16 11 -6 20 -8 20 -6 0 3 -9 10 -20 16
-11 6 -20 8 -20 6z"/>
<path d="M2120 1538 c0 -4 15 -14 34 -22 19 -8 38 -22 43 -31 9 -15 11 -15 22
-1 23 27 -6 58 -57 60 -23 1 -42 -1 -42 -6z"/>
<path d="M2310 1523 c-27 -19 -30 -23 -11 -18 16 5 21 4 17 -4 -5 -7 -1 -8 9
-4 13 4 14 8 4 14 -10 6 -7 10 10 17 14 5 20 11 15 14 -5 3 -25 -5 -44 -19z"/>
<path d="M2549 1533 c-13 -16 -12 -17 4 -4 9 7 17 15 17 17 0 8 -8 3 -21 -13z"/>
<path d="M320 1530 c-13 -9 -13 -11 0 -20 8 -5 22 -9 30 -9 10 1 9 3 -3 6 -11
3 -16 11 -13 19 6 17 6 17 -14 4z"/>
<path d="M370 1530 c8 -5 20 -10 25 -10 6 0 3 5 -5 10 -8 5 -19 10 -25 10 -5
0 -3 -5 5 -10z"/>
<path d="M2096 1523 c-6 -14 -5 -15 5 -6 7 7 10 15 7 18 -3 3 -9 -2 -12 -12z"/>
<path d="M144 1513 c-19 -7 -46 -21 -60 -32 -14 -11 -38 -23 -54 -26 -17 -4
-30 -11 -30 -16 0 -6 8 -6 19 1 30 16 36 12 16 -10 -10 -11 -15 -20 -10 -20 4
0 16 11 26 24 22 28 86 46 160 46 37 0 50 3 43 10 -8 8 -30 8 -75 1 -79 -13
-91 -13 -59 1 14 7 54 14 90 18 l65 6 -48 4 c-26 3 -63 0 -83 -7z"/>
<path d="M416 1522 c12 -11 64 -33 64 -27 0 5 -56 35 -67 35 -4 0 -3 -4 3 -8z"/>
<path d="M1445 1509 c-6 -8 -4 -10 5 -4 9 5 10 1 6 -16 -6 -21 -6 -22 5 -6 7
13 8 22 1 29 -6 6 -12 6 -17 -3z"/>
<path d="M1513 1490 c-6 -16 -7 -30 -3 -30 5 0 5 -13 0 -30 -10 -33 -6 -37 16
-16 17 17 19 46 3 46 -8 0 -8 4 -1 13 5 6 7 20 3 30 -5 14 -8 12 -18 -13z"/>
<path d="M1860 1510 c0 -5 5 -10 11 -10 5 0 7 5 4 10 -3 6 -8 10 -11 10 -2 0
-4 -4 -4 -10z"/>
<path d="M2501 1496 c-38 -40 -163 -98 -212 -98 -72 -1 -89 1 -89 12 0 7 17 8
44 5 46 -7 121 8 132 26 11 18 0 18 -36 0 -25 -12 -48 -15 -80 -10 -25 4 -48
5 -52 2 -5 -2 -8 2 -8 10 0 8 -7 18 -16 21 -22 8 -21 9 -27 -15 -8 -30 42
-107 62 -95 5 4 -4 19 -20 35 -29 29 -39 61 -19 61 6 0 10 -11 10 -25 0 -25
32 -47 70 -48 32 -1 96 16 120 31 14 10 42 25 62 36 32 16 100 76 87 76 -3 0
-16 -11 -28 -24z"/>
<path d="M1890 1500 c0 -5 5 -10 11 -10 5 0 7 5 4 10 -3 6 -8 10 -11 10 -2 0
-4 -4 -4 -10z"/>
<path d="M1122 1491 c-10 -6 -10 -10 3 -21 13 -11 14 -10 8 6 -6 17 -5 18 13
4 18 -14 18 -14 5 3 -7 9 -14 17 -15 17 0 0 -7 -4 -14 -9z"/>
<path d="M2477 1435 c-61 -68 -124 -109 -152 -99 -10 4 -12 10 -6 18 7 8 4 12
-9 12 -10 0 -18 -5 -17 -11 1 -5 -7 -8 -18 -6 -39 7 -48 6 -53 -8 -4 -11 5
-13 42 -9 48 6 62 -7 24 -21 -19 -7 -15 -9 25 -15 26 -4 57 -4 70 0 20 7 18 9
-13 14 l-35 6 38 18 c40 20 111 85 147 136 33 46 20 36 -43 -35z"/>
<path d="M1411 1455 c-14 -25 -17 -35 -7 -35 7 0 17 16 23 35 6 19 10 35 8 35
-2 0 -12 -16 -24 -35z"/>
<path d="M2273 1477 c-3 -6 -1 -7 5 -3 6 3 13 2 17 -4 9 -14 48 -12 69 3 16
11 11 13 -34 13 -28 0 -54 -4 -57 -9z"/>
<path d="M8 1473 c7 -3 16 -2 19 1 4 3 -2 6 -13 5 -11 0 -14 -3 -6 -6z"/>
<path d="M1918 1473 c6 -2 12 -11 12 -19 0 -9 4 -12 10 -9 5 3 15 -4 21 -17 5
-13 35 -36 64 -52 30 -16 52 -32 49 -37 -3 -5 -2 -9 3 -8 4 1 21 -1 36 -6 22
-6 26 -11 21 -29 -6 -18 -5 -19 9 -7 23 19 17 33 -23 54 -84 44 -107 59 -147
97 -24 22 -48 40 -55 39 -10 0 -10 -2 0 -6z"/>
<path d="M167 1456 c4 -5 -1 -7 -9 -3 -9 3 -24 -3 -34 -14 -10 -11 -23 -18
-30 -15 -8 3 -11 -1 -8 -9 6 -16 -36 -31 -61 -22 -8 4 -17 2 -20 -4 -4 -5 -3
-9 2 -8 4 1 17 1 27 0 17 -1 15 -5 -10 -28 -25 -23 -26 -24 -4 -11 14 8 41 14
60 13 23 -2 25 -1 7 2 l-27 4 27 30 c29 30 49 39 38 17 -4 -7 0 -5 8 4 8 10
18 14 22 10 5 -4 4 -1 0 7 -6 11 -4 13 11 7 10 -4 15 -4 11 0 -4 4 0 12 9 18
13 10 13 12 -5 12 -11 0 -17 -5 -14 -10z"/>
<path d="M2247 1463 c-8 -12 30 -29 40 -19 4 3 -1 6 -9 6 -9 0 -18 5 -20 12
-3 9 -6 9 -11 1z"/>
<path d="M1102 1439 c-15 -23 -15 -32 -1 -27 6 2 10 7 9 12 -1 5 4 12 10 16 7
4 8 10 3 13 -5 3 -14 -3 -21 -14z"/>
<path d="M218 1443 c7 -3 16 -2 19 1 4 3 -2 6 -13 5 -11 0 -14 -3 -6 -6z"/>
<path d="M295 1439 c-17 -6 -16 -8 7 -8 15 -1 29 3 32 7 6 11 -14 11 -39 1z"/>
<path d="M1135 1423 l-17 -28 23 22 c12 12 20 25 17 28 -3 3 -13 -7 -23 -22z"/>
<path d="M363 1433 c9 -2 23 -2 30 0 6 3 -1 5 -18 5 -16 0 -22 -2 -12 -5z"/>
<path d="M1060 1419 c0 -5 5 -7 10 -4 6 3 10 8 10 11 0 2 -4 4 -10 4 -5 0 -10
-5 -10 -11z"/>
<path d="M1444 1377 c0 -29 -3 -64 -7 -80 -6 -23 -3 -29 18 -39 19 -8 22 -14
14 -24 -8 -10 -7 -17 4 -29 23 -23 40 -19 31 8 -4 12 -7 29 -8 37 -1 21 -27
39 -46 32 -12 -5 -13 -3 -3 10 7 8 10 18 6 21 -3 4 -1 7 5 7 8 0 10 14 6 43
-9 64 -19 72 -20 14z"/>
<path d="M415 1413 c-11 -2 -37 -11 -58 -19 -21 -8 -43 -12 -48 -9 -5 4 -9 1
-9 -4 0 -16 27 -13 88 8 70 24 84 37 27 24z"/>
<path d="M1381 1386 c8 -17 8 -29 0 -42 -6 -11 -11 -14 -11 -7 0 7 -7 10 -17
7 -17 -5 -17 -5 0 9 9 8 17 20 17 28 0 8 -5 6 -14 -6 -13 -18 -14 -18 -25 4
-20 36 -24 17 -5 -22 10 -20 21 -34 26 -31 5 3 15 0 23 -6 12 -10 15 -9 16 6
0 18 1 18 9 -1 7 -14 8 -8 4 20 -7 54 -12 65 -23 65 -7 0 -7 -8 0 -24z"/>
<path d="M1472 1390 c0 -14 2 -19 5 -12 2 6 2 18 0 25 -3 6 -5 1 -5 -13z"/>
<path d="M138 1389 c-5 -4 12 -6 39 -6 26 0 64 -3 83 -6 l35 -7 -39 15 c-37
14 -97 16 -118 4z"/>
<path d="M465 1385 c-16 -8 -46 -14 -65 -15 -27 0 -31 -3 -19 -10 19 -11 75 2
104 25 24 18 19 18 -20 0z"/>
<path d="M540 1390 c-9 -6 -10 -10 -3 -10 6 0 15 5 18 10 8 12 4 12 -15 0z"/>
<path d="M1292 1368 c6 -18 15 -38 20 -44 8 -11 -25 -64 -40 -64 -4 0 -20 11
-36 25 -42 36 -45 31 -6 -10 43 -44 28 -46 -19 -2 -18 17 -31 27 -27 20 4 -7
-2 -17 -13 -22 -26 -14 -34 -14 -25 2 5 8 2 8 -9 -2 -14 -11 -17 -11 -18 0 0
8 -5 4 -11 -8 -20 -42 -26 -24 -12 35 22 94 14 104 -10 12 -12 -47 -26 -92
-31 -99 -6 -11 -2 -10 14 2 13 8 30 13 37 10 8 -3 14 1 14 9 0 8 6 15 13 15 8
0 12 -10 9 -27 -3 -22 2 -29 30 -43 18 -9 27 -17 21 -17 -18 0 -16 -17 2 -24
8 -3 14 0 12 5 -1 6 21 27 48 47 28 19 54 41 58 49 5 7 18 22 29 33 16 15 25
17 42 9 17 -8 16 -6 -4 10 -30 24 -41 27 -34 6 4 -10 0 -15 -10 -15 -9 0 -19
-7 -22 -15 -4 -8 -13 -15 -22 -15 -12 0 -9 7 11 28 l28 29 -20 46 c-23 54 -35
63 -19 15z m-96 -96 c-3 -5 6 -15 20 -22 16 -9 23 -19 19 -29 -4 -11 -1 -11
14 3 11 10 28 16 38 13 17 -4 17 -4 -2 -12 -11 -4 -34 -19 -52 -31 -28 -21
-33 -22 -47 -9 -8 8 -19 15 -25 15 -26 0 -8 18 24 24 20 4 33 11 30 17 -4 6
-13 5 -25 -1 -26 -14 -37 7 -14 25 22 17 27 18 20 7z"/>
<path d="M1810 1396 c0 -2 9 -6 20 -9 11 -3 18 -1 14 4 -5 9 -34 13 -34 5z"/>
<path d="M1496 1382 c-3 -5 -4 -27 -3 -50 1 -30 6 -42 20 -46 15 -3 16 -2 7
10 -7 7 -10 32 -8 54 3 37 -4 51 -16 32z"/>
<path d="M2550 1344 c-52 -24 -105 -44 -116 -44 -12 0 -27 -7 -34 -15 -7 -9
-29 -15 -50 -15 -21 0 -40 -4 -42 -8 -1 -4 -23 -4 -47 1 -29 6 -40 12 -31 17
8 5 4 8 -13 7 -15 -1 -27 -4 -27 -7 1 -3 27 -18 59 -34 42 -21 66 -27 86 -22
17 4 24 3 20 -4 -10 -16 11 -12 25 5 10 12 9 15 -6 15 -12 0 -15 3 -8 10 10
10 23 11 105 10 25 0 56 3 70 9 17 7 2 8 -50 4 -55 -5 -72 -3 -67 5 4 7 16 12
27 12 19 0 199 86 199 95 0 3 -1 5 -2 4 -2 -1 -46 -21 -98 -45z m-200 -94 c0
-5 -5 -10 -11 -10 -5 0 -7 5 -4 10 3 6 8 10 11 10 2 0 4 -4 4 -10z"/>
<path d="M490 1370 c-9 -6 -10 -10 -3 -10 6 0 15 5 18 10 8 12 4 12 -15 0z"/>
<path d="M837 1360 c9 -11 19 -17 21 -15 6 6 -18 35 -29 35 -5 0 -1 -9 8 -20z"/>
<path d="M910 1365 c-7 -9 -11 -17 -9 -20 3 -2 10 5 17 15 14 24 10 26 -8 5z"/>
<path d="M503 1351 c-26 -21 -20 -31 16 -31 24 1 24 2 9 14 -13 10 -15 15 -6
24 18 18 6 13 -19 -7z"/>
<path d="M1020 1360 c0 -9 4 -20 9 -25 5 -6 11 -19 13 -29 3 -19 3 -19 18 -1
8 11 10 16 4 12 -7 -4 -18 7 -28 26 -8 17 -16 25 -16 17z"/>
<path d="M1049 1353 c14 -28 17 -28 25 -6 4 10 4 14 0 10 -4 -4 -14 -1 -22 6
-13 10 -14 9 -3 -10z"/>
<path d="M208 1353 c6 -2 18 -2 25 0 6 3 1 5 -13 5 -14 0 -19 -2 -12 -5z"/>
<path d="M808 1353 c7 -3 16 -2 19 1 4 3 -2 6 -13 5 -11 0 -14 -3 -6 -6z"/>
<path d="M925 1349 c-4 -6 -5 -12 -2 -15 2 -3 7 2 10 11 7 17 1 20 -8 4z"/>
<path d="M1120 1339 c-6 -11 -10 -27 -8 -35 2 -8 8 1 14 20 12 40 10 46 -6 15z"/>
<path d="M73 1326 c-34 -11 -65 -25 -70 -30 -5 -5 -1 -7 9 -3 9 3 34 11 55 16
21 6 47 17 58 25 24 19 25 19 -52 -8z"/>
<path d="M81 1273 c-44 -38 -80 -71 -80 -74 -1 -3 6 -6 13 -6 8 0 14 3 13 7
-3 9 129 120 142 120 5 0 13 5 16 10 3 6 -1 10 -9 10 -9 0 -51 -30 -95 -67z"/>
<path d="M190 1304 c-22 -20 -40 -40 -40 -44 0 -4 18 10 40 32 36 33 47 38 89
38 27 0 68 -7 92 -16 24 -8 72 -20 106 -25 72 -10 113 -27 113 -45 0 -10 6
-11 26 -4 30 12 71 13 60 3 -4 -5 -11 -8 -15 -8 -14 0 -61 -62 -53 -70 4 -5 1
-5 -5 -1 -7 4 -21 2 -30 -4 -16 -10 -16 -11 2 -6 20 6 20 6 0 -9 -16 -13 -22
-13 -30 -3 -12 17 -65 17 -65 1 0 -6 -4 -15 -10 -18 -15 -10 -50 -15 -47 -7 3
10 -15 13 -35 6 -10 -3 -18 -14 -18 -25 0 -13 -18 -28 -61 -49 -51 -26 -63
-29 -77 -18 -9 7 -19 14 -21 15 -7 4 21 33 32 33 7 0 7 -4 -1 -12 -17 -17 -15
-28 6 -28 14 0 15 2 2 10 -8 5 -10 10 -5 10 6 0 21 10 35 21 24 20 24 20 2 9
-39 -19 -36 -4 5 21 21 13 75 54 121 91 60 49 78 68 62 68 -11 0 -23 -7 -26
-15 -5 -12 -185 -152 -241 -188 -7 -4 -22 -3 -33 3 -17 9 -26 5 -57 -26 l-38
-37 38 32 c37 30 38 31 65 14 15 -9 28 -18 30 -19 8 -5 -37 -69 -47 -66 -7 1
-21 -3 -32 -9 -15 -8 -24 -7 -35 2 -13 10 -10 18 23 53 l38 41 -35 -30 c-19
-17 -38 -35 -42 -41 -4 -7 -24 -15 -43 -18 -19 -4 -35 -11 -35 -16 0 -4 10 -6
22 -2 14 3 19 2 14 -6 -8 -13 25 -17 37 -5 6 6 44 11 91 13 28 1 77 -21 70
-31 -3 -5 0 -9 6 -9 20 0 23 31 5 48 -17 16 -17 16 -12 -1 4 -12 3 -16 -4 -11
-6 3 -8 16 -5 28 5 21 5 21 -10 1 -15 -19 -15 -19 -12 10 2 25 7 30 26 28 13
-2 73 17 134 42 84 35 113 43 119 33 4 -6 5 -17 2 -23 -3 -5 0 -4 7 2 15 14
23 46 10 38 -5 -3 -11 -1 -15 5 -4 6 5 10 20 10 15 0 24 4 20 10 -3 6 -2 10 4
10 5 0 9 -9 8 -20 -1 -11 -4 -20 -8 -20 -4 0 -9 -9 -12 -20 -3 -10 -2 -19 2
-18 3 0 18 0 33 -1 l27 -1 -16 -32 c-34 -67 -35 -70 -25 -64 6 4 8 -3 5 -16
-4 -18 -3 -20 7 -12 6 7 13 28 15 47 5 55 30 94 66 102 17 4 33 5 35 2 3 -3 0
-22 -6 -44 -7 -21 -10 -52 -8 -68 3 -22 7 -11 17 43 7 39 17 72 22 72 5 0 9
-8 9 -19 0 -28 -55 -236 -89 -336 -25 -71 -32 -112 -37 -205 -6 -116 -27 -220
-44 -220 -10 0 -14 12 -29 105 l-9 60 3 -65 c2 -36 7 -79 10 -96 4 -18 2 -41
-5 -53 -9 -17 -7 -37 9 -96 12 -42 21 -85 21 -98 1 -22 29 -82 30 -61 0 22
-21 131 -37 181 -13 45 -14 57 -2 85 l14 33 6 -30 7 -30 1 35 c1 19 10 50 21
68 11 18 18 37 15 42 -3 5 -1 28 4 52 6 26 6 47 1 54 -6 6 -8 13 -6 15 2 2 7
37 10 77 3 40 13 87 21 103 30 57 31 23 2 -45 -23 -53 -20 -60 4 -11 l20 40
-6 -75 c-3 -41 -8 -93 -11 -115 -2 -22 -6 -103 -8 -180 -5 -204 12 -114 24
125 5 107 12 215 15 240 14 119 18 140 26 134 5 -3 6 2 3 11 -4 9 8 72 26 140
25 96 36 122 47 118 10 -4 13 -14 9 -32 -3 -14 -13 -90 -21 -169 -8 -79 -22
-206 -31 -282 -16 -135 -13 -223 7 -235 5 -4 9 -13 9 -21 0 -8 -4 -13 -9 -10
-5 3 -8 -29 -6 -74 1 -44 -2 -80 -6 -80 -5 0 -9 10 -9 23 -1 12 -7 85 -14 162
-12 117 -12 153 -1 220 21 127 28 191 19 182 -8 -8 -17 -57 -33 -192 -13 -102
14 -414 40 -454 7 -12 8 -8 4 16 -4 18 -2 34 4 38 6 3 11 26 11 51 0 24 5 44
10 44 6 0 10 7 10 16 0 9 -5 12 -12 8 -7 -4 -4 3 8 15 19 20 20 28 12 79 -6
31 -8 149 -5 262 4 161 9 225 26 299 12 51 20 99 18 105 -2 6 -10 -15 -17 -47
-7 -31 -15 -55 -17 -53 -3 3 1 30 8 60 11 48 15 56 36 56 12 0 23 -5 23 -10 0
-7 6 -7 18 -1 33 17 53 -10 51 -70 -1 -30 1 -67 5 -84 l6 -30 -15 30 -14 30
-1 -40 c0 -22 -7 -85 -14 -140 -17 -119 -28 -287 -17 -235 l8 35 2 -35 c2 -43
12 -114 16 -118 2 -2 3 43 3 100 0 61 6 127 15 163 12 50 31 205 28 240 -7 97
-5 145 4 145 28 0 35 -27 35 -135 0 -104 30 -339 46 -354 7 -6 0 97 -16 229
-15 126 -21 256 -11 240 4 -8 11 -47 15 -86 7 -86 58 -288 86 -346 13 -26 19
-33 16 -18 -9 45 -37 165 -43 180 -3 8 -6 33 -8 55 -1 22 -12 72 -23 110 -33
115 -36 130 -19 117 8 -7 17 -9 20 -5 11 10 8 33 -4 33 -5 0 -7 -5 -4 -11 4
-6 -3 -5 -14 3 -18 11 -23 11 -30 0 -7 -11 -11 -10 -24 2 -9 9 -18 12 -21 7
-9 -13 -46 -1 -46 15 0 8 -8 14 -17 14 -15 0 -15 -2 -4 -9 24 -15 -20 -19 -50
-5 -15 7 -29 10 -33 7 -6 -7 -10 12 -7 36 2 7 -4 11 -11 9 -7 -3 -12 -12 -10
-21 2 -12 -4 -15 -25 -11 -38 7 -47 18 -28 34 18 15 20 30 3 30 -6 0 -8 -3 -5
-7 9 -9 -22 -43 -40 -43 -7 0 -13 8 -14 18 0 13 -2 12 -9 -6 -8 -18 -16 -22
-45 -20 -39 3 -46 13 -14 23 12 4 52 35 89 69 l67 62 69 -7 c38 -4 80 -10 94
-13 22 -6 22 -5 -2 5 -28 11 -40 31 -15 25 6 -1 9 -1 4 1 -4 3 -5 9 -2 14 4 5
1 17 -5 26 -10 17 -10 16 -8 -2 2 -15 -3 -20 -19 -19 -19 0 -21 -2 -10 -14 10
-13 9 -14 -7 -5 -10 6 -28 8 -39 5 -14 -3 -18 -1 -13 6 4 7 3 12 -3 12 -5 0
-12 -4 -16 -9 -3 -5 -34 -13 -69 -16 -51 -6 -73 -3 -105 11 -22 9 -38 20 -37
23 2 3 -15 7 -37 8 -58 3 -95 9 -142 22 -22 6 -61 11 -87 11 -41 0 -54 -5 -88
-36z m387 -220 c-3 -3 -12 -4 -19 -1 -8 3 -5 6 6 6 11 1 17 -2 13 -5z m149
-21 c-3 -10 -10 -40 -17 -66 -6 -26 -14 -46 -16 -43 -7 7 21 126 30 126 4 0 6
-8 3 -17z m301 -225 c-3 -8 -6 -5 -6 6 -1 11 2 17 5 13 3 -3 4 -12 1 -19z
m-138 -100 c-1 -40 -8 -89 -16 -108 -8 -22 -12 -25 -9 -10 3 14 8 62 12 108 4
45 9 82 11 82 2 0 3 -33 2 -72z m-158 -309 c-7 -44 -9 -47 -10 -19 -1 36 9 84
15 77 3 -2 0 -28 -5 -58z"/>
<path d="M1000 1326 c0 -8 4 -17 10 -21 14 -8 1 -33 -21 -40 -15 -5 -18 -12
-13 -28 9 -30 9 -30 36 -17 22 11 22 10 4 -4 -11 -9 -15 -16 -9 -16 16 0 53
49 53 69 0 14 -2 14 -10 1 -5 -8 -10 -13 -11 -10 -7 42 -11 54 -24 66 -13 14
-15 14 -15 0z m37 -72 c2 -5 -12 -10 -30 -11 -30 -2 -31 -1 -12 13 20 15 37
14 42 -2z"/>
<path d="M2176 1321 c-4 -7 -5 -15 -2 -18 9 -9 19 4 14 18 -4 11 -6 11 -12 0z"/>
<path d="M900 1313 c0 -6 7 -16 15 -23 17 -14 21 -35 5 -25 -5 3 -10 1 -10 -5
0 -7 7 -10 15 -6 8 3 15 1 15 -3 0 -5 -6 -11 -12 -14 -7 -3 -3 -5 8 -4 16 1
21 7 20 23 0 12 -4 20 -8 18 -3 -2 -16 8 -27 22 -12 15 -21 22 -21 17z"/>
<path d="M1655 1310 c3 -5 8 -10 11 -10 2 0 4 5 4 10 0 6 -5 10 -11 10 -5 0
-7 -4 -4 -10z"/>
<path d="M2565 1264 c-70 -48 -85 -55 -122 -53 -23 2 -44 1 -45 -2 -2 -2 -1
-3 0 -2 2 1 23 -4 47 -12 38 -11 48 -10 82 5 36 17 116 90 98 90 -5 0 0 7 11
15 10 8 17 15 14 15 -3 0 -41 -25 -85 -56z m44 9 c-17 -20 -99 -73 -113 -73
-8 0 111 87 123 89 2 1 -3 -7 -10 -16z"/>
<path d="M970 1306 c0 -2 7 -7 16 -10 8 -3 12 -2 9 4 -6 10 -25 14 -25 6z"/>
<path d="M362 1267 c-19 -12 -51 -36 -71 -54 -21 -18 -59 -37 -87 -44 -120
-29 -157 -41 -177 -60 -11 -10 -17 -19 -12 -19 5 0 16 7 25 15 19 17 159 41
184 32 15 -6 14 -9 -4 -27 -11 -11 -25 -20 -30 -20 -5 0 -10 -4 -10 -10 0 -19
15 -9 80 51 36 33 56 56 45 50 -11 -5 -29 -18 -39 -30 -10 -11 -22 -18 -27
-15 -8 4 55 65 132 126 41 32 37 34 -9 5z"/>
<path d="M390 1249 c-19 -15 -30 -28 -25 -28 12 0 69 48 64 54 -2 2 -20 -10
-39 -26z"/>
<path d="M526 1255 c10 -8 26 -14 34 -14 9 0 4 6 -10 14 -33 19 -49 19 -24 0z"/>
<path d="M1553 1263 c9 -2 23 -2 30 0 6 3 -1 5 -18 5 -16 0 -22 -2 -12 -5z"/>
<path d="M1618 1263 c7 -3 16 -2 19 1 4 3 -2 6 -13 5 -11 0 -14 -3 -6 -6z"/>
<path d="M2073 1258 c2 -7 17 -13 33 -14 16 0 46 -6 67 -12 20 -6 37 -7 37 -3
0 7 -108 41 -131 41 -6 0 -9 -6 -6 -12z"/>
<path d="M1695 1246 c17 -8 35 -15 41 -16 7 0 14 -37 18 -95 8 -111 13 -129
35 -120 9 4 21 9 26 11 6 3 11 -5 12 -16 1 -13 -6 -22 -22 -26 -19 -5 -21 -9
-12 -18 9 -10 16 -8 32 13 11 14 20 29 20 33 0 4 16 21 35 38 34 31 25 32 -30
3 -30 -15 -80 -17 -80 -3 0 6 13 10 30 10 22 0 28 4 24 15 -3 8 -9 14 -12 13
-30 -3 -36 3 -19 19 13 13 19 15 29 5 7 -7 16 -12 22 -12 5 0 -3 11 -19 24
-17 15 -23 26 -16 30 6 4 11 3 11 -2 0 -6 14 -7 35 -2 20 4 38 4 41 -1 3 -5 9
-7 14 -4 4 3 10 -2 14 -10 4 -11 -1 -13 -27 -8 -26 5 -30 3 -19 -8 10 -11 8
-16 -10 -27 -22 -13 -22 -13 7 -7 16 4 33 11 36 17 4 6 17 7 30 4 13 -3 18 -3
12 0 -16 7 -17 40 -2 49 5 4 15 19 20 33 8 22 12 24 21 12 8 -12 9 -12 4 3 -3
10 -6 24 -6 30 -1 17 -30 -24 -30 -41 0 -29 -30 -40 -69 -26 -22 7 -42 9 -52
3 -9 -4 -19 -6 -22 -2 -10 10 -37 -18 -37 -38 0 -11 -4 -19 -8 -19 -11 0 -10
83 1 91 12 9 -33 49 -54 49 -10 0 -26 2 -36 5 -10 3 -4 -1 12 -9z"/>
<path d="M1917 1253 c-13 -12 5 -23 22 -13 10 5 21 7 25 5 3 -3 4 -2 1 2 -7 9
-41 14 -48 6z"/>
<path d="M2028 1253 c6 -2 18 -2 25 0 6 3 1 5 -13 5 -14 0 -19 -2 -12 -5z"/>
<path d="M490 1243 c-16 -6 -150 -113 -150 -119 0 -2 28 16 63 41 34 25 72 49
84 55 38 16 41 37 3 23z"/>
<path d="M176 1208 c-14 -18 -23 -34 -21 -36 5 -5 54 50 55 61 0 14 -9 7 -34
-25z"/>
<path d="M776 1224 c-24 -13 -30 -14 -37 -2 -8 12 -13 5 -10 -14 0 -4 -15 -15
-34 -24 -46 -21 -39 -29 8 -9 35 14 37 14 87 -20 29 -19 59 -35 68 -35 8 0 30
-5 48 -12 26 -9 41 -9 74 2 37 12 42 12 58 -4 13 -14 14 -20 4 -23 -9 -3 -4
-13 15 -29 30 -26 48 -30 58 -13 4 6 19 7 37 4 21 -5 28 -4 24 4 -4 6 -18 11
-31 11 -28 0 -80 18 -72 26 2 3 20 1 38 -4 21 -5 44 -4 62 2 31 12 33 18 12
36 -12 10 -15 10 -15 -3 0 -17 -32 -28 -49 -17 -7 3 -9 15 -5 26 5 15 2 15
-13 -5 -22 -27 -59 -25 -57 2 2 15 -3 17 -30 12 l-31 -7 21 20 c12 11 30 22
40 24 18 5 18 5 0 13 -13 6 -21 3 -28 -9 -21 -38 -48 -35 -121 16 -39 26 -75
48 -81 48 -6 -1 -24 -8 -40 -16z m86 -24 c24 -16 54 -39 68 -50 l25 -21 -55 7
c-52 6 -98 23 -128 47 -11 9 -9 14 10 29 30 23 30 23 80 -12z m113 -80 c-3 -5
-21 -10 -38 -9 -31 1 -31 1 -7 9 36 11 52 11 45 0z"/>
<path d="M137 1223 c-4 -3 -7 -11 -7 -17 0 -6 5 -5 12 2 6 6 9 14 7 17 -3 3
-9 2 -12 -2z"/>
<path d="M535 1222 c-37 -8 -34 -17 6 -16 21 1 40 5 42 9 2 10 -20 13 -48 7z"/>
<path d="M1816 1214 c-8 -21 -8 -21 7 -27 10 -4 13 2 9 19 -5 28 -8 30 -16 8z"/>
<path d="M2950 1209 c-38 -23 -51 -39 -44 -51 9 -14 -19 -89 -44 -115 -25 -28
-72 -123 -72 -147 0 -54 -153 -48 -199 7 -20 25 -71 30 -112 13 -41 -17 -38
-19 -113 63 -43 47 -98 75 -178 90 -48 8 -57 7 -95 -16 -24 -14 -40 -30 -36
-35 3 -6 1 -8 -5 -4 -5 3 -12 0 -15 -6 -2 -7 -8 -10 -12 -6 -4 4 -2 15 6 25 8
10 -3 5 -25 -11 -36 -27 -38 -27 -31 -7 8 27 -12 81 -31 81 -8 0 -14 -3 -14
-7 0 -5 -20 -30 -45 -58 -25 -27 -45 -54 -45 -58 0 -5 8 -20 19 -33 18 -23 19
-23 36 -4 10 11 24 20 32 20 8 0 11 5 7 11 -4 8 -9 8 -17 0 -6 -6 -22 -11 -37
-10 -15 0 -19 3 -10 6 23 10 74 67 72 81 -2 6 4 12 13 12 19 0 19 -20 0 -46
-21 -28 -18 -34 14 -24 37 10 206 -22 262 -51 50 -25 63 -19 17 8 -54 32 -94
43 -180 52 -17 2 7 39 36 55 66 35 202 -12 263 -93 21 -28 44 -48 51 -46 6 3
12 -2 12 -10 0 -19 19 -19 44 0 36 27 82 19 127 -23 l40 -39 73 5 c80 4 90 -1
98 -55 3 -18 3 -33 2 -33 -2 0 -15 5 -31 12 -15 6 -36 10 -45 9 -10 -1 -18 4
-18 11 0 10 -2 10 -9 -1 -8 -12 -12 -13 -25 -1 -9 7 -20 10 -23 6 -12 -11 16
-23 70 -30 60 -8 107 -31 107 -51 0 -19 3 -20 -60 11 -30 14 -70 28 -89 30
l-36 4 32 -9 c33 -9 131 -56 147 -72 17 -16 -4 -23 -21 -7 -23 20 -104 61
-109 55 -5 -5 62 -47 75 -47 14 0 51 -46 51 -64 0 -14 -6 -13 -37 10 -21 16
-48 37 -61 48 -23 21 -87 32 -76 14 4 -5 14 -8 25 -5 10 3 26 -4 36 -15 10
-11 35 -31 56 -44 30 -19 37 -31 38 -57 1 -17 3 -24 6 -14 2 9 12 17 21 17 15
0 15 2 2 10 -13 8 -13 12 3 27 10 10 17 14 16 8 -1 -5 0 -17 4 -25 39 -104 33
-159 -20 -163 -25 -1 -22 -12 6 -20 30 -7 53 25 53 73 -1 35 -17 103 -39 160
-4 8 -7 31 -9 50 -4 51 11 20 41 -84 32 -110 41 -186 26 -217 l-12 -24 22 25
c18 21 20 33 15 77 -7 58 -67 243 -91 279 -8 13 -13 24 -10 24 2 0 -5 25 -16
56 -17 45 -19 61 -10 81 8 18 8 22 0 17 -7 -4 -10 -1 -7 7 9 27 36 20 55 -13
11 -18 25 -64 32 -103 12 -68 55 -165 73 -165 5 0 7 -14 3 -31 -5 -22 -4 -29
4 -25 15 10 14 126 -3 157 -7 14 -16 38 -20 53 -4 16 -9 26 -12 23 -3 -3 4
-35 16 -70 12 -36 20 -71 18 -79 -7 -20 -46 63 -43 92 1 14 -8 65 -21 113 -28
104 -32 177 -9 177 8 0 15 6 16 13 1 15 5 33 17 74 9 28 8 31 -6 25 -15 -5
-15 -4 -3 11 7 9 19 17 26 17 6 0 20 9 30 20 23 26 9 25 -35 -1z m-1009 -153
c-7 -8 -10 -20 -6 -26 3 -5 -1 -10 -9 -10 -8 0 -22 -10 -30 -22 -9 -12 -19
-18 -23 -14 -5 4 4 18 20 30 15 12 27 26 27 32 0 13 22 35 28 29 3 -2 -1 -11
-7 -19z m929 -49 c0 -8 -9 -22 -20 -32 -23 -21 -25 -16 -8 20 12 27 28 34 28
12z m-3 -59 c-3 -8 -6 -5 -6 6 -1 11 2 17 5 13 3 -3 4 -12 1 -19z m-63 -94 c3
-8 2 -12 -4 -9 -6 3 -10 10 -10 16 0 14 7 11 14 -7z"/>
<path d="M1360 1212 c0 -6 -7 -12 -17 -14 -14 -3 -14 -5 3 -18 10 -8 16 -10
12 -6 -4 5 -3 15 4 23 6 7 8 16 4 20 -3 3 -6 1 -6 -5z"/>
<path d="M1600 1216 c0 -2 7 -7 16 -10 8 -3 12 -2 9 4 -6 10 -25 14 -25 6z"/>
<path d="M2103 1195 c15 -14 33 -25 40 -25 7 1 0 8 -15 16 -16 8 -28 19 -28
24 0 6 -6 10 -12 10 -7 0 0 -12 15 -25z"/>
<path d="M938 1203 c7 -3 16 -2 19 1 4 3 -2 6 -13 5 -11 0 -14 -3 -6 -6z"/>
<path d="M2238 1198 c5 -5 16 -8 23 -6 8 3 3 7 -10 11 -17 4 -21 3 -13 -5z"/>
<path d="M63 1192 c-13 -2 -23 -8 -23 -13 0 -11 17 -11 44 0 24 9 9 18 -21 13z"/>
<path d="M114 1180 c0 -13 4 -16 10 -10 7 7 7 13 0 20 -6 6 -10 3 -10 -10z"/>
<path d="M2980 1182 c-20 -23 -26 -96 -8 -90 8 3 12 18 10 43 -3 25 0 35 7 31
7 -4 11 1 11 13 0 25 -2 26 -20 3z"/>
<path d="M478 1183 c-10 -2 -18 -9 -18 -14 0 -6 5 -7 12 -3 6 4 25 11 42 15
26 6 27 7 6 7 -14 0 -33 -2 -42 -5z"/>
<path d="M2280 1180 c0 -9 85 -25 123 -23 42 2 50 3 45 8 -2 3 -36 8 -74 11
-38 3 -75 7 -81 9 -7 3 -13 0 -13 -5z"/>
<path d="M950 1176 c0 -2 7 -7 16 -10 8 -3 12 -2 9 4 -6 10 -25 14 -25 6z"/>
<path d="M1070 1170 c0 -6 7 -10 15 -10 8 0 15 2 15 4 0 2 -7 6 -15 10 -8 3
-15 1 -15 -4z"/>
<path d="M1990 1172 c0 -4 10 -13 23 -21 22 -14 22 -14 3 8 -20 22 -26 25 -26
13z"/>
<path d="M2173 1173 c8 -7 111 -33 135 -33 14 0 21 4 16 11 -3 6 -17 9 -30 6
-13 -2 -25 1 -27 7 -2 6 -25 11 -51 12 -26 1 -45 0 -43 -3z"/>
<path d="M1490 1160 c-12 -7 -10 -9 8 -7 12 0 22 5 22 9 0 11 -12 10 -30 -2z"/>
<path d="M1650 1150 c0 -5 9 -10 21 -10 11 0 17 5 14 10 -3 6 -13 10 -21 10
-8 0 -14 -4 -14 -10z"/>
<path d="M1060 1140 c0 -16 17 -20 28 -7 8 10 6 13 -9 14 -10 1 -19 -2 -19 -7z"/>
<path d="M1370 1146 c0 -2 8 -10 18 -17 15 -13 16 -12 3 4 -13 16 -21 21 -21
13z"/>
<path d="M1985 1120 c0 -16 5 -33 9 -37 5 -4 6 -2 2 5 -4 6 -3 12 2 12 6 0 8
9 5 20 -8 32 -19 32 -18 0z"/>
<path d="M2348 1143 c7 -3 16 -2 19 1 4 3 -2 6 -13 5 -11 0 -14 -3 -6 -6z"/>
<path d="M1565 1130 c-3 -6 1 -7 9 -4 18 7 21 14 7 14 -6 0 -13 -4 -16 -10z"/>
<path d="M1840 1130 c0 -5 5 -10 11 -10 5 0 7 5 4 10 -3 6 -8 10 -11 10 -2 0
-4 -4 -4 -10z"/>
<path d="M1145 1120 c3 -5 8 -10 11 -10 2 0 4 5 4 10 0 6 -5 10 -11 10 -5 0
-7 -4 -4 -10z"/>
<path d="M2027 1101 c4 -22 1 -36 -8 -42 -11 -7 -11 -9 2 -9 24 0 29 21 14 55
l-14 30 6 -34z"/>
<path d="M1490 1086 c0 -14 -4 -27 -9 -30 -5 -3 -7 -20 -4 -38 2 -18 5 -41 6
-50 0 -10 5 -14 9 -10 10 11 17 152 7 152 -5 0 -9 -11 -9 -24z"/>
<path d="M307 1073 c-16 -8 -26 -17 -24 -20 6 -5 67 24 67 32 0 8 -13 4 -43
-12z"/>
<path d="M1205 1070 c3 -5 1 -10 -6 -10 -7 0 -3 -10 9 -23 25 -27 30 -46 6
-26 -32 26 25 -60 114 -174 49 -62 108 -143 131 -180 24 -37 47 -67 52 -67 12
0 11 17 -1 25 -6 4 -33 39 -60 78 -88 128 -142 202 -154 209 -6 4 -7 8 -3 8 4
0 3 9 -3 20 -6 11 -15 18 -20 15 -5 -3 -16 5 -24 17 -23 33 -19 47 5 18 l20
-25 -12 25 c-6 14 -21 37 -31 53 -11 15 -15 27 -10 27 6 0 42 -53 82 -117 40
-65 97 -152 128 -193 57 -78 82 -107 67 -80 -26 46 -81 127 -94 140 -24 22
-53 71 -47 77 3 3 -8 22 -25 42 -46 56 -49 60 -49 68 0 13 -60 83 -71 83 -6 0
-7 -4 -4 -10z"/>
<path d="M2960 1067 c0 -8 7 -14 15 -14 8 0 15 6 15 14 0 7 -7 13 -15 13 -8 0
-15 -6 -15 -13z"/>
<path d="M400 1054 c-14 -8 -17 -13 -7 -10 10 3 30 6 43 6 14 0 22 4 19 10 -9
14 -26 12 -55 -6z"/>
<path d="M610 1025 c-11 -26 -29 -74 -39 -106 -11 -32 -36 -99 -56 -149 -20
-51 -34 -94 -31 -97 8 -9 8 -10 56 122 24 66 56 153 72 194 32 82 30 111 -2
36z"/>
<path d="M1536 1034 c-4 -14 -5 -28 -3 -31 3 -2 8 8 11 23 4 14 5 28 3 31 -3
2 -8 -8 -11 -23z"/>
<path d="M2130 1039 c0 -4 4 -10 8 -13 11 -7 127 -18 121 -12 -9 9 -129 33
-129 25z"/>
<path d="M2936 1042 c-2 -4 -1 -14 5 -22 7 -12 9 -10 9 8 0 23 -5 28 -14 14z"/>
<path d="M131 1005 c-19 -19 -29 -35 -23 -35 6 0 14 5 17 10 4 6 15 8 26 5 12
-4 19 -2 20 7 0 7 2 21 4 31 5 25 -6 21 -44 -18z"/>
<path d="M846 1029 c-10 -30 -36 -185 -34 -204 1 -11 -2 -40 -6 -65 -6 -31 -5
-42 2 -35 6 6 16 51 22 100 6 50 15 116 21 149 9 53 6 89 -5 55z"/>
<path d="M1037 1033 c-11 -10 -8 -23 4 -23 13 0 49 -38 49 -52 0 -12 128 -278
134 -278 18 0 -132 315 -159 336 -8 6 -12 14 -8 17 3 4 2 7 -4 7 -5 0 -13 -3
-16 -7z"/>
<path d="M1120 1023 c-1 -7 -3 -21 -3 -31 -1 -9 39 -71 88 -136 50 -66 105
-139 122 -163 18 -24 43 -64 54 -88 32 -68 35 -46 4 32 -23 59 -77 150 -59
101 3 -10 4 -18 0 -18 -7 0 -39 59 -42 78 -3 18 -24 42 -34 39 -11 -3 -122
141 -117 151 3 4 1 16 -4 27 -4 11 -8 14 -9 8z m151 -220 c13 -16 12 -17 -3
-4 -10 7 -18 15 -18 17 0 8 8 3 21 -13z m79 -118 c0 -5 -5 -3 -10 5 -5 8 -10
20 -10 25 0 6 5 3 10 -5 5 -8 10 -19 10 -25z"/>
<path d="M1146 1018 c3 -5 9 -6 14 -3 5 3 15 -3 22 -15 7 -11 16 -20 21 -20 4
0 0 11 -10 24 -16 21 -59 34 -47 14z"/>
<path d="M2090 1020 c-9 -6 -10 -10 -3 -10 6 0 15 5 18 10 8 12 4 12 -15 0z"/>
<path d="M2970 1022 c0 -5 7 -15 15 -22 8 -7 15 -8 15 -2 0 5 -7 15 -15 22 -8
7 -15 8 -15 2z"/>
<path d="M325 999 c-29 -9 -44 -18 -37 -23 6 -4 25 0 41 9 17 8 56 15 90 15
33 0 62 4 65 8 8 14 -107 8 -159 -9z"/>
<path d="M520 990 c-6 -11 -8 -20 -6 -20 3 0 10 9 16 20 6 11 8 20 6 20 -3 0
-10 -9 -16 -20z"/>
<path d="M2265 992 c-17 -12 -17 -14 -2 -9 11 4 17 1 17 -9 0 -8 -4 -13 -8
-10 -5 3 -9 -1 -9 -8 0 -8 6 -12 13 -9 27 10 129 -69 117 -91 -3 -6 -3 -8 2
-4 4 4 16 3 26 -2 12 -7 20 -7 24 0 3 5 -1 10 -10 10 -9 0 -35 18 -57 40 -23
22 -45 40 -49 40 -4 0 -15 8 -25 17 -15 15 -15 17 0 23 14 5 14 6 -2 16 -14 9
-22 8 -37 -4z"/>
<path d="M1020 995 c0 -5 5 -17 10 -25 5 -8 10 -10 10 -5 0 6 -5 17 -10 25 -5
8 -10 11 -10 5z"/>
<path d="M2920 994 c0 -14 29 -40 31 -28 1 5 5 -16 10 -46 4 -30 14 -82 22
-115 l15 -60 1 58 c1 32 -3 57 -9 57 -5 0 -10 10 -10 23 0 18 2 19 10 7 6 -9
10 -10 10 -3 0 6 -4 14 -9 17 -5 3 -14 27 -21 53 -10 38 -14 44 -19 28 -8 -19
-8 -19 -19 0 -6 11 -12 15 -12 9z"/>
<path d="M8 983 c7 -3 16 -2 19 1 4 3 -2 6 -13 5 -11 0 -14 -3 -6 -6z"/>
<path d="M395 985 c-5 -2 -27 -6 -48 -10 -21 -3 -35 -10 -32 -15 3 -6 14 -8
23 -6 43 8 72 19 72 27 0 5 -1 9 -2 8 -2 0 -7 -2 -13 -4z"/>
<path d="M445 980 c-3 -5 -2 -10 4 -10 5 0 13 5 16 10 3 6 2 10 -4 10 -5 0
-13 -4 -16 -10z"/>
<path d="M1737 983 c-4 -4 5 -19 20 -35 27 -29 27 -29 5 -34 -12 -4 -19 -11
-16 -16 3 -5 13 -3 23 6 16 15 17 12 13 -47 -3 -53 -10 -72 -47 -127 -23 -36
-50 -80 -59 -98 -9 -18 -21 -30 -26 -27 -15 9 -12 -2 6 -19 19 -20 41 -22 26
-3 -9 10 0 33 35 93 25 43 50 84 55 89 19 21 -6 -82 -33 -137 -30 -60 -36 -88
-19 -88 6 0 10 9 10 19 0 10 9 38 20 62 l21 44 -6 -81 c-4 -48 -3 -84 3 -87 9
-6 26 247 22 350 0 28 4 54 10 58 7 4 2 16 -15 32 -14 14 -25 32 -25 39 0 15
-12 18 -23 7z"/>
<path d="M1050 974 c0 -28 134 -389 151 -408 13 -14 -2 30 -76 229 -64 174
-75 199 -75 179z"/>
<path d="M1159 973 c7 -3 27 -20 43 -37 l30 -31 -27 38 c-15 20 -35 37 -44 36
-12 0 -13 -2 -2 -6z"/>
<path d="M606 945 c-22 -88 -29 -125 -23 -131 11 -11 15 -2 18 36 2 19 7 40
12 47 4 6 7 27 5 45 l-4 33 -8 -30z"/>
<path d="M271 939 c-5 -13 -6 -28 -3 -34 3 -5 9 4 14 20 9 36 2 46 -11 14z"/>
<path d="M371 946 c-24 -13 -24 -14 -4 -20 11 -4 31 -2 44 4 24 10 24 10 -3 7
-16 -2 -25 0 -22 5 4 6 20 8 36 6 16 -3 31 -1 34 4 8 13 -59 9 -85 -6z"/>
<path d="M1526 947 c3 -10 9 -15 12 -12 3 3 0 11 -7 18 -10 9 -11 8 -5 -6z"/>
<path d="M1965 935 c-16 -8 -23 -14 -14 -15 8 0 24 7 35 15 23 18 18 18 -21 0z"/>
<path d="M155 929 c-4 -6 -13 -8 -20 -5 -7 2 -16 -2 -19 -10 -3 -8 -19 -14
-38 -14 -53 0 -77 -10 -75 -31 1 -10 7 -21 15 -24 7 -3 11 -9 8 -14 -3 -5 4
-11 16 -15 27 -6 50 11 25 19 -9 3 -24 7 -33 10 -8 3 -12 9 -9 15 3 5 0 10 -7
10 -9 0 -9 3 2 10 8 5 32 10 53 10 21 0 47 4 57 10 14 7 20 6 26 -8 4 -9 6
-21 5 -26 -1 -5 7 -6 19 -3 15 4 20 0 20 -14 0 -10 -4 -20 -10 -20 -5 -1 -14
-3 -20 -4 -5 -1 -16 -3 -22 -4 -10 -1 -10 -3 0 -10 10 -6 4 -10 -19 -15 -46
-9 -48 0 -8 35 19 17 27 27 18 22 -27 -14 -114 -94 -93 -87 10 4 22 12 26 18
5 8 8 7 8 -1 0 -17 -35 -34 -54 -27 -9 3 -16 1 -16 -5 0 -27 85 3 178 63 40
25 72 29 72 9 0 -11 -140 -89 -153 -85 -15 4 -47 -8 -47 -19 0 -5 7 -9 15 -9
8 0 15 5 15 10 0 6 4 10 10 10 5 0 7 -6 4 -14 -3 -8 4 -19 16 -26 23 -12 27
-10 97 53 17 16 36 26 42 23 6 -4 19 2 31 14 12 12 20 15 20 7 0 -7 -12 -21
-27 -32 -14 -11 -44 -35 -66 -52 -21 -18 -45 -33 -52 -33 -7 0 -19 -8 -26 -17
-12 -15 -12 -16 1 -8 8 5 21 10 28 11 7 1 33 18 57 38 43 36 73 48 59 24 -5
-7 9 5 31 26 l38 39 -24 18 c-13 10 -28 19 -34 19 -19 0 -140 85 -135 95 3 6
9 9 13 7 5 -1 6 2 2 8 -8 13 -12 13 -20 -1z m125 -123 c0 -5 -102 -81 -110
-81 -3 -1 -16 -7 -28 -14 -13 -7 -26 -10 -29 -7 -3 2 21 21 53 42 33 20 68 42
79 50 20 13 35 17 35 10z"/>
<path d="M304 928 c3 -10 1 -18 -4 -18 -6 0 -10 -6 -10 -14 0 -15 17 -24 67
-36 25 -6 30 -5 26 6 -3 8 -11 14 -18 14 -8 0 -16 8 -18 18 -4 16 -5 16 -6 0
0 -10 -5 -18 -11 -18 -5 0 -10 8 -10 18 0 9 -5 24 -11 32 -9 13 -10 12 -5 -2z"/>
<path d="M641 924 c0 -11 3 -14 6 -6 3 7 2 16 -1 19 -3 4 -6 -2 -5 -13z"/>
<path d="M1981 916 c-34 -18 -40 -24 -27 -29 24 -9 28 -9 21 3 -4 6 13 19 37
30 24 11 36 19 28 19 -8 0 -35 -10 -59 -23z"/>
<path d="M1130 924 c0 -6 13 -29 30 -50 16 -21 45 -61 64 -89 19 -27 49 -66
67 -85 18 -20 25 -25 15 -10 -9 14 -27 42 -41 62 -13 20 -37 51 -53 70 -16 18
-41 51 -55 73 -15 22 -27 35 -27 29z"/>
<path d="M2290 909 c0 -16 -4 -19 -17 -15 -15 6 -14 4 2 -14 14 -16 20 -17 27
-8 5 9 8 6 8 -9 0 -12 7 -38 16 -57 14 -27 24 -35 55 -40 28 -4 46 -16 66 -41
15 -19 32 -35 37 -35 5 0 1 9 -9 20 -10 11 -14 20 -9 20 5 0 -4 11 -20 25 -26
23 -46 29 -83 28 -20 -1 -15 15 7 22 25 8 25 13 0 50 -11 17 -20 25 -20 18 0
-6 5 -15 10 -18 15 -9 12 -42 -4 -48 -8 -3 -17 1 -20 10 -4 11 -2 14 9 9 8 -3
15 -1 15 5 0 5 -7 12 -15 15 -8 4 -12 10 -10 15 3 4 -3 17 -13 27 -10 10 -16
24 -14 30 2 7 -1 12 -7 12 -6 0 -11 -9 -11 -21z"/>
<path d="M406 912 c-3 -5 1 -9 9 -9 8 0 15 4 15 9 0 4 -4 8 -9 8 -6 0 -12 -4
-15 -8z"/>
<path d="M483 887 c-5 -17 -14 -31 -19 -30 -6 1 -16 -8 -24 -20 -12 -20 -12
-21 3 -9 9 8 21 11 26 8 11 -7 34 28 24 37 -3 4 0 13 6 21 7 8 8 17 3 20 -5 3
-14 -9 -19 -27z"/>
<path d="M524 908 c-4 -6 -3 -8 4 -4 5 3 13 0 15 -6 3 -8 6 -6 6 5 1 19 -14
23 -25 5z"/>
<path d="M2060 908 c0 -4 4 -8 9 -8 6 0 12 4 15 8 3 5 -1 9 -9 9 -8 0 -15 -4
-15 -9z"/>
<path d="M2177 910 c-42 -8 -53 -15 -38 -25 6 -3 11 0 11 7 0 8 3 9 8 3 5 -7
19 -5 42 7 38 18 35 20 -23 8z"/>
<path d="M1805 891 c-3 -5 -1 -12 5 -16 5 -3 10 1 10 9 0 18 -6 21 -15 7z"/>
<path d="M1837 876 c-4 -10 -1 -13 8 -10 8 3 20 -4 27 -15 16 -26 25 -27 32
-3 2 9 4 -39 3 -108 -2 -126 24 -291 53 -337 13 -20 12 -19 -16 117 -9 41 -18
130 -21 198 -4 103 -3 122 10 122 9 0 17 -14 21 -39 3 -22 11 -43 16 -46 7 -4
8 3 4 22 -11 41 -10 62 1 64 6 2 13 -8 17 -22 4 -13 16 -56 28 -95 15 -54 36
-93 82 -157 35 -47 68 -94 75 -104 6 -10 12 -13 12 -7 1 6 -12 31 -29 55 -16
24 -30 50 -30 57 0 8 -5 10 -12 6 -8 -5 -9 -2 -4 12 4 10 4 15 0 11 -8 -8 -34
11 -34 25 0 5 6 6 13 2 7 -4 9 -3 4 2 -5 5 -14 9 -20 9 -5 0 -12 6 -15 14 -3
9 0 11 8 6 9 -5 11 -4 6 4 -4 6 -12 8 -18 5 -8 -5 -9 -1 -5 10 4 10 3 15 -3
11 -6 -3 -10 0 -10 9 0 8 -2 21 -5 28 -3 8 4 24 16 37 19 20 20 26 8 35 -8 6
-23 28 -34 48 -10 21 -20 36 -21 35 -2 -1 6 -27 16 -57 10 -30 16 -59 12 -65
-3 -5 -10 6 -15 25 -19 74 -23 79 -62 73 -23 -4 -35 -2 -35 6 0 7 -9 9 -25 5
-19 -5 -25 -2 -25 10 0 20 -26 21 -33 2z"/>
<path d="M2045 880 c-14 -7 -8 -8 24 -5 24 2 46 7 49 10 9 8 -51 4 -73 -5z"/>
<path d="M2210 882 c0 -4 -8 -8 -17 -9 -58 -3 -136 -23 -91 -23 9 0 30 -28 49
-66 19 -36 38 -68 43 -71 14 -9 -4 40 -34 90 -25 41 -27 47 -12 47 10 0 23 5
30 12 9 9 17 7 34 -8 18 -15 20 -15 9 -1 -9 11 -10 17 -2 17 6 0 11 5 11 10 0
6 -4 10 -10 10 -5 0 -10 -4 -10 -8z"/>
<path d="M2242 867 c1 -14 4 -24 7 -21 3 2 20 -10 39 -28 l34 -33 -15 30 c-8
17 -27 41 -41 54 l-26 25 2 -27z"/>
<path d="M2482 882 c-16 -5 -15 -22 2 -22 18 0 41 -29 41 -51 0 -10 4 -19 10
-19 10 0 14 31 5 40 -3 3 -15 17 -25 31 -11 14 -26 24 -33 21z"/>
<path d="M2531 883 c23 -6 40 -78 28 -111 -6 -15 -13 -22 -17 -17 -12 16 -72
45 -72 34 0 -5 11 -15 25 -21 14 -6 24 -17 21 -24 -9 -23 17 -33 44 -19 29 17
19 20 -13 4 -21 -10 -21 -10 -3 5 11 9 23 16 28 16 4 0 8 9 8 20 0 14 7 20 21
20 16 0 19 -4 14 -20 -4 -12 0 -26 9 -35 21 -22 32 -18 12 4 -11 12 -14 21 -7
26 6 3 11 1 11 -6 0 -7 3 -9 7 -6 8 9 -26 47 -42 47 -18 0 -38 27 -26 34 5 3
7 15 4 26 -3 11 -9 17 -14 14 -5 -3 -9 0 -9 5 0 6 -10 10 -22 10 -16 -1 -18
-3 -7 -6z"/>
<path d="M531 873 c-1 -6 -4 -20 -7 -30 -5 -17 -5 -17 6 0 6 10 9 23 6 30 -3
9 -5 9 -5 0z"/>
<path d="M1811 844 c0 -11 3 -14 6 -6 3 7 2 16 -1 19 -3 4 -6 -2 -5 -13z"/>
<path d="M2054 838 c24 -34 56 -100 56 -120 0 -20 16 -32 25 -18 11 17 -14 86
-40 110 -14 13 -25 29 -25 37 0 7 -7 13 -16 13 -15 0 -15 -2 0 -22z"/>
<path d="M375 819 c-11 -12 -14 -19 -7 -15 8 5 12 1 13 -11 0 -14 3 -12 10 6
14 36 6 46 -16 20z"/>
<path d="M1846 823 c-6 -14 -5 -15 5 -6 7 7 10 15 7 18 -3 3 -9 -2 -12 -12z"/>
<path d="M2166 829 c2 -4 13 -6 24 -4 12 2 27 -6 39 -23 11 -15 21 -22 21 -16
0 18 -40 48 -65 50 -13 0 -22 -3 -19 -7z"/>
<path d="M2413 820 c-1 -11 3 -18 8 -14 5 3 18 0 27 -7 9 -8 6 -1 -7 14 -14
15 -25 27 -26 27 0 0 -1 -9 -2 -20z"/>
<path d="M2465 830 c3 -5 8 -10 11 -10 2 0 4 5 4 10 0 6 -5 10 -11 10 -5 0 -7
-4 -4 -10z"/>
<path d="M2260 827 c0 -5 11 -28 24 -52 14 -24 30 -62 36 -84 6 -24 17 -41 25
-41 11 0 13 5 6 18 -5 9 -18 40 -30 67 -22 49 -60 108 -61 92z"/>
<path d="M2727 816 c-3 -6 4 -13 14 -13 22 -2 25 12 5 20 -8 3 -16 0 -19 -7z"/>
<path d="M829 748 c-7 -40 -18 -84 -25 -98 -7 -16 -10 -44 -6 -75 l5 -50 18
75 c17 76 35 220 26 220 -3 0 -11 -33 -18 -72z"/>
<path d="M2658 808 c5 -5 16 -8 23 -6 8 3 3 7 -10 11 -17 4 -21 3 -13 -5z"/>
<path d="M429 795 c0 -11 -2 -28 -4 -37 -5 -28 14 -21 21 8 4 14 2 30 -5 37
-8 8 -11 6 -12 -8z"/>
<path d="M2196 794 c-3 -8 -2 -12 4 -9 12 7 26 -20 35 -70 7 -42 73 -190 81
-182 2 2 -12 46 -32 98 -69 181 -76 194 -88 163z"/>
<path d="M591 784 c0 -11 3 -14 6 -6 3 7 2 16 -1 19 -3 4 -6 -2 -5 -13z"/>
<path d="M1085 780 c26 -129 48 -217 56 -225 6 -6 9 -6 9 0 0 21 -51 218 -60
234 -8 13 -9 11 -5 -9z"/>
<path d="M1875 790 c-3 -5 -1 -10 4 -10 6 0 11 5 11 10 0 6 -2 10 -4 10 -3 0
-8 -4 -11 -10z"/>
<path d="M10 780 c-9 -6 -10 -10 -3 -10 6 0 15 5 18 10 8 12 4 12 -15 0z"/>
<path d="M567 783 c-4 -3 -7 -17 -7 -30 0 -12 -4 -23 -10 -23 -5 0 -10 -4 -10
-10 0 -5 6 -10 14 -10 9 0 15 14 18 40 2 22 3 40 2 40 0 0 -4 -3 -7 -7z"/>
<path d="M1820 754 c-31 -49 -19 -53 14 -4 14 22 22 40 17 40 -5 0 -19 -16
-31 -36z"/>
<path d="M2380 756 c0 -3 9 -10 20 -16 11 -6 20 -8 20 -6 0 3 -9 10 -20 16
-11 6 -20 8 -20 6z"/>
<path d="M2070 738 c0 -9 7 -22 17 -29 15 -13 15 -12 3 11 -17 34 -20 36 -20
18z"/>
<path d="M951 724 c0 -11 3 -14 6 -6 3 7 2 16 -1 19 -3 4 -6 -2 -5 -13z"/>
<path d="M1986 728 c-7 -15 -3 -38 19 -132 17 -73 37 -126 45 -121 6 4 10 11
10 16 0 6 -4 8 -9 5 -10 -7 -24 41 -16 54 3 5 -2 24 -12 42 -9 18 -20 60 -23
93 -4 40 -9 54 -14 43z"/>
<path d="M341 724 c-1 -7 -7 -11 -13 -10 -7 0 -13 -3 -13 -9 0 -5 6 -8 15 -7
20 5 23 9 17 24 -3 8 -6 8 -6 2z"/>
<path d="M415 720 c-3 -5 -1 -10 4 -10 6 0 11 5 11 10 0 6 -2 10 -4 10 -3 0
-8 -4 -11 -10z"/>
<path d="M2496 707 c11 -15 26 -25 35 -23 9 2 22 0 29 -4 19 -12 -151 -154
-227 -190 -60 -29 -103 -34 -89 -11 10 15 -5 40 -20 34 -8 -3 -21 0 -29 7 -33
27 -13 -5 23 -36 31 -28 34 -33 17 -34 -11 0 -27 -5 -35 -11 -51 -36 162 41
219 79 39 27 130 110 163 151 17 20 17 21 -5 21 -22 1 -22 1 3 15 31 18 18 19
-26 3 -29 -10 -36 -9 -55 8 l-23 19 20 -28z"/>
<path d="M1376 708 c30 -51 87 -129 91 -124 5 5 -86 136 -95 136 -2 0 0 -6 4
-12z"/>
<path d="M392 690 c0 -14 2 -19 5 -12 2 6 2 18 0 25 -3 6 -5 1 -5 -13z"/>
<path d="M1860 666 c-11 -26 -20 -53 -21 -59 0 -7 -4 -4 -8 6 -4 10 -6 -26 -4
-82 1 -55 -2 -103 -7 -106 -12 -8 -1 -65 16 -86 8 -9 11 -18 8 -22 -4 -3 -3
-14 1 -24 5 -10 10 -27 11 -38 14 -83 16 -88 24 -75 5 8 5 21 0 31 -5 9 -10
34 -11 55 -3 57 -10 85 -20 78 -6 -3 -7 6 -3 22 5 20 4 25 -6 19 -9 -6 -10 -2
-4 16 5 13 7 59 6 102 -2 53 2 86 12 105 19 35 37 94 31 100 -2 3 -14 -16 -25
-42z"/>
<path d="M2164 690 c13 -47 60 -153 63 -143 2 5 -11 43 -28 84 -33 78 -46 100
-35 59z"/>
<path d="M2610 685 c0 -15 -17 -44 -44 -74 -24 -27 -52 -63 -62 -80 -10 -17
-22 -31 -27 -31 -4 0 -5 -4 -2 -10 3 -5 2 -10 -3 -10 -5 0 -31 -34 -57 -75
-26 -41 -51 -75 -57 -75 -5 0 -7 -4 -3 -9 3 -5 1 -12 -5 -16 -5 -3 -10 -11
-10 -17 0 -6 6 -5 16 3 13 11 14 9 8 -17 -4 -16 -4 -26 0 -23 4 4 8 19 10 33
2 15 31 70 65 122 68 103 95 122 39 27 -19 -32 -50 -96 -67 -143 -18 -47 -37
-94 -41 -105 -16 -39 -46 -185 -38 -185 4 0 12 19 18 43 58 237 96 327 215
517 53 84 77 150 56 150 -6 0 -11 -11 -11 -25z"/>
<path d="M20 685 c0 -8 -5 -15 -11 -15 -21 0 1 -18 29 -23 57 -11 121 -85 116
-132 -3 -30 -58 -156 -96 -222 -29 -50 -58 -114 -58 -131 0 -2 7 2 16 9 14 12
16 9 13 -23 -2 -21 0 -40 4 -44 12 -13 8 -21 -15 -29 -18 -5 -19 -8 -8 -12 8
-3 18 -11 22 -17 5 -6 8 -2 8 10 0 12 7 24 15 28 8 3 15 13 15 21 0 9 4 14 9
10 5 -3 5 11 -1 32 -12 46 -20 57 -17 23 4 -41 0 -60 -12 -60 -8 0 -10 14 -6
40 3 24 1 41 -7 44 -7 3 -7 5 2 5 6 1 12 10 12 22 0 22 44 117 62 134 6 6 6 2
-1 -12 -12 -23 -18 -219 -7 -230 3 -3 6 40 6 97 0 57 2 101 5 98 3 -3 6 -74 6
-157 0 -92 3 -151 9 -151 6 0 10 81 10 213 0 133 4 227 12 252 6 22 11 47 9
55 -2 13 -1 13 8 0 6 -8 11 -58 11 -110 1 -74 3 -91 12 -76 13 24 5 171 -12
191 -6 8 -8 20 -4 26 5 8 3 10 -7 5 -8 -4 -3 1 10 12 l23 19 -30 -5 c-55 -8
-42 15 33 56 75 40 91 38 56 -7 -17 -22 -17 -24 3 -67 11 -24 23 -44 28 -44
13 0 9 17 -7 30 -8 7 -13 16 -10 20 3 4 -2 13 -10 20 -13 11 -13 14 2 25 13
10 22 10 30 3 22 -18 16 30 -6 54 l-20 20 -52 -32 c-63 -38 -95 -44 -119 -20
-10 10 -21 16 -24 14 -4 -2 -2 2 4 8 18 21 11 30 -12 14 -30 -21 -41 -20 -33
4 4 11 2 20 -4 20 -6 0 -11 -7 -11 -15z"/>
<path d="M1276 668 c21 -40 54 -84 54 -71 0 11 -59 103 -66 103 -3 0 3 -15 12
-32z"/>
<path d="M2390 691 c0 -5 7 -12 16 -15 14 -5 15 -4 4 9 -14 17 -20 19 -20 6z"/>
<path d="M441 674 c0 -11 3 -14 6 -6 3 7 2 16 -1 19 -3 4 -6 -2 -5 -13z"/>
<path d="M537 683 c-4 -3 -7 -13 -7 -22 1 -13 3 -13 11 2 11 19 8 33 -4 20z"/>
<path d="M772 665 c0 -16 2 -22 5 -12 2 9 2 23 0 30 -3 6 -5 -1 -5 -18z"/>
<path d="M917 670 c-9 -23 -13 -169 -4 -163 4 2 7 14 8 26 1 16 4 12 11 -13 6
-19 12 -30 14 -25 6 17 -23 191 -29 175z"/>
<path d="M2480 671 c0 -5 7 -12 16 -15 14 -5 15 -4 4 9 -14 17 -20 19 -20 6z"/>
<path d="M2644 663 c4 -7 2 -13 -4 -13 -6 0 -8 -4 -5 -10 3 -5 10 -10 15 -10
10 0 7 27 -5 37 -4 4 -5 2 -1 -4z"/>
<path d="M376 645 c-3 -9 -6 -24 -5 -33 0 -9 5 -4 10 12 9 32 6 48 -5 21z"/>
<path d="M961 600 c0 -36 3 -71 8 -78 15 -24 18 19 5 83 l-11 60 -2 -65z"/>
<path d="M2126 647 c2 -7 14 -19 27 -26 21 -13 21 -12 -2 13 -27 29 -33 32
-25 13z"/>
<path d="M432 630 c0 -14 2 -19 5 -12 2 6 2 18 0 25 -3 6 -5 1 -5 -13z"/>
<path d="M482 600 c0 -49 1 -52 9 -23 5 18 5 41 0 55 -6 18 -8 11 -9 -32z"/>
<path d="M1517 628 c9 -10 21 -18 27 -18 6 0 3 5 -7 11 -9 6 -15 14 -13 18 3
4 -1 8 -9 8 -13 0 -12 -4 2 -19z"/>
<path d="M2383 643 c4 -3 2 -12 -5 -20 -8 -10 -8 -17 0 -25 11 -11 17 0 13 25
0 4 4 7 10 7 5 0 7 5 4 10 -3 6 -11 10 -17 10 -6 0 -8 -3 -5 -7z"/>
<path d="M2731 591 c33 -33 59 -63 58 -68 -3 -19 3 -57 8 -45 2 6 11 12 19 12
9 0 6 11 -11 36 -14 20 -25 40 -25 44 0 9 -90 80 -101 80 -4 0 19 -27 52 -59z"/>
<path d="M525 630 c3 -5 8 -10 11 -10 2 0 4 5 4 10 0 6 -5 10 -11 10 -5 0 -7
-4 -4 -10z"/>
<path d="M218 623 c-21 -5 -23 -19 -5 -29 6 -4 9 -4 5 1 -4 4 0 14 10 21 18
14 17 14 -10 7z"/>
<path d="M2458 613 c7 -3 16 -2 19 1 4 3 -2 6 -13 5 -11 0 -14 -3 -6 -6z"/>
<path d="M2657 614 c-3 -3 12 -31 34 -61 21 -31 39 -64 39 -74 0 -10 6 -22 14
-26 8 -4 16 -19 18 -33 4 -30 60 -70 97 -70 25 1 25 1 -6 15 -37 16 -88 63
-79 72 3 3 13 0 23 -8 10 -8 5 1 -10 20 -15 18 -34 47 -42 65 -16 36 -79 108
-88 100z"/>
<path d="M445 600 c-3 -5 -1 -10 4 -10 6 0 11 5 11 10 0 6 -2 10 -4 10 -3 0
-8 -4 -11 -10z"/>
<path d="M1032 585 c0 -16 2 -22 5 -12 2 9 2 23 0 30 -3 6 -5 -1 -5 -18z"/>
<path d="M1606 578 c8 -102 61 -366 63 -315 1 17 -30 191 -48 269 -5 25 -4 39
3 41 7 3 5 10 -5 21 -14 16 -15 14 -13 -16z"/>
<path d="M2630 585 c13 -14 25 -25 27 -25 2 0 -4 11 -13 25 -9 14 -21 25 -27
25 -6 0 0 -11 13 -25z"/>
<path d="M0 589 c0 -5 7 -12 15 -15 8 -4 12 -10 9 -15 -3 -5 -8 -7 -12 -5 -4
2 -8 -12 -8 -33 l-2 -36 14 30 c7 17 13 24 14 16 0 -11 3 -11 15 -1 13 10 15
9 15 -11 0 -20 2 -21 11 -9 9 12 10 11 6 -8 -3 -12 -1 -20 4 -16 22 13 6 -15
-27 -47 -20 -18 -40 -43 -45 -54 -7 -14 -3 -12 14 7 14 15 28 24 31 21 3 -3
17 2 31 11 25 16 34 50 15 61 -5 3 -7 11 -4 18 2 7 -10 28 -28 48 -34 37 -68
56 -68 38z"/>
<path d="M509 593 c0 -5 -1 -26 -3 -48 -2 -22 -1 -30 1 -17 2 12 8 22 11 22 4
0 9 11 10 25 1 14 -3 25 -8 25 -6 0 -10 -3 -11 -7z"/>
<path d="M1565 591 c-3 -6 -2 -11 3 -11 5 0 7 -10 5 -22 -2 -13 3 -39 12 -58
l16 -35 -7 40 c-3 22 -7 50 -9 63 -3 28 -11 37 -20 23z"/>
<path d="M611 574 c0 -11 3 -14 6 -6 3 7 2 16 -1 19 -3 4 -6 -2 -5 -13z"/>
<path d="M1534 584 c-17 -7 -8 -104 15 -154 20 -44 21 -44 15 -10 -3 19 -10
39 -15 44 -12 13 -12 56 0 56 6 0 6 12 1 29 -4 16 -6 32 -2 35 6 7 2 7 -14 0z"/>
<path d="M2598 579 c-8 -25 8 -104 21 -101 7 1 15 -7 18 -18 3 -11 12 -20 20
-20 18 0 1 33 -28 54 -18 12 -21 22 -16 50 5 33 -7 60 -15 35z"/>
<path d="M784 522 c3 -35 0 -60 -5 -56 -5 3 -9 3 -9 -1 0 -12 59 -135 65 -135
3 0 2 8 -4 18 -5 9 -14 49 -20 87 -7 39 -16 88 -21 110 -8 36 -9 34 -6 -23z"/>
<path d="M1300 570 c0 -5 5 -10 11 -10 5 0 7 5 4 10 -3 6 -8 10 -11 10 -2 0
-4 -4 -4 -10z"/>
<path d="M1800 548 c0 -25 3 -29 10 -18 13 20 13 50 0 50 -5 0 -10 -15 -10
-32z"/>
<path d="M199 553 c-13 -16 -12 -17 4 -4 9 7 17 15 17 17 0 8 -8 3 -21 -13z"/>
<path d="M435 559 c-4 -6 -5 -12 -2 -15 2 -3 7 2 10 11 7 17 1 20 -8 4z"/>
<path d="M1472 513 c-4 -67 12 -117 44 -142 24 -19 54 -19 54 0 0 4 -7 6 -15
3 -8 -3 -25 6 -40 20 -23 23 -28 44 -27 126 0 3 3 14 6 26 4 13 2 21 -7 21 -8
0 -13 -19 -15 -54z"/>
<path d="M1645 513 c6 -69 15 -82 15 -22 l1 44 23 -26 c29 -34 26 -93 -5 -84
-11 4 -19 2 -19 -3 0 -5 9 -12 20 -15 12 -3 20 -14 20 -25 0 -12 5 -24 10 -27
6 -4 8 -15 5 -24 -3 -12 0 -18 10 -18 19 0 19 23 0 76 -13 38 -13 41 3 41 10
0 23 5 30 12 9 9 12 4 12 -22 0 -34 4 -51 35 -147 13 -40 16 -79 13 -163 -2
-70 1 -109 7 -107 32 11 23 191 -15 322 -11 38 -20 84 -20 100 0 25 -6 33 -31
42 -25 10 -29 9 -19 -1 8 -10 7 -15 -5 -20 -13 -5 -16 0 -13 18 2 15 -6 34
-21 50 -14 14 -21 26 -17 26 5 0 3 7 -4 15 -7 8 -19 15 -26 15 -11 0 -13 -13
-9 -57z"/>
<path d="M2071 531 c18 -80 25 -89 63 -88 41 1 33 20 -8 20 -19 0 -27 7 -35
30 -6 16 -11 38 -11 48 0 10 -4 20 -9 23 -5 4 -5 -10 0 -33z"/>
<path d="M370 515 c-1 -27 -3 -77 -5 -110 -2 -33 -6 -121 -9 -195 -2 -74 -7
-152 -11 -172 -6 -32 -5 -38 10 -38 17 0 18 10 12 112 -3 62 -1 122 3 133 6
13 9 -11 10 -70 1 -50 5 -110 10 -135 5 -30 6 -6 3 70 -4 89 -2 112 7 100 10
-12 11 -10 5 10 -3 14 -8 43 -11 65 -5 38 -4 39 10 21 9 -11 16 -28 16 -37 0
-10 4 -20 9 -24 12 -7 8 14 -24 148 -28 113 -30 131 -15 122 15 -9 12 8 -5 31
-13 18 -14 15 -15 -31z"/>
<path d="M1861 544 c0 -11 3 -14 6 -6 3 7 2 16 -1 19 -3 4 -6 -2 -5 -13z"/>
<path d="M2620 545 c0 -9 13 -24 30 -33 23 -13 30 -24 30 -48 0 -40 51 -108
104 -139 60 -35 106 -33 127 7 9 18 8 18 -10 8 -12 -6 -21 -15 -21 -20 0 -17
-39 -11 -58 8 -10 10 -34 28 -55 41 -43 26 -72 79 -62 113 5 17 4 19 -4 9 -7
-11 -10 -8 -13 15 -2 23 -8 29 -25 28 -13 0 -23 5 -23 13 0 7 -4 13 -10 13 -5
0 -10 -7 -10 -15z m50 -25 c0 -5 -2 -10 -4 -10 -3 0 -8 5 -11 10 -3 6 -1 10 4
10 6 0 11 -4 11 -10z"/>
<path d="M611 543 c-1 -6 -4 -20 -7 -30 -5 -17 -5 -17 6 0 6 10 9 23 6 30 -3
9 -5 9 -5 0z"/>
<path d="M1990 525 c5 -14 9 -29 9 -33 -3 -19 3 -29 17 -29 15 0 15 1 0 12 -8
7 -13 14 -10 17 8 8 -7 58 -17 58 -5 0 -4 -11 1 -25z"/>
<path d="M224 495 c4 -24 3 -70 -3 -102 -9 -51 -25 -169 -46 -340 -6 -43 -4
-53 8 -53 11 0 15 23 20 101 4 56 11 106 16 113 5 6 12 82 16 169 6 123 5 157
-5 157 -9 0 -10 -12 -6 -45z"/>
<path d="M1729 506 c29 -31 35 -33 22 -7 -6 10 -18 22 -28 25 -13 5 -11 1 6
-18z"/>
<path d="M311 515 c0 -6 9 -41 20 -80 l19 -70 -6 65 c-3 36 -12 72 -20 80 -8
8 -14 10 -13 5z"/>
<path d="M415 474 c-4 -26 -2 -39 9 -47 8 -7 23 -45 33 -84 20 -82 34 -98 22
-25 -4 26 -8 55 -8 65 -1 10 -5 15 -11 12 -5 -3 -10 3 -10 15 0 11 -6 23 -13
26 -8 3 -11 17 -9 39 5 46 -4 45 -13 -1z"/>
<path d="M1566 480 c4 -19 10 -44 15 -55 7 -18 8 -18 8 5 0 14 -6 39 -14 55
l-15 30 6 -35z"/>
<path d="M14 468 l-19 -23 23 19 c21 18 27 26 19 26 -2 0 -12 -10 -23 -22z"/>
<path d="M1861 473 c0 -11 3 -13 6 -5 2 6 10 9 15 6 7 -4 8 -2 4 4 -11 18 -26
14 -25 -5z"/>
<path d="M2987 463 c-4 -3 -7 -13 -7 -22 1 -13 3 -13 11 2 11 19 8 33 -4 20z"/>
<path d="M1596 414 c-4 -30 0 -68 10 -108 9 -33 20 -117 24 -186 4 -70 8 -103
10 -75 5 79 -1 187 -12 230 -5 22 -12 71 -14 110 -3 38 -6 70 -8 72 -2 2 -6
-17 -10 -43z"/>
<path d="M2589 443 c0 -10 -3 -31 -5 -48 -35 -252 -48 -395 -34 -395 5 0 10 8
10 18 2 43 18 224 22 227 11 11 201 33 245 28 l53 -6 60 61 c33 34 60 69 60
78 0 10 -16 -3 -40 -32 -22 -27 -40 -52 -40 -56 0 -4 -14 -15 -31 -24 -27 -14
-38 -14 -78 -3 -54 15 -93 34 -85 41 3 3 -10 15 -30 27 -19 12 -50 39 -70 61
-27 30 -36 35 -37 23z m101 -99 c0 -1 -15 2 -33 8 -23 7 -37 20 -44 39 l-11
28 44 -36 c24 -21 44 -38 44 -39z m-33 -1 c61 -19 69 -33 18 -31 -19 1 -38 -2
-42 -5 -6 -7 41 -11 84 -8 43 4 31 -17 -14 -23 -101 -14 -123 -7 -100 32 5 7
3 12 -5 13 -10 0 -11 2 0 6 10 4 10 8 1 19 -15 18 -7 18 58 -3z"/>
<path d="M2030 429 c0 -11 4 -18 10 -14 5 3 7 12 3 20 -7 21 -13 19 -13 -6z"/>
<path d="M2313 425 c0 -8 4 -12 9 -9 4 3 8 9 8 15 0 5 -4 9 -8 9 -5 0 -9 -7
-9 -15z"/>
<path d="M2340 426 c0 -8 -3 -23 -6 -33 -3 -10 2 -7 10 7 18 30 20 40 6 40 -5
0 -10 -6 -10 -14z"/>
<path d="M1914 400 c7 -19 16 -42 19 -50 3 -9 6 -4 6 11 1 15 -8 37 -19 50
l-20 24 14 -35z"/>
<path d="M2253 410 c-2 -8 -11 -28 -19 -43 -23 -45 -16 -56 10 -15 12 21 25
36 28 33 2 -3 10 6 16 19 10 22 9 25 -10 23 -11 -1 -22 -8 -25 -17z"/>
<path d="M270 406 c0 -8 4 -17 9 -20 5 -4 7 3 4 14 -6 23 -13 26 -13 6z"/>
<path d="M597 413 c-4 -3 -7 -11 -7 -17 0 -6 5 -5 12 2 6 6 9 14 7 17 -3 3 -9
2 -12 -2z"/>
<path d="M35 373 c-31 -34 -42 -53 -31 -53 2 0 20 20 40 45 45 55 38 60 -9 8z"/>
<path d="M1435 400 c9 -15 45 -32 45 -22 0 5 -12 14 -26 20 -14 7 -23 8 -19 2z"/>
<path d="M1861 405 c1 -19 18 -51 18 -35 0 8 -4 22 -9 30 -5 8 -9 11 -9 5z"/>
<path d="M2301 369 c-14 -40 -14 -62 0 -54 6 4 8 13 5 20 -2 7 -2 16 2 19 7 7
14 46 8 46 -2 0 -9 -14 -15 -31z"/>
<path d="M323 340 c0 -25 2 -35 4 -22 2 12 2 32 0 45 -2 12 -4 2 -4 -23z"/>
<path d="M2525 325 c-4 -31 -5 -58 -3 -61 3 -2 8 21 12 52 4 31 5 59 2 61 -2
3 -8 -21 -11 -52z"/>
<path d="M804 282 c2 -40 8 -78 14 -84 8 -8 9 -5 6 8 -3 10 -9 48 -14 84 l-9
65 3 -73z"/>
<path d="M651 267 c-1 -38 -6 -88 -12 -112 -12 -47 -4 -155 11 -155 9 0 7 35
-5 93 -7 37 9 55 18 20 3 -10 5 25 5 77 0 52 -4 106 -8 120 -6 18 -8 6 -9 -43z"/>
<path d="M1692 300 c0 -14 2 -19 5 -12 2 6 2 18 0 25 -3 6 -5 1 -5 -13z"/>
<path d="M770 213 c10 -49 24 -116 31 -151 6 -35 15 -58 19 -52 4 6 14 8 23 4
9 -3 17 -1 17 4 0 6 -10 12 -22 14 -20 3 -24 11 -31 63 -12 91 -38 205 -47
205 -4 0 0 -39 10 -87z"/>
<path d="M1726 284 c-3 -9 -6 -27 -6 -41 0 -22 2 -23 15 -9 17 17 20 30 5 21
-7 -4 -9 2 -4 19 7 28 0 36 -10 10z"/>
<path d="M2501 284 c0 -11 3 -14 6 -6 3 7 2 16 -1 19 -3 4 -6 -2 -5 -13z"/>
<path d="M325 280 c3 -5 8 -10 11 -10 2 0 4 5 4 10 0 6 -5 10 -11 10 -5 0 -7
-4 -4 -10z"/>
<path d="M833 255 c0 -22 2 -30 4 -17 2 12 2 30 0 40 -3 9 -5 -1 -4 -23z"/>
<path d="M76 265 c-3 -9 -6 -24 -5 -33 0 -9 5 -4 10 12 9 32 6 48 -5 21z"/>
<path d="M1766 265 c-3 -9 -6 -22 -5 -28 0 -7 5 -1 10 12 5 13 8 26 5 28 -2 2
-6 -3 -10 -12z"/>
<path d="M582 250 c0 -14 2 -19 5 -12 2 6 2 18 0 25 -3 6 -5 1 -5 -13z"/>
<path d="M1691 254 c-1 -12 2 -35 5 -52 5 -23 10 -28 25 -25 10 3 16 9 13 14
-3 5 -9 7 -14 4 -5 -3 -13 14 -18 37 -6 24 -10 33 -11 22z"/>
<path d="M866 222 c2 -20 3 -37 4 -37 1 0 3 -20 5 -45 3 -25 7 -60 10 -78 4
-23 3 -32 -4 -27 -6 3 -11 -2 -11 -12 0 -12 7 -19 19 -19 10 0 17 5 15 11 -1
5 -5 42 -8 80 -6 89 -17 154 -26 160 -4 2 -6 -12 -4 -33z"/>
<path d="M2361 224 c0 -11 3 -14 6 -6 3 7 2 16 -1 19 -3 4 -6 -2 -5 -13z"/>
<path d="M2511 224 c0 -11 3 -14 6 -6 3 7 2 16 -1 19 -3 4 -6 -2 -5 -13z"/>
<path d="M980 211 c0 -6 4 -13 10 -16 6 -3 7 1 4 9 -7 18 -14 21 -14 7z"/>
<path d="M1672 200 c0 -14 2 -19 5 -12 2 6 2 18 0 25 -3 6 -5 1 -5 -13z"/>
<path d="M455 155 c8 -82 25 -155 37 -155 6 0 7 7 3 18 -4 9 -14 53 -21 96
-17 100 -26 119 -19 41z"/>
<path d="M1113 150 c0 -30 2 -43 4 -28 2 16 2 40 0 56 -2 15 -4 2 -4 -28z"/>
<path d="M310 180 c0 -5 5 -10 11 -10 5 0 7 5 4 10 -3 6 -8 10 -11 10 -2 0 -4
-4 -4 -10z"/>
<path d="M2451 174 c0 -11 3 -14 6 -6 3 7 2 16 -1 19 -3 4 -6 -2 -5 -13z"/>
<path d="M830 165 c7 -9 15 -13 17 -11 7 7 -7 26 -19 26 -6 0 -6 -6 2 -15z"/>
<path d="M2496 134 c-9 -69 -7 -134 4 -134 6 0 10 24 11 53 0 28 2 69 5 90 3
20 1 37 -4 37 -5 0 -12 -21 -16 -46z"/>
<path d="M410 155 c0 -11 5 -27 10 -35 8 -12 10 -12 10 5 0 11 -5 27 -10 35
-8 12 -10 12 -10 -5z"/>
<path d="M920 156 c0 -8 4 -17 9 -20 5 -4 7 3 4 14 -6 23 -13 26 -13 6z"/>
<path d="M562 103 c12 -83 17 -103 27 -103 6 0 6 14 1 33 -4 17 -11 53 -15 80
-3 26 -10 47 -14 47 -4 0 -4 -26 1 -57z"/>
<path d="M1658 88 c-2 -35 -1 -70 4 -78 4 -8 8 19 8 63 0 42 -2 77 -4 77 -2 0
-6 -28 -8 -62z"/>
<path d="M1683 75 c0 -44 2 -61 4 -37 2 23 2 59 0 80 -2 20 -4 1 -4 -43z"/>
<path d="M252 105 c0 -16 2 -22 5 -12 2 9 2 23 0 30 -3 6 -5 -1 -5 -18z"/>
<path d="M982 110 c0 -14 2 -19 5 -12 2 6 2 18 0 25 -3 6 -5 1 -5 -13z"/>
<path d="M1191 68 c0 -38 2 -68 7 -68 4 0 6 21 4 48 -5 82 -9 89 -11 20z"/>
<path d="M765 80 c12 -71 26 -94 20 -30 -4 30 -11 60 -17 65 -7 7 -8 -4 -3
-35z"/>
<path d="M1877 69 c3 -30 10 -58 15 -64 5 -6 7 5 3 30 -4 22 -7 48 -9 57 -1
10 -5 20 -9 24 -3 4 -4 -18 0 -47z"/>
<path d="M820 100 c0 -13 18 -22 24 -11 3 5 -1 11 -9 15 -8 3 -15 1 -15 -4z"/>
<path d="M426 84 c-5 -13 8 -54 17 -54 2 0 1 16 -1 35 -5 39 -7 42 -16 19z"/>
<path d="M2246 92 c-3 -5 1 -9 9 -9 8 0 15 4 15 9 0 4 -4 8 -9 8 -6 0 -12 -4
-15 -8z"/>
<path d="M672 70 c0 -14 2 -19 5 -12 2 6 2 18 0 25 -3 6 -5 1 -5 -13z"/>
<path d="M221 64 c0 -11 3 -14 6 -6 3 7 2 16 -1 19 -3 4 -6 -2 -5 -13z"/>
<path d="M1710 60 c1 -18 29 -70 30 -54 0 7 -7 25 -15 40 -8 16 -15 22 -15 14z"/>
<path d="M742 29 c6 -16 12 -28 14 -26 5 5 -13 57 -20 57 -3 0 0 -14 6 -31z"/>
<path d="M1242 30 c0 -19 2 -27 5 -17 2 9 2 25 0 35 -3 9 -5 1 -5 -18z"/>
<path d="M2236 51 c-4 -5 -2 -12 3 -15 5 -4 12 -2 15 3 4 5 2 12 -3 15 -5 4
-12 2 -15 -3z"/>
<path d="M1850 26 c0 -8 4 -17 9 -20 5 -4 7 3 4 14 -6 23 -13 26 -13 6z"/>
<path d="M940 15 c0 -8 4 -15 10 -15 5 0 7 7 4 15 -4 8 -8 15 -10 15 -2 0 -4
-7 -4 -15z"/>
<path d="M1581 14 c0 -11 3 -14 6 -6 3 7 2 16 -1 19 -3 4 -6 -2 -5 -13z"/>
<path d="M1951 14 c0 -11 3 -14 6 -6 3 7 2 16 -1 19 -3 4 -6 -2 -5 -13z"/>
<path d="M2426 21 c-4 -7 -5 -15 -2 -18 9 -9 19 4 14 18 -4 11 -6 11 -12 0z"/>
</g>
</svg>
