<?xml version="1.0" standalone="no"?>
<!DOCTYPE svg PUBLIC "-//W3C//DTD SVG 20010904//EN"
 "http://www.w3.org/TR/2001/REC-SVG-20010904/DTD/svg10.dtd">
<svg version="1.0" xmlns="http://www.w3.org/2000/svg"
 width="220.000000pt" height="220.000000pt" viewBox="0 0 220.000000 220.000000"
 preserveAspectRatio="xMidYMid meet">
<metadata>
Created by potrace 1.10, written by Peter Selinger 2001-2011
</metadata>
<g transform="translate(0.000000,220.000000) scale(0.100000,-0.100000)"
fill="#de7cd6" stroke="none">
<path d="M1031 2184 c0 -11 3 -14 6 -6 3 7 2 16 -1 19 -3 4 -6 -2 -5 -13z"/>
<path d="M871 2064 c0 -11 3 -14 6 -6 3 7 2 16 -1 19 -3 4 -6 -2 -5 -13z"/>
<path d="M968 2063 c7 -3 16 -2 19 1 4 3 -2 6 -13 5 -11 0 -14 -3 -6 -6z"/>
<path d="M125 2030 c3 -5 8 -10 11 -10 2 0 4 5 4 10 0 6 -5 10 -11 10 -5 0 -7
-4 -4 -10z"/>
<path d="M801 2024 c0 -11 3 -14 6 -6 3 7 2 16 -1 19 -3 4 -6 -2 -5 -13z"/>
<path d="M880 2029 c0 -5 5 -7 10 -4 6 3 10 8 10 11 0 2 -4 4 -10 4 -5 0 -10
-5 -10 -11z"/>
<path d="M924 2028 c10 -6 22 -6 26 -2 5 5 -3 10 -18 11 -22 1 -24 0 -8 -9z"/>
<path d="M1150 2010 c0 -6 5 -8 10 -5 6 3 10 2 10 -3 0 -5 7 -9 15 -9 8 0 15
4 15 9 0 4 -4 8 -9 8 -5 0 -16 3 -25 6 -9 3 -16 1 -16 -6z"/>
<path d="M82 1982 c-16 -17 -20 -28 -13 -35 8 -8 11 -6 11 6 0 9 6 17 14 17 7
0 19 6 25 14 22 26 -14 25 -37 -2z"/>
<path d="M876 1985 c-9 -14 -14 -25 -11 -25 3 0 1 -9 -5 -19 -10 -20 -19 -93
-20 -173 0 -40 -3 -48 -22 -53 -82 -23 -120 -72 -82 -105 20 -17 29 -40 16
-40 -4 0 -13 5 -20 10 -9 7 -9 7 -2 -3 6 -6 22 -12 36 -12 22 -1 23 1 10 11
-15 10 -13 14 17 31 22 14 37 33 47 62 8 27 18 40 26 37 8 -3 27 6 44 20 22
19 34 23 43 16 18 -15 32 -3 57 51 12 26 26 47 30 47 10 0 20 -26 20 -51 0
-10 7 -19 15 -19 8 0 15 7 15 15 0 8 -3 15 -7 15 -5 0 -9 12 -10 26 -2 40 -18
49 -41 24 -16 -18 -20 -19 -25 -6 -15 37 -51 10 -58 -44 -4 -26 -62 -80 -86
-80 -8 0 -12 4 -9 8 3 5 6 32 7 61 2 43 8 58 35 86 41 43 61 99 44 120 -19 22
-46 18 -64 -10z m54 -19 c0 -13 -14 -42 -30 -64 -32 -45 -44 -53 -37 -24 3 9
8 34 12 54 10 62 55 89 55 34z m66 -158 c-3 -17 -12 -38 -22 -47 -15 -15 -16
-15 -11 2 4 10 1 17 -6 17 -8 0 -7 4 3 10 8 5 15 15 16 22 3 34 5 39 14 33 6
-4 9 -21 6 -37z m-166 -119 c0 -20 -41 -79 -55 -79 -51 0 -51 40 -1 71 35 21
56 24 56 8z"/>
<path d="M905 1949 c-4 -6 -5 -12 -2 -15 2 -3 7 2 10 11 7 17 1 20 -8 4z"/>
<path d="M765 1660 c-3 -6 1 -7 9 -4 18 7 21 14 7 14 -6 0 -13 -4 -16 -10z"/>
<path d="M320 1990 c0 -8 71 -20 79 -14 8 7 -3 11 -41 17 -21 3 -38 2 -38 -3z"/>
<path d="M458 1993 c7 -3 16 -2 19 1 4 3 -2 6 -13 5 -11 0 -14 -3 -6 -6z"/>
<path d="M480 1972 c0 -4 9 -13 20 -20 11 -7 20 -9 20 -4 0 4 -9 13 -20 20
-11 7 -20 9 -20 4z"/>
<path d="M1210 1950 c0 -17 17 -47 23 -40 2 3 -2 16 -10 30 -7 14 -13 18 -13
10z"/>
<path d="M1263 1925 c-2 -43 -51 -121 -65 -107 -8 8 -6 19 6 37 17 25 16 55
-2 55 -4 0 -16 -13 -25 -30 -10 -16 -23 -30 -28 -30 -6 0 -8 4 -5 8 2 4 -3 8
-13 9 -11 1 -23 -9 -30 -23 -14 -31 -14 -47 -1 -39 6 3 10 15 10 26 0 16 4 19
23 14 12 -4 29 -16 38 -27 22 -28 51 -19 74 25 24 43 40 43 41 -2 1 -17 3 -34
6 -37 14 -13 59 11 99 53 24 25 61 54 84 65 33 15 35 17 10 12 -16 -4 -41 -7
-55 -7 -14 0 -19 -2 -12 -4 9 -3 5 -12 -13 -29 -15 -13 -31 -22 -36 -18 -5 3
1 14 13 25 13 12 17 17 9 13 -7 -3 -18 0 -23 7 -7 10 -8 9 -4 -6 5 -16 3 -16
-14 5 -11 14 -20 20 -20 13 0 -6 5 -15 10 -18 6 -3 10 -17 10 -31 0 -14 4 -22
10 -19 16 10 12 -12 -6 -29 -24 -25 -56 -21 -53 7 2 12 -3 32 -10 45 -6 12 -9
31 -6 41 3 11 0 21 -7 23 -9 4 -14 -5 -15 -27z m-58 -54 c-3 -6 -11 -11 -17
-11 -6 0 -6 6 2 15 14 17 26 13 15 -4z"/>
<path d="M1356 1948 c3 -4 11 -5 19 -1 21 7 19 12 -4 10 -11 0 -18 -5 -15 -9z"/>
<path d="M801 1934 c0 -11 3 -14 6 -6 3 7 2 16 -1 19 -3 4 -6 -2 -5 -13z"/>
<path d="M1235 1940 c3 -5 8 -10 11 -10 2 0 4 5 4 10 0 6 -5 10 -11 10 -5 0
-7 -4 -4 -10z"/>
<path d="M822 1910 c0 -14 2 -19 5 -12 2 6 2 18 0 25 -3 6 -5 1 -5 -13z"/>
<path d="M1154 1908 l-19 -23 23 19 c21 18 27 26 19 26 -2 0 -12 -10 -23 -22z"/>
<path d="M1311 1914 c0 -11 3 -14 6 -6 3 7 2 16 -1 19 -3 4 -6 -2 -5 -13z"/>
<path d="M551 1904 c0 -11 3 -14 6 -6 3 7 2 16 -1 19 -3 4 -6 -2 -5 -13z"/>
<path d="M951 1894 c0 -11 3 -14 6 -6 3 7 2 16 -1 19 -3 4 -6 -2 -5 -13z"/>
<path d="M140 1890 c-12 -8 -11 -10 5 -11 11 -1 37 -1 58 0 21 2 48 -4 62 -13
28 -18 35 -20 35 -7 0 20 -55 37 -95 30 -22 -4 -42 -3 -45 2 -3 4 -12 4 -20
-1z"/>
<path d="M793 1873 c9 -2 23 -2 30 0 6 3 -1 5 -18 5 -16 0 -22 -2 -12 -5z"/>
<path d="M925 1869 c-4 -6 -5 -12 -2 -15 2 -3 7 2 10 11 7 17 1 20 -8 4z"/>
<path d="M745 1860 c3 -5 8 -10 11 -10 2 0 4 5 4 10 0 6 -5 10 -11 10 -5 0 -7
-4 -4 -10z"/>
<path d="M145 1840 c-18 -8 -17 -9 8 -9 15 -1 27 4 27 9 0 12 -8 12 -35 0z"/>
<path d="M720 1839 c0 -5 5 -7 10 -4 6 3 10 8 10 11 0 2 -4 4 -10 4 -5 0 -10
-5 -10 -11z"/>
<path d="M1400 1841 c0 -5 -7 -17 -16 -25 -8 -9 -11 -16 -6 -16 5 0 17 11 26
25 9 14 12 25 6 25 -5 0 -10 -4 -10 -9z"/>
<path d="M760 1830 c0 -5 5 -10 10 -10 6 0 10 5 10 10 0 6 -4 10 -10 10 -5 0
-10 -4 -10 -10z"/>
<path d="M813 1829 c1 -6 -17 -18 -40 -28 -53 -21 -70 -36 -51 -46 7 -5 10 -4
5 0 -4 5 7 15 24 22 35 15 52 17 45 5 -2 -4 2 -18 10 -32 9 -16 13 -19 14 -9
0 9 -3 19 -7 23 -13 13 -10 30 9 47 16 14 16 18 3 22 -8 4 -14 2 -12 -4z"/>
<path d="M1415 1820 c-3 -5 -1 -10 4 -10 6 0 11 5 11 10 0 6 -2 10 -4 10 -3 0
-8 -4 -11 -10z"/>
<path d="M630 1811 c0 -6 4 -13 10 -16 6 -3 7 1 4 9 -7 18 -14 21 -14 7z"/>
<path d="M1013 1762 c-9 -15 -7 -21 11 -32 19 -12 20 -11 8 2 -7 9 -10 23 -6
32 8 21 2 20 -13 -2z"/>
<path d="M755 1740 c11 -5 27 -9 35 -9 9 0 8 4 -5 9 -11 5 -27 9 -35 9 -9 0
-8 -4 5 -9z"/>
<path d="M1100 1735 c0 -8 2 -15 4 -15 2 0 6 7 10 15 3 8 1 15 -4 15 -6 0 -10
-7 -10 -15z"/>
<path d="M731 1717 c-8 -10 -7 -14 4 -14 8 0 12 4 9 8 -2 4 2 10 8 12 8 4 9 6
2 6 -6 1 -17 -5 -23 -12z"/>
<path d="M920 1660 c8 -5 22 -9 30 -9 10 0 8 3 -5 9 -27 12 -43 12 -25 0z"/>
<path d="M888 1643 c7 -3 16 -2 19 1 4 3 -2 6 -13 5 -11 0 -14 -3 -6 -6z"/>
<path d="M836 1595 c4 -8 11 -15 16 -15 6 0 5 6 -2 15 -7 8 -14 15 -16 15 -2
0 -1 -7 2 -15z"/>
<path d="M1029 1459 c12 -12 25 -18 28 -15 4 3 -2 13 -13 21 -29 22 -41 18
-15 -6z"/>
<path d="M945 1462 c-13 -13 -3 -22 21 -18 36 7 39 13 10 18 -14 3 -28 3 -31
0z"/>
<path d="M1130 1440 c0 -19 3 -21 12 -12 9 9 9 15 0 24 -9 9 -12 7 -12 -12z"/>
<path d="M905 1430 c-3 -5 -1 -10 4 -10 6 0 11 5 11 10 0 6 -2 10 -4 10 -3 0
-8 -4 -11 -10z"/>
<path d="M1160 1434 c0 -3 9 -17 20 -31 21 -27 27 -15 10 18 -10 18 -30 27
-30 13z"/>
<path d="M965 1420 c3 -5 -5 -12 -19 -16 -13 -3 -27 -12 -30 -20 -10 -26 9
-21 43 12 25 25 30 34 17 34 -10 0 -14 -4 -11 -10z"/>
<path d="M994 1396 c-3 -13 -4 -35 -1 -47 3 -17 5 -13 6 13 0 20 6 38 13 40 9
3 9 6 0 12 -7 4 -14 -2 -18 -18z"/>
<path d="M1030 1381 c0 -23 2 -41 4 -41 8 0 12 71 4 76 -4 3 -8 -13 -8 -35z"/>
<path d="M1135 1400 c3 -5 8 -10 11 -10 2 0 4 5 4 10 0 6 -5 10 -11 10 -5 0
-7 -4 -4 -10z"/>
<path d="M876 1385 c4 -8 8 -15 10 -15 2 0 4 7 4 15 0 8 -4 15 -10 15 -5 0 -7
-7 -4 -15z"/>
<path d="M1070 1380 c0 -5 6 -10 14 -10 8 0 17 -6 20 -12 9 -18 37 -60 65 -99
19 -25 21 -31 8 -26 -22 8 -21 -1 3 -40 20 -34 34 -44 24 -19 -3 8 -1 17 5 21
6 3 11 -2 12 -12 3 -41 5 -50 27 -92 19 -36 22 -48 13 -67 -6 -13 -6 -24 -2
-24 5 0 11 -8 13 -17 3 -10 5 2 6 27 2 52 -15 112 -34 123 -8 4 -14 13 -14 18
0 6 5 7 11 3 6 -3 3 9 -6 27 -23 44 -25 46 -34 31 -5 -8 -8 0 -8 19 0 20 -7
38 -20 49 -11 9 -24 26 -27 38 -14 43 -76 94 -76 62z"/>
<path d="M1155 1360 c9 -30 34 -80 40 -80 5 0 -34 92 -42 100 -3 3 -2 -6 2
-20z"/>
<path d="M851 1354 c0 -11 3 -14 6 -6 3 7 2 16 -1 19 -3 4 -6 -2 -5 -13z"/>
<path d="M864 1305 c-37 -57 -39 -64 -39 -142 0 -76 -7 -102 -18 -70 -2 6 -4
0 -4 -15 0 -24 1 -25 15 -12 12 12 17 13 23 3 4 -8 11 -10 16 -6 4 5 2 12 -5
16 -7 4 -10 15 -6 25 6 17 8 16 20 -5 l13 -24 1 22 c0 13 -9 28 -20 35 -11 7
-20 22 -20 33 0 16 2 17 10 5 7 -10 8 -4 4 20 -6 40 18 117 42 135 9 6 15 18
12 26 -3 8 -20 -10 -44 -46z"/>
<path d="M1060 1344 c0 -3 5 -14 10 -25 7 -11 7 -19 1 -19 -5 0 -16 -3 -25 -6
-11 -4 -16 -1 -16 10 0 9 -4 16 -10 16 -11 0 4 -46 22 -68 9 -11 13 -11 19 0
6 9 9 9 9 1 0 -6 9 -9 20 -6 16 4 20 0 20 -21 0 -15 11 -38 26 -52 14 -14 23
-31 21 -37 -2 -7 7 -28 20 -47 12 -19 23 -40 23 -46 0 -7 7 -14 15 -18 21 -8
19 7 -5 37 -29 37 -25 58 5 22 17 -21 24 -25 25 -14 0 20 -31 49 -53 49 -9 0
-17 5 -17 11 0 5 4 8 9 4 5 -3 12 -1 16 5 3 5 -1 10 -9 10 -9 0 -18 11 -22 24
-4 16 -11 23 -20 19 -8 -3 -15 -1 -15 3 -1 5 -3 21 -5 36 -1 15 -8 36 -14 45
-11 17 -11 17 -6 1 3 -12 0 -18 -10 -18 -8 0 -13 4 -10 9 4 5 -3 7 -14 4 -11
-3 -20 -1 -20 5 0 5 11 13 25 16 14 4 25 11 25 17 0 6 -4 7 -10 4 -5 -3 -10 3
-10 14 0 12 -4 21 -10 21 -5 0 -10 -3 -10 -6z"/>
<path d="M932 1320 c0 -14 2 -19 5 -12 2 6 2 18 0 25 -3 6 -5 1 -5 -13z"/>
<path d="M950 1321 c0 -6 4 -11 10 -11 5 0 7 -8 3 -17 -3 -10 -2 -15 2 -10 5
4 15 -7 22 -24 7 -17 18 -29 25 -27 7 3 23 -8 36 -24 14 -16 27 -27 30 -24 2
3 -12 25 -33 48 -22 23 -36 35 -32 25 12 -32 -2 -17 -23 22 -20 40 -40 61 -40
42z"/>
<path d="M807 1293 c-6 -34 -5 -37 10 -14 6 10 8 23 3 30 -5 9 -9 3 -13 -16z"/>
<path d="M1255 1303 c4 -10 17 -70 30 -133 13 -63 28 -128 34 -145 5 -16 15
-58 21 -92 7 -35 16 -60 21 -57 4 2 7 -35 5 -83 -2 -52 0 -79 5 -67 4 12 12
24 16 27 10 6 -7 131 -20 143 -4 4 -7 12 -7 18 0 6 5 4 10 -4 8 -12 10 -11 10
7 0 13 -5 22 -12 20 -14 -2 -40 89 -67 243 -21 117 -29 140 -43 140 -6 0 -7
-8 -3 -17z"/>
<path d="M1310 1285 c11 -20 20 -48 20 -63 1 -15 7 -40 15 -57 l13 -30 1 32
c1 17 -3 35 -9 38 -5 3 -10 19 -10 36 0 16 -4 29 -9 29 -5 0 -12 11 -15 25 -4
14 -11 25 -16 25 -5 0 -1 -16 10 -35z"/>
<path d="M1220 1293 c0 -4 5 -15 10 -23 8 -13 10 -13 10 2 0 9 -4 20 -10 23
-5 3 -10 3 -10 -2z"/>
<path d="M911 1268 c-11 -21 -11 -33 -1 -64 7 -22 14 -45 16 -52 2 -7 9 -10
15 -6 8 5 8 8 0 14 -7 3 -9 14 -5 23 3 10 -1 28 -10 41 -10 16 -12 26 -5 28 6
2 10 12 8 22 -4 17 -6 16 -18 -6z"/>
<path d="M941 1274 c0 -11 3 -14 6 -6 3 7 2 16 -1 19 -3 4 -6 -2 -5 -13z"/>
<path d="M1129 1268 c4 -12 14 -24 20 -26 8 -3 7 5 -4 22 -21 32 -27 33 -16 4z"/>
<path d="M960 1252 c0 -7 7 -26 15 -42 18 -34 75 -78 75 -58 0 8 4 6 11 -5 5
-9 7 -22 4 -27 -3 -6 2 -10 12 -10 10 0 27 -12 37 -27 17 -27 17 -21 0 21 -6
15 -4 17 6 11 9 -6 11 -4 6 4 -5 7 -10 10 -13 7 -3 -3 -14 6 -25 19 -23 29
-66 56 -53 33 5 -7 -5 1 -22 17 -16 17 -35 39 -41 50 -6 11 -12 14 -12 7z"/>
<path d="M881 1224 c-1 -11 6 -29 15 -40 8 -10 12 -13 9 -6 -4 8 -11 26 -15
40 -7 22 -8 23 -9 6z"/>
<path d="M1083 1209 c12 -14 23 -26 24 -25 1 0 -1 13 -4 28 -3 18 -11 26 -23
25 -17 -1 -16 -3 3 -28z"/>
<path d="M1130 1220 c0 -5 5 -10 10 -10 6 0 10 5 10 10 0 6 -4 10 -10 10 -5 0
-10 -4 -10 -10z"/>
<path d="M954 1173 c1 -29 6 -56 11 -60 4 -5 5 0 2 10 -7 19 1 22 23 7 12 -8
13 -11 1 -19 -10 -7 -10 -10 -1 -16 8 -5 16 -1 22 9 13 23 31 10 18 -14 -5
-10 -10 -22 -10 -27 1 -4 7 3 14 16 15 27 11 51 -8 51 -16 1 -63 51 -69 75 -2
11 -4 -4 -3 -32z"/>
<path d="M1240 1215 c0 -5 5 -17 10 -25 5 -8 10 -10 10 -5 0 6 -5 17 -10 25
-5 8 -10 11 -10 5z"/>
<path d="M754 1146 c-11 -36 -17 -66 -13 -66 9 0 42 105 37 120 -2 6 -13 -18
-24 -54z"/>
<path d="M1324 1164 c3 -8 10 -43 16 -77 6 -34 14 -78 19 -97 l9 -35 1 46 c1
44 -33 179 -45 179 -4 0 -3 -7 0 -16z"/>
<path d="M1100 1161 c0 -5 7 -11 15 -15 8 -3 15 -1 15 3 0 5 -7 11 -15 15 -8
3 -15 1 -15 -3z"/>
<path d="M910 1108 c0 -5 9 -12 20 -15 11 -3 17 -9 14 -14 -3 -5 2 -6 10 -3
22 8 21 10 -14 28 -17 8 -30 10 -30 4z"/>
<path d="M763 966 c-1 -67 -5 -129 -7 -137 -3 -8 -10 -26 -15 -40 -7 -19 -6
-26 4 -26 7 0 11 7 8 14 -3 8 2 22 11 32 10 11 17 34 16 52 0 19 -1 75 -1 126
0 51 -3 94 -7 97 -4 2 -8 -51 -9 -118z"/>
<path d="M1070 1079 c0 -5 5 -7 10 -4 6 3 10 8 10 11 0 2 -4 4 -10 4 -5 0 -10
-5 -10 -11z"/>
<path d="M883 1063 c-3 -10 -8 -22 -11 -27 -3 -5 0 -6 6 -2 7 4 12 1 12 -8 0
-11 9 -16 30 -16 20 0 30 -5 30 -15 0 -8 -5 -15 -12 -15 -6 0 -8 -3 -5 -6 10
-10 36 16 31 30 -6 16 33 28 40 12 8 -19 5 17 -4 44 -5 16 -8 19 -9 8 -2 -29
-101 -45 -101 -17 0 5 5 9 10 9 6 0 10 5 10 10 0 17 -20 11 -27 -7z"/>
<path d="M1100 1055 c0 -9 9 -19 20 -22 11 -3 20 -10 20 -17 0 -16 20 16 20
33 0 8 -6 11 -16 7 -9 -4 -23 -1 -30 5 -11 9 -14 8 -14 -6z"/>
<path d="M1037 1048 c-2 -7 -3 -34 -2 -60 1 -26 -2 -45 -7 -42 -4 3 -8 0 -8
-6 0 -7 6 -10 13 -7 7 2 12 21 12 44 0 23 4 45 8 49 4 5 5 1 2 -8 -4 -11 0
-18 15 -23 25 -8 35 -1 25 15 -6 9 -10 9 -17 -1 -8 -11 -9 -10 -4 4 11 35 -24
68 -37 35z"/>
<path d="M732 1025 c0 -16 2 -22 5 -12 2 9 2 23 0 30 -3 6 -5 -1 -5 -18z"/>
<path d="M834 1004 c9 -38 12 -42 17 -22 6 26 -3 60 -18 65 -6 2 -6 -13 1 -43z"/>
<path d="M1246 1033 c-6 -14 -5 -15 5 -6 7 7 10 15 7 18 -3 3 -9 -2 -12 -12z"/>
<path d="M1292 1030 c-1 -41 23 -143 35 -147 9 -3 -2 59 -26 142 -8 28 -9 28
-9 5z"/>
<path d="M1173 998 c2 -36 -4 -51 -31 -85 -18 -23 -29 -44 -24 -47 4 -2 16 6
26 20 18 23 36 32 36 16 0 -4 -11 -19 -25 -34 -21 -23 -27 -25 -50 -15 -14 7
-23 18 -20 25 7 19 -5 42 -23 42 -12 0 -13 -3 -4 -12 17 -17 15 -48 -3 -48 -9
0 -12 6 -9 15 4 8 1 15 -5 15 -6 0 -11 -5 -11 -11 0 -14 -41 -48 -59 -49 -11
0 -11 3 -1 15 10 12 9 20 -5 41 -16 24 -16 26 3 31 23 6 36 40 18 47 -8 3 -7
7 3 14 15 11 7 32 -12 32 -9 0 -9 -2 0 -8 8 -5 4 -15 -13 -35 l-23 -27 -25 21
c-14 12 -23 26 -20 31 3 4 -1 8 -8 8 -7 0 -13 -11 -13 -25 0 -17 4 -24 14 -20
8 3 22 -2 32 -11 18 -16 20 -16 39 1 11 10 20 13 20 7 0 -6 -9 -17 -20 -25
-21 -14 -19 -44 4 -59 6 -4 5 -12 -3 -21 -14 -18 -9 -22 44 -32 51 -10 76 -7
98 12 9 9 17 12 17 7 0 -4 -12 -18 -27 -31 -16 -12 -22 -22 -15 -23 7 0 25 12
39 28 14 15 30 26 35 24 5 -1 7 2 3 8 -3 5 -3 10 2 10 4 0 23 21 40 48 33 47
51 117 29 109 -6 -3 -21 4 -33 15 l-22 20 2 -44z m38 -51 c-15 -40 -30 -33
-17 8 6 19 14 31 19 26 4 -4 3 -20 -2 -34z m-121 -107 c0 -11 -49 -22 -61 -15
-5 4 -7 9 -5 13 6 10 66 11 66 2z"/>
<path d="M803 965 c-2 -47 3 -77 18 -111 11 -25 23 -43 26 -41 2 3 -4 22 -14
44 -18 38 -23 94 -10 123 4 9 2 23 -5 33 -11 15 -13 8 -15 -48z"/>
<path d="M1426 1003 c-6 -14 -5 -15 5 -6 7 7 10 15 7 18 -3 3 -9 -2 -12 -12z"/>
<path d="M1050 972 c0 -13 23 -32 39 -32 11 0 10 4 -4 20 -19 21 -35 26 -35
12z"/>
<path d="M1250 965 c-2 -11 -3 -26 -3 -32 1 -7 -3 -13 -7 -13 -4 0 -13 -13
-20 -30 -7 -16 -17 -30 -22 -30 -6 0 -8 -7 -5 -14 3 -8 -9 -50 -28 -93 -19
-45 -30 -80 -24 -84 5 -3 1 -17 -11 -32 -12 -15 -18 -31 -15 -37 3 -5 2 -10
-2 -10 -5 0 -17 -14 -27 -31 -11 -18 -24 -28 -32 -25 -7 3 -16 1 -18 -3 -3 -5
17 -8 44 -7 30 1 49 -3 46 -9 -1 -5 -10 -9 -20 -7 -19 3 -20 -2 -4 -27 11 -18
12 -18 26 7 25 50 54 137 57 172 1 19 3 38 4 42 0 4 12 2 26 -4 18 -8 22 -15
15 -23 -6 -8 -7 -22 -2 -36 9 -23 9 -23 16 5 4 15 4 36 1 47 -4 11 -2 19 4 19
6 0 12 -10 12 -22 1 -13 5 2 9 32 5 30 4 61 -1 70 -7 12 -9 12 -10 -5 -1 -11
0 -30 1 -42 1 -13 -3 -23 -9 -23 -16 0 -13 63 4 86 17 22 19 34 5 34 -5 0 -20
-21 -32 -46 -17 -37 -19 -50 -10 -65 18 -28 15 -34 -7 -15 -17 16 -19 15 -36
-10 -14 -21 -14 -28 -4 -34 10 -7 10 -12 0 -23 -6 -8 -14 -24 -16 -36 -2 -12
-11 -28 -19 -36 -13 -13 -14 -12 -12 9 1 13 10 36 19 50 9 14 14 31 11 39 -3
8 13 52 35 98 23 46 41 87 41 92 0 5 7 24 16 42 8 19 14 44 11 57 -4 20 -5 21
-7 3z m-148 -427 c-7 -7 -12 -8 -12 -2 0 14 12 26 19 19 2 -3 -1 -11 -7 -17z"/>
<path d="M1276 949 c-21 -65 -27 -91 -24 -95 3 -2 12 19 22 47 9 29 14 54 11
57 -2 3 -7 -1 -9 -9z"/>
<path d="M820 940 c0 -6 6 -13 13 -16 7 -2 14 -16 15 -31 1 -15 7 -30 13 -34
7 -4 9 -11 6 -16 -3 -5 -1 -15 5 -23 8 -12 9 -12 4 3 -3 10 -2 16 3 13 14 -9
18 -75 5 -80 -7 -3 -10 2 -7 14 3 10 0 21 -6 25 -8 4 -10 -5 -8 -30 4 -37 17
-61 17 -32 0 9 5 17 10 17 6 0 10 -12 10 -26 0 -14 -4 -22 -10 -19 -6 3 -7 -1
-4 -10 4 -9 13 -14 22 -10 11 4 12 2 5 -7 -13 -16 -14 -66 -2 -74 5 -3 9 1 10
8 1 7 2 29 4 48 2 19 0 57 -5 83 -8 56 3 58 37 6 13 -19 27 -39 33 -46 13 -16
13 -26 0 -18 -12 8 -40 -12 -40 -27 0 -6 7 -4 17 3 9 8 18 13 20 12 11 -9 35
1 69 27 61 47 65 51 59 61 -9 14 -38 11 -33 -3 3 -7 -8 -23 -23 -36 l-29 -24
-32 32 c-26 26 -29 34 -17 42 11 8 10 9 -4 4 -11 -3 -20 0 -23 9 -4 8 -12 15
-19 15 -17 0 -39 35 -60 99 -12 38 -20 49 -26 40 -6 -10 -9 -11 -9 -1 0 6 -4
12 -10 12 -5 0 -10 -5 -10 -10z"/>
<path d="M896 925 c4 -8 8 -15 10 -15 2 0 4 7 4 15 0 8 -4 15 -10 15 -5 0 -7
-7 -4 -15z"/>
<path d="M1005 910 c3 -5 8 -10 11 -10 2 0 4 5 4 10 0 6 -5 10 -11 10 -5 0 -7
-4 -4 -10z"/>
<path d="M1095 910 c-3 -5 -2 -10 4 -10 5 0 13 5 16 10 3 6 2 10 -4 10 -5 0
-13 -4 -16 -10z"/>
<path d="M1421 904 c0 -11 3 -14 6 -6 3 7 2 16 -1 19 -3 4 -6 -2 -5 -13z"/>
<path d="M1281 877 c-8 -10 -8 -22 -2 -39 5 -13 10 -51 12 -83 3 -55 0 -67
-39 -138 -24 -43 -42 -83 -40 -88 3 -10 98 163 117 214 15 38 4 34 -14 -5
l-15 -33 5 40 c5 49 15 76 25 70 4 -3 10 2 14 10 3 8 0 15 -7 15 -8 0 -8 3 2
9 10 6 10 10 1 16 -7 4 -13 -1 -17 -13 -7 -28 -33 -37 -33 -13 0 11 6 21 13
24 9 3 9 8 1 16 -8 9 -14 8 -23 -2z"/>
<path d="M791 839 c-1 -37 -20 -88 -48 -129 -25 -38 -28 -50 -13 -50 5 0 12
11 16 25 3 13 11 23 17 22 6 -1 14 12 17 28 4 17 12 41 17 55 l10 24 12 -22
c9 -17 9 -33 -4 -74 -18 -63 -18 -70 0 -38 22 40 29 98 13 117 -7 9 -18 28
-25 42 l-11 26 -1 -26z"/>
<path d="M1170 825 c-7 -9 -11 -18 -8 -20 3 -3 11 1 18 10 7 9 11 18 8 20 -3
3 -11 -1 -18 -10z"/>
<path d="M1020 791 c0 -6 4 -11 9 -11 16 0 22 -32 9 -48 -12 -13 -11 -14 8 -2
12 7 21 20 20 29 -3 18 -46 49 -46 32z"/>
<path d="M1336 728 c-10 -24 -29 -65 -43 -93 -21 -45 -22 -47 -3 -25 29 35 56
89 63 128 9 43 4 40 -17 -10z"/>
<path d="M1372 681 c-30 -66 -28 -89 3 -26 32 66 36 75 27 75 -4 0 -17 -22
-30 -49z"/>
<path d="M847 705 c-4 -11 -10 -27 -13 -35 -5 -13 -4 -13 5 0 18 25 13 -5 -9
-56 -11 -26 -18 -49 -15 -52 3 -3 5 0 5 6 0 7 4 12 10 12 6 0 6 -9 0 -26 -13
-34 -12 -44 2 -20 6 11 12 39 14 63 1 25 8 51 14 58 8 10 9 23 3 42 -9 25 -10
26 -16 8z"/>
<path d="M1067 692 c-10 -10 -17 -26 -17 -35 0 -22 -36 -57 -57 -56 -14 0 -13
2 5 9 31 13 28 22 -5 14 -27 -6 -27 -6 -8 9 18 15 18 16 2 17 -12 0 -20 -10
-24 -32 -4 -18 -6 -36 -5 -40 1 -4 -12 -5 -30 -1 -42 8 -29 -12 17 -27 19 -6
35 -15 35 -19 0 -14 -13 -21 -24 -12 -19 14 -46 21 -46 11 0 -10 27 -20 73
-26 19 -2 27 0 19 5 -10 6 -4 15 22 35 20 15 36 32 36 37 0 6 -16 -2 -35 -17
-47 -36 -56 -23 -13 18 19 18 46 54 61 81 28 47 24 63 -6 29z m-67 -105 c0 -1
-9 -10 -19 -19 -18 -16 -20 -15 -18 3 1 11 9 19 19 19 10 0 18 -1 18 -3z"/>
<path d="M1416 678 c3 -5 10 -6 15 -3 13 9 11 12 -6 12 -8 0 -12 -4 -9 -9z"/>
<path d="M1021 661 c-10 -6 -10 -10 -1 -16 13 -8 24 -1 19 14 -3 6 -10 7 -18
2z"/>
<path d="M1400 655 c0 -24 16 -51 22 -39 3 5 -1 20 -8 34 -12 22 -14 22 -14 5z"/>
<path d="M882 628 c-3 -42 -32 -107 -53 -119 -11 -5 -26 -26 -34 -46 -17 -41
-18 -46 -7 -39 5 3 28 6 51 7 23 2 45 7 47 11 3 5 15 6 26 2 17 -5 19 -4 8 7
-16 17 -60 18 -60 2 0 -7 -4 -13 -9 -13 -5 0 -12 6 -14 13 -4 9 -8 8 -16 -3
-9 -13 -11 -13 -11 2 0 9 9 23 20 31 28 20 62 102 57 140 -3 29 -4 29 -5 5z"/>
<path d="M723 595 c-6 -25 -7 -45 -3 -45 8 0 23 80 17 86 -2 2 -8 -16 -14 -41z"/>
<path d="M1067 616 c-4 -10 -1 -13 8 -9 8 3 12 9 9 14 -7 12 -11 11 -17 -5z"/>
<path d="M1380 610 c0 -5 5 -10 10 -10 6 0 10 5 10 10 0 6 -4 10 -10 10 -5 0
-10 -4 -10 -10z"/>
<path d="M1307 603 c-4 -3 -7 -16 -7 -27 0 -15 -3 -17 -8 -8 -14 21 -32 -32
-22 -65 8 -28 8 -28 10 -3 1 14 2 28 1 33 0 4 8 16 19 27 11 11 20 27 20 35 0
16 -3 18 -13 8z"/>
<path d="M1436 595 c4 -8 11 -15 16 -15 6 0 5 6 -2 15 -7 8 -14 15 -16 15 -2
0 -1 -7 2 -15z"/>
<path d="M1625 600 c-16 -7 -17 -9 -3 -9 9 -1 18 -7 21 -13 2 -7 8 -9 13 -5 5
4 2 12 -5 16 -11 7 -11 10 0 14 8 3 10 5 4 6 -5 0 -19 -4 -30 -9z"/>
<path d="M1197 586 c-4 -10 -7 -25 -6 -34 0 -11 4 -9 10 7 5 13 8 29 6 35 -2
5 -6 2 -10 -8z"/>
<path d="M1333 585 c-3 -9 -3 -18 -1 -21 3 -3 8 4 11 16 6 23 -1 27 -10 5z"/>
<path d="M1513 583 c4 -3 7 -9 7 -14 0 -6 -4 -7 -10 -4 -5 3 -10 2 -10 -3 0
-11 30 -25 38 -17 3 3 -1 5 -9 5 -10 1 -8 5 5 15 11 8 15 15 9 15 -6 0 -17 2
-25 3 -7 2 -10 2 -5 0z"/>
<path d="M1236 519 c-15 -34 -24 -64 -21 -67 6 -6 34 27 36 43 3 34 7 52 14
68 4 9 5 17 2 17 -2 0 -16 -28 -31 -61z"/>
<path d="M1600 572 c0 -6 -9 -8 -20 -5 -11 3 -20 0 -20 -6 0 -6 7 -11 15 -11
9 0 34 -9 56 -21 23 -11 44 -18 47 -14 3 3 -4 8 -16 12 -12 3 -19 9 -16 14 3
5 -4 9 -16 9 -12 0 -19 4 -15 9 3 5 1 12 -5 16 -5 3 -10 2 -10 -3z"/>
<path d="M1456 561 c-3 -4 1 -16 8 -26 9 -13 15 -15 20 -7 4 7 2 12 -4 12 -7
0 -10 7 -6 15 6 16 -9 21 -18 6z"/>
<path d="M1340 540 c-8 -14 -8 -20 0 -20 6 0 8 -5 5 -10 -8 -13 4 -50 16 -50
5 0 9 7 9 15 0 8 -4 15 -8 15 -4 0 -6 16 -4 35 5 39 -2 45 -18 15z"/>
<path d="M1305 530 c-3 -5 -3 -15 0 -20 8 -13 -4 -52 -15 -45 -16 10 -20 -46
-5 -75 22 -42 74 -100 91 -100 8 0 14 -4 14 -10 0 -40 -100 47 -131 115 -10
22 -19 32 -19 22 0 -14 -3 -15 -19 -5 -23 14 -33 55 -20 83 10 19 10 19 -5 1
-15 -19 -12 -78 6 -84 4 -2 8 -9 8 -16 0 -10 42 -53 65 -66 5 -3 24 -20 42
-38 34 -34 63 -39 100 -19 16 9 20 16 13 27 -5 8 -12 11 -16 8 -13 -13 -63 22
-99 68 -42 55 -47 80 -7 38 26 -28 71 -47 57 -25 -3 6 -12 11 -19 11 -21 0
-41 29 -29 41 8 8 13 5 17 -9 4 -12 31 -32 66 -48 33 -15 58 -29 56 -31 -2 -3
-18 3 -36 12 -24 12 -38 14 -58 6 -15 -5 -20 -10 -11 -10 9 -1 40 -8 68 -18
28 -9 54 -14 57 -10 13 12 -17 44 -53 56 -21 7 -47 20 -58 29 -24 19 -58 99
-50 113 4 5 4 9 1 9 -3 0 -8 -4 -11 -10z m11 -76 c-4 -9 -9 -15 -11 -12 -3 3
-3 13 1 22 4 9 9 15 11 12 3 -3 3 -13 -1 -22z"/>
<path d="M1410 531 c0 -5 7 -14 15 -21 12 -10 15 -10 15 3 0 8 -7 17 -15 21
-8 3 -15 2 -15 -3z"/>
<path d="M1180 519 c0 -5 5 -7 10 -4 6 3 10 8 10 11 0 2 -4 4 -10 4 -5 0 -10
-5 -10 -11z"/>
<path d="M638 506 c-21 -16 -5 -37 27 -35 16 1 17 2 3 6 -10 2 -18 8 -18 13 0
5 8 14 18 19 13 8 14 10 2 10 -8 0 -23 -5 -32 -13z"/>
<path d="M1380 514 c0 -4 10 -23 23 -41 16 -24 30 -33 52 -34 17 -1 40 -3 52
-4 11 -1 57 10 101 26 70 24 82 25 93 13 6 -8 14 -12 17 -9 3 2 -1 11 -8 20
-13 16 -27 14 -110 -10 -25 -7 -67 -15 -94 -18 -44 -4 -52 -2 -87 30 -22 20
-39 32 -39 27z"/>
<path d="M1588 513 c7 -3 16 -2 19 1 4 3 -2 6 -13 5 -11 0 -14 -3 -6 -6z"/>
<path d="M1736 512 c7 -4 14 -16 17 -27 4 -15 5 -14 6 8 1 20 -4 27 -16 27
-12 0 -14 -3 -7 -8z"/>
<path d="M1022 494 c-8 -8 -22 -12 -32 -9 -10 3 -21 1 -25 -4 -4 -7 1 -8 11
-4 13 5 16 2 12 -8 -4 -10 2 -14 21 -15 14 -1 20 1 14 3 -7 3 -13 9 -13 15 0
6 7 7 16 4 8 -3 12 -2 9 4 -3 6 5 10 19 10 14 0 26 5 26 10 0 15 -43 11 -58
-6z"/>
<path d="M1455 500 c3 -5 0 -10 -7 -10 -9 0 -9 -3 2 -10 22 -14 89 -11 130 6
l35 14 -35 -5 c-19 -3 -52 -8 -72 -12 -36 -5 -54 9 -25 20 6 3 2 6 -11 6 -13
1 -20 -3 -17 -9z"/>
<path d="M1518 503 c6 -2 18 -2 25 0 6 3 1 5 -13 5 -14 0 -19 -2 -12 -5z"/>
<path d="M710 490 c0 -5 5 -10 10 -10 6 0 10 5 10 10 0 6 -4 10 -10 10 -5 0
-10 -4 -10 -10z"/>
<path d="M910 494 c0 -3 7 -12 15 -20 16 -17 18 -14 9 10 -6 15 -24 23 -24 10z"/>
<path d="M740 460 c-6 -12 -22 -21 -38 -21 -23 -1 -22 -3 8 -8 29 -5 37 -3 47
14 15 25 16 35 3 35 -5 0 -14 -9 -20 -20z"/>
<path d="M240 459 c0 -5 5 -7 10 -4 6 3 10 8 10 11 0 2 -4 4 -10 4 -5 0 -10
-5 -10 -11z"/>
<path d="M685 460 c-3 -5 3 -10 14 -10 12 0 21 5 21 10 0 6 -6 10 -14 10 -8 0
-18 -4 -21 -10z"/>
<path d="M1380 450 c0 -5 5 -10 11 -10 5 0 7 5 4 10 -3 6 -8 10 -11 10 -2 0
-4 -4 -4 -10z"/>
<path d="M1633 452 c-8 -5 1 -8 22 -8 21 0 30 3 22 8 -6 4 -16 8 -22 8 -5 0
-16 -4 -22 -8z"/>
<path d="M388 443 c6 -2 18 -2 25 0 6 3 1 5 -13 5 -14 0 -19 -2 -12 -5z"/>
<path d="M630 443 c1 -19 16 -32 29 -24 11 7 9 11 -8 20 -11 7 -21 8 -21 4z"/>
<path d="M1111 428 c-6 -13 -10 -17 -10 -9 -1 11 -4 11 -16 1 -8 -7 -15 -17
-15 -22 0 -6 7 -5 15 2 12 10 15 10 15 -1 0 -8 5 -6 12 6 6 11 16 23 21 26 5
4 5 9 -2 13 -6 4 -15 -3 -20 -16z"/>
<path d="M1581 430 c-9 -5 -5 -9 14 -14 18 -5 25 -12 23 -24 -4 -25 29 -72 50
-71 10 0 12 3 5 6 -7 2 -13 11 -13 18 0 7 -7 16 -16 19 -10 4 -13 13 -9 25 7
22 -34 54 -54 41z"/>
<path d="M1150 415 c0 -8 5 -15 10 -15 6 0 10 7 10 15 0 8 -4 15 -10 15 -5 0
-10 -7 -10 -15z"/>
<path d="M610 400 c0 -5 5 -10 11 -10 5 0 7 5 4 10 -3 6 -8 10 -11 10 -2 0 -4
-4 -4 -10z"/>
<path d="M1450 405 c0 -2 10 -10 23 -16 20 -11 21 -11 8 4 -13 16 -31 23 -31
12z"/>
<path d="M1101 368 c-30 -37 -23 -44 14 -13 20 15 27 27 20 33 -6 6 -18 -1
-34 -20z"/>
<path d="M1682 380 c0 -14 2 -19 5 -12 2 6 2 18 0 25 -3 6 -5 1 -5 -13z"/>
<path d="M1046 366 c-8 -14 -13 -31 -10 -39 3 -9 -6 -24 -22 -36 -41 -33 -21
-36 37 -7 29 14 59 26 66 26 7 0 13 8 13 17 0 13 -3 14 -12 5 -7 -7 -19 -12
-27 -12 -8 0 -24 -8 -35 -17 -19 -17 -19 -16 2 20 27 46 28 54 5 36 -16 -13
-17 -12 -4 4 8 9 12 20 9 23 -3 2 -13 -7 -22 -20z"/>
<path d="M1080 380 c0 -5 5 -10 10 -10 6 0 10 5 10 10 0 6 -4 10 -10 10 -5 0
-10 -4 -10 -10z"/>
<path d="M1560 380 c0 -5 10 -10 23 -10 18 0 19 2 7 10 -19 13 -30 13 -30 0z"/>
<path d="M1710 363 c0 -18 -4 -42 -9 -55 -6 -16 -4 -27 6 -37 13 -12 14 -11 9
5 -3 10 -1 37 4 59 6 25 5 44 0 49 -7 7 -10 -2 -10 -21z"/>
<path d="M630 370 c0 -5 5 -10 11 -10 5 0 7 5 4 10 -3 6 -8 10 -11 10 -2 0 -4
-4 -4 -10z"/>
<path d="M1164 368 c-16 -25 -13 -58 5 -58 9 0 21 -4 27 -9 5 -6 17 -4 29 5
20 15 20 15 0 13 -49 -5 -56 0 -51 31 5 32 2 37 -10 18z"/>
<path d="M593 325 c0 -27 2 -38 4 -22 2 15 2 37 0 50 -2 12 -4 0 -4 -28z"/>
<path d="M1512 354 c10 -10 20 -16 22 -13 3 3 -5 11 -17 18 -21 13 -21 12 -5
-5z"/>
<path d="M138 353 c7 -3 16 -2 19 1 4 3 -2 6 -13 5 -11 0 -14 -3 -6 -6z"/>
<path d="M711 344 c0 -11 3 -14 6 -6 3 7 2 16 -1 19 -3 4 -6 -2 -5 -13z"/>
<path d="M1751 344 c0 -11 3 -14 6 -6 3 7 2 16 -1 19 -3 4 -6 -2 -5 -13z"/>
<path d="M190 326 c0 -2 9 -6 20 -9 11 -3 18 -1 14 4 -5 9 -34 13 -34 5z"/>
<path d="M970 319 c0 -5 5 -7 10 -4 6 3 10 8 10 11 0 2 -4 4 -10 4 -5 0 -10
-5 -10 -11z"/>
<path d="M1533 313 c-13 -2 -23 -8 -23 -13 0 -4 15 -5 33 0 19 4 48 6 66 4 20
-3 30 0 26 6 -6 10 -59 11 -102 3z"/>
<path d="M657 295 c-4 -9 -1 -15 8 -15 9 0 15 -10 15 -25 0 -14 4 -25 9 -25
11 0 2 38 -14 63 -11 16 -13 16 -18 2z"/>
<path d="M1810 296 c0 -9 5 -16 10 -16 6 0 10 4 10 9 0 6 -4 13 -10 16 -5 3
-10 -1 -10 -9z"/>
<path d="M1258 283 c7 -3 16 -2 19 1 4 3 -2 6 -13 5 -11 0 -14 -3 -6 -6z"/>
<path d="M1478 283 c7 -3 16 -2 19 1 4 3 -2 6 -13 5 -11 0 -14 -3 -6 -6z"/>
<path d="M553 240 c0 -25 2 -35 4 -22 2 12 2 32 0 45 -2 12 -4 2 -4 -23z"/>
<path d="M1600 270 c0 -5 14 -10 32 -10 36 0 35 4 -4 14 -17 4 -28 2 -28 -4z"/>
<path d="M644 221 c1 -16 4 -27 8 -25 9 6 15 -17 29 -113 7 -46 17 -83 22 -83
6 0 7 3 4 7 -4 3 -2 12 4 20 9 9 8 13 0 13 -6 0 -11 14 -11 31 0 42 -20 119
-40 152 l-17 28 1 -30z"/>
<path d="M1398 243 c-10 -2 -18 -9 -18 -15 0 -6 7 -7 18 -3 9 4 22 8 29 8 7 0
10 4 7 9 -5 8 -8 9 -36 1z"/>
<path d="M1843 216 c1 -11 9 -21 17 -23 10 -3 11 -2 4 4 -6 4 -14 15 -17 23
-5 11 -6 9 -4 -4z"/>
<path d="M1345 200 c3 -5 8 -10 11 -10 2 0 4 5 4 10 0 6 -5 10 -11 10 -5 0 -7
-4 -4 -10z"/>
<path d="M1732 100 l1 -105 9 88 c6 57 5 93 -1 105 -7 12 -10 -13 -9 -88z"/>
<path d="M1255 170 c3 -5 10 -10 16 -10 5 0 9 5 9 10 0 6 -7 10 -16 10 -8 0
-12 -4 -9 -10z"/>
<path d="M1200 155 c0 -16 16 -20 24 -6 3 5 -1 11 -9 15 -9 3 -15 0 -15 -9z"/>
<path d="M715 135 c20 -99 29 -135 38 -135 11 0 -1 80 -16 98 -8 10 -7 16 2
22 9 5 10 10 2 14 -6 4 -11 4 -12 -1 0 -4 -5 1 -10 12 -7 16 -8 14 -4 -10z"/>
<path d="M1860 141 c0 -12 5 -21 10 -21 6 0 10 6 10 14 0 8 -4 18 -10 21 -5 3
-10 -3 -10 -14z"/>
<path d="M782 124 c-7 -8 -8 -14 -3 -14 10 0 25 19 20 25 -2 1 -10 -3 -17 -11z"/>
<path d="M1352 116 c7 -8 15 -12 17 -11 5 6 -10 25 -20 25 -5 0 -4 -6 3 -14z"/>
<path d="M1120 110 c0 -5 7 -7 15 -4 8 4 15 8 15 10 0 2 -7 4 -15 4 -8 0 -15
-4 -15 -10z"/>
<path d="M1681 104 c0 -11 3 -14 6 -6 3 7 2 16 -1 19 -3 4 -6 -2 -5 -13z"/>
<path d="M1890 109 c0 -5 5 -7 10 -4 6 3 10 8 10 11 0 2 -4 4 -10 4 -5 0 -10
-5 -10 -11z"/>
<path d="M781 44 c0 -11 3 -14 6 -6 3 7 2 16 -1 19 -3 4 -6 -2 -5 -13z"/>
<path d="M1870 51 c0 -6 4 -13 10 -16 6 -3 7 1 4 9 -7 18 -14 21 -14 7z"/>
<path d="M1178 43 c7 -3 16 -2 19 1 4 3 -2 6 -13 5 -11 0 -14 -3 -6 -6z"/>
<path d="M1910 24 c0 -8 -4 -13 -9 -9 -5 3 -12 1 -16 -5 -3 -5 1 -10 9 -10 8
0 19 6 23 14 4 7 15 16 23 19 10 4 7 6 -7 6 -15 1 -23 -5 -23 -15z"/>
</g>
</svg>
