<?xml version="1.0" standalone="no"?>
<!DOCTYPE svg PUBLIC "-//W3C//DTD SVG 20010904//EN"
 "http://www.w3.org/TR/2001/REC-SVG-20010904/DTD/svg10.dtd">
<svg version="1.0" xmlns="http://www.w3.org/2000/svg"
 width="300.000000pt" height="300.000000pt" viewBox="0 0 300.000000 300.000000"
 preserveAspectRatio="xMidYMid meet">
<metadata>
Created by potrace 1.10, written by Peter Selinger 2001-2011
</metadata>
<g transform="translate(0.000000,300.000000) scale(0.100000,-0.100000)"
fill="#7f83ad" stroke="none">
<path d="M730 2319 c0 -72 3 -89 15 -89 12 0 15 15 16 68 1 71 5 67 29 -26 16
-64 41 -54 59 26 8 34 17 62 21 62 3 0 4 -29 2 -65 -4 -55 -2 -65 12 -65 14 0
16 14 16 89 0 87 0 89 -24 89 -21 0 -26 -7 -37 -52 -17 -72 -25 -85 -33 -50
-24 98 -25 102 -51 102 -25 0 -25 -1 -25 -89z"/>
<path d="M914 2399 c-3 -6 -2 -15 4 -21 13 -13 32 -2 32 18 0 16 -26 19 -36 3z"/>
<path d="M1050 2373 c0 -29 -3 -34 -12 -25 -31 31 -78 -3 -78 -56 0 -43 21
-60 75 -60 l45 1 0 89 c0 72 -3 88 -15 88 -11 0 -15 -11 -15 -37z m-5 -78 c0
-25 -4 -30 -25 -30 -16 0 -26 6 -28 18 -6 30 6 49 30 45 18 -2 23 -9 23 -33z"/>
<path d="M1220 2390 c0 -11 7 -20 15 -20 8 0 15 9 15 20 0 11 -7 20 -15 20 -8
0 -15 -9 -15 -20z"/>
<path d="M1397 2403 c-2 -5 -2 -45 1 -90 3 -62 8 -83 18 -83 10 0 14 13 14 45
0 33 5 47 16 52 23 8 34 -15 28 -59 -5 -34 -3 -38 15 -38 18 0 21 6 21 44 0
58 -29 97 -59 79 -29 -18 -30 -17 -24 22 4 28 2 35 -10 35 -9 0 -18 -3 -20 -7z"/>
<path d="M1530 2376 c0 -13 -6 -27 -12 -29 -10 -4 -10 -6 0 -6 8 -1 12 -18 12
-50 0 -35 4 -51 16 -55 25 -10 34 -7 34 9 0 8 -4 15 -10 15 -5 0 -10 18 -10
40 0 22 5 40 10 40 6 0 10 5 10 11 0 5 -4 7 -10 4 -6 -4 -10 5 -10 19 0 16 -6
26 -15 26 -9 0 -15 -9 -15 -24z"/>
<path d="M920 2296 c0 -49 3 -66 14 -66 18 0 16 122 -2 128 -9 3 -12 -15 -12
-62z"/>
<path d="M1099 2358 c-1 -2 -2 -31 -4 -65 -3 -57 -1 -63 17 -63 17 0 19 5 13
30 -9 40 2 70 26 70 16 0 19 -7 19 -50 0 -38 4 -50 15 -50 13 0 15 11 13 56
-3 66 -23 88 -58 66 -12 -7 -20 -8 -20 -2 0 8 -18 15 -21 8z"/>
<path d="M1220 2295 c0 -51 3 -65 15 -65 12 0 15 14 15 65 0 51 -3 65 -15 65
-12 0 -15 -14 -15 -65z"/>
<path d="M1279 2344 c-34 -41 0 -111 49 -99 15 4 22 1 22 -9 0 -18 -30 -30
-44 -16 -5 5 -19 10 -30 10 -18 0 -19 -1 -1 -20 10 -11 31 -20 46 -20 45 0 59
23 59 99 l0 68 -45 1 c-27 0 -49 -5 -56 -14z m71 -43 c0 -27 -20 -42 -42 -30
-23 12 -23 45 -1 58 21 11 43 -3 43 -28z"/>
<path d="M1606 2347 c-29 -21 -16 -51 27 -61 20 -5 37 -13 37 -17 0 -17 -23
-21 -46 -8 -28 15 -42 6 -24 -16 16 -19 74 -20 90 0 20 24 3 54 -36 61 -34 6
-43 17 -24 29 5 3 18 0 29 -7 25 -15 39 -4 21 17 -15 18 -50 19 -74 2z"/>
<path d="M730 1070 c0 -904 2 -1070 14 -1070 7 0 16 8 18 17 3 10 3 131 2 268
-2 157 0 265 7 291 8 29 8 48 0 61 -7 14 -7 24 2 33 9 10 9 11 -1 6 -10 -6
-12 4 -7 51 8 76 6 218 -3 246 -5 12 -7 51 -5 87 3 84 3 175 -1 635 -2 209 -2
390 1 403 5 21 11 23 57 22 79 -3 96 -1 96 10 0 6 -37 10 -90 10 l-90 0 0
-1070z"/>
<path d="M920 2124 c0 -8 4 -13 9 -10 5 3 12 -16 15 -42 9 -62 67 -212 84
-212 17 0 15 17 -13 85 -14 33 -25 74 -25 90 1 33 28 101 29 73 1 -18 32 -21
47 -5 4 4 13 2 20 -4 8 -7 14 -7 19 1 3 6 10 8 14 6 6 -4 192 -7 291 -4 22 0
241 -1 295 -2 11 0 35 0 53 0 17 0 32 -5 32 -11 0 -6 7 -3 16 5 19 20 14 19
107 21 65 1 77 -1 77 -15 0 -9 -6 -22 -12 -29 -11 -11 -9 -11 9 0 11 7 19 19
16 26 -3 7 0 13 6 13 6 0 11 -7 11 -15 0 -9 6 -12 15 -9 8 4 15 12 15 19 0 20
96 11 122 -11 107 -97 158 -159 158 -196 0 -9 4 -19 9 -23 6 -3 6 5 1 22 -28
93 -37 108 -87 147 -28 23 -52 44 -52 49 -1 4 15 7 34 7 24 0 35 -5 35 -15 0
-8 5 -15 12 -15 6 0 9 3 5 6 -10 11 23 36 38 30 9 -3 20 -16 25 -28 8 -22 9
-22 9 5 1 25 11 33 36 27 6 -1 15 -3 20 -4 6 -1 16 -5 23 -9 7 -5 12 -3 12 5
1 7 9 3 20 -11 12 -14 20 -18 20 -10 0 11 2 11 9 0 7 -11 10 -8 13 12 l3 27
27 -24 26 -25 6 24 c8 33 32 32 51 -2 l15 -28 -6 28 c-3 15 -2 27 3 27 5 0 14
-12 21 -27 8 -19 10 -21 6 -5 -3 12 -1 22 5 22 16 0 36 -38 54 -100 39 -134
46 -154 46 -141 1 18 -27 127 -46 178 -15 42 -13 73 7 73 21 0 81 -170 94
-268 3 -19 7 -36 10 -40 12 -11 6 65 -9 118 -33 116 -36 135 -26 138 6 2 8 14
5 28 -5 19 -3 23 10 18 11 -4 16 -1 16 10 0 15 -85 16 -955 16 -858 0 -955 -2
-955 -16z"/>
<path d="M2888 2133 c12 -2 32 -2 45 0 12 2 2 4 -23 4 -25 0 -35 -2 -22 -4z"/>
<path d="M2052 2085 c-7 -14 -16 -25 -22 -25 -5 0 -10 -4 -10 -10 0 -19 19
-10 40 19 11 16 16 32 12 35 -5 3 -14 -6 -20 -19z"/>
<path d="M2088 2089 c-17 -18 -17 -19 0 -27 19 -10 42 -5 42 9 0 5 -7 9 -15 9
-9 0 -12 6 -9 15 8 19 3 18 -18 -6z"/>
<path d="M2490 2046 c0 -8 5 -18 10 -21 6 -3 10 1 10 9 0 8 -4 18 -10 21 -5 3
-10 -1 -10 -9z"/>
<path d="M1910 2028 c0 -19 2 -20 10 -8 13 19 13 30 0 30 -5 0 -10 -10 -10
-22z"/>
<path d="M2527 2029 c-3 -11 -3 -18 0 -15 4 3 17 -11 29 -32 31 -49 31 -33 0
24 -20 38 -24 41 -29 23z"/>
<path d="M2607 2025 c3 -16 9 -37 14 -45 15 -27 10 11 -6 45 l-14 30 6 -30z"/>
<path d="M2691 1995 c0 -11 7 -36 14 -55 l14 -35 -6 40 c-7 47 -23 83 -22 50z"/>
<path d="M2851 1978 c6 -18 12 -42 14 -52 3 -11 8 -22 13 -25 4 -3 15 -21 24
-40 8 -18 18 -29 22 -23 5 9 -68 172 -78 172 -3 0 0 -15 5 -32z"/>
<path d="M2347 1986 c-4 -9 -3 -16 2 -16 4 0 12 -21 18 -47 l11 -48 -5 50 c-7
61 -17 85 -26 61z"/>
<path d="M2183 1911 c34 -44 68 -55 38 -13 -11 16 -27 29 -35 29 -13 0 -13 -3
-3 -16z"/>
<path d="M2391 1910 c0 -8 8 -33 18 -55 11 -22 19 -33 19 -25 1 20 -36 99 -37
80z"/>
<path d="M2000 1882 c0 -4 16 -7 34 -8 19 0 33 3 30 8 -7 10 -64 11 -64 0z"/>
<path d="M2530 1870 c0 -8 5 -22 10 -30 9 -13 10 -13 10 0 0 8 -5 22 -10 30
-9 13 -10 13 -10 0z"/>
<path d="M2960 1870 c0 -8 5 -22 10 -30 9 -13 10 -13 10 0 0 8 -5 22 -10 30
-9 13 -10 13 -10 0z"/>
<path d="M1093 1815 c0 -22 2 -30 4 -17 2 12 2 30 0 40 -3 9 -5 -1 -4 -23z"/>
<path d="M1534 1834 c4 -28 -19 -63 -63 -95 -50 -37 -54 -49 -7 -20 42 27 49
26 41 -1 -3 -13 6 -2 19 23 28 52 37 100 19 106 -6 2 -10 -4 -9 -13z"/>
<path d="M990 1798 c-6 -24 -17 -65 -25 -93 -13 -46 -23 -103 -29 -165 -1 -14
-6 -32 -11 -39 -6 -10 -4 -12 5 -6 19 12 3 -32 -31 -82 -15 -24 -31 -60 -35
-80 -4 -21 -8 -45 -10 -54 -4 -27 39 -133 66 -159 33 -33 91 -50 135 -40 29 6
37 5 45 -9 8 -15 73 -190 85 -228 3 -7 9 -13 15 -13 6 0 1 18 -10 39 -27 54
-62 185 -58 219 2 20 11 3 36 -70 19 -54 36 -98 39 -98 7 0 -5 64 -28 141 -17
60 -22 67 -49 73 -17 3 -50 -1 -75 -10 -38 -12 -50 -13 -72 -2 -81 39 -122
212 -63 260 34 28 78 21 177 -27 113 -54 122 -67 158 -222 24 -104 25 -116 11
-132 -11 -12 -14 -28 -9 -54 6 -39 23 -42 23 -4 -1 28 5 57 15 80 8 20 -2 119
-20 179 -30 105 -88 168 -168 183 -43 8 -46 21 -39 144 3 60 1 90 -7 95 -8 5
-12 -14 -13 -66 -2 -109 -2 -109 -19 -118 -9 -5 -29 -6 -45 -1 -30 8 -31 11
-23 86 1 17 6 35 10 40 3 6 9 33 12 60 3 28 13 70 21 94 18 48 21 121 6 121
-5 0 -14 -19 -20 -42z"/>
<path d="M1810 1830 c0 -5 7 -10 15 -10 8 0 15 5 15 10 0 6 -7 10 -15 10 -8 0
-15 -4 -15 -10z"/>
<path d="M1971 1820 c-14 -8 23 -15 139 -26 75 -7 97 -18 80 -39 -6 -8 -4 -19
5 -31 13 -18 14 -18 8 4 -4 16 -1 22 10 22 9 0 22 6 29 13 7 7 26 18 42 25 16
7 26 15 23 19 -4 3 -53 7 -109 9 -57 1 -128 5 -159 7 -31 3 -62 2 -68 -3z"/>
<path d="M2397 1800 c3 -19 10 -42 15 -50 12 -20 -1 49 -13 70 -5 9 -6 2 -2
-20z"/>
<path d="M2632 1815 c0 -11 4 -31 8 -45 6 -20 8 -21 8 -5 0 11 -4 31 -8 45 -6
20 -8 21 -8 5z"/>
<path d="M1873 1793 c-27 -19 -30 -33 -5 -33 22 -1 61 -22 61 -35 0 -5 9 -12
20 -16 28 -11 18 12 -19 39 -20 15 -27 27 -23 42 6 24 -4 25 -34 3z"/>
<path d="M1326 1782 c-3 -5 14 -9 37 -9 35 -1 38 0 17 7 -34 11 -48 12 -54 2z"/>
<path d="M1140 1772 c0 -5 9 -17 20 -27 11 -10 20 -28 20 -39 0 -12 10 -27 23
-35 21 -13 21 -13 7 4 -8 10 -19 36 -25 59 -6 26 -16 42 -27 44 -10 2 -18 -1
-18 -6z"/>
<path d="M1076 1753 c-4 -9 -3 -20 2 -25 4 -4 9 4 10 17 2 29 -3 32 -12 8z"/>
<path d="M2721 1760 c0 -8 7 -44 14 -80 l15 -65 -5 57 c-5 51 -24 123 -24 88z"/>
<path d="M2143 1743 c-7 -2 -13 -14 -14 -26 0 -18 -2 -19 -7 -5 -6 15 -9 13
-19 -8 -9 -20 -9 -26 2 -30 21 -8 35 4 35 31 0 18 4 23 15 19 9 -4 15 0 15 10
0 16 -5 18 -27 9z"/>
<path d="M1980 1688 l1 -33 14 25 c18 32 18 40 0 40 -10 0 -15 -10 -15 -32z"/>
<path d="M2046 1705 c4 -10 0 -15 -12 -16 -18 0 -17 -1 1 -9 30 -13 32 -12 37
15 4 19 1 25 -13 25 -12 0 -16 -5 -13 -15z"/>
<path d="M1345 1684 c-22 -7 -52 -16 -67 -19 -16 -3 -28 -10 -28 -15 0 -18
121 12 140 35 15 17 9 17 -45 -1z"/>
<path d="M1477 1658 c-10 -17 -16 -33 -13 -35 2 -3 12 9 21 27 9 18 15 33 13
35 -2 2 -11 -10 -21 -27z"/>
<path d="M2782 1685 c-1 -5 8 -41 18 -80 10 -38 19 -59 19 -45 0 24 -36 146
-37 125z"/>
<path d="M2572 1637 c9 -15 12 -63 11 -154 -2 -80 2 -135 8 -138 5 -4 7 -16 3
-28 -5 -17 -4 -19 6 -10 7 7 10 19 5 30 -4 10 -6 68 -5 130 1 128 -6 179 -26
187 -12 5 -12 2 -2 -17z"/>
<path d="M2896 1568 c6 -87 32 -202 33 -146 1 15 -3 38 -8 52 -6 13 -11 51
-12 83 -1 32 -6 67 -11 78 -5 12 -6 -16 -2 -67z"/>
<path d="M2691 1587 c-1 -10 -5 -15 -11 -12 -5 3 -10 1 -10 -4 0 -6 3 -11 8
-11 4 0 7 -17 8 -37 1 -70 8 -123 16 -123 11 0 5 -63 -7 -72 -6 -5 -4 -8 4 -8
8 0 19 -7 25 -16 9 -12 10 3 4 68 -9 91 -35 244 -37 215z"/>
<path d="M1633 1482 c-13 -2 -23 -10 -23 -19 0 -11 6 -14 21 -10 15 4 22 -1
29 -19 11 -29 37 -41 52 -26 8 8 6 18 -6 36 -20 31 -44 43 -73 38z"/>
<path d="M1485 1471 c-7 -12 24 -71 37 -71 4 0 8 11 8 23 0 28 -34 64 -45 48z"/>
<path d="M2826 1350 c10 -197 12 -221 18 -228 9 -9 -3 235 -13 278 -7 25 -8
12 -5 -50z"/>
<path d="M1733 1390 c-25 -10 -31 -30 -9 -30 25 0 46 12 46 26 0 16 -6 16 -37
4z"/>
<path d="M1588 1343 c3 -15 11 -38 18 -52 l14 -26 -1 35 c-1 41 -9 64 -25 67
-7 1 -9 -8 -6 -24z"/>
<path d="M2772 1290 c-1 -14 3 -43 7 -65 6 -26 9 -31 9 -15 1 14 -3 43 -7 65
-6 26 -9 31 -9 15z"/>
<path d="M2936 1255 c3 -27 7 -90 9 -138 2 -49 7 -92 10 -95 4 -4 6 18 4 48
-1 30 1 62 4 70 4 8 -2 49 -13 90 -17 65 -19 68 -14 25z"/>
<path d="M2617 1282 c-5 -7 -12 -10 -17 -7 -9 5 -20 -18 -20 -41 0 -21 28 -17
40 7 13 23 10 62 -3 41z"/>
<path d="M2716 1260 c8 -43 14 -51 14 -19 0 13 -5 31 -10 39 -7 11 -8 5 -4
-20z"/>
<path d="M1637 1243 c-3 -2 20 -18 51 -34 31 -16 65 -39 74 -50 10 -12 23 -17
29 -13 7 4 9 3 6 -3 -3 -5 3 -17 13 -26 11 -9 22 -13 24 -8 14 23 -178 154
-197 134z"/>
<path d="M2675 1075 c-4 -53 -5 -99 -2 -101 3 -3 8 38 12 91 4 53 5 98 2 101
-2 3 -8 -38 -12 -91z"/>
<path d="M2526 1110 c-22 -69 -66 -225 -66 -233 0 -22 19 9 44 72 14 36 26 72
26 82 0 10 5 21 12 25 7 5 8 2 3 -7 -6 -11 -5 -11 5 -2 11 10 10 18 -3 45 -11
22 -17 28 -21 18z"/>
<path d="M1768 1078 c-17 -17 -16 -18 30 -18 26 0 53 -4 61 -9 7 -5 27 -5 42
-1 16 5 29 5 29 0 0 -4 7 -11 16 -14 11 -4 10 2 -7 25 -17 24 -26 29 -43 24
-27 -9 -74 -7 -95 4 -11 5 -22 2 -33 -11z"/>
<path d="M1450 1064 c-19 -13 -42 -24 -52 -24 -9 0 -20 -4 -23 -10 -9 -15 41
-12 53 3 9 10 30 11 92 5 44 -4 97 -4 118 1 43 10 34 12 -67 14 -59 2 -75 5
-80 18 -5 15 -10 14 -41 -7z"/>
<path d="M2863 1045 c0 -27 2 -38 4 -22 2 15 2 37 0 50 -2 12 -4 0 -4 -28z"/>
<path d="M2730 1025 c0 -25 5 -45 10 -45 7 0 10 19 9 45 -2 25 -6 45 -11 45
-4 0 -8 -20 -8 -45z"/>
<path d="M2833 1025 c0 -22 2 -30 4 -17 2 12 2 30 0 40 -3 9 -5 -1 -4 -23z"/>
<path d="M2930 950 c0 -16 2 -30 4 -30 2 0 6 14 8 30 3 17 1 30 -4 30 -4 0 -8
-13 -8 -30z"/>
<path d="M2733 925 c0 -27 2 -38 4 -22 2 15 2 37 0 50 -2 12 -4 0 -4 -28z"/>
<path d="M2657 930 c-3 -19 -12 -72 -20 -118 -7 -45 -10 -79 -4 -73 10 10 40
198 34 215 -3 6 -7 -5 -10 -24z"/>
<path d="M82 888 c2 -17 10 -23 28 -23 14 0 30 2 35 5 13 8 27 7 43 -3 7 -5
12 -4 12 3 0 6 5 8 10 5 6 -3 10 -1 10 5 0 7 6 5 15 -4 9 -8 27 -13 43 -11 15
2 33 4 40 4 6 1 12 8 12 16 0 11 -7 14 -25 11 -14 -3 -25 -1 -25 4 0 5 -7 7
-16 3 -13 -5 -13 -7 -2 -14 7 -5 8 -9 2 -9 -6 0 -14 3 -18 8 -4 4 -33 8 -64 8
-42 1 -60 -3 -69 -15 -11 -14 -12 -13 -13 7 0 12 -5 22 -11 22 -6 0 -9 -10 -7
-22z"/>
<path d="M343 890 c4 -22 17 -39 17 -21 0 7 5 9 12 5 18 -11 68 -12 68 -1 0 5
6 4 14 -2 15 -13 32 1 22 18 -8 13 -57 11 -49 -3 3 -6 0 -6 -8 2 -16 14 -33
16 -24 2 3 -5 1 -10 -4 -10 -6 0 -11 8 -11 18 0 14 -2 15 -10 2 -6 -10 -10
-11 -10 -2 0 6 -4 12 -10 12 -5 0 -9 -9 -7 -20z"/>
<path d="M1676 879 c-16 -5 -33 -6 -38 -3 -4 3 -15 -2 -24 -10 -14 -15 -13
-16 13 -16 15 0 34 4 42 9 8 5 24 6 37 1 15 -6 26 -5 30 2 4 6 3 8 -4 4 -6 -3
-14 0 -19 7 -6 10 -16 12 -37 6z"/>
<path d="M1005 847 c-4 -10 -5 -21 -1 -24 10 -10 18 4 13 24 -4 17 -4 17 -12
0z"/>
<path d="M88 844 c-5 -4 -8 -14 -8 -23 0 -12 12 -17 50 -19 35 -2 50 1 50 10
0 10 2 10 9 -1 7 -10 13 -11 31 -1 13 7 20 8 16 2 -4 -6 2 -10 14 -9 11 1 20
6 20 12 0 5 5 3 11 -5 8 -12 10 -12 7 5 -3 17 -11 20 -76 20 -55 0 -71 -3 -67
-13 3 -7 0 -10 -5 -7 -6 3 -10 14 -10 23 -1 15 -2 15 -14 -1 -13 -17 -15 -17
-18 -2 -1 9 -6 13 -10 9z"/>
<path d="M1141 841 c-9 -6 -7 -10 8 -14 12 -3 21 -1 21 3 0 14 -15 19 -29 11z"/>
<path d="M1264 823 c-3 -10 -9 -27 -14 -39 -11 -28 4 -102 24 -122 9 -10 42
-27 73 -38 l57 -22 38 31 c21 17 38 36 38 44 0 7 7 13 16 13 8 0 12 5 9 10 -6
10 4 9 74 -5 50 -10 179 -25 261 -30 47 -3 97 -7 113 -9 19 -3 30 1 37 15 6
10 7 19 3 20 -4 0 -42 2 -83 4 -41 2 -109 7 -150 11 -41 3 -100 8 -130 10
-102 6 -146 18 -153 42 -6 24 -81 61 -114 57 -15 -2 -38 3 -50 11 -29 19 -42
18 -49 -3z m143 -53 c46 -21 63 -54 44 -89 -19 -36 -46 -43 -88 -26 -75 32
-102 78 -66 117 21 23 57 23 110 -2z"/>
<path d="M88 762 c-4 -16 2 -18 48 -20 50 -1 54 1 53 21 0 21 -1 21 -9 2 -9
-20 -9 -20 -10 0 -1 11 -4 15 -6 8 -3 -7 -12 -9 -20 -6 -8 3 -14 -1 -14 -8 -1
-10 -5 -9 -14 4 -17 22 -22 22 -28 -1z"/>
<path d="M210 760 c0 -11 5 -20 10 -20 6 0 10 9 10 20 0 11 -4 20 -10 20 -5 0
-10 -9 -10 -20z"/>
<path d="M241 761 c-1 -13 2 -21 6 -18 3 4 12 2 19 -3 8 -8 16 -6 27 4 13 14
16 14 21 0 7 -18 26 -9 26 12 0 12 -10 14 -45 11 -26 -2 -46 1 -49 7 -2 6 -5
0 -5 -13z"/>
<path d="M2925 754 c-4 -16 -10 -42 -15 -59 -12 -46 -21 -99 -15 -93 9 9 46
170 41 176 -3 2 -8 -9 -11 -24z"/>
<path d="M2772 743 c-5 -10 -13 -48 -17 -85 -3 -38 -11 -68 -16 -68 -5 0 -8
-12 -8 -27 1 -21 3 -23 6 -8 3 10 11 28 18 40 8 11 15 45 16 75 1 30 6 63 11
73 5 9 6 17 4 17 -3 0 -9 -8 -14 -17z"/>
<path d="M892 720 c0 -19 2 -27 5 -17 2 9 2 25 0 35 -3 9 -5 1 -5 -18z"/>
<path d="M2980 718 c-6 -18 -16 -41 -21 -50 -15 -29 -10 -32 9 -7 17 21 38 89
28 89 -2 0 -9 -15 -16 -32z"/>
<path d="M87 713 c-9 -20 0 -38 21 -39 12 -1 22 3 22 7 0 5 5 9 11 9 5 0 8 -4
5 -8 -2 -4 4 -9 15 -9 12 -1 17 3 13 9 -4 7 -2 8 4 4 24 -15 52 -15 52 0 0 8
-10 14 -22 15 -73 3 -87 5 -94 12 -4 4 -11 7 -15 7 -4 0 -10 -3 -12 -7z"/>
<path d="M244 705 c-3 -8 -3 -19 1 -24 8 -14 55 -10 55 4 0 5 5 3 11 -5 8 -12
9 -11 7 5 -2 12 -10 19 -21 17 -9 -2 -17 2 -17 8 0 15 -30 12 -36 -5z"/>
<path d="M338 693 l5 -27 10 25 10 24 7 -25 c5 -14 9 -18 9 -10 1 9 4 11 9 5
4 -5 15 -11 25 -13 14 -2 18 2 15 15 -2 10 -11 17 -20 15 -9 -1 -19 2 -23 8
-3 5 -17 10 -29 10 -20 0 -22 -4 -18 -27z"/>
<path d="M448 714 c-3 -3 -4 -13 -1 -23 4 -15 15 -18 54 -18 27 0 52 4 55 8 3
5 11 9 17 9 7 0 6 -4 -3 -10 -13 -8 -12 -10 3 -10 9 0 17 6 17 13 0 8 3 7 10
-3 5 -8 12 -11 16 -7 5 4 -2 17 -14 30 -12 12 -22 16 -22 10 0 -6 -11 -10 -25
-8 -14 1 -25 -1 -25 -5 0 -13 -49 -6 -55 8 -5 13 -18 16 -27 6z"/>
<path d="M887 667 c-11 -29 -9 -43 4 -30 6 6 9 19 7 29 -3 18 -4 18 -11 1z"/>
<path d="M849 668 c-6 -12 -4 -48 2 -48 5 0 9 11 9 25 0 21 -6 33 -11 23z"/>
<path d="M87 630 c7 -25 23 -26 24 -2 0 14 2 13 9 -4 10 -26 51 -25 61 2 7 17
8 17 8 1 1 -10 6 -15 11 -12 6 4 17 1 25 -5 12 -10 15 -9 15 10 0 15 -5 20
-14 17 -7 -3 -19 0 -25 6 -10 9 -16 7 -27 -7 -8 -12 -14 -15 -14 -7 0 11 -3
11 -17 0 -11 -10 -14 -10 -9 -1 4 6 4 12 -1 13 -4 0 -18 2 -30 5 -17 3 -20 0
-16 -16z"/>
<path d="M255 640 c-4 -7 -1 -19 8 -27 10 -10 17 -11 21 -4 4 6 2 11 -3 11 -6
0 -11 5 -11 12 0 6 9 3 20 -7 15 -14 20 -15 20 -4 0 11 2 11 10 -1 8 -13 10
-12 10 3 0 9 -6 17 -12 17 -7 0 -23 3 -34 6 -12 3 -25 0 -29 -6z"/>
<path d="M340 642 c0 -4 5 -14 10 -22 9 -13 10 -13 10 0 1 13 2 13 10 -1 5 -9
19 -15 32 -13 13 1 29 3 36 3 18 1 15 31 -4 31 -8 0 -13 -4 -10 -9 3 -5 -5 -8
-18 -7 -13 0 -22 4 -19 9 2 4 1 7 -4 8 -4 0 -16 2 -25 4 -10 2 -18 0 -18 -3z"/>
<path d="M465 640 c-9 -14 21 -47 32 -36 4 4 1 11 -7 16 -8 5 -11 12 -6 17 4
4 12 0 17 -10 11 -20 49 -23 49 -4 0 9 3 8 9 -2 7 -11 9 -11 14 0 4 10 6 9 6
-3 1 -17 21 -27 21 -10 -1 20 -20 33 -51 32 -19 -1 -44 1 -55 5 -13 4 -25 2
-29 -5z"/>
<path d="M610 631 c0 -10 9 -18 23 -19 12 -1 31 -3 42 -5 14 -1 21 5 23 22 3
16 0 22 -10 18 -7 -2 -12 -11 -10 -18 1 -8 -4 -5 -13 5 -13 17 -15 18 -15 3 0
-9 -5 -17 -11 -17 -6 0 -9 6 -6 13 3 8 -1 14 -9 14 -8 0 -14 -8 -14 -16z"/>
<path d="M2451 623 c0 -6 -4 -20 -7 -30 -5 -14 -4 -15 5 -7 7 7 11 20 8 30 -3
11 -5 14 -6 7z"/>
<path d="M88 584 c-5 -4 -8 -14 -8 -23 0 -12 12 -16 53 -17 28 -1 55 4 60 10
5 8 9 7 16 -2 6 -11 11 -10 25 3 9 9 16 13 16 8 0 -5 -5 -14 -12 -21 -9 -9 -9
-12 1 -12 7 0 20 7 29 16 10 11 17 13 20 5 6 -18 22 -13 22 8 0 16 -7 18 -65
14 -41 -2 -65 0 -65 7 0 6 -11 4 -24 -5 -19 -13 -25 -13 -29 -3 -4 10 -7 10
-15 -1 -8 -11 -11 -11 -13 3 -2 10 -7 14 -11 10z"/>
<path d="M330 563 c0 -19 3 -24 9 -14 6 9 11 10 15 2 10 -15 66 -14 66 2 0 8
3 7 10 -3 11 -18 25 -7 17 14 -4 9 -13 13 -22 10 -9 -4 -15 -1 -15 7 0 11 -3
11 -10 -1 -5 -8 -10 -11 -10 -6 0 5 -7 3 -16 -4 -12 -11 -15 -11 -12 0 2 8 -5
16 -14 18 -14 3 -18 -3 -18 -25z"/>
<path d="M2742 515 c-17 -37 -14 -45 4 -12 9 16 14 31 11 33 -2 2 -9 -7 -15
-21z"/>
<path d="M90 515 c-20 -24 -5 -30 76 -31 66 -1 74 1 74 17 0 15 -4 17 -22 11
-13 -5 -33 -7 -45 -6 -13 0 -23 -4 -23 -10 0 -7 -3 -7 -8 -1 -4 6 -14 16 -23
23 -13 10 -19 9 -29 -3z"/>
<path d="M253 499 c-2 -24 23 -32 42 -13 8 9 15 11 15 5 0 -6 15 -11 33 -10
17 0 25 3 17 6 -8 2 -24 8 -35 13 -42 18 -71 17 -72 -1z"/>
<path d="M376 514 c7 -3 10 -15 7 -27 -4 -18 -3 -19 6 -7 16 23 13 40 -6 39
-10 0 -13 -3 -7 -5z"/>
<path d="M80 453 c0 -5 7 -18 15 -29 12 -16 14 -16 15 -3 0 9 -7 22 -15 29 -8
7 -15 8 -15 3z"/>
<path d="M114 447 c3 -10 6 -23 6 -28 0 -6 4 -8 9 -5 5 4 11 0 14 -6 3 -10 7
-10 17 -1 8 7 25 9 42 6 20 -4 33 -1 39 8 5 8 9 9 9 4 0 -6 14 -11 30 -11 22
-1 30 3 30 16 0 14 -9 17 -50 16 -27 0 -50 -4 -50 -8 0 -5 -5 -8 -11 -8 -5 0
-8 4 -4 10 3 5 -9 7 -31 4 -24 -3 -41 0 -47 8 -6 9 -7 7 -3 -5z"/>
<path d="M330 435 c0 -20 4 -24 25 -23 14 1 25 7 25 13 0 6 3 6 8 -1 4 -6 15
-11 25 -11 21 0 23 33 1 41 -9 4 -13 2 -8 -5 4 -8 -1 -9 -15 -4 -12 4 -21 2
-21 -4 0 -6 -7 -8 -16 -4 -13 5 -13 7 -2 14 10 7 9 9 -4 9 -13 0 -18 -8 -18
-25z"/>
<path d="M1315 432 c-6 -6 -7 -42 -1 -42 15 0 56 21 56 29 0 10 -47 21 -55 13z"/>
<path d="M1438 432 c-23 -9 -9 -32 19 -29 17 1 20 5 12 19 -5 10 -11 18 -12
17 -1 0 -10 -3 -19 -7z"/>
<path d="M1530 399 c22 -40 53 -70 61 -57 4 7 -6 25 -24 45 -35 37 -53 43 -37
12z"/>
<path d="M2708 394 c-5 -4 -8 -28 -7 -53 0 -41 1 -43 10 -21 11 27 8 86 -3 74z"/>
<path d="M80 369 c0 -19 5 -21 39 -17 22 2 37 -1 34 -5 -3 -5 5 -6 18 -1 31
10 160 11 166 1 8 -13 23 3 23 24 0 12 -4 17 -11 14 -18 -12 -59 -13 -59 -1 0
7 -3 7 -8 1 -8 -12 -162 -15 -162 -3 0 4 -9 8 -20 8 -14 0 -20 -7 -20 -21z"/>
<path d="M2782 359 c-15 -38 -25 -95 -16 -86 10 9 34 100 28 106 -2 2 -7 -7
-12 -20z"/>
<path d="M1605 340 c-3 -5 -5 -10 -3 -11 20 -6 71 -9 66 -4 -3 4 -12 7 -20 9
-7 1 -18 5 -25 9 -6 4 -14 3 -18 -3z"/>
<path d="M82 308 c3 -20 10 -23 51 -25 30 -1 47 3 48 10 0 7 4 3 9 -8 6 -15 9
-16 9 -4 1 18 32 22 44 5 5 -8 10 -6 17 4 8 12 10 12 10 1 0 -11 3 -11 17 0
11 10 14 10 9 2 -4 -7 -3 -13 3 -13 5 0 12 6 14 13 4 9 6 9 6 -1 1 -7 5 -11
11 -7 5 3 7 12 3 20 -4 13 -19 14 -79 9 -53 -5 -78 -3 -89 6 -10 8 -15 9 -15
2 0 -6 -7 -9 -15 -6 -9 4 -15 0 -15 -10 0 -9 -4 -16 -10 -16 -5 0 -10 9 -10
20 0 11 -5 20 -11 20 -6 0 -9 -10 -7 -22z"/>
<path d="M2497 276 c-5 -15 -6 -31 -3 -34 8 -8 18 25 14 45 -3 13 -6 10 -11
-11z"/>
<path d="M80 242 c0 -15 9 -19 42 -20 24 -1 45 3 50 10 6 10 8 9 8 -2 0 -13 1
-13 10 0 9 13 10 13 10 0 0 -13 1 -13 10 0 6 10 10 11 10 3 0 -7 9 -13 20 -13
11 0 20 6 20 14 0 11 -16 14 -65 14 -36 0 -65 -5 -65 -9 0 -5 -5 -9 -11 -9 -6
0 -9 7 -5 15 4 10 -1 15 -14 15 -13 0 -20 -7 -20 -18z"/>
<path d="M2571 207 c-8 -15 -9 -31 -3 -47 8 -21 9 -19 15 20 7 53 5 58 -12 27z"/>
<path d="M89 198 c-11 -38 2 -58 26 -38 11 9 15 9 15 1 0 -13 22 -10 32 4 5 6
8 5 8 -2 0 -7 5 -13 11 -13 5 0 7 5 3 12 -4 7 -3 8 5 4 7 -5 23 -9 37 -11 17
-2 24 3 24 16 0 15 -7 17 -57 13 -32 -2 -63 -6 -70 -9 -17 -6 -27 12 -11 18 8
3 6 6 -4 6 -10 1 -18 0 -19 -1z"/>
<path d="M270 200 c-7 -23 -7 -41 1 -46 5 -3 9 1 9 8 0 8 3 9 8 3 4 -6 24 -11
44 -11 28 -1 38 3 41 17 8 29 -10 32 -34 8 -18 -18 -21 -19 -16 -5 5 14 3 17
-8 12 -8 -3 -15 0 -15 7 0 8 -3 8 -9 -2 -7 -11 -9 -11 -14 0 -3 8 -6 12 -7 9z"/>
<path d="M395 190 c3 -6 1 -10 -4 -10 -6 0 -11 -6 -11 -13 0 -18 40 -16 41 3
0 9 4 6 9 -7 13 -32 40 -30 40 3 0 19 -4 25 -15 20 -8 -3 -27 -1 -41 4 -17 7
-23 7 -19 0z"/>
<path d="M80 109 c0 -19 5 -20 88 -18 51 1 90 6 94 13 5 7 8 6 8 -4 0 -13 1
-13 10 0 9 13 10 13 10 0 0 -13 1 -13 10 0 6 10 10 11 10 3 0 -7 7 -13 15 -13
8 0 15 5 15 10 0 6 5 10 11 10 5 0 7 -4 4 -10 -4 -6 5 -10 19 -10 19 0 26 5
26 20 0 17 -3 19 -19 11 -10 -6 -21 -7 -25 -4 -6 6 -64 6 -118 -1 -16 -2 -28
1 -28 5 0 5 -10 5 -22 0 -13 -4 -29 -6 -37 -3 -8 3 -11 0 -7 -7 4 -6 2 -11 -3
-11 -6 0 -11 7 -11 15 0 18 -16 20 -23 3 -4 -10 -6 -10 -6 0 -2 21 -21 13 -21
-9z"/>
<path d="M1416 113 c-3 -4 8 -15 25 -25 17 -11 33 -17 36 -14 3 3 17 0 32 -5
36 -14 141 -38 141 -33 0 3 -17 12 -37 21 -40 18 -46 20 -64 22 -6 0 -8 8 -5
16 5 13 -2 15 -37 14 -23 -1 -52 1 -64 4 -11 3 -24 3 -27 0z"/>
<path d="M2518 79 c-7 -42 -3 -47 12 -20 7 13 7 27 2 38 -7 12 -10 9 -14 -18z"/>
</g>
</svg>
