 <svg  version="1.0" xmlns="http://www.w3.org/2000/svg"  width="220.000000pt" height="220.000000pt" viewBox="0 0 220.000000 220.000000"  preserveAspectRatio="xMidYMid meet">  <g transform="translate(0.000000,220.000000) scale(0.100000,-0.100000)" fill="#b05454" stroke="none"> <path d="M320 2196 c0 -2 7 -7 16 -10 8 -3 12 -2 9 4 -6 10 -25 14 -25 6z"/> <path d="M393 2193 c9 -2 23 -2 30 0 6 3 -1 5 -18 5 -16 0 -22 -2 -12 -5z"/> <path d="M870 2196 c0 -2 7 -9 15 -16 13 -11 14 -10 9 4 -5 14 -24 23 -24 12z"/> <path d="M956 2188 c3 -4 9 -8 15 -8 5 0 9 4 9 8 0 5 -7 9 -15 9 -8 0 -12 -4 -9 -9z"/> <path d="M1540 2191 c0 -5 4 -21 9 -34 9 -22 7 -24 -12 -19 -12 3 -25 10 -29 15 -9 14 -75 20 -83 7 -4 -6 5 -10 19 -10 14 0 26 -4 26 -9 0 -5 6 -8 13 -8 6 1 33 -2 59 -7 33 -6 45 -12 41 -21 -3 -8 8 -20 26 -30 17 -8 31 -20 31 -25 0 -6 6 -10 14 -10 8 0 28 -17 45 -37 17 -21 48 -56 69 -78 31 -35 36 -47 34 -80 -2 -25 0 -35 6 -27 7 10 14 10 38 -3 37 -19 45 -19 37 1 -3 8 -11 13 -18 10 -19 -7 -55 22 -49 39 4 8 13 15 21 15 8 0 11 5 8 11 -4 5 -12 8 -18 6 -13 -4 -62 50 -71 80 -4 12 -37 50 -74 85 -37 35 -80 80 -96 101 -27 36 -46 47 -46 28z"/> <path d="M1846 2186 c3 -8 12 -12 20 -9 21 8 17 23 -6 23 -13 0 -18 -5 -14 -14z"/> <path d="M1980 2185 c0 -17 39 -59 47 -51 9 9 -6 38 -17 31 -5 -3 -10 -2 -10 4 0 5 8 15 18 20 14 9 13 10 -10 11 -18 0 -28 -5 -28 -15z"/> <path d="M2078 2181 c-22 -26 -31 -74 -30 -150 2 -70 4 -76 26 -68 12 5 13 13 4 43 -16 61 7 184 33 169 5 -4 9 1 9 9 0 22 -22 20 -42 -3z"/> <path d="M1073 2172 c-12 -2 -24 -10 -27 -18 -6 -17 -1 -18 25 -4 12 7 25 7 37 1 12 -6 23 -5 37 6 19 14 18 15 -12 11 -18 -3 -34 -2 -35 1 -2 3 -13 5 -25 3z"/> <path d="M1350 2172 c0 -7 42 -32 55 -32 13 0 3 18 -12 24 -10 3 -24 9 -30 12 -7 3 -13 2 -13 -4z"/> <path d="M1650 2170 c-13 -8 -12 -11 5 -24 23 -18 25 -18 65 -20 l29 -1 -24 23 c-29 27 -36 28 -29 5 2 -10 -1 -8 -7 5 -13 25 -17 26 -39 12z"/> <path d="M530 2160 c0 -5 5 -10 11 -10 5 0 7 5 4 10 -3 6 -8 10 -11 10 -2 0 -4 -4 -4 -10z"/> <path d="M812 2157 c-8 -9 -3 -12 19 -13 34 -1 36 2 10 15 -13 8 -22 7 -29 -2z"/> <path d="M1198 2157 c6 -7 14 -41 18 -76 5 -47 9 -59 16 -47 9 15 4 73 -8 119 -3 9 -12 17 -21 17 -11 0 -13 -3 -5 -13z"/> <path d="M1869 2160 c-1 -8 -3 -34 -5 -57 -3 -32 0 -43 10 -43 22 0 29 52 11 86 -8 16 -15 22 -16 14z"/> <path d="M190 2157 c0 -2 6 -10 14 -16 11 -9 16 -9 22 1 4 7 4 10 -1 6 -4 -4 -14 -3 -22 3 -7 6 -13 9 -13 6z"/> <path d="M1800 2150 c0 -5 5 -10 11 -10 5 0 7 5 4 10 -3 6 -8 10 -11 10 -2 0 -4 -4 -4 -10z"/> <path d="M257 2143 c-12 -12 -7 -25 7 -20 7 3 18 1 24 -5 8 -8 15 -6 26 5 13 13 13 16 1 20 -7 3 -16 1 -19 -6 -3 -9 -5 -9 -5 1 -1 13 -23 17 -34 5z"/> <path d="M740 2145 c0 -23 23 -53 44 -57 l25 -5 -19 25 c-11 13 -18 27 -16 31 3 4 -4 8 -15 8 -10 1 -19 0 -19 -2z"/> <path d="M920 2135 c-11 -13 -10 -14 4 -9 9 3 16 10 16 15 0 13 -6 11 -20 -6z"/> <path d="M2120 2129 c0 -11 5 -17 10 -14 6 3 10 13 10 21 0 8 -4 14 -10 14 -5 0 -10 -9 -10 -21z"/> <path d="M1117 2093 c-7 -43 -1 -73 14 -73 11 0 11 20 0 75 l-7 40 -7 -42z"/> <path d="M1968 2104 c-3 -10 -2 -28 2 -39 7 -19 8 -19 15 -2 4 10 3 28 -2 40 -9 20 -10 20 -15 1z"/> <path d="M14 2096 c11 -9 29 -16 40 -16 28 0 8 17 -29 25 -29 6 -29 6 -11 -9z"/> <path d="M130 2090 c0 -5 7 -10 15 -10 8 0 15 5 15 10 0 6 -7 10 -15 10 -8 0 -15 -4 -15 -10z"/> <path d="M1043 2082 c-39 -19 -42 -29 -8 -38 14 -3 22 -10 19 -15 -3 -5 0 -9 5 -9 6 0 11 7 11 15 0 8 -7 15 -15 15 -21 0 -19 9 8 31 26 22 23 22 -20 1z"/> <path d="M175 2080 c3 -5 11 -10 16 -10 6 0 7 5 4 10 -3 6 -11 10 -16 10 -6 0 -7 -4 -4 -10z"/> <path d="M696 2081 c-13 -20 64 -65 81 -47 4 3 -1 6 -11 6 -9 0 -27 12 -40 27 -16 19 -25 23 -30 14z"/> <path d="M862 2075 c-10 -12 -10 -15 1 -15 7 0 18 5 24 11 18 18 31 2 31 -38 0 -61 4 -71 11 -28 6 37 9 40 41 43 l35 4 -45 18 c-55 23 -81 24 -98 5z"/> <path d="M615 2070 c3 -5 8 -10 11 -10 2 0 4 5 4 10 0 6 -5 10 -11 10 -5 0 -7 -4 -4 -10z"/> <path d="M1325 2057 c-3 -12 -2 -34 3 -47 8 -22 10 -20 13 23 4 49 -6 64 -16 24z"/> <path d="M1373 2056 c6 -13 17 -22 23 -19 7 2 15 -5 19 -16 6 -20 25 -30 25 -13 0 11 -60 72 -70 72 -5 0 -3 -11 3 -24z"/> <path d="M2005 2070 c-3 -5 -1 -10 4 -10 6 0 11 5 11 10 0 6 -2 10 -4 10 -3 0 -8 -4 -11 -10z"/> <path d="M1757 2055 c34 -24 67 -24 70 0 1 11 0 15 -3 8 -4 -9 -13 -9 -30 -2 -14 5 -33 9 -42 9 -13 0 -12 -3 5 -15z"/> <path d="M1516 2033 c4 -16 12 -38 20 -49 10 -17 10 -24 1 -35 -10 -11 -9 -11 6 0 11 9 17 10 17 2 0 -6 5 -11 12 -11 9 0 9 3 0 12 -7 7 -12 18 -12 26 0 21 -31 82 -41 82 -5 0 -7 -12 -3 -27z"/> <path d="M110 2035 c0 -15 37 -27 45 -15 6 9 -12 23 -32 26 -7 1 -13 -4 -13 -11z"/> <path d="M1570 2043 c0 -20 83 -105 90 -93 5 8 9 4 13 -9 3 -12 12 -21 21 -21 23 0 8 28 -25 45 -15 8 -44 31 -64 52 -19 20 -35 32 -35 26z"/> <path d="M2131 2018 c0 -28 2 -30 9 -13 12 28 12 45 0 45 -5 0 -10 -15 -9 -32z"/> <path d="M28 2029 c19 -6 39 -6 49 -1 11 7 1 9 -33 10 -47 0 -48 -1 -16 -9z"/> <path d="M977 2013 c-7 -38 -5 -63 5 -63 4 0 8 20 8 45 0 51 -6 58 -13 18z"/> <path d="M1974 2028 c3 -7 9 -21 12 -30 10 -28 34 -31 34 -4 0 15 -9 27 -26 35 -21 9 -25 9 -20 -1z"/> <path d="M546 2012 c-2 -4 7 -12 20 -19 13 -6 24 -7 24 -2 0 12 -38 31 -44 21z"/> <path d="M1164 2005 c-4 -8 -16 -15 -28 -16 -11 0 -30 -4 -41 -9 -13 -6 4 -7 46 -3 59 5 78 1 165 -29 55 -20 123 -41 152 -48 30 -7 73 -27 96 -45 l43 -33 -13 28 c-18 35 -33 47 -64 54 -46 9 -143 37 -217 61 -40 14 -80 25 -88 25 -8 0 -15 7 -15 15 0 8 -7 15 -15 15 -9 0 -18 -7 -21 -15z"/> <path d="M1886 2013 c-12 -12 -6 -32 12 -42 15 -8 18 -5 20 14 2 22 -19 40 -32 28z"/> <path d="M861 2000 c-12 -7 -12 -11 1 -24 13 -12 17 -13 21 -2 8 20 -6 36 -22 26z"/> <path d="M1062 1990 c0 -14 2 -19 5 -12 2 6 2 18 0 25 -3 6 -5 1 -5 -13z"/> <path d="M1820 2002 c0 -5 5 -13 12 -20 16 -16 29 -15 22 2 -6 16 -34 30 -34 18z"/> <path d="M2172 1994 c-10 -11 -10 -14 2 -14 8 0 17 -6 19 -12 3 -7 6 -3 6 9 1 28 -10 35 -27 17z"/> <path d="M1125 1959 c-169 -30 -223 -41 -248 -51 -38 -15 -29 -19 18 -8 28 6 46 5 67 -6 30 -16 39 -30 11 -20 -16 6 -16 6 0 -12 9 -10 17 -25 17 -33 0 -12 2 -12 10 1 14 23 23 4 9 -22 l-12 -23 27 24 c14 14 26 30 26 37 0 24 59 82 100 98 22 9 40 18 40 21 0 6 3 6 -65 -6z m-35 -28 c0 -5 -7 -14 -16 -22 -13 -10 -17 -10 -24 2 -7 10 -4 16 8 21 24 9 32 9 32 -1z m-53 -31 c8 -15 9 -28 3 -36 -6 -6 -6 -15 -2 -19 4 -5 -1 -5 -11 -2 -10 4 -23 7 -28 7 -6 0 -7 5 -3 12 4 6 -5 21 -22 35 -24 21 -26 24 -7 18 12 -3 24 -1 28 5 10 16 28 7 42 -20z"/> <path d="M1005 1887 c10 -15 20 -25 23 -22 3 3 -5 16 -17 28 l-23 22 17 -28z"/> <path d="M1193 1946 c-21 -12 -19 -13 32 -23 30 -5 55 -6 55 -2 0 4 -17 10 -37 14 -27 5 -33 9 -22 16 21 13 -3 9 -28 -5z"/> <path d="M1880 1949 c0 -5 5 -7 10 -4 6 3 10 8 10 11 0 2 -4 4 -10 4 -5 0 -10 -5 -10 -11z"/> <path d="M171 1934 c13 -16 29 -19 29 -5 0 5 -9 11 -21 14 -16 4 -18 3 -8 -9z"/> <path d="M386 1935 c-3 -8 -1 -15 4 -15 6 0 10 7 10 15 0 8 -2 15 -4 15 -2 0 -6 -7 -10 -15z"/> <path d="M861 1934 c-17 -8 -31 -10 -42 -3 -11 6 -20 5 -24 -1 -3 -5 3 -10 15 -10 l21 0 -19 -27 c-19 -26 -82 -71 -82 -59 0 3 -9 -3 -20 -14 -24 -24 -25 -30 -5 -30 8 0 15 -6 15 -12 1 -7 7 1 14 17 7 17 26 39 42 49 16 10 39 32 52 47 13 16 31 29 40 29 9 0 23 4 30 9 24 15 -10 19 -37 5z"/> <path d="M1818 1928 c12 -12 25 -19 28 -15 4 4 -1 14 -12 22 -29 22 -41 18 -16 -7z"/> <path d="M1958 1918 c-28 -35 -21 -53 8 -23 9 8 14 22 12 30 -2 11 -7 9 -20 -7z"/> <path d="M2027 1933 c-10 -9 5 -33 19 -33 8 0 14 -4 14 -10 0 -18 39 -10 65 14 21 19 23 25 10 30 -9 3 -15 0 -15 -9 0 -19 -12 -19 -55 -1 -18 8 -36 12 -38 9z"/> <path d="M630 1917 c0 -19 16 -31 24 -18 3 5 -1 14 -9 21 -12 10 -15 10 -15 -3z"/> <path d="M1570 1920 c0 -5 4 -10 9 -10 5 0 13 -9 16 -20 3 -11 13 -20 20 -20 8 0 21 -12 29 -27 8 -16 15 -22 16 -15 0 10 5 10 20 2 15 -8 18 -8 14 4 -3 7 -20 22 -39 32 -18 10 -39 28 -46 41 -12 23 -39 32 -39 13z"/> <path d="M1105 1894 c-22 -18 -24 -22 -8 -14 13 6 43 9 67 7 25 -2 43 0 40 5 -3 4 2 8 11 8 9 0 14 -4 11 -8 -3 -5 17 -14 44 -21 28 -7 50 -17 50 -21 0 -4 9 -6 19 -3 12 3 28 -4 41 -17 12 -12 24 -19 28 -16 9 9 -39 56 -58 56 -9 0 -22 6 -28 12 -10 10 -15 10 -22 -2 -8 -13 -10 -13 -10 2 0 12 -14 18 -62 23 -35 3 -70 8 -78 11 -8 2 -28 -8 -45 -22z"/> <path d="M560 1900 c0 -5 9 -14 19 -20 31 -16 37 -12 13 10 -23 22 -32 25 -32 10z"/> <path d="M1385 1867 c41 -36 59 -41 34 -11 -13 16 -12 16 7 6 12 -6 25 -8 30 -4 5 4 2 -1 -5 -10 -15 -20 -2 -25 17 -6 24 24 17 28 -93 53 l-30 7 40 -35z"/> <path d="M1776 1885 c4 -8 11 -15 16 -15 6 0 5 6 -2 15 -7 8 -14 15 -16 15 -2 0 -1 -7 2 -15z"/> <path d="M1890 1885 c7 -9 15 -13 17 -11 7 7 -7 26 -19 26 -6 0 -6 -6 2 -15z"/> <path d="M34 1875 c36 -19 45 -19 20 0 -10 8 -26 14 -34 15 -8 0 -2 -7 14 -15z"/> <path d="M2120 1870 c0 -19 11 -26 23 -14 8 8 -3 34 -14 34 -5 0 -9 -9 -9 -20z"/> <path d="M831 1858 c-6 -10 -11 -28 -11 -40 0 -26 9 -19 15 12 6 29 14 38 23 23 5 -8 10 -7 19 2 9 10 7 14 -11 17 -15 3 -27 -2 -35 -14z"/> <path d="M208 1863 c7 -3 16 -2 19 1 4 3 -2 6 -13 5 -11 0 -14 -3 -6 -6z"/> <path d="M2020 1863 c1 -10 26 -43 32 -43 3 0 3 11 0 25 -4 22 -33 37 -32 18z"/> <path d="M1065 1840 c-3 -11 -13 -27 -21 -35 -9 -8 -11 -15 -6 -15 5 0 17 9 27 20 10 11 15 20 10 20 -4 0 -2 7 5 15 8 9 8 15 2 15 -6 0 -14 -9 -17 -20z"/> <path d="M1491 1847 c2 -2 18 -11 34 -22 l30 -18 -19 21 c-11 12 -26 22 -34 22 -9 0 -13 -1 -11 -3z"/> <path d="M790 1825 c0 -8 -6 -12 -13 -9 -8 3 -18 -6 -25 -21 -15 -33 -15 -35 4 -35 8 0 12 5 9 10 -3 6 -1 10 5 10 6 0 8 5 5 10 -3 6 -1 10 5 10 6 0 10 -12 8 -27 -2 -20 -9 -29 -25 -31 -13 -2 -23 -8 -23 -13 0 -12 4 -11 35 3 14 6 26 18 27 27 4 46 2 81 -4 81 -5 0 -8 -7 -8 -15z"/> <path d="M1900 1832 c0 -7 5 -23 12 -35 6 -12 12 -29 13 -37 5 -47 18 -100 24 -100 4 0 16 9 25 19 16 18 16 19 -1 17 -12 0 -18 6 -18 19 0 11 -6 26 -13 34 -8 9 -9 17 -3 25 7 8 3 21 -14 41 -13 17 -24 24 -25 17z"/> <path d="M1970 1833 c0 -15 18 -35 23 -27 3 5 -1 15 -9 22 -8 7 -14 9 -14 5z"/> <path d="M120 1821 c8 -5 18 -7 23 -4 6 3 18 -4 27 -17 12 -16 22 -20 31 -14 8 5 21 9 29 9 8 0 20 4 27 8 6 4 14 4 17 -1 3 -5 24 -7 48 -4 24 2 61 4 82 4 45 0 31 12 -26 22 -24 4 -38 3 -38 -3 0 -7 -8 -7 -25 -1 -14 5 -25 6 -25 2 0 -4 -25 -8 -55 -9 -30 -2 -55 1 -55 5 0 4 -17 9 -37 10 -27 2 -34 -1 -23 -7z"/> <path d="M865 1820 c-3 -5 -1 -10 4 -10 6 0 11 5 11 10 0 6 -2 10 -4 10 -3 0 -8 -4 -11 -10z"/> <path d="M2140 1812 c0 -10 13 -26 29 -35 29 -17 30 -17 28 3 -1 14 -6 18 -19 14 -13 -4 -18 0 -18 15 0 12 -4 21 -10 21 -5 0 -10 -8 -10 -18z"/> <path d="M1455 1804 c-19 -15 -19 -15 8 -9 19 5 27 3 27 -6 0 -7 3 -10 6 -6 13 13 54 -51 54 -86 0 -21 8 -44 20 -58 l21 -24 -14 30 c-8 17 -17 55 -20 85 -9 79 -53 111 -102 74z"/> <path d="M1570 1783 c0 -35 3 -42 23 -46 22 -4 22 -4 0 -6 -18 -1 -20 -5 -15 -26 4 -14 20 -34 36 -45 29 -18 52 -18 41 1 -4 5 -2 9 4 9 6 0 15 -9 21 -21 7 -12 18 -18 26 -15 9 4 14 -2 14 -17 0 -18 2 -19 10 -7 8 12 10 10 10 -9 0 -16 -4 -22 -15 -17 -8 3 -15 1 -15 -4 0 -6 4 -10 9 -10 10 0 2 -91 -10 -104 -4 -5 -4 -17 1 -27 13 -23 -4 -34 -23 -15 -8 8 -17 12 -21 9 -3 -4 -6 6 -6 20 0 16 -8 30 -20 37 -11 6 -20 8 -20 4 0 -3 -7 -1 -15 6 -12 10 -15 10 -15 0 0 -7 -6 -10 -14 -7 -8 3 -17 0 -19 -7 -7 -17 -45 -27 -54 -14 -4 7 -1 8 8 4 8 -4 5 0 -5 8 -14 11 -22 13 -27 5 -4 -7 -17 -9 -34 -5 -15 4 -24 3 -21 -2 8 -14 -30 -22 -43 -9 -8 8 -14 8 -23 -1 -10 -10 -8 -14 10 -19 30 -7 22 -28 -11 -28 -14 1 -23 -3 -21 -7 3 -4 -1 -8 -8 -9 -7 0 0 -5 17 -10 23 -7 31 -5 38 7 31 55 105 75 127 35 13 -26 13 -31 -5 -31 -10 0 -15 -11 -16 -37 -1 -52 1 -105 6 -123 3 -8 0 -22 -5 -30 -9 -13 -12 -12 -25 4 -13 18 -14 17 -12 -12 2 -36 16 -41 40 -14 12 13 18 44 22 108 5 98 16 133 45 152 37 23 105 -16 85 -48 -3 -5 -6 -39 -7 -75 0 -36 -5 -65 -9 -65 -4 0 -1 -21 8 -47 20 -58 32 -36 23 41 -14 110 -2 144 43 127 42 -16 50 -44 44 -142 -5 -68 -4 -89 8 -99 11 -9 14 -6 13 22 -1 98 14 122 58 93 13 -9 24 -16 24 -18 9 -91 8 -192 -2 -267 l-14 -95 81 -23 c44 -12 100 -35 125 -50 56 -35 58 -45 62 -326 3 -196 4 -212 22 -221 26 -13 31 -31 11 -39 -9 -3 -13 -2 -10 4 9 15 -5 12 -21 -5 -11 -11 -12 -15 -3 -15 7 0 10 -3 6 -6 -3 -3 -11 -3 -17 1 -8 5 -6 14 5 31 8 13 12 24 8 24 -24 -1 -35 -25 -48 -106 -19 -115 -19 -125 1 -99 15 19 16 18 9 -18 -4 -27 -3 -37 5 -32 5 3 8 11 5 16 -7 11 7 12 20 1 6 -4 7 -3 3 2 -12 15 -9 46 3 46 7 0 9 11 6 30 -5 23 -3 30 9 30 10 0 14 8 12 23 -1 13 5 32 15 41 22 23 22 61 -1 78 -15 11 -17 22 -13 68 3 30 3 87 -1 125 -4 39 -7 111 -7 160 -1 106 -12 149 -47 190 -15 17 -23 23 -19 15 5 -12 4 -11 -7 1 -7 9 -16 16 -21 17 -32 3 -66 15 -62 22 3 4 -5 6 -17 2 -13 -3 -19 -1 -15 5 5 7 -1 9 -15 5 -13 -3 -19 -1 -15 5 4 6 -6 9 -23 8 -23 -1 -29 2 -27 16 2 9 8 24 15 32 7 8 9 23 5 32 -5 14 -3 17 8 13 10 -4 15 1 15 12 0 10 -5 18 -10 17 -6 -1 -11 7 -12 19 -1 20 0 20 28 7 27 -14 29 -17 24 -69 -2 -30 0 -54 5 -54 5 0 9 20 9 44 0 24 2 51 5 58 4 9 -7 20 -28 30 -31 15 -35 21 -40 70 -2 29 -1 55 4 56 12 5 11 36 -2 49 -6 6 -12 19 -13 29 -2 13 -16 22 -47 30 -39 9 -45 15 -53 46 -7 30 -5 43 12 72 21 35 21 36 2 36 -15 0 -20 -7 -20 -24 0 -38 -20 -42 -21 -4 0 18 -1 57 -3 86 -1 36 1 51 9 48 17 -6 12 68 -8 97 -17 27 -67 62 -52 37 5 -8 3 -11 -6 -8 -8 3 -13 11 -11 17 1 6 -11 11 -30 10 -33 0 -33 0 -8 -11 14 -6 20 -12 13 -15 -14 -5 -53 14 -53 27 0 5 10 10 23 12 22 3 22 3 -10 58 l-33 54 0 -41z m145 -131 c-3 -3 -11 0 -18 7 -9 10 -8 11 6 5 10 -3 15 -9 12 -12z m393 -1483 c7 -12 10 -24 6 -27 -4 -4 -9 -1 -12 7 -4 11 -6 11 -13 0 -11 -19 -22 -4 -14 20 8 27 17 26 33 0z m-8 -80 c0 -4 -9 -7 -20 -6 -20 1 -27 17 -13 30 7 8 33 -11 33 -24z"/> <path d="M0 1780 c0 -16 4 -30 8 -30 5 0 7 14 4 30 -2 17 -6 30 -8 30 -2 0 -4 -13 -4 -30z"/> <path d="M1600 1803 c0 -13 39 -48 75 -66 83 -42 146 -159 115 -216 -7 -15 -1 -25 32 -52 23 -18 73 -62 110 -97 37 -36 68 -58 68 -50 0 8 9 23 19 32 19 17 23 17 100 -7 45 -14 81 -22 81 -18 0 12 -62 41 -86 41 -14 0 -23 3 -21 8 3 4 -9 7 -26 7 -26 0 -31 4 -29 19 5 26 -6 66 -19 66 -6 0 -6 -8 2 -21 8 -15 8 -24 0 -32 -6 -6 -11 -21 -11 -33 0 -23 -22 -48 -33 -38 -3 4 -2 15 4 25 7 15 6 19 -5 19 -8 0 -16 -6 -19 -12 -2 -7 -8 -1 -12 15 -4 15 -13 27 -21 27 -8 0 -14 5 -14 10 0 6 -6 10 -13 10 -7 0 -18 9 -25 20 -7 12 -17 18 -22 15 -5 -3 -15 4 -23 15 -16 24 -11 110 7 122 8 5 7 11 -3 20 -9 8 -12 9 -7 1 4 -8 -1 -11 -14 -10 -14 1 -22 11 -26 35 -4 18 -15 39 -25 45 -11 7 -19 23 -19 37 0 19 -3 21 -9 11 -8 -12 -14 -12 -40 -1 -17 7 -31 17 -31 22 0 5 -4 6 -10 3 -5 -3 -10 2 -10 11 0 10 -3 14 -7 11 -3 -4 -12 -2 -20 4 -7 6 -13 7 -13 2z"/> <path d="M1051 1779 c-13 -11 -31 -17 -40 -14 -9 2 -23 0 -31 -5 -11 -7 -5 -10 23 -10 43 0 72 12 81 35 7 20 -4 18 -33 -6z"/> <path d="M820 1767 c0 -26 -23 -51 -57 -61 -13 -4 -23 -11 -23 -16 0 -18 81 32 90 56 13 32 13 44 0 44 -5 0 -10 -11 -10 -23z"/> <path d="M1786 1782 c-3 -5 1 -9 9 -9 8 0 12 4 9 9 -3 4 -7 8 -9 8 -2 0 -6 -4 -9 -8z"/> <path d="M2040 1766 c0 -9 5 -16 10 -16 6 0 10 4 10 9 0 6 -4 13 -10 16 -5 3 -10 -1 -10 -9z"/> <path d="M710 1750 c-1 -8 -2 -19 -1 -24 3 -16 -10 -46 -20 -46 -6 0 -17 -6 -24 -14 -19 -19 1 -39 26 -26 18 10 36 87 26 112 -4 10 -6 9 -7 -2z"/> <path d="M2120 1752 c0 -5 7 -16 16 -23 14 -12 16 -11 13 5 -4 20 -29 35 -29 18z"/> <path d="M310 1741 c0 -14 84 -50 91 -39 12 19 -24 48 -58 48 -18 0 -33 -4 -33 -9z"/> <path d="M470 1741 c0 -17 15 -19 28 -5 11 12 9 14 -8 14 -11 0 -20 -4 -20 -9z"/> <path d="M40 1730 c0 -5 5 -10 11 -10 5 0 7 5 4 10 -3 6 -8 10 -11 10 -2 0 -4 -4 -4 -10z"/> <path d="M70 1720 c0 -4 9 -10 20 -13 11 -3 20 -2 20 3 0 4 -9 10 -20 13 -11 3 -20 2 -20 -3z"/> <path d="M434 1691 c21 -23 26 -26 26 -11 0 5 -10 15 -22 21 -23 12 -23 12 -4 -10z"/> <path d="M2037 1690 c-4 -15 1 -17 36 -14 22 2 46 -1 53 -7 11 -9 14 -8 14 4 0 21 -8 25 -57 30 -34 4 -42 2 -46 -13z"/> <path d="M2150 1700 c0 -6 7 -10 15 -10 8 0 15 2 15 4 0 2 -7 6 -15 10 -8 3 -15 1 -15 -4z"/> <path d="M120 1687 c0 -18 -36 -38 -57 -30 -15 5 -16 3 -5 -8 9 -10 19 -11 45 -2 17 6 49 10 69 9 20 -2 35 1 32 6 -4 5 -12 7 -20 4 -8 -3 -14 -2 -14 3 0 4 -11 13 -25 19 -19 9 -25 9 -25 -1z"/> <path d="M1882 1679 c-10 -15 -10 -25 -3 -32 12 -12 25 12 19 38 -2 13 -6 12 -16 -6z"/> <path d="M799 1681 c-49 -16 -69 -31 -69 -56 0 -13 5 -27 10 -30 11 -7 3 -53 -13 -72 -5 -7 -31 -19 -57 -27 -66 -20 -87 -32 -93 -55 -9 -37 35 -62 136 -75 15 -2 40 -7 55 -10 15 -3 21 -3 14 0 -6 3 -9 11 -6 16 5 7 2 8 -5 4 -7 -5 -21 0 -32 10 -11 10 -20 14 -19 9 5 -22 -1 -25 -22 -13 -13 7 -26 11 -30 10 -5 -1 -8 3 -8 9 0 8 -4 8 -14 0 -16 -14 -56 1 -56 20 0 6 5 7 10 4 6 -3 10 -1 10 4 0 6 -6 11 -12 11 -7 0 0 7 16 15 35 19 110 32 86 16 -8 -6 -10 -11 -5 -11 6 0 21 9 35 20 l25 21 -30 -6 c-30 -5 -30 -5 4 11 19 8 43 13 53 11 15 -4 17 -3 8 8 -6 8 -18 11 -26 8 -11 -4 -12 0 -6 18 5 13 15 25 23 28 12 4 12 2 0 -12 -19 -23 -5 -21 18 2 13 13 40 21 88 26 96 9 103 16 10 10 -43 -3 -84 -8 -90 -12 -22 -13 -48 -10 -42 4 3 8 5 23 5 33 0 22 36 38 115 49 l60 9 -60 0 c-33 0 -72 -3 -86 -7z"/> <path d="M973 1673 c9 -2 25 -2 35 0 9 3 1 5 -18 5 -19 0 -27 -2 -17 -5z"/> <path d="M510 1665 c0 -9 103 -36 117 -31 18 7 13 16 -14 21 -10 2 -18 4 -18 6 0 1 -19 3 -42 4 -24 2 -43 1 -43 0z"/> <path d="M1058 1663 c6 -2 18 -2 25 0 6 3 1 5 -13 5 -14 0 -19 -2 -12 -5z"/> <path d="M2191 1654 c0 -11 3 -14 6 -6 3 7 2 16 -1 19 -3 4 -6 -2 -5 -13z"/> <path d="M326 1635 c-20 -21 -25 -23 -42 -11 -19 13 -58 15 -70 3 -9 -8 5 -27 20 -27 8 0 25 -6 39 -13 27 -14 101 -11 91 4 -3 5 -15 9 -27 9 -21 1 -21 2 6 23 15 13 27 26 27 30 0 15 -22 6 -44 -18z"/> <path d="M440 1650 c0 -15 21 -23 32 -12 6 6 2 11 -11 15 -12 3 -21 1 -21 -3z"/> <path d="M1108 1653 c7 -3 16 -2 19 1 4 3 -2 6 -13 5 -11 0 -14 -3 -6 -6z"/> <path d="M403 1644 c-12 -6 -7 -34 7 -34 4 0 10 9 13 20 5 20 2 22 -20 14z"/> <path d="M848 1633 c7 -3 16 -2 19 1 4 3 -2 6 -13 5 -11 0 -14 -3 -6 -6z"/> <path d="M2098 1625 c-10 -11 4 -38 29 -58 13 -10 23 -25 23 -33 0 -8 5 -14 10 -14 6 0 10 11 10 24 0 14 5 28 10 31 14 8 13 25 -1 25 -7 0 -17 8 -24 17 -11 14 -16 15 -28 5 -10 -9 -16 -10 -19 -2 -2 6 -6 8 -10 5z m62 -45 c0 -5 -5 -10 -11 -10 -5 0 -7 5 -4 10 3 6 8 10 11 10 2 0 4 -4 4 -10z"/> <path d="M1641 1603 c7 -12 15 -20 18 -17 3 2 -3 12 -13 22 -17 16 -18 16 -5 -5z"/> <path d="M991 1606 c2 -2 31 -6 64 -9 36 -3 52 -2 40 3 -19 8 -113 14 -104 6z"/> <path d="M1925 1589 c4 -12 8 -27 10 -33 1 -6 5 -19 10 -28 4 -10 4 -25 1 -34 -3 -9 -3 -20 0 -26 10 -16 23 13 19 42 -2 14 -7 42 -10 63 -4 24 -11 37 -21 37 -11 0 -13 -6 -9 -21z"/> <path d="M391 1578 c13 -24 29 -23 29 1 0 13 -6 19 -19 18 -16 -1 -18 -5 -10 -19z"/> <path d="M1121 1596 c2 -2 20 -6 39 -10 25 -4 31 -3 20 4 -14 9 -69 15 -59 6z"/> <path d="M1766 1572 c4 -17 2 -38 -4 -44 -13 -16 -13 -70 0 -62 5 4 7 17 4 29 -3 13 -1 25 5 27 15 5 15 56 0 71 -9 9 -10 3 -5 -21z"/> <path d="M460 1576 c0 -9 5 -16 10 -16 6 0 10 4 10 9 0 6 -4 13 -10 16 -5 3 -10 -1 -10 -9z"/> <path d="M644 1578 c-5 -7 -3 -8 7 -3 12 7 12 6 1 -7 -10 -13 -10 -17 3 -22 9 -3 15 0 15 9 0 8 6 15 14 15 8 0 18 5 21 10 4 6 -6 10 -24 10 -16 0 -33 -5 -37 -12z"/> <path d="M1856 1582 c-3 -6 -1 -14 5 -17 15 -10 25 3 12 16 -7 7 -13 7 -17 1z"/> <path d="M2022 1582 c-7 -5 -10 -19 -8 -33 3 -13 5 -28 5 -33 1 -5 8 -3 16 4 8 7 12 17 9 22 -4 6 2 8 15 3 26 -8 27 6 3 28 -21 19 -22 20 -40 9z"/> <path d="M140 1566 c0 -13 -5 -16 -16 -12 -12 4 -15 2 -10 -9 3 -8 1 -15 -4 -15 -6 0 -10 4 -10 9 0 5 -6 11 -14 14 -10 4 -14 0 -13 -13 1 -11 3 -17 6 -15 2 3 15 -2 28 -10 21 -14 24 -14 35 5 7 11 22 20 34 20 29 0 37 11 16 26 -13 9 -19 9 -24 1 -6 -9 -11 -8 -18 3 -8 13 -10 12 -10 -4z"/> <path d="M850 1569 c0 -5 5 -7 10 -4 6 3 10 8 10 11 0 2 -4 4 -10 4 -5 0 -10 -5 -10 -11z"/> <path d="M900 1570 c-11 -8 -7 -9 15 -4 37 8 45 14 19 14 -10 0 -26 -5 -34 -10z"/> <path d="M975 1570 c28 -12 37 -12 30 0 -3 6 -16 10 -28 9 -21 0 -21 -1 -2 -9z"/> <path d="M800 1541 c0 -10 19 -25 25 -20 1 2 -3 10 -11 17 -8 7 -14 8 -14 3z"/> <path d="M846 1532 c-2 -4 11 -6 30 -4 19 2 34 6 34 8 0 8 -59 4 -64 -4z"/> <path d="M13 1523 c-7 -2 -13 -10 -13 -16 0 -8 4 -7 12 1 9 9 16 8 32 -6 16 -13 18 -13 8 -1 -6 9 -9 19 -5 22 7 8 -16 8 -34 0z"/> <path d="M536 1521 c-10 -15 22 -20 34 -5 10 11 9 14 -8 14 -12 0 -23 -4 -26 -9z"/> <path d="M603 1515 c-9 -25 4 -29 17 -6 7 15 7 21 0 21 -6 0 -13 -7 -17 -15z"/> <path d="M1105 1510 c3 -5 8 -10 11 -10 2 0 4 5 4 10 0 6 -5 10 -11 10 -5 0 -7 -4 -4 -10z"/> <path d="M1147 1509 c7 -7 15 -10 18 -7 3 3 -2 9 -12 12 -14 6 -15 5 -6 -5z"/> <path d="M1250 1510 c0 -5 5 -10 11 -10 5 0 7 5 4 10 -3 6 -8 10 -11 10 -2 0 -4 -4 -4 -10z"/> <path d="M1880 1510 c-8 -5 -12 -12 -9 -15 4 -3 12 1 19 10 14 17 11 19 -10 5z"/> <path d="M2085 1501 c-3 -5 -1 -12 5 -16 5 -3 10 1 10 9 0 18 -6 21 -15 7z"/> <path d="M798 1483 c7 -3 16 -2 19 1 4 3 -2 6 -13 5 -11 0 -14 -3 -6 -6z"/> <path d="M1331 1481 c-8 -5 -9 -11 -3 -15 5 -3 12 1 16 9 6 17 6 18 -13 6z"/> <path d="M716 1439 c-11 -10 -16 -19 -12 -19 14 0 46 21 46 30 0 15 -13 11 -34 -11z"/> <path d="M371 1434 c0 -11 3 -14 6 -6 3 7 2 16 -1 19 -3 4 -6 -2 -5 -13z"/> <path d="M675 1441 c-3 -5 -2 -12 3 -15 5 -3 9 1 9 9 0 17 -3 19 -12 6z"/> <path d="M870 1431 c0 -6 4 -13 10 -16 6 -3 7 1 4 9 -7 18 -14 21 -14 7z"/> <path d="M1951 1424 c0 -11 3 -14 6 -6 3 7 2 16 -1 19 -3 4 -6 -2 -5 -13z"/> <path d="M2180 1431 c0 -5 5 -13 10 -16 6 -3 10 -2 10 4 0 5 -4 13 -10 16 -5 3 -10 2 -10 -4z"/> <path d="M1575 1410 c-20 -9 -20 -9 1 -9 11 -1 26 -7 33 -13 10 -11 12 -9 9 6 -4 23 -16 28 -43 16z"/> <path d="M410 1390 c14 -27 29 -34 23 -11 -3 11 -11 22 -19 25 -11 4 -12 2 -4 -14z"/> <path d="M1794 1402 c-11 -7 7 -54 20 -53 20 2 27 0 21 -8 -6 -10 24 -45 33 -37 2 3 -1 14 -9 23 -11 15 -10 15 9 -1 30 -26 42 -11 11 16 -13 12 -35 32 -49 44 -14 13 -30 20 -36 16z"/> <path d="M2121 1394 c0 -11 3 -14 6 -6 3 7 2 16 -1 19 -3 4 -6 -2 -5 -13z"/> <path d="M1010 1379 c0 -5 5 -7 10 -4 6 3 10 8 10 11 0 2 -4 4 -10 4 -5 0 -10 -5 -10 -11z"/> <path d="M1416 1382 c-3 -5 6 -12 19 -15 14 -2 28 0 31 4 3 5 1 9 -5 9 -5 0 -16 3 -24 6 -8 3 -18 1 -21 -4z"/> <path d="M1355 1370 c3 -5 1 -10 -5 -10 -6 0 -8 -4 -5 -10 3 -5 1 -10 -6 -10 -8 0 -7 -5 3 -12 14 -11 17 -43 19 -220 2 -114 7 -204 11 -202 4 3 8 1 8 -5 0 -5 -4 -12 -9 -15 -4 -3 -11 -25 -14 -50 -4 -24 -13 -63 -22 -87 -8 -24 -17 -67 -19 -95 -2 -27 -9 -67 -15 -87 l-12 -37 -42 21 c-23 12 -50 28 -59 37 -10 8 -18 12 -18 7 0 -4 -7 -2 -15 5 -13 11 -13 14 2 26 16 12 14 13 -12 3 -33 -12 -84 -5 -130 17 l-30 15 27 -24 c14 -14 43 -28 65 -31 46 -9 172 -69 202 -98 12 -11 23 -18 25 -17 1 2 8 36 15 74 25 136 62 300 71 317 6 10 5 29 0 50 -6 18 -10 119 -10 225 0 190 -3 223 -22 223 -5 0 -6 -4 -3 -10z"/> <path d="M851 1361 c-9 -6 1 -10 33 -12 25 -2 46 -1 46 3 0 5 -9 8 -19 8 -11 0 -25 2 -33 5 -7 3 -19 1 -27 -4z"/> <path d="M1670 1366 c0 -3 14 -11 30 -20 17 -8 30 -11 30 -7 0 4 -11 13 -25 19 -28 13 -35 14 -35 8z"/> <path d="M645 1349 c-11 -17 1 -21 15 -4 8 9 8 15 2 15 -6 0 -14 -5 -17 -11z"/> <path d="M985 1351 c-35 -8 126 -22 238 -20 102 1 75 8 -51 14 -60 2 -121 6 -134 9 -12 2 -36 1 -53 -3z"/> <path d="M1293 1353 c9 -2 15 -9 12 -14 -10 -15 1 -10 15 6 11 13 8 15 -16 14 -17 -1 -22 -3 -11 -6z"/> <path d="M1554 1347 c-16 -19 -24 -47 -14 -47 6 0 10 -5 10 -11 0 -5 -5 -7 -10 -4 -6 4 -8 -3 -6 -17 3 -13 5 -26 5 -30 2 -14 38 -9 50 6 10 12 9 13 -7 9 -22 -5 -37 11 -26 29 5 8 10 6 16 -8 7 -17 7 -17 5 3 -1 12 2 21 8 20 5 -1 8 -8 7 -16 -3 -11 0 -10 12 2 21 20 20 31 -1 48 -17 13 -17 13 -3 -5 14 -18 13 -19 -4 -13 -12 5 -22 3 -27 -5 -4 -7 -11 -9 -15 -6 -4 4 1 19 10 33 17 25 10 34 -10 12z"/> <path d="M570 1340 c0 -5 5 -10 11 -10 5 0 7 5 4 10 -3 6 -8 10 -11 10 -2 0 -4 -4 -4 -10z"/> <path d="M675 1339 c-4 -6 -5 -12 -2 -15 2 -3 7 2 10 11 7 17 1 20 -8 4z"/> <path d="M711 1334 c0 -11 3 -14 6 -6 3 7 2 16 -1 19 -3 4 -6 -2 -5 -13z"/> <path d="M2017 1326 c-4 -9 -4 -22 -1 -30 3 -8 1 -17 -5 -21 -14 -8 -83 -116 -78 -121 2 -2 16 13 31 34 60 82 58 81 51 47 -4 -16 -8 -54 -8 -83 -1 -32 -7 -56 -16 -61 -8 -5 -9 -10 -3 -12 8 -3 8 -17 3 -44 -13 -61 -24 -141 -18 -135 12 12 56 253 61 332 5 81 -4 129 -17 94z"/> <path d="M644 1289 c-16 -17 -16 -22 -4 -29 20 -13 30 -12 30 1 0 5 -4 8 -9 4 -5 -3 -12 -1 -15 4 -4 5 3 12 14 16 11 3 20 11 20 16 0 15 -16 10 -36 -12z"/> <path d="M817 1289 c7 -7 15 -10 18 -7 3 3 -2 9 -12 12 -14 6 -15 5 -6 -5z"/> <path d="M728 1273 c-9 -34 -9 -123 0 -123 4 0 8 32 9 70 1 71 -1 84 -9 53z"/> <path d="M1880 1276 c0 -8 51 -13 56 -5 3 5 -9 9 -25 9 -17 0 -31 -2 -31 -4z"/> <path d="M1947 1263 c-4 -3 -7 -11 -7 -17 0 -6 5 -5 12 2 6 6 9 14 7 17 -3 3 -9 2 -12 -2z"/> <path d="M340 1245 c0 -8 4 -15 10 -15 5 0 7 7 4 15 -4 8 -8 15 -10 15 -2 0 -4 -7 -4 -15z"/> <path d="M754 1200 c1 -41 -3 -61 -12 -65 -18 -7 -8 -65 19 -113 13 -24 18 -29 15 -14 -2 12 0 22 5 22 5 0 9 -16 9 -36 0 -48 -16 -35 -55 43 -16 32 -42 72 -56 88 -15 17 -29 39 -31 50 -7 38 -20 10 -24 -50 -4 -50 0 -69 20 -110 14 -27 23 -51 21 -53 -2 -3 -111 -10 -242 -18 -131 -7 -267 -15 -303 -18 -36 -3 -77 -6 -92 -6 -16 0 -28 -5 -28 -11 0 -11 142 -9 355 6 187 13 275 15 275 6 0 -16 -34 -71 -45 -71 -5 0 -3 -5 5 -10 13 -9 13 -11 0 -20 -10 -7 -61 -9 -145 -5 -72 4 -174 8 -227 10 -54 2 -102 6 -107 10 -6 3 -34 8 -63 10 -49 5 -50 4 -18 -5 19 -6 47 -15 61 -21 l27 -11 -55 -53 -56 -54 7 -53 c17 -130 17 -133 7 -118 -23 32 -11 -13 14 -56 21 -36 22 -42 8 -37 -14 6 -13 0 7 -33 42 -70 70 -109 78 -109 25 -2 52 -19 52 -32 0 -14 -2 -14 -19 1 -11 10 -24 15 -29 12 -5 -3 -35 31 -68 76 -32 44 -60 76 -62 70 -2 -6 4 -19 12 -29 35 -43 86 -113 120 -167 42 -65 40 -70 -27 -80 -28 -5 -45 -3 -54 7 -15 15 -7 51 10 40 5 -3 -1 13 -13 36 -14 24 -27 37 -31 30 -4 -8 -8 -7 -12 2 -2 8 -4 -9 -3 -37 1 -29 8 -59 15 -68 11 -14 11 -16 -3 -16 -9 0 -16 -5 -16 -10 0 -7 6 -8 17 -1 11 6 24 6 36 -1 10 -5 25 -7 33 -4 9 3 12 1 9 -4 -3 -6 -2 -10 4 -10 5 0 13 5 16 10 4 6 12 10 18 9 23 -2 57 14 57 27 0 25 28 15 38 -13 5 -16 19 -38 31 -51 21 -21 21 -22 2 -22 -12 0 -25 11 -33 27 -7 14 -20 29 -28 31 -12 4 -11 1 2 -15 10 -11 18 -23 18 -26 0 -12 -28 -7 -33 5 -2 7 -3 3 -1 -8 4 -24 -6 -27 -123 -40 -35 -4 -63 -10 -63 -13 0 -7 107 2 173 14 15 2 27 0 27 -5 0 -6 -15 -10 -32 -11 -18 0 -64 -6 -103 -14 l-70 -14 75 7 c100 9 199 9 230 -1 25 -8 25 -8 -3 13 -30 24 -35 40 -11 40 10 0 14 -6 11 -14 -4 -10 0 -12 14 -9 14 4 19 0 19 -16 0 -11 4 -21 9 -21 5 0 7 9 4 20 -7 26 14 26 22 0 6 -20 11 -21 303 -15 343 6 417 13 382 35 -14 9 -81 6 -138 -6 -15 -3 -21 -1 -17 6 3 5 2 10 -4 10 -5 0 -11 -5 -13 -12 -3 -8 -42 -12 -126 -12 -67 -1 -122 -3 -122 -6 0 -3 -44 -5 -98 -5 -96 1 -142 8 -142 25 0 8 -58 26 -73 22 -4 -1 -15 11 -25 28 -9 16 -23 28 -30 25 -17 -6 -15 5 5 27 13 15 14 23 5 44 -16 33 -15 73 2 104 7 14 28 51 45 82 l31 58 -20 20 c-11 11 -20 27 -20 35 0 18 63 82 86 87 10 2 19 10 22 18 4 12 2 13 -9 3 -17 -17 -22 -16 -47 6 -28 24 -28 28 6 29 15 0 43 3 62 6 19 3 26 3 15 0 -33 -10 -42 -24 -14 -24 15 0 37 12 54 30 l29 30 -43 0 c-23 0 -72 -7 -109 -15 -37 -8 -118 -16 -180 -18 -112 -5 -114 -4 -108 17 3 11 6 31 6 44 0 12 5 22 10 22 6 0 10 -6 10 -12 0 -8 13 -13 30 -13 17 0 30 3 30 8 0 4 -10 7 -22 7 -31 1 -62 26 -55 44 3 8 21 23 39 32 29 15 60 17 233 16 160 -2 202 -5 211 -17 8 -11 21 3 60 70 26 47 52 85 56 85 4 0 13 -8 20 -18 7 -10 27 -27 43 -36 22 -14 18 -8 -15 23 -37 34 -42 42 -30 51 13 8 12 10 -3 10 -22 0 -70 98 -65 132 2 19 11 11 48 -44 24 -37 47 -63 50 -58 9 14 73 -97 67 -114 -4 -10 5 -23 23 -36 33 -24 40 -15 13 16 -25 27 -41 77 -32 99 7 20 8 20 8 0 1 -11 14 -48 31 -83 16 -34 29 -65 29 -67 0 -3 25 -40 56 -82 71 -97 71 -81 0 29 -78 121 -145 306 -145 402 0 69 1 71 25 72 25 2 25 1 11 -21 -14 -21 -14 -24 0 -29 9 -3 12 -11 8 -18 -5 -7 -2 -9 9 -5 9 3 18 1 21 -6 2 -7 5 -3 5 8 1 15 4 16 13 7 7 -7 19 -12 27 -12 30 1 -21 30 -51 30 -15 0 -28 4 -28 10 0 5 7 7 17 3 13 -5 15 -2 11 15 -6 22 6 30 17 12 3 -5 15 -10 27 -10 14 0 18 -5 14 -15 -3 -10 1 -15 14 -15 24 0 31 12 18 30 -8 12 -9 12 -4 -2 7 -23 -2 -23 -22 1 -22 25 -87 43 -117 31 -13 -5 -26 -5 -32 1 -6 6 -9 -13 -9 -51z m-59 -121 c39 -67 42 -95 4 -32 -13 21 -31 47 -41 57 -20 22 -23 36 -8 36 5 0 25 -28 45 -61z m65 36 c0 -8 -4 -15 -8 -15 -5 0 -9 7 -9 15 0 8 4 15 9 15 4 0 8 -7 8 -15z m5 -45 c10 -11 14 -20 9 -20 -5 0 -15 9 -22 20 -7 11 -11 20 -9 20 2 0 12 -9 22 -20z m-693 -556 c4 -3 5 16 1 44 l-6 50 50 -1 49 -2 -14 -27 c-7 -15 -11 -32 -7 -38 16 -25 -9 -27 -32 -2 l-25 27 21 -35 c11 -19 25 -34 31 -33 5 2 7 -3 4 -11 -3 -8 -1 -17 5 -21 17 -10 13 -23 -9 -30 -12 -4 -27 -1 -35 5 -43 35 19 -67 64 -107 20 -17 22 -22 9 -23 -47 -1 -136 177 -139 277 -1 21 -4 49 -8 63 -5 16 -2 38 8 59 16 34 16 33 21 -77 3 -61 8 -114 12 -118z m263 86 c5 -9 -79 -16 -122 -11 -19 2 -22 -13 -13 -55 5 -21 19 -108 30 -193 11 -85 25 -160 32 -168 8 -9 8 -17 1 -24 -19 -19 -43 67 -70 252 -14 98 -23 182 -20 185 19 20 152 31 162 14z m-54 -42 c0 -10 2 -10 6 0 2 6 14 12 26 11 12 0 16 -3 9 -6 -6 -2 -10 -8 -7 -13 3 -4 -4 -10 -15 -13 -11 -3 -23 -1 -26 4 -3 5 -14 9 -25 9 -11 0 -17 5 -14 10 9 14 45 12 46 -2z m21 -55 c-13 -25 -8 -63 8 -73 12 -7 12 -11 0 -25 -8 -9 -15 -24 -16 -33 -2 -8 -12 -25 -24 -36 l-21 -21 2 40 c0 22 -2 55 -7 74 -7 33 -6 34 20 27 21 -5 27 -3 23 6 -2 7 -13 12 -25 11 -23 -3 -39 27 -20 39 7 4 26 8 41 8 23 0 26 -3 19 -17z m-136 -110 c-3 -3 -14 0 -23 7 -10 7 -6 1 9 -13 16 -14 24 -28 19 -32 -9 -5 -51 40 -51 56 0 14 45 15 48 1 2 -8 1 -16 -2 -19z m-35 -70 c13 -16 12 -17 -3 -4 -10 7 -18 15 -18 17 0 8 8 3 21 -13z m79 -137 c0 -6 -18 8 -40 29 -22 21 -40 44 -40 49 0 6 18 -8 40 -29 22 -21 40 -44 40 -49z m-160 22 c0 -4 -5 -8 -11 -8 -5 0 -8 -4 -5 -9 3 -5 0 -11 -7 -14 -11 -4 -13 16 -7 68 1 11 30 -24 30 -37z m190 -158 c-19 -13 -30 -13 -30 0 0 6 10 10 23 10 18 0 19 -2 7 -10z"/> <path d="M80 488 c0 -9 5 -20 10 -23 13 -8 13 5 0 25 -8 13 -10 13 -10 -2z"/> <path d="M118 453 c7 -3 16 -2 19 1 4 3 -2 6 -13 5 -11 0 -14 -3 -6 -6z"/> <path d="M563 1235 c0 -8 6 -15 13 -15 8 0 11 6 8 15 -4 8 -9 15 -13 15 -4 0 -8 -7 -8 -15z"/> <path d="M601 1245 c1 -19 18 -51 18 -35 0 8 -4 22 -9 30 -5 8 -9 11 -9 5z"/> <path d="M1591 1230 c-12 -11 -28 -17 -34 -13 -6 4 -7 1 -3 -6 5 -7 14 -10 21 -7 9 3 11 -2 8 -17 -5 -20 -4 -20 9 -7 13 13 34 71 26 70 -2 -1 -14 -9 -27 -20z"/> <path d="M1705 1220 c3 -5 8 -10 11 -10 2 0 4 5 4 10 0 6 -5 10 -11 10 -5 0 -7 -4 -4 -10z"/> <path d="M295 1210 c-15 -24 7 -33 120 -44 l50 -5 -30 18 c-19 11 -42 16 -62 14 -18 -3 -33 0 -33 5 0 6 -10 8 -22 4 -14 -3 -19 -2 -14 6 4 7 5 12 2 12 -3 0 -8 -4 -11 -10z"/> <path d="M1194 1195 c11 -8 25 -15 30 -15 6 0 2 7 -8 15 -11 8 -25 15 -30 15 -6 0 -2 -7 8 -15z"/> <path d="M970 1192 c0 -5 5 -13 12 -20 7 -7 12 -24 13 -39 0 -14 5 -28 12 -30 11 -4 10 25 -3 69 -5 17 -34 34 -34 20z"/> <path d="M1152 1175 c-11 -12 -10 -15 3 -15 8 0 15 7 15 15 0 18 -2 18 -18 0z"/> <path d="M480 1160 c0 -3 6 -7 13 -8 6 0 31 -2 55 -5 29 -3 42 -1 42 8 0 8 -18 13 -55 13 -30 0 -55 -4 -55 -8z"/> <path d="M1982 1156 c7 -8 15 -12 17 -11 5 6 -10 25 -20 25 -5 0 -4 -6 3 -14z"/> <path d="M600 1150 c0 -5 5 -10 10 -10 6 0 10 5 10 10 0 6 -4 10 -10 10 -5 0 -10 -4 -10 -10z"/> <path d="M1178 1152 c-28 -6 -21 -20 8 -16 14 1 28 4 30 7 8 7 -19 14 -38 9z"/> <path d="M914 1070 c-23 -65 -23 -73 0 -37 14 20 32 97 24 97 -2 0 -12 -27 -24 -60z"/> <path d="M1447 1096 c-4 -10 -5 -21 -2 -24 9 -9 17 6 13 25 -3 17 -4 17 -11 -1z"/> <path d="M1576 1088 c9 -32 12 -34 30 -16 19 19 11 38 -17 38 -16 0 -19 -4 -13 -22z"/> <path d="M1480 1084 c0 -8 5 -12 10 -9 6 3 10 10 10 16 0 5 -4 9 -10 9 -5 0 -10 -7 -10 -16z"/> <path d="M1514 1078 c1 -24 26 -51 26 -29 0 5 3 17 7 27 5 13 3 16 -10 11 -8 -3 -18 -1 -20 6 -2 7 -4 0 -3 -15z"/> <path d="M1667 1085 c6 -18 34 -16 41 3 2 7 -6 12 -22 12 -19 0 -24 -4 -19 -15z"/> <path d="M1406 1081 c-5 -8 -3 -17 5 -22 17 -11 39 -12 23 -1 -6 4 -13 14 -16 22 -3 11 -6 11 -12 1z"/> <path d="M1709 1064 c-9 -11 -9 -14 0 -14 7 0 10 -4 7 -9 -4 -5 4 -7 16 -3 14 3 19 2 14 -6 -4 -7 -3 -12 2 -12 5 0 12 8 14 18 7 25 -36 46 -53 26z"/> <path d="M1780 1070 c0 -5 5 -10 10 -10 6 0 10 5 10 10 0 6 -4 10 -10 10 -5 0 -10 -4 -10 -10z"/> <path d="M963 1050 c1 -11 5 -20 9 -20 4 0 8 9 8 20 0 11 -4 20 -9 20 -6 0 -9 -9 -8 -20z"/> <path d="M1633 1055 c0 -8 4 -12 9 -9 5 3 6 10 3 15 -9 13 -12 11 -12 -6z"/> <path d="M1801 1047 c-9 -24 0 -33 24 -23 20 7 19 32 0 40 -10 4 -19 -2 -24 -17z"/> <path d="M1003 1041 c-1 -11 6 -26 15 -33 14 -11 15 -11 9 5 -4 10 -7 25 -7 33 0 21 -16 17 -17 -5z"/> <path d="M1466 1025 c-11 -8 -15 -15 -9 -15 6 0 16 7 23 15 16 19 11 19 -14 0z"/> <path d="M1064 1005 c16 -38 18 -55 9 -55 -5 0 -18 -7 -29 -16 -18 -14 -18 -15 4 -4 25 12 46 5 36 -13 -5 -9 -4 -9 6 0 16 15 5 76 -17 94 -15 12 -16 12 -9 -6z"/> <path d="M1625 1009 c-11 -17 1 -21 15 -4 8 9 8 15 2 15 -6 0 -14 -5 -17 -11z"/> <path d="M399 987 c-12 -4 -41 -6 -65 -5 -24 0 -47 -2 -52 -7 -7 -8 318 2 327 10 2 3 -11 5 -30 6 -19 0 -62 1 -97 2 -35 1 -72 -1 -83 -6z"/> <path d="M880 988 c0 -6 3 -8 7 -5 3 4 13 -2 21 -14 8 -11 24 -24 37 -29 15 -6 22 -16 21 -32 -3 -36 8 -47 14 -13 3 18 15 34 30 42 l25 13 -32 0 c-21 0 -32 5 -30 13 1 7 -8 11 -24 9 -15 -1 -32 4 -39 13 -15 18 -30 20 -30 3z"/> <path d="M2014 985 c-3 -8 -4 -20 -2 -27 3 -7 7 -1 10 15 6 29 1 36 -8 12z"/> <path d="M990 986 c0 -2 7 -7 16 -10 8 -3 12 -2 9 4 -6 10 -25 14 -25 6z"/> <path d="M1820 983 c0 -6 -12 -16 -27 -21 l-28 -10 28 -1 c26 -1 47 22 33 36 -3 4 -6 1 -6 -4z"/> <path d="M2088 983 c7 -3 16 -2 19 1 4 3 -2 6 -13 5 -11 0 -14 -3 -6 -6z"/> <path d="M200 968 c0 -11 57 -10 65 2 3 5 -9 9 -30 8 -19 -1 -35 -5 -35 -10z"/> <path d="M725 970 c3 -5 8 -10 11 -10 2 0 4 5 4 10 0 6 -5 10 -11 10 -5 0 -7 -4 -4 -10z"/> <path d="M1509 953 c-1 -4 -1 -12 0 -17 1 -5 -4 -13 -11 -17 -9 -6 -5 -9 12 -10 14 0 36 -2 50 -3 14 -1 78 -6 143 -10 104 -8 117 -7 117 8 0 9 -7 16 -15 16 -8 0 -15 -4 -15 -8 0 -4 -16 -6 -36 -4 -27 3 -34 8 -30 21 5 12 3 12 -8 -3 -13 -16 -24 -17 -88 -11 -87 8 -110 13 -103 25 3 5 1 11 -5 15 -5 3 -11 3 -11 -2z"/> <path d="M739 932 c13 -24 41 -48 41 -35 0 12 -34 53 -44 53 -4 0 -2 -8 3 -18z"/> <path d="M1600 940 c0 -5 5 -10 10 -10 6 0 10 5 10 10 0 6 -4 10 -10 10 -5 0 -10 -4 -10 -10z"/> <path d="M1003 917 c4 -10 7 -23 7 -28 0 -5 8 -9 18 -8 10 0 12 3 4 6 -6 2 -10 8 -7 13 3 4 -3 14 -12 21 -15 12 -16 12 -10 -4z"/> <path d="M1450 910 c0 -5 7 -7 15 -4 8 4 15 8 15 10 0 2 -7 4 -15 4 -8 0 -15 -4 -15 -10z"/> <path d="M700 859 c0 -5 5 -7 10 -4 6 3 10 8 10 11 0 2 -4 4 -10 4 -5 0 -10 -5 -10 -11z"/> <path d="M914 857 c-6 -7 -7 -21 -3 -32 7 -18 8 -18 8 -2 1 10 6 15 11 12 6 -4 8 -15 5 -26 -14 -42 84 -95 158 -86 l32 3 -32 8 c-18 5 -33 12 -33 17 0 5 6 6 14 3 8 -3 17 -1 21 5 3 7 0 8 -9 5 -9 -3 -16 -2 -16 2 0 5 -19 8 -42 8 -45 -2 -78 10 -78 27 0 6 14 7 38 3 20 -4 45 -8 54 -10 9 -1 22 4 28 11 10 12 6 13 -22 9 -19 -3 -40 0 -51 8 -15 11 -12 13 28 12 25 0 51 -6 57 -12 15 -15 78 -16 78 -1 0 6 -6 9 -12 6 -7 -2 -43 6 -80 19 -59 20 -68 21 -87 7 -16 -11 -21 -11 -19 -1 4 17 -34 21 -48 5z"/> <path d="M658 853 c7 -3 16 -2 19 1 4 3 -2 6 -13 5 -11 0 -14 -3 -6 -6z"/> <path d="M786 845 c4 -9 -1 -22 -12 -30 -11 -7 -16 -17 -12 -21 4 -4 16 4 27 17 l19 24 22 -38 c23 -39 34 -48 23 -20 -5 12 -3 14 8 8 8 -4 1 6 -16 24 -37 41 -67 59 -59 36z"/> <path d="M1830 849 c0 -5 -5 -7 -12 -3 -7 4 -8 3 -4 -4 5 -8 12 -9 24 -1 20 13 77 -5 67 -21 -9 -14 9 -12 24 3 10 10 12 9 9 -3 -2 -8 -14 -20 -28 -26 -25 -11 -25 -11 7 -10 17 1 31 3 31 6 -1 18 3 30 11 30 5 0 8 -8 7 -17 -1 -14 6 -17 29 -15 17 2 39 -4 50 -12 11 -9 15 -16 8 -16 -13 0 -6 -30 6 -30 15 0 4 41 -15 61 -17 17 -25 18 -50 9 -25 -9 -27 -8 -12 3 16 12 10 16 -56 35 -84 25 -96 26 -96 11z"/> <path d="M458 833 c6 -2 18 -2 25 0 6 3 1 5 -13 5 -14 0 -19 -2 -12 -5z"/> <path d="M508 833 c6 -2 18 -2 25 0 6 3 1 5 -13 5 -14 0 -19 -2 -12 -5z"/> <path d="M688 823 c-3 -12 -1 -26 5 -32 14 -14 57 -14 57 -1 0 6 -11 10 -24 10 -18 0 -26 6 -28 23 l-3 22 -7 -22z"/> <path d="M300 780 c0 -5 9 -10 20 -10 11 0 20 5 20 10 0 6 -9 10 -20 10 -11 0 -20 -4 -20 -10z"/> <path d="M510 780 c0 -5 10 -10 23 -10 18 0 19 2 7 10 -19 13 -30 13 -30 0z"/> <path d="M1540 759 c-22 -18 -22 -19 -3 -10 12 6 25 16 28 21 9 15 3 12 -25 -11z"/> <path d="M186 758 c-6 -4 -23 -8 -38 -8 -16 0 -28 -4 -28 -10 0 -9 13 -13 72 -25 9 -1 18 0 20 5 2 4 30 3 63 -1 33 -4 105 -8 160 -8 91 -1 101 1 113 20 7 12 12 22 10 24 -7 7 -361 10 -372 3z"/> <path d="M870 761 c0 -5 5 -13 10 -16 6 -3 10 -2 10 4 0 5 -4 13 -10 16 -5 3 -10 2 -10 -4z"/> <path d="M1870 762 c0 -4 10 -9 22 -9 18 -2 20 0 8 7 -18 12 -30 13 -30 2z"/> <path d="M1930 766 c0 -2 9 -6 20 -9 11 -3 20 -1 20 4 0 5 -9 9 -20 9 -11 0 -20 -2 -20 -4z"/> <path d="M1696 733 c-6 -14 -5 -15 5 -6 7 7 10 15 7 18 -3 3 -9 -2 -12 -12z"/> <path d="M1910 732 c0 -6 -8 -9 -17 -6 -15 5 -16 4 -3 -5 16 -11 40 3 27 16 -4 3 -7 1 -7 -5z"/> <path d="M1520 722 c0 -5 7 -9 15 -9 8 0 12 4 9 9 -3 4 -9 8 -15 8 -5 0 -9 -4 -9 -8z"/> <path d="M1937 709 c7 -7 15 -10 18 -7 3 3 -2 9 -12 12 -14 6 -15 5 -6 -5z"/> <path d="M1860 706 c0 -2 7 -7 16 -10 8 -3 12 -2 9 4 -6 10 -25 14 -25 6z"/> <path d="M353 689 c14 -8 22 -8 30 0 8 8 3 11 -18 11 -26 -1 -28 -2 -12 -11z"/> <path d="M922 678 c-7 -7 -12 -9 -12 -5 0 4 -21 -3 -47 -16 -27 -14 -66 -30 -88 -37 -51 -17 -144 -60 -128 -60 6 0 33 9 60 21 55 24 165 66 206 79 26 8 27 7 21 -13 -9 -29 -4 -26 -70 -44 -32 -8 -70 -21 -84 -28 -29 -15 -171 -51 -240 -60 -82 -12 -203 -52 -195 -65 13 -22 240 9 280 38 20 14 20 14 0 8 -90 -25 -236 -44 -204 -26 13 7 43 13 134 26 72 10 137 28 233 66 57 21 109 37 115 34 8 -3 7 -5 -2 -5 -20 -1 -194 -72 -206 -84 -7 -7 -4 -8 8 -4 11 4 17 1 17 -8 0 -11 7 -10 34 6 26 15 43 19 72 13 29 -5 36 -4 32 7 -7 18 9 49 25 49 9 0 9 -2 -1 -8 -7 -5 -12 -22 -11 -38 1 -16 -2 -38 -6 -49 -5 -16 -5 -17 4 -5 8 12 13 12 23 2 19 -19 28 -14 28 13 0 14 -3 24 -7 24 -38 -6 -46 27 -9 37 19 4 25 14 30 51 3 25 11 51 16 58 15 18 -12 39 -28 23z"/> <path d="M1585 680 c3 -5 8 -10 11 -10 2 0 4 5 4 10 0 6 -5 10 -11 10 -5 0 -7 -4 -4 -10z"/> <path d="M90 671 c0 -10 84 -11 93 -1 3 3 -17 6 -44 8 -27 2 -49 -1 -49 -7z"/> <path d="M1863 665 c0 -8 6 -16 13 -19 7 -3 10 2 7 15 -6 22 -20 26 -20 4z"/> <path d="M2025 669 c-4 -6 -5 -12 -2 -15 2 -3 7 2 10 11 7 17 1 20 -8 4z"/> <path d="M970 646 c0 -2 8 -10 18 -17 15 -13 16 -12 3 4 -13 16 -21 21 -21 13z"/> <path d="M1795 640 c-3 -6 1 -7 9 -4 18 7 21 14 7 14 -6 0 -13 -4 -16 -10z"/> <path d="M1793 602 c-8 -14 -8 -19 1 -19 7 0 13 9 13 19 1 10 1 18 0 18 -1 0 -7 -8 -14 -18z"/> <path d="M1006 601 c-4 -6 -9 -23 -11 -38 -4 -26 -14 -75 -19 -98 -4 -13 -17 -47 -24 -59 -3 -5 0 -6 6 -2 7 4 12 3 12 -3 0 -5 -5 -13 -11 -17 -6 -3 -9 -17 -6 -30 2 -14 0 -27 -6 -31 -6 -4 -7 -1 -3 8 4 8 -1 3 -13 -11 -11 -14 -16 -26 -11 -28 5 -2 6 -10 4 -17 -9 -22 5 -38 21 -25 8 7 18 9 23 6 5 -3 7 5 5 17 -2 12 7 91 21 176 24 146 27 176 12 152z m-53 -321 c-12 -47 -25 -22 -14 28 1 2 5 1 10 -2 5 -3 7 -15 4 -26z"/> <path d="M1752 586 c7 -8 15 -12 17 -11 5 6 -10 25 -20 25 -5 0 -4 -6 3 -14z"/> <path d="M1966 591 c-3 -4 4 -7 14 -6 27 2 33 10 10 12 -11 1 -22 -2 -24 -6z"/> <path d="M1897 541 c3 -12 9 -21 14 -21 14 0 11 16 -5 29 -12 10 -13 8 -9 -8z"/> <path d="M1650 539 c0 -5 5 -7 10 -4 6 3 10 8 10 11 0 2 -4 4 -10 4 -5 0 -10 -5 -10 -11z"/> <path d="M405 530 c-3 -5 -1 -10 4 -10 6 0 11 5 11 10 0 6 -2 10 -4 10 -3 0 -8 -4 -11 -10z"/> <path d="M1870 530 c-9 -6 -10 -10 -3 -10 6 0 15 5 18 10 8 12 4 12 -15 0z"/> <path d="M1056 507 c3 -10 9 -15 12 -12 3 3 0 11 -7 18 -10 9 -11 8 -5 -6z"/> <path d="M1100 501 c-15 -29 -12 -38 5 -15 19 25 19 19 -4 -46 -27 -80 -33 -110 -21 -110 5 0 10 8 10 18 0 10 11 50 24 89 13 39 22 74 18 77 -10 11 -21 6 -32 -13z"/> <path d="M1930 500 c-8 -5 -10 -10 -5 -10 6 0 17 5 25 10 8 5 11 10 5 10 -5 0 -17 -5 -25 -10z"/> <path d="M1385 480 c-3 -5 -1 -10 4 -10 6 0 11 5 11 10 0 6 -2 10 -4 10 -3 0 -8 -4 -11 -10z"/> <path d="M1660 486 c0 -2 7 -7 16 -10 8 -3 12 -2 9 4 -6 10 -25 14 -25 6z"/> <path d="M1767 469 c7 -7 15 -10 18 -7 3 3 -2 9 -12 12 -14 6 -15 5 -6 -5z"/> <path d="M1230 445 c-7 -8 -16 -13 -20 -10 -5 3 -3 -8 3 -25 6 -17 19 -33 29 -36 10 -3 18 -10 18 -17 0 -8 3 -8 12 1 19 19 38 14 38 -10 0 -19 -2 -20 -10 -8 -6 9 -10 11 -10 3 0 -8 -7 -10 -17 -6 -17 6 -17 5 0 -14 13 -15 15 -23 7 -28 -7 -4 -16 -1 -21 6 -5 8 -9 10 -9 4 1 -5 7 -18 14 -28 13 -17 15 -16 35 9 30 38 36 69 20 107 -25 63 -62 85 -89 52z m49 -9 c10 -12 8 -13 -8 -9 -15 4 -21 1 -21 -10 0 -9 -5 -19 -12 -23 -6 -4 -8 -3 -4 4 3 5 0 12 -6 15 -10 3 -10 7 1 20 17 21 35 22 50 3z m11 -42 c0 -8 -19 -13 -24 -6 -3 5 1 9 9 9 8 0 15 -2 15 -3z"/> <path d="M710 442 c0 -6 17 -25 38 -43 20 -17 31 -28 25 -25 -7 4 -13 3 -13 -3 0 -6 16 -17 35 -26 43 -21 59 -40 51 -61 -6 -15 -8 -15 -29 0 -12 9 -29 19 -37 23 -8 3 -28 17 -43 30 -16 13 -33 23 -40 23 -21 0 33 -46 87 -73 30 -15 56 -36 59 -45 2 -10 9 0 17 26 l13 43 -73 67 c-77 71 -90 80 -90 64z"/> <path d="M1885 440 c-3 -5 -1 -10 4 -10 6 0 11 5 11 10 0 6 -2 10 -4 10 -3 0 -8 -4 -11 -10z"/> <path d="M1059 381 c-14 -47 -14 -52 0 -63 13 -10 14 -9 5 1 -8 9 -8 23 3 53 7 22 12 45 11 50 -2 5 -11 -13 -19 -41z"/> <path d="M2000 421 c0 -5 5 -13 10 -16 6 -3 10 -2 10 4 0 5 -4 13 -10 16 -5 3 -10 2 -10 -4z"/> <path d="M518 413 c7 -3 16 -2 19 1 4 3 -2 6 -13 5 -11 0 -14 -3 -6 -6z"/> <path d="M1883 403 c-17 -8 -34 -22 -38 -31 -5 -13 -2 -12 15 3 12 10 28 20 36 21 18 3 29 12 23 18 -2 3 -19 -2 -36 -11z"/> <path d="M357 403 c-26 -25 14 -89 48 -77 14 6 17 4 12 -9 -3 -9 -2 -17 4 -17 14 0 29 44 22 68 -3 12 -17 25 -32 30 -24 9 -27 7 -27 -11 1 -11 -5 -22 -12 -24 -9 -4 -11 2 -6 21 6 26 3 32 -9 19z"/> <path d="M586 401 c-4 -6 -6 -11 -4 -12 66 -16 141 -22 134 -11 -3 5 -23 13 -43 17 -21 3 -48 9 -59 11 -12 3 -25 1 -28 -5z"/> <path d="M1445 400 c-3 -5 -2 -10 4 -10 5 0 13 5 16 10 3 6 2 10 -4 10 -5 0 -13 -4 -16 -10z"/> <path d="M3 365 c0 -8 4 -12 9 -9 5 3 6 10 3 15 -9 13 -12 11 -12 -6z"/> <path d="M1144 345 c-10 -8 -14 -15 -9 -15 6 0 3 -5 -5 -10 -12 -7 -12 -12 -2 -22 10 -10 14 -8 18 10 4 12 9 20 13 18 4 -3 7 4 7 15 0 10 -1 19 -1 19 -1 0 -10 -7 -21 -15z"/> <path d="M1624 339 c-3 -6 -1 -16 6 -22 10 -9 11 -9 5 2 -4 8 -2 17 6 22 9 6 10 9 2 9 -6 0 -15 -5 -19 -11z"/> <path d="M17 324 c4 -10 2 -15 -4 -11 -5 3 -10 0 -10 -7 0 -7 12 -12 31 -12 25 1 31 -3 32 -20 1 -28 34 -75 46 -68 6 4 8 -2 3 -17 -5 -19 -4 -21 4 -9 7 10 11 11 11 3 0 -7 5 -13 10 -13 17 0 -63 119 -97 146 -25 19 -31 21 -26 8z m93 -109 c0 -11 -14 7 -31 40 -7 13 -3 12 10 -5 11 -14 21 -29 21 -35z"/> <path d="M1222 333 c-6 -3 -9 -9 -6 -14 3 -6 0 -17 -7 -25 -10 -12 -10 -17 0 -27 7 -7 11 -7 10 -2 -1 6 3 23 10 39 13 32 12 35 -7 29z"/> <path d="M1846 325 c10 -8 26 -14 34 -14 9 0 4 6 -10 14 -33 19 -49 19 -24 0z"/> <path d="M1910 315 c13 -14 26 -25 28 -25 3 0 -5 11 -18 25 -13 14 -26 25 -28 25 -3 0 5 -11 18 -25z"/> <path d="M1830 300 c35 -24 54 -31 30 -11 -14 11 -29 21 -35 21 -5 0 -3 -5 5 -10z"/> <path d="M337 293 c-24 -24 29 -48 125 -57 36 -3 75 -9 85 -12 14 -5 15 -4 7 5 -11 12 -44 19 -97 20 -17 1 -38 12 -52 27 -14 15 -25 23 -25 17 0 -5 5 -14 12 -21 13 -13 5 -15 -29 -6 -13 4 -20 11 -16 20 5 15 1 18 -10 7z"/> <path d="M1516 288 c3 -5 10 -6 15 -3 13 9 11 12 -6 12 -8 0 -12 -4 -9 -9z"/> <path d="M1086 278 c3 -4 11 -5 19 -1 21 7 19 12 -4 10 -11 0 -18 -5 -15 -9z"/> <path d="M1634 279 c-3 -6 -2 -15 3 -20 5 -5 9 -1 9 11 0 23 -2 24 -12 9z"/> <path d="M1741 257 c-8 -10 -7 -14 4 -14 8 0 12 4 9 9 -3 4 -1 8 4 8 5 0 14 -12 21 -26 7 -16 17 -24 26 -21 7 3 16 2 19 -4 2 -5 3 -4 2 3 -2 7 -8 12 -15 11 -6 -2 -18 8 -27 22 -19 28 -27 31 -43 12z"/> <path d="M1828 263 c6 -2 18 -2 25 0 6 3 1 5 -13 5 -14 0 -19 -2 -12 -5z"/> <path d="M998 253 c6 -2 18 -2 25 0 6 3 1 5 -13 5 -14 0 -19 -2 -12 -5z"/> <path d="M1050 249 c0 -12 59 -16 63 -5 3 7 -9 11 -29 11 -19 0 -34 -3 -34 -6z"/> <path d="M1128 233 c7 -3 16 -2 19 1 4 3 -2 6 -13 5 -11 0 -14 -3 -6 -6z"/> <path d="M1160 230 c0 -5 10 -10 23 -10 18 0 19 2 7 10 -19 13 -30 13 -30 0z"/> <path d="M1561 227 c-8 -10 -7 -14 4 -14 8 0 12 4 9 8 -2 4 2 10 8 12 8 4 9 6 2 6 -6 1 -17 -5 -23 -12z"/> <path d="M1613 233 c-7 -2 -13 -11 -13 -18 0 -7 -6 -16 -12 -18 -8 -4 -9 -6 -2 -6 7 -1 19 10 28 24 9 14 15 25 14 24 -2 0 -9 -3 -15 -6z"/> <path d="M1635 219 c-4 -6 -5 -12 -2 -15 2 -3 7 2 10 11 7 17 1 20 -8 4z"/> <path d="M1747 219 c7 -7 15 -10 18 -7 3 3 -2 9 -12 12 -14 6 -15 5 -6 -5z"/> <path d="M1673 201 c0 -11 5 -18 9 -15 4 3 5 11 1 19 -7 21 -12 19 -10 -4z"/> <path d="M1856 205 c-11 -8 -15 -15 -9 -15 6 0 16 7 23 15 16 19 11 19 -14 0z"/> <path d="M645 200 c-3 -6 1 -7 9 -4 18 7 21 14 7 14 -6 0 -13 -4 -16 -10z"/> <path d="M689 201 c12 -8 51 -4 51 5 0 2 -15 4 -32 4 -23 0 -29 -3 -19 -9z"/> <path d="M750 200 c0 -5 5 -12 10 -15 6 -3 10 -2 10 3 0 5 12 7 28 4 15 -2 25 -2 22 1 -9 9 -70 16 -70 7z"/> <path d="M590 190 c-9 -6 -10 -10 -3 -10 6 0 15 5 18 10 8 12 4 12 -15 0z"/> <path d="M838 181 c-10 -13 -10 -14 1 -5 13 12 124 -13 241 -54 51 -17 54 -21 56 -53 1 -19 2 -42 3 -51 1 -10 5 -18 10 -18 4 0 6 22 3 49 -2 27 0 63 6 79 9 27 8 29 -17 28 -30 0 -85 8 -152 23 -87 20 -137 20 -151 2z"/> <path d="M1526 191 c-3 -5 1 -11 9 -14 9 -4 12 -1 8 9 -6 16 -10 17 -17 5z"/> <path d="M1946 187 c3 -10 9 -15 12 -12 3 3 0 11 -7 18 -10 9 -11 8 -5 -6z"/> <path d="M60 170 c0 -5 7 -10 15 -10 8 0 15 5 15 10 0 6 -7 10 -15 10 -8 0 -15 -4 -15 -10z"/> <path d="M1860 176 c0 -2 7 -7 16 -10 8 -3 12 -2 9 4 -6 10 -25 14 -25 6z"/> <path d="M1275 160 c-3 -6 1 -7 9 -4 9 3 16 1 16 -5 0 -6 -4 -11 -10 -11 -5 0 -10 -5 -10 -12 0 -8 6 -7 16 4 9 9 13 21 10 27 -9 14 -23 14 -31 1z"/> <path d="M1323 145 c0 -8 5 -11 10 -8 5 3 13 -1 18 -8 6 -10 9 -10 9 -2 0 7 -8 17 -18 22 -14 7 -19 6 -19 -4z"/> <path d="M1222 132 c-24 -21 -21 -32 9 -25 10 3 19 13 19 22 0 14 2 14 11 1 9 -12 10 -12 7 -1 -6 23 -22 23 -46 3z"/> <path d="M735 130 c3 -5 8 -10 11 -10 2 0 4 5 4 10 0 6 -5 10 -11 10 -5 0 -7 -4 -4 -10z"/> <path d="M1670 130 c-9 -6 -10 -10 -3 -10 6 0 15 5 18 10 8 12 4 12 -15 0z"/> <path d="M1980 136 c0 -2 7 -7 16 -10 8 -3 12 -2 9 4 -6 10 -25 14 -25 6z"/> <path d="M1400 126 c0 -2 7 -7 16 -10 8 -3 12 -2 9 4 -6 10 -25 14 -25 6z"/> <path d="M924 109 c-3 -5 6 -8 20 -7 26 2 26 10 1 14 -8 1 -17 -2 -21 -7z"/> <path d="M1675 100 c-16 -18 -42 -19 -31 -1 3 4 -1 8 -9 8 -13 0 -12 -3 1 -18 13 -15 20 -16 35 -6 10 6 21 17 23 24 7 18 2 16 -19 -7z"/> <path d="M7 103 c-13 -12 -7 -22 10 -16 11 5 14 3 8 -6 -6 -10 25 5 54 26 2 2 -11 3 -31 3 -19 0 -38 -3 -41 -7z"/> <path d="M1980 90 c20 -13 33 -13 25 0 -3 6 -14 10 -23 10 -15 0 -15 -2 -2 -10z"/> <path d="M1855 69 c-4 -6 -5 -12 -2 -15 2 -3 7 2 10 11 7 17 1 20 -8 4z"/> <path d="M1290 59 c0 -5 5 -7 10 -4 6 3 10 8 10 11 0 2 -4 4 -10 4 -5 0 -10 -5 -10 -11z"/> <path d="M1082 30 c1 -16 6 -30 13 -30 7 0 10 11 7 30 -6 39 -21 39 -20 0z"/> <path d="M1758 53 c6 -2 12 -12 12 -21 0 -15 2 -15 10 -2 9 15 -4 30 -25 29 -5 0 -4 -3 3 -6z"/> <path d="M1310 29 c0 -5 5 -7 10 -4 6 3 10 8 10 11 0 2 -4 4 -10 4 -5 0 -10 -5 -10 -11z"/> <path d="M1275 20 c3 -5 8 -10 11 -10 2 0 4 5 4 10 0 6 -5 10 -11 10 -5 0 -7 -4 -4 -10z"/> <path d="M1818 23 c7 -3 16 -2 19 1 4 3 -2 6 -13 5 -11 0 -14 -3 -6 -6z"/> <path d="M1335 10 c-3 -5 -1 -10 4 -10 6 0 11 5 11 10 0 6 -2 10 -4 10 -3 0 -8 -4 -11 -10z"/> </g> </svg> 