<?xml version="1.0" standalone="no"?>
<!DOCTYPE svg PUBLIC "-//W3C//DTD SVG 20010904//EN"
 "http://www.w3.org/TR/2001/REC-SVG-20010904/DTD/svg10.dtd">
<svg version="1.0" xmlns="http://www.w3.org/2000/svg"
 width="300.000000pt" height="300.000000pt" viewBox="0 0 300.000000 300.000000"
 preserveAspectRatio="xMidYMid meet">
<metadata>
Created by potrace 1.10, written by Peter Selinger 2001-2011
</metadata>
<g transform="translate(0.000000,300.000000) scale(0.100000,-0.100000)"
fill="#000000" stroke="none">
<path d="M1960 2945 c0 -30 5 -55 10 -55 6 0 10 25 10 55 0 30 -4 55 -10 55
-5 0 -10 -25 -10 -55z"/>
<path d="M2241 2791 c0 -171 3 -210 15 -215 10 -4 13 2 12 19 -1 14 -6 25 -10
25 -4 0 -8 10 -8 23 0 18 2 19 10 7 8 -12 10 -9 10 12 0 15 -5 30 -11 34 -8 4
-7 9 2 15 10 6 11 9 2 9 -8 0 -13 14 -13 38 0 28 3 33 10 22 8 -11 10 -7 8 18
-1 17 -6 32 -10 32 -4 0 -8 34 -8 75 0 46 4 75 11 75 5 0 7 5 4 10 -20 32 -25
-8 -24 -199z"/>
<path d="M2530 2901 c0 -56 3 -100 8 -98 8 6 6 186 -2 195 -3 3 -6 -41 -6 -97z"/>
<path d="M1431 2983 c-35 -7 -83 -36 -95 -58 -15 -28 -28 -35 -48 -29 -9 2
-19 0 -23 -5 -4 -7 1 -9 12 -5 16 5 16 4 -1 -10 -11 -9 -29 -35 -41 -58 -11
-23 -29 -46 -40 -52 -46 -27 -54 -38 -42 -63 8 -19 7 -27 -11 -46 -12 -13 -22
-28 -22 -35 0 -6 -9 -26 -20 -45 -11 -19 -27 -58 -36 -88 -9 -30 -20 -58 -24
-64 -4 -5 -11 -37 -15 -70 -3 -32 -8 -62 -11 -66 -2 -4 -4 -66 -5 -138 0 -72
-4 -133 -9 -136 -4 -3 -6 4 -3 15 3 11 2 20 -1 20 -8 0 -20 -32 -30 -75 l-6
-30 20 24 c11 13 23 22 25 19 7 -7 -15 -70 -31 -89 -8 -8 -14 -19 -14 -23 0
-5 -11 -30 -25 -58 -22 -45 -25 -59 -22 -158 2 -102 1 -110 -22 -134 -24 -25
-49 -36 -36 -16 3 5 -8 4 -27 -2 -46 -15 -50 -22 -8 -14 27 5 32 4 22 -6 -16
-16 -15 -25 3 -25 8 0 15 4 15 9 0 5 4 7 8 4 4 -2 19 4 32 14 24 18 27 30 29
110 1 30 3 32 13 16 6 -11 8 -40 5 -70 -6 -46 -5 -49 8 -32 8 11 15 15 15 9 0
-17 -68 -73 -89 -73 -10 0 -21 -3 -25 -7 -4 -5 -29 -13 -54 -20 l-47 -12 50 5
c90 8 125 16 120 24 -3 5 0 12 6 16 8 4 9 3 5 -4 -10 -17 9 -15 24 3 6 8 18
35 26 61 14 46 13 49 -11 86 -14 21 -30 38 -35 38 -19 0 -11 81 10 107 11 14
20 21 20 15 0 -6 -4 -14 -10 -17 -5 -3 -10 -24 -10 -46 0 -21 5 -39 10 -39 6
0 10 5 10 11 0 5 3 8 8 5 4 -2 6 25 4 60 -2 40 1 71 8 79 6 8 9 23 6 33 -4 11
3 42 14 68 13 32 18 38 15 19 l-7 -30 25 23 c23 22 23 24 10 77 -12 47 -12 58
1 90 12 29 20 36 38 33 15 -2 24 -11 26 -25 2 -13 8 -23 13 -23 5 0 9 -5 9
-10 0 -6 -12 -3 -26 6 -23 15 -27 16 -41 2 -12 -13 -13 -22 -5 -45 l10 -28 7
28 c8 30 21 33 49 12 19 -15 19 -15 -3 -36 -12 -12 -20 -28 -17 -36 3 -8 6
-17 6 -19 0 -2 11 3 25 12 24 16 25 19 19 93 -4 42 -1 117 6 168 9 69 9 97 0
113 -9 16 -9 25 0 35 6 8 10 27 9 43 -2 16 3 38 11 48 8 11 3 9 -13 -5 -26
-24 -39 -17 -14 8 10 10 9 11 -4 6 -10 -4 -20 -2 -24 4 -3 7 2 11 14 11 12 0
21 4 21 10 0 5 15 29 33 53 18 24 39 58 46 75 7 17 17 29 21 27 5 -3 11 -1 15
5 4 6 11 8 16 4 6 -3 28 8 50 26 22 17 56 37 77 44 20 8 36 19 35 25 -2 6 3
11 10 11 7 0 4 7 -7 15 -19 15 -19 15 4 15 33 0 16 13 -23 17 -17 2 -39 5 -47
6 -32 4 -18 -19 19 -31 28 -9 38 -18 34 -28 -3 -7 -9 -12 -13 -9 -4 3 -36 -11
-71 -30 -103 -59 -175 -65 -194 -17 -4 11 1 13 22 7 55 -13 101 -17 107 -7 3
5 -3 12 -14 15 -11 3 -18 1 -14 -4 9 -14 -39 -10 -60 6 -10 8 -24 12 -30 8 -6
-3 -8 -2 -3 2 4 5 15 10 25 11 9 1 26 5 36 9 14 6 17 5 12 -3 -10 -16 44 -15
109 2 l50 13 -48 22 c-26 12 -51 28 -54 36 -7 20 -33 19 -50 -2 -13 -16 -13
-15 0 7 17 29 64 36 59 9 -1 -9 4 -19 12 -22 10 -4 13 -1 9 9 -3 9 0 12 9 9 9
-4 15 0 15 10 0 8 -5 15 -11 15 -6 0 -17 4 -24 9 -11 6 -8 14 13 35 33 33 39
30 20 -8 -13 -25 -13 -27 1 -22 9 3 18 6 20 6 3 0 2 5 -1 10 -3 6 4 10 15 10
16 0 20 -5 16 -15 -3 -10 1 -15 12 -15 16 -1 15 -2 -1 -15 -17 -12 -15 -14 28
-21 29 -4 51 -2 57 4 7 7 19 7 35 1 16 -6 22 -5 18 1 -3 6 -2 10 4 10 5 0 13
-4 16 -10 3 -5 11 -10 18 -10 6 0 -5 16 -23 35 -29 30 -36 33 -45 21 -8 -11
-16 -12 -30 -3 -20 10 -20 10 -1 -11 28 -32 12 -27 -40 13 -25 19 -50 35 -55
35 -17 0 -9 18 11 23 34 9 61 -3 55 -24 -4 -11 -2 -19 5 -19 6 0 8 6 4 13 -4
6 3 3 15 -7 22 -20 22 -20 15 0 -4 10 -16 29 -27 41 l-19 22 23 -1 c29 -2 92
-46 84 -59 -4 -5 6 -20 21 -34 17 -16 24 -30 20 -41 -5 -13 -1 -15 21 -11 30
6 123 -13 123 -25 0 -5 9 -8 20 -8 11 0 20 -4 20 -10 0 -5 5 -10 11 -10 5 0 7
5 3 12 -4 6 -3 8 3 5 6 -4 23 -12 39 -18 l29 -12 -25 -7 c-23 -7 -23 -8 -3 -9
12 -1 25 4 28 9 5 8 11 7 20 0 8 -7 21 -10 29 -8 13 3 13 5 0 23 -12 16 -18
17 -33 8 -16 -10 -20 -9 -25 3 -3 8 -2 12 3 9 21 -13 19 15 -2 32 -12 10 -34
36 -47 58 l-24 39 41 -33 c23 -18 56 -35 73 -37 17 -2 36 -6 41 -9 18 -12 9
-25 -16 -23 -14 1 -25 6 -25 11 0 4 -5 5 -10 2 -13 -8 8 -30 38 -40 14 -4 22
-13 20 -23 -3 -18 35 -62 53 -62 6 0 9 -6 6 -14 -6 -15 25 -50 35 -40 4 3 9
-4 13 -15 4 -12 11 -18 17 -15 7 5 9 2 5 -8 -3 -9 0 -21 6 -27 6 -6 7 -11 3
-11 -4 0 -17 11 -28 25 -14 18 -26 24 -39 20 -13 -4 -19 -2 -19 9 0 9 -5 16
-11 16 -6 0 -8 -7 -5 -16 3 -9 6 -17 6 -20 0 -2 14 -11 31 -19 16 -9 34 -26
38 -38 5 -12 16 -22 26 -22 10 0 20 -6 23 -14 3 -8 0 -11 -7 -7 -16 10 -14 4
14 -46 31 -56 61 -178 45 -188 -19 -12 -10 -112 12 -137 11 -11 22 -40 25 -63
5 -38 1 -55 -28 -112 -5 -10 -6 -24 -3 -32 7 -17 -23 -66 -41 -66 -6 0 -18
-19 -25 -42 -22 -70 -60 -151 -80 -173 -10 -11 -33 -62 -51 -114 -22 -65 -38
-95 -51 -99 -10 -2 -18 -11 -18 -18 0 -8 -4 -14 -9 -14 -9 0 -37 -89 -33 -104
4 -14 -19 -36 -39 -36 -11 0 -19 -4 -19 -9 0 -5 -12 -14 -27 -19 -16 -6 -21
-11 -12 -11 8 -1 24 6 35 14 30 22 57 18 84 -15 14 -16 32 -30 42 -30 9 0 21
-6 25 -13 4 -7 23 -19 40 -26 18 -7 42 -22 54 -32 12 -10 25 -16 30 -13 5 3
36 -11 69 -30 34 -20 66 -36 71 -36 16 0 119 -109 119 -125 0 -8 4 -15 8 -15
22 0 44 -65 46 -136 0 -40 4 -74 8 -74 3 0 4 -13 2 -30 -4 -25 -2 -29 13 -24
17 5 17 5 0 -9 -10 -8 -14 -17 -8 -18 9 -4 18 -38 26 -97 2 -15 -2 -22 -13
-23 -13 0 -11 -2 4 -9 17 -7 21 -15 18 -39 -2 -17 0 -31 5 -31 15 0 -11 -69
-28 -73 -9 -3 -3 -5 13 -6 27 -1 28 -3 23 -35 -3 -18 -1 -38 5 -44 25 -25 -6
-32 -132 -30 -71 1 -133 -1 -136 -5 -4 -4 56 -7 134 -7 98 0 143 -4 148 -12 4
-6 3 -13 -3 -15 -6 -2 -9 -13 -6 -23 4 -14 0 -20 -12 -20 -14 0 -15 -3 -5 -15
10 -13 10 -19 -2 -33 -17 -20 -18 -64 -1 -69 7 -3 9 3 6 16 -4 15 -1 21 12 21
12 0 15 5 10 20 -3 11 -3 20 2 20 4 0 9 16 11 36 1 20 6 43 11 52 7 13 10 12
20 -6 8 -16 21 -22 44 -22 18 0 38 -5 45 -12 9 -9 12 -6 12 14 0 24 -2 25 -45
20 -29 -3 -45 -1 -46 7 -2 17 -4 22 -24 66 -11 25 -19 69 -20 120 -2 75 -6
100 -20 144 -8 26 -24 144 -31 225 -3 39 -12 88 -19 110 -8 22 -11 44 -8 49 3
6 1 7 -4 4 -6 -4 -25 15 -43 43 -50 78 -99 114 -262 194 -197 96 -208 104
-198 153 4 21 25 67 47 103 45 72 133 243 133 256 0 5 12 39 26 76 29 76 73
118 123 118 17 0 31 5 31 11 0 7 -11 9 -31 5 -30 -6 -30 -5 -24 26 4 18 11 39
15 48 12 23 35 104 32 113 -1 4 5 7 13 7 8 0 15 -5 15 -12 0 -6 3 -8 7 -4 4 4
-3 15 -16 25 -17 13 -23 28 -24 59 -1 25 -7 42 -14 42 -7 0 -10 -7 -7 -15 4
-9 0 -15 -10 -15 -17 0 -20 18 -10 69 4 17 10 28 15 25 5 -3 9 0 9 5 0 6 -4
11 -10 11 -5 0 -10 12 -10 26 l0 25 108 -4 c59 -3 130 -2 157 3 37 5 8 8 -108
9 -117 1 -159 4 -161 14 -2 6 -13 53 -25 104 -12 50 -28 104 -36 120 -8 15
-15 36 -15 46 0 28 -55 140 -78 161 -12 11 -22 24 -22 30 0 6 -16 22 -36 35
-19 13 -46 37 -58 52 -16 18 -31 27 -44 24 -11 -2 -28 3 -39 10 -10 8 -26 15
-36 15 -10 0 -39 12 -63 26 -25 15 -47 24 -50 21 -3 -3 5 -11 18 -17 33 -17
88 -71 88 -87 0 -8 -10 -12 -25 -11 -19 2 -33 15 -51 45 -15 26 -30 41 -36 37
-6 -4 -8 -3 -5 3 4 6 -5 14 -19 17 -15 4 -33 14 -41 21 -8 9 -33 15 -56 15
l-42 0 44 -20 c24 -11 49 -20 55 -20 18 0 106 -83 106 -100 0 -10 -8 -6 -21
10 -17 20 -20 21 -14 5 3 -12 -10 -2 -33 23 -42 45 -63 56 -38 20 32 -45 14
-38 -51 21 -70 63 -86 68 -162 54z m194 -103 c16 -16 24 -30 19 -30 -6 0 -23
14 -39 30 -16 17 -24 30 -19 30 6 0 23 -13 39 -30z m-286 -92 l24 -9 -21 -15
c-17 -12 -26 -13 -44 -3 -42 21 -51 31 -36 40 13 8 28 6 77 -13z m692 -39 c2
6 12 -3 21 -19 14 -25 15 -30 2 -41 -12 -10 -13 -9 -8 4 3 10 -4 24 -20 38
-14 13 -26 27 -26 33 0 6 7 3 14 -7 8 -10 16 -13 17 -8z m-871 -140 c0 -26
-27 -84 -46 -100 -11 -9 -14 -7 -14 15 0 15 4 25 9 21 6 -3 14 2 20 12 10 20
11 24 11 53 0 11 5 20 10 20 6 0 10 -9 10 -21z m10 -178 c0 -2 -14 -29 -30
-60 -17 -31 -24 -47 -16 -37 9 11 19 17 22 13 4 -4 1 -13 -5 -21 -7 -8 -10
-19 -8 -23 3 -5 -1 -33 -9 -63 -8 -32 -10 -56 -4 -60 5 -3 5 -11 0 -20 -8 -13
-10 -12 -10 2 0 15 -4 16 -26 8 -14 -6 -27 -10 -29 -10 -2 0 -6 17 -9 38 -7
40 14 133 36 159 9 12 10 15 1 9 -8 -4 -13 -2 -13 7 0 8 7 17 15 21 8 3 15 11
15 17 0 8 -5 7 -17 -2 -14 -12 -16 -12 -11 1 2 8 15 16 27 16 12 1 24 4 27 7
7 6 44 5 44 -2z m-222 -656 c-12 -19 -24 -30 -26 -25 -2 5 6 23 18 40 12 16
19 30 15 30 -3 0 -3 6 2 13 5 9 9 7 11 -6 2 -10 -7 -34 -20 -52z"/>
<path d="M2680 2980 c0 -5 14 -10 30 -10 17 0 30 5 30 10 0 6 -13 10 -30 10
-16 0 -30 -4 -30 -10z"/>
<path d="M2835 2979 c-4 -5 7 -9 24 -9 39 0 49 17 11 18 -16 0 -32 -4 -35 -9z"/>
<path d="M2564 2915 c0 -54 15 -79 17 -30 3 63 1 85 -9 85 -5 0 -8 -25 -8 -55z"/>
<path d="M2710 2950 c0 -5 6 -10 13 -10 9 0 8 -3 -2 -9 -11 -7 -11 -9 0 -13 8
-3 -2 -10 -21 -16 l-35 -10 32 -1 c34 -1 49 21 37 53 -7 17 -24 22 -24 6z"/>
<path d="M2760 2949 c0 -6 7 -9 15 -6 8 4 17 2 20 -3 4 -6 -3 -10 -15 -10 -12
0 -19 -4 -16 -9 9 -15 46 0 46 18 0 11 -9 17 -25 19 -14 1 -25 -3 -25 -9z"/>
<path d="M2924 2945 c20 -15 20 -15 0 -15 -19 -1 -19 -1 1 -12 19 -11 19 -11
0 -19 -15 -6 -12 -8 15 -8 22 0 30 2 22 8 -7 4 -12 12 -11 17 5 29 -3 44 -23
44 -22 -1 -23 -1 -4 -15z"/>
<path d="M1224 2867 c-32 -19 -74 -54 -74 -63 0 -4 11 3 25 16 14 13 27 21 30
19 2 -3 -14 -23 -37 -45 -29 -27 -39 -33 -34 -19 6 20 6 20 -9 1 -8 -11 -15
-29 -15 -40 0 -12 -7 -30 -15 -40 -17 -23 -20 -72 -5 -81 6 -4 10 7 10 24 0
17 4 31 8 31 5 0 17 7 28 16 16 13 16 15 2 10 -39 -12 -2 54 61 111 23 20 30
32 21 33 -10 0 -7 7 10 20 28 22 25 25 -6 7z"/>
<path d="M2675 2870 c3 -5 19 -10 36 -10 16 0 29 5 29 10 0 6 -16 10 -36 10
-21 0 -33 -4 -29 -10z"/>
<path d="M2840 2873 c0 -5 4 -14 9 -21 7 -11 9 -11 14 2 4 9 13 13 22 10 8 -3
15 -1 15 5 0 6 -13 11 -30 11 -16 0 -30 -3 -30 -7z"/>
<path d="M2897 2843 c18 -2 50 -2 70 0 21 2 7 4 -32 4 -38 0 -55 -2 -38 -4z"/>
<path d="M1552 2820 c-18 -4 -35 -10 -38 -13 -10 -10 52 -18 75 -9 35 13 4 31
-37 22z"/>
<path d="M2675 2810 c11 -12 41 -14 169 -12 86 2 156 7 156 12 0 5 -76 10
-169 12 -150 3 -168 1 -156 -12z"/>
<path d="M2876 2764 c-4 -10 -12 -14 -22 -10 -11 4 -14 1 -10 -12 10 -32 -8
-43 -72 -43 -34 0 -62 -4 -62 -9 0 -15 18 -21 23 -8 4 10 6 10 6 0 1 -9 6 -10
20 -3 14 8 20 7 25 -4 3 -8 10 -15 16 -15 6 0 9 4 5 9 -3 5 -1 12 4 15 5 3 12
-5 15 -18 6 -26 20 -31 121 -41 39 -4 55 -3 46 3 -7 5 -21 7 -31 5 -15 -4 -18
0 -16 21 2 15 -3 27 -11 31 -19 7 -33 -2 -34 -23 -1 -11 -4 -8 -9 8 l-8 25 -2
-25 c-1 -14 -4 -19 -7 -12 -2 6 -13 12 -24 12 -23 0 -25 16 -3 28 8 5 17 17
19 28 6 30 7 30 15 4 l8 -25 2 25 c1 22 2 23 9 6 8 -20 61 -32 61 -14 0 6 7
16 16 22 13 10 12 12 -10 12 -14 0 -26 -3 -26 -8 0 -11 -33 2 -46 19 -10 11
-13 11 -18 -3z"/>
<path d="M2760 2760 c0 -5 5 -10 11 -10 6 0 8 -9 4 -20 -4 -11 -2 -20 4 -20 6
0 11 9 11 21 0 12 5 19 13 16 6 -2 11 -11 9 -21 -3 -18 13 -22 23 -5 4 6 -2
19 -14 30 -21 20 -61 26 -61 9z"/>
<path d="M2435 2750 c-4 -6 15 -10 49 -10 31 0 56 5 56 10 0 6 -22 10 -49 10
-28 0 -53 -4 -56 -10z"/>
<path d="M2547 2733 c-18 -5 -18 -5 0 -18 15 -12 16 -17 6 -34 -7 -12 -13 -30
-13 -41 0 -16 7 -20 31 -20 28 0 29 1 14 16 -19 20 -14 40 9 36 22 -4 20 15
-3 23 -13 4 -17 12 -14 25 5 20 3 21 -30 13z"/>
<path d="M1915 2718 c19 -11 19 -11 0 -19 -17 -6 -16 -8 8 -8 31 -1 36 14 8
29 -27 14 -41 12 -16 -2z"/>
<path d="M2442 2718 c-7 -7 -12 -29 -12 -49 0 -30 4 -38 23 -43 40 -10 65 -6
69 12 4 14 -2 17 -31 17 -35 0 -36 1 -36 38 0 20 0 37 0 37 -1 0 -6 -5 -13
-12z"/>
<path d="M2480 2694 c0 -21 4 -33 10 -29 6 3 10 19 10 36 0 16 -4 29 -10 29
-5 0 -10 -16 -10 -36z"/>
<path d="M2668 2713 c18 -2 45 -2 60 0 15 2 0 4 -33 4 -33 0 -45 -2 -27 -4z"/>
<path d="M502 2683 c-11 -18 -4 -93 9 -107 6 -6 13 -6 20 1 8 8 8 13 0 17 -15
10 -14 53 2 59 9 4 9 8 -2 15 -7 5 -10 15 -7 21 4 6 3 11 -3 11 -5 0 -14 -7
-19 -17z"/>
<path d="M652 2683 c-11 -18 -4 -93 9 -107 6 -6 13 -6 20 1 8 8 8 13 0 17 -15
10 -14 53 2 60 9 5 9 7 0 12 -7 3 -9 12 -6 20 7 20 -14 18 -25 -3z"/>
<path d="M2620 2685 c0 -18 26 -20 33 -2 4 9 8 9 15 -1 7 -11 10 -11 15 2 5
13 -1 16 -28 16 -24 0 -35 -5 -35 -15z"/>
<path d="M147 2664 c-2 -2 -1 -23 2 -46 7 -49 28 -50 23 0 -3 24 0 32 12 32 9
0 16 4 16 9 0 8 -45 12 -53 5z"/>
<path d="M301 2604 c-1 -49 2 -65 11 -61 7 2 12 11 10 19 -1 10 8 18 23 22 21
5 25 12 25 46 0 28 -4 40 -14 40 -11 0 -13 -10 -9 -40 5 -35 3 -40 -11 -34
-10 4 -16 16 -15 28 2 33 0 46 -10 46 -5 0 -9 -30 -10 -66z"/>
<path d="M397 2633 c5 -36 18 -62 26 -52 10 11 -6 89 -18 89 -10 0 -12 -10 -8
-37z"/>
<path d="M442 2629 c2 -24 7 -43 12 -41 14 3 11 75 -3 80 -9 3 -11 -8 -9 -39z"/>
<path d="M597 2635 c5 -29 3 -35 -12 -35 -13 0 -16 6 -12 22 5 19 5 20 -10 5
-24 -23 -9 -47 27 -44 17 1 30 5 30 10 0 4 0 23 0 42 0 24 -5 35 -14 35 -11 0
-13 -9 -9 -35z"/>
<path d="M712 2628 c4 -58 25 -61 25 -3 0 32 -4 45 -14 45 -10 0 -13 -11 -11
-42z"/>
<path d="M804 2654 c3 -9 6 -27 6 -40 0 -13 5 -24 10 -24 6 0 10 18 10 40 0
30 -4 40 -16 40 -11 0 -14 -5 -10 -16z"/>
<path d="M859 2666 c-3 -3 -3 -23 -1 -45 3 -28 9 -41 19 -41 10 0 13 6 9 16
-3 9 -6 29 -6 45 0 26 -9 37 -21 25z"/>
<path d="M899 2663 c-5 -32 9 -95 19 -89 12 7 6 90 -7 94 -6 2 -12 0 -12 -5z"/>
<path d="M220 2621 c0 -30 4 -40 20 -44 24 -6 36 9 16 20 -15 8 -16 10 -16 43
0 11 -4 20 -10 20 -5 0 -10 -17 -10 -39z"/>
<path d="M760 2621 c0 -24 5 -41 14 -44 20 -8 28 4 15 20 -6 7 -9 24 -7 38 4
17 1 25 -8 25 -10 0 -14 -13 -14 -39z"/>
<path d="M1960 2624 c0 -21 5 -46 10 -54 6 -10 7 2 4 35 -7 62 -14 72 -14 19z"/>
<path d="M2700 2644 c0 -12 -3 -14 -13 -6 -14 12 -58 12 -51 1 2 -4 -4 -9 -13
-12 -10 -2 18 -4 62 -4 44 0 85 4 92 9 7 5 14 5 18 -2 8 -13 25 -4 25 14 0 12
-57 13 -88 1 -7 -2 -10 0 -7 5 3 6 -1 10 -9 10 -9 0 -16 -7 -16 -16z"/>
<path d="M2280 2634 c0 -13 77 -14 97 -1 6 4 13 2 15 -5 3 -8 7 -6 11 5 6 15
-1 17 -58 15 -42 -1 -65 -6 -65 -14z"/>
<path d="M2363 2603 c-7 -3 -13 -11 -13 -19 0 -10 5 -12 13 -7 6 4 20 6 31 4
11 -1 17 2 14 10 -4 13 -25 19 -45 12z"/>
<path d="M2420 2588 c0 -20 15 -24 26 -7 4 8 9 7 15 -2 6 -10 9 -11 9 -1 0 6
8 12 17 12 32 0 3 13 -32 15 -27 0 -35 -3 -35 -17z"/>
<path d="M2530 2596 c0 -7 22 -10 60 -8 39 3 60 0 60 -7 0 -6 18 -11 43 -10
23 1 34 3 24 6 -9 2 -15 9 -12 14 4 5 1 9 -4 9 -6 0 -11 -4 -11 -10 0 -5 -7
-10 -16 -10 -8 0 -12 5 -9 10 4 6 -6 10 -22 11 -15 0 -47 2 -70 3 -26 2 -43
-2 -43 -8z"/>
<path d="M2783 2602 c-32 -2 -41 -7 -36 -18 6 -17 73 -20 73 -3 0 8 5 8 15 -1
22 -18 165 -1 165 19 0 7 -133 9 -217 3z"/>
<path d="M2571 2561 c-8 -5 -11 -15 -8 -23 7 -19 -12 -49 -20 -30 -2 6 -12 12
-20 12 -14 0 -15 -10 -9 -70 5 -58 3 -72 -9 -76 -8 -4 -22 -1 -31 6 -11 10
-18 10 -26 2 -8 -8 -53 -12 -122 -12 -87 -1 -107 -3 -92 -12 19 -10 267 -5
298 7 9 4 12 21 9 56 -2 29 2 56 8 62 8 8 11 2 12 -23 1 -19 1 -41 0 -47 -1
-7 4 -13 11 -13 9 0 12 13 10 45 -4 42 10 62 21 33 3 -8 6 -6 6 5 1 9 -6 17
-15 17 -13 0 -15 8 -12 35 2 19 4 35 3 35 0 0 -6 -4 -14 -9z"/>
<path d="M1788 2528 c3 -11 -1 -24 -9 -29 -10 -6 -5 -9 16 -8 17 0 24 3 18 6
-18 7 -16 23 2 23 8 0 15 4 15 9 0 6 15 11 33 14 17 2 7 4 -24 4 -52 1 -56 -1
-51 -19z"/>
<path d="M1908 2543 c6 -2 10 -8 7 -13 -2 -4 21 -5 51 -3 41 4 59 1 65 -8 6
-10 9 -11 9 -1 0 6 0 15 0 19 0 3 -33 7 -72 9 -40 1 -67 0 -60 -3z"/>
<path d="M2232 2537 c-9 -10 -4 -13 26 -14 84 -3 115 20 33 25 -31 1 -52 -2
-59 -11z"/>
<path d="M2640 2540 c0 -5 18 -10 41 -10 24 0 38 4 34 10 -3 6 -22 10 -41 10
-19 0 -34 -4 -34 -10z"/>
<path d="M2730 2546 c0 -12 69 -35 103 -34 26 0 37 4 37 15 0 11 -7 14 -25 11
-14 -3 -25 -2 -25 2 0 4 -20 8 -45 8 -25 1 -45 0 -45 -2z"/>
<path d="M2880 2525 c0 -12 10 -15 40 -13 25 1 40 7 40 15 0 9 -14 13 -40 13
-29 0 -40 -4 -40 -15z"/>
<path d="M290 2521 c0 -5 108 -10 250 -10 167 -1 250 2 250 9 0 7 -84 10 -250
10 -143 0 -250 -4 -250 -9z"/>
<path d="M2333 2513 c-18 -6 -16 -32 2 -39 17 -7 21 -34 5 -34 -5 0 -10 5 -10
10 0 6 -9 1 -20 -10 -11 -11 -24 -20 -29 -20 -17 0 -35 33 -33 61 3 36 -5 37
-18 4 -21 -56 37 -109 79 -71 22 20 35 20 51 1 7 -8 16 -12 22 -9 5 4 5 11 -1
18 -6 7 -8 21 -5 33 4 15 0 22 -15 26 -12 3 -21 11 -21 17 0 9 3 10 14 1 7 -6
21 -9 30 -5 13 5 16 -1 16 -29 0 -41 8 -67 21 -67 5 0 7 21 5 47 -2 26 -2 52
1 56 7 11 33 -48 33 -73 0 -10 7 -20 15 -23 17 -7 30 9 15 18 -13 8 -13 51 0
75 10 18 6 19 -67 18 -43 -1 -84 -3 -90 -5z"/>
<path d="M2278 2505 c-8 -9 4 -65 13 -59 11 7 12 64 1 64 -5 0 -11 -2 -14 -5z"/>
<path d="M2744 2495 c3 -8 -1 -18 -8 -22 -7 -5 -18 -17 -25 -28 -11 -19 -12
-18 -8 6 3 21 0 25 -14 22 -16 -4 -16 -8 -3 -39 13 -30 13 -35 -1 -40 -8 -3
-12 -10 -9 -15 9 -15 25 1 44 47 23 53 34 56 28 9 -2 -20 0 -35 7 -35 6 0 9
21 7 55 -2 30 -8 55 -14 55 -6 0 -8 -7 -4 -15z"/>
<path d="M2010 2489 c-35 -5 -35 -6 -8 -13 33 -10 60 -5 50 9 -4 6 -22 8 -42
4z"/>
<path d="M2932 2488 c-14 -14 2 -48 23 -48 16 0 20 -12 8 -23 -3 -4 -17 2 -29
14 l-23 21 6 -22 c7 -28 25 -34 60 -22 l28 9 -34 32 c-39 36 -36 51 4 25 l28
-18 -14 22 c-15 24 -39 28 -57 10z"/>
<path d="M2778 2455 c-12 -27 3 -55 29 -55 16 0 32 37 26 60 -7 25 -43 22 -55
-5z m40 -17 c-2 -13 -7 -23 -13 -23 -5 0 -11 10 -13 23 -2 15 2 22 13 22 11 0
15 -7 13 -22z"/>
<path d="M2865 2472 c-17 -2 -20 -9 -17 -37 2 -19 9 -35 14 -35 6 0 8 9 5 20
-3 12 1 23 10 29 21 11 13 27 -12 23z"/>
<path d="M2620 2460 c0 -5 7 -7 15 -4 11 5 15 -1 15 -20 0 -14 -5 -26 -11 -26
-6 0 -8 7 -5 16 4 10 1 14 -6 12 -24 -8 -13 -33 16 -36 23 -3 28 0 22 13 -3 9
-6 25 -6 36 0 12 -7 19 -20 19 -11 0 -20 -4 -20 -10z"/>
<path d="M1846 2445 c-15 -8 -33 -15 -40 -14 -6 0 -2 4 9 9 19 8 19 9 -3 9
-27 1 -54 -22 -50 -41 2 -8 -4 -12 -15 -10 -10 2 -16 -3 -15 -10 2 -7 -2 -12
-7 -11 -16 3 -7 -127 10 -154 12 -18 12 -23 3 -24 -7 0 -5 -4 6 -8 21 -8 76
-2 76 8 0 4 -9 7 -20 7 -10 -1 -19 3 -19 7 0 4 -7 15 -16 23 -25 25 -17 50 24
78 49 34 86 44 133 36 25 -5 35 -4 31 3 -4 6 2 8 15 5 12 -4 25 -2 28 3 7 13
-88 11 -142 -2 -33 -9 -48 -9 -56 -1 -7 7 -8 15 -4 19 4 4 11 1 15 -6 7 -11
13 -11 32 3 13 9 32 16 42 16 10 0 15 4 12 10 -3 5 7 13 22 16 25 7 25 8 8 15
-18 7 -17 8 5 8 20 1 22 3 10 11 -24 15 -53 12 -46 -5 3 -9 0 -15 -9 -15 -9 0
-12 6 -9 15 7 18 6 18 -30 0z"/>
<path d="M1966 2453 c-13 -13 -5 -23 17 -23 13 0 29 -6 36 -12 11 -11 12 -10
6 1 -4 7 -2 16 5 21 9 5 9 9 1 14 -6 4 -11 3 -11 -3 0 -7 -8 -7 -24 -1 -13 5
-27 6 -30 3z"/>
<path d="M1335 2434 c-31 -16 -74 -61 -75 -78 0 -6 16 5 35 24 30 29 43 34 78
34 64 -1 127 -23 174 -60 23 -19 46 -34 53 -34 20 0 -22 58 -48 65 -20 5 -22
8 -11 21 16 19 10 23 -37 29 -21 2 -61 6 -89 9 -35 4 -59 1 -80 -10z"/>
<path d="M2705 2320 c0 -33 4 -50 13 -50 8 0 12 17 12 50 0 33 -4 50 -12 50
-9 0 -13 -17 -13 -50z"/>
<path d="M2547 2353 c-9 -8 -9 -56 -1 -77 12 -31 21 -16 18 30 -3 48 -6 58
-17 47z"/>
<path d="M1363 2330 c-22 -13 -31 -25 -27 -35 7 -18 -12 -21 -20 -2 -3 6 -4 1
-3 -13 1 -14 8 -24 15 -22 6 1 12 -2 12 -8 0 -5 14 -10 31 -10 25 0 29 3 20
13 -6 8 -8 17 -4 20 3 4 11 0 17 -7 14 -18 76 -9 76 10 0 8 5 14 10 14 19 0
10 -27 -12 -38 -15 -7 -18 -11 -8 -11 9 -1 24 5 35 13 11 7 29 15 40 18 17 3
16 6 -11 21 -50 26 -105 31 -147 14 -20 -9 -39 -12 -42 -7 -7 11 58 40 91 40
12 0 35 -5 51 -11 57 -22 87 -29 75 -17 -38 38 -150 48 -199 18z"/>
<path d="M2320 2331 c0 -5 14 -9 30 -9 17 1 30 5 30 10 0 4 -13 8 -30 8 -16 0
-30 -4 -30 -9z"/>
<path d="M2465 2330 c3 -5 17 -10 31 -10 13 0 24 5 24 10 0 6 -14 10 -31 10
-17 0 -28 -4 -24 -10z"/>
<path d="M2586 2331 c-4 -5 -2 -12 3 -15 5 -4 11 -3 14 1 2 5 2 3 1 -4 -2 -6
2 -13 9 -16 8 -2 8 -5 -1 -11 -7 -4 -12 -2 -12 3 0 6 -4 11 -10 11 -5 0 -10
-7 -10 -15 0 -10 10 -15 29 -15 27 0 28 2 22 32 -7 32 -33 49 -45 29z"/>
<path d="M2645 2323 c15 -35 17 -63 6 -63 -6 0 -11 -4 -11 -10 0 -26 23 -6 40
36 23 53 23 54 10 54 -5 0 -10 -10 -11 -22 l0 -23 -11 23 c-13 26 -34 30 -23
5z"/>
<path d="M2744 2315 c-8 -31 6 -48 32 -43 29 5 26 62 -3 66 -17 3 -24 -3 -29
-23z"/>
<path d="M2814 2305 c0 -19 6 -35 12 -35 7 0 9 10 6 25 -3 18 0 25 11 25 9 0
19 5 22 10 4 6 -6 10 -23 10 -27 0 -29 -3 -28 -35z"/>
<path d="M2890 2324 c0 -9 8 -23 18 -31 16 -13 15 -14 -5 -8 -14 4 -23 2 -23
-4 0 -13 47 -15 55 -2 3 6 -4 19 -16 30 l-22 20 23 -2 c15 -1 27 -12 35 -30 8
-19 15 -25 19 -18 4 7 2 18 -4 26 -6 8 -9 19 -5 25 4 6 -9 10 -34 10 -31 0
-41 -4 -41 -16z"/>
<path d="M1825 2312 c-51 -20 -52 -21 -35 -32 10 -6 23 -4 38 6 20 13 23 13
28 -1 3 -8 10 -15 16 -15 5 0 6 5 3 10 -4 6 6 10 22 10 23 0 25 -2 13 -11 -11
-8 -8 -9 15 -5 28 6 29 5 11 -9 -11 -8 -28 -13 -38 -9 -10 3 -18 2 -18 -3 0
-13 51 -15 65 -3 13 11 55 -18 55 -39 0 -7 17 -11 45 -9 34 1 45 5 45 17 0 13
-2 13 -9 2 -5 -8 -11 -9 -15 -3 -4 6 -15 9 -26 7 -12 -2 -24 4 -30 15 -13 25
-13 30 4 30 7 0 19 6 26 14 6 8 21 17 33 19 12 2 4 5 -18 5 -26 1 -35 -1 -27
-7 10 -6 7 -10 -13 -15 -20 -5 -34 -1 -56 19 -35 29 -74 31 -134 7z"/>
<path d="M2323 2263 c9 -2 17 -14 17 -26 0 -20 0 -20 -15 -1 -14 18 -15 17 -9
-11 8 -36 15 -45 21 -27 3 6 9 10 14 7 5 -4 6 7 3 25 -4 18 -2 30 4 30 11 0
22 -23 22 -48 0 -11 9 -18 25 -18 14 -1 23 2 20 6 -2 4 5 16 17 26 21 19 21
19 16 -9 -4 -18 -1 -26 6 -24 6 2 9 14 8 27 -3 19 -1 22 10 14 16 -13 48 -25
48 -18 0 2 -10 9 -22 14 -22 8 -22 9 -2 9 11 1 21 8 21 16 0 16 -23 21 -29 6
-3 -10 -33 -14 -88 -12 -27 1 -31 4 -20 11 11 7 1 9 -35 9 -27 -1 -42 -3 -32
-6z"/>
<path d="M2098 2221 c5 -23 6 -24 12 -6 7 20 7 20 12 0 5 -16 6 -14 7 7 1 20
-4 26 -17 25 -14 -1 -17 -7 -14 -26z"/>
<path d="M2274 2238 c-4 -6 -2 -14 4 -16 7 -2 12 -8 12 -13 0 -6 -5 -7 -12 -3
-7 4 -8 3 -4 -5 12 -18 35 6 29 29 -6 23 -18 26 -29 8z"/>
<path d="M2690 2229 c-13 -9 -12 -10 3 -5 15 5 17 -2 17 -45 0 -31 4 -48 10
-44 6 3 10 28 10 56 0 50 -10 60 -40 38z"/>
<path d="M1900 2216 c0 -7 8 -16 18 -18 25 -6 63 5 54 17 -10 15 -32 17 -32 3
0 -9 -3 -9 -12 0 -16 16 -28 15 -28 -2z"/>
<path d="M2542 2183 c4 -64 23 -66 23 -3 0 35 -4 50 -13 50 -9 0 -12 -13 -10
-47z"/>
<path d="M2590 2195 c-8 -10 -9 -15 -1 -15 6 0 11 5 11 12 0 17 13 0 17 -22 1
-10 -2 -22 -7 -25 -6 -3 -10 2 -10 11 0 13 -3 15 -11 7 -16 -16 -4 -30 24 -30
21 0 23 3 18 35 -7 40 -22 50 -41 27z"/>
<path d="M2752 2198 c-27 -27 -2 -75 32 -62 16 6 21 30 10 58 -7 19 -25 21
-42 4z"/>
<path d="M2830 2201 c-18 -7 -23 -71 -6 -71 8 0 11 11 8 31 -3 21 -1 30 6 25
6 -3 13 -2 16 3 8 13 -6 20 -24 12z"/>
<path d="M2893 2194 c-4 -11 1 -22 13 -31 14 -10 15 -14 4 -13 -8 1 -26 1 -40
0 -22 -2 -20 -3 9 -10 58 -14 80 6 39 34 l-22 16 27 0 c25 0 33 -12 28 -42 0
-5 6 -8 14 -8 17 0 20 16 4 25 -6 4 -8 13 -5 21 3 8 2 14 -2 15 -4 0 -19 3
-35 5 -19 3 -29 0 -34 -12z"/>
<path d="M2655 2165 c14 -31 13 -35 -3 -44 -9 -6 -12 -11 -6 -11 15 0 30 19
38 50 5 17 4 21 -2 11 -8 -11 -11 -9 -17 8 -3 11 -10 21 -15 21 -5 0 -2 -16 5
-35z"/>
<path d="M2120 2180 c0 -5 -3 -9 -7 -9 -23 4 -32 -3 -26 -18 6 -15 7 -15 14 3
7 18 8 18 8 -1 1 -17 3 -17 11 -5 9 13 10 13 10 0 0 -13 2 -13 9 -1 10 16 4
41 -10 41 -5 0 -9 -4 -9 -10z"/>
<path d="M1740 2169 c0 -5 -4 -8 -8 -5 -4 2 -23 -11 -41 -29 -27 -28 -37 -33
-52 -24 -15 8 -24 4 -44 -17 -29 -31 -29 -57 -1 -62 14 -3 17 0 13 12 -4 10
-1 16 7 16 7 0 19 7 26 15 20 24 30 17 30 -22 0 -33 1 -35 13 -19 12 16 15 17
29 3 8 -8 36 -19 63 -23 l48 -7 -7 29 c-3 16 -9 44 -12 62 -5 21 -11 31 -20
28 -8 -3 -15 6 -19 25 -6 27 -25 41 -25 18z m30 -68 c12 -30 7 -51 -11 -51 -5
0 -9 11 -9 24 0 14 -4 28 -10 31 -15 9 -12 25 4 25 7 0 19 -13 26 -29z"/>
<path d="M1772 2163 c5 -24 25 -27 31 -3 4 15 0 20 -15 20 -13 0 -18 -6 -16
-17z"/>
<path d="M1827 2160 c-4 -17 0 -20 24 -20 22 0 29 5 29 20 0 14 -7 20 -24 20
-15 0 -26 -7 -29 -20z"/>
<path d="M2014 2165 c3 -8 1 -15 -4 -15 -6 0 -10 -4 -10 -10 0 -5 7 -10 15
-10 14 0 20 12 16 33 -1 5 4 5 10 1 8 -4 9 -3 5 4 -11 18 -39 15 -32 -3z"/>
<path d="M2313 2173 c-8 -3 -8 -11 1 -28 12 -26 29 -35 20 -11 -3 8 -1 17 5
21 7 3 11 -2 11 -14 0 -17 6 -21 36 -21 23 0 42 7 51 18 14 16 14 16 9 0 -4
-13 0 -18 15 -18 15 0 20 5 17 23 -2 18 -10 22 -41 23 -27 1 -41 -4 -48 -17
-13 -25 -29 -24 -22 0 3 13 -2 20 -19 23 -13 2 -29 3 -35 1z"/>
<path d="M1890 2149 c0 -4 9 -11 20 -14 38 -12 23 -35 -22 -35 -33 0 -40 3
-28 11 12 9 12 10 1 7 -30 -8 -23 -28 11 -29 l33 -1 -30 -8 -30 -8 33 -1 c17
0 32 4 32 9 0 6 8 10 18 10 14 0 15 -2 2 -10 -13 -8 -13 -10 1 -10 13 0 16 9
15 39 -1 35 -4 40 -28 43 -16 3 -28 1 -28 -3z"/>
<path d="M2028 2108 c-10 -6 -10 -10 1 -17 11 -7 11 -9 0 -14 -8 -3 0 -3 16
-2 17 2 33 4 36 4 4 1 9 7 12 15 6 16 -45 27 -65 14z"/>
<path d="M1960 2093 c0 -20 19 -25 35 -9 21 21 19 26 -10 24 -14 -1 -25 -8
-25 -15z"/>
<path d="M2493 2103 c14 -4 16 -8 6 -19 -6 -8 -7 -14 -2 -14 5 0 16 9 26 20
16 19 16 20 -16 19 -17 -1 -24 -3 -14 -6z"/>
<path d="M2710 2090 c0 -5 16 -10 36 -10 21 0 33 4 29 10 -3 6 -19 10 -36 10
-16 0 -29 -4 -29 -10z"/>
<path d="M2810 2091 c0 -5 -12 -14 -27 -19 l-28 -10 28 -1 c15 -1 27 4 27 9 0
6 12 10 28 9 24 0 25 -1 7 -9 -17 -7 -15 -9 12 -9 32 -1 32 0 16 19 -18 20
-63 28 -63 11z"/>
<path d="M2890 2089 c0 -7 10 -9 24 -5 14 3 27 2 31 -3 3 -5 -5 -12 -17 -14
-17 -3 -14 -5 10 -6 20 0 31 3 27 9 -3 6 0 10 7 10 9 0 9 3 -2 10 -21 13 -80
13 -80 -1z"/>
<path d="M2304 2074 c3 -9 6 -19 6 -24 0 -4 11 -7 25 -7 26 0 33 11 15 22 -6
4 -8 11 -5 16 4 5 -6 9 -20 9 -21 0 -26 -4 -21 -16z"/>
<path d="M2360 2080 c0 -5 4 -10 9 -10 5 0 7 -9 4 -20 -3 -11 0 -20 6 -20 6 0
11 14 11 30 0 20 -5 30 -15 30 -8 0 -15 -4 -15 -10z"/>
<path d="M2400 2063 l0 -26 25 23 25 23 0 -26 c0 -15 5 -27 11 -27 6 0 9 9 6
20 -3 11 -1 20 4 20 5 0 9 5 9 10 0 6 -18 10 -40 10 -37 0 -40 -2 -40 -27z"/>
<path d="M2543 2076 c-4 -7 -15 -16 -23 -20 -8 -3 10 -4 40 -1 30 3 84 5 120
6 64 1 65 2 20 9 -25 5 -62 6 -82 4 -22 -2 -38 0 -38 6 0 15 -28 12 -37 -4z"/>
<path d="M2550 2027 c0 -9 -6 -18 -12 -20 -8 -3 -5 -6 5 -6 10 -1 16 -5 13
-10 -3 -5 -16 -7 -29 -4 -22 4 -21 4 2 -10 18 -11 20 -16 10 -20 -8 -3 -3 -6
11 -6 24 -1 26 2 25 41 0 24 -5 43 -12 45 -7 3 -13 -2 -13 -10z"/>
<path d="M1844 2023 c18 -5 18 -6 -5 -19 l-24 -13 25 0 c14 -1 32 4 40 9 11 7
11 10 2 10 -7 0 -10 5 -7 10 4 6 -5 10 -22 9 -20 -1 -23 -3 -9 -6z"/>
<path d="M1903 2011 c-1 -13 4 -18 15 -17 24 4 28 36 5 36 -11 0 -19 -8 -20
-19z"/>
<path d="M2010 2021 c0 -9 -8 -12 -25 -9 -30 6 -32 -3 -5 -20 12 -7 20 -8 20
-2 0 5 12 10 28 11 16 0 21 3 12 6 -8 3 -18 11 -22 17 -5 7 -8 6 -8 -3z"/>
<path d="M2660 2010 c14 -4 19 -8 11 -9 -10 -1 -11 -4 -2 -14 6 -8 23 -12 42
-9 20 3 27 7 18 12 -7 5 -18 6 -26 3 -7 -3 -13 0 -13 6 0 7 23 11 61 11 37 0
58 -4 54 -10 -3 -5 -15 -10 -25 -10 -14 0 -18 -5 -13 -17 5 -13 1 -15 -23 -11
-16 3 -40 2 -54 -2 -14 -5 33 -8 110 -8 74 0 129 2 123 5 -24 9 -13 23 18 23
17 0 28 4 24 10 -3 6 1 10 9 10 8 0 18 5 21 10 4 6 -9 10 -31 10 -31 0 -35 -2
-24 -15 10 -13 9 -15 -9 -15 -12 0 -24 -7 -27 -15 -7 -17 -44 -21 -44 -5 0 6
8 10 18 10 13 0 14 2 3 9 -12 8 -20 8 -50 2 -2 -1 2 -8 9 -16 11 -13 7 -15
-24 -15 -20 0 -36 5 -36 10 0 6 6 10 14 10 8 0 17 7 20 16 5 12 17 15 51 12
25 -2 45 0 45 4 0 5 -62 8 -137 7 -85 -1 -128 -4 -113 -9z"/>
<path d="M1194 1952 c7 -72 25 -103 25 -42 0 25 -7 56 -15 70 -15 24 -15 23
-10 -28z"/>
<path d="M1560 1914 l-70 -67 25 -13 c36 -19 70 -44 68 -49 -16 -30 39 -48
133 -42 79 5 179 24 137 26 -28 1 -39 18 -16 24 12 3 8 5 -9 6 -15 0 -30 -3
-33 -9 -3 -5 -36 -9 -73 -9 -37 1 -60 3 -52 4 8 2 47 9 87 16 59 10 75 17 92
40 19 26 20 59 1 59 -4 0 -31 19 -60 42 -50 39 -53 41 -86 29 -25 -9 -39 -9
-54 -1 -18 10 -29 3 -90 -56z m105 -34 c3 -5 34 -9 69 -9 65 1 112 -14 100
-33 -4 -5 -18 -8 -33 -5 -15 3 -43 -2 -66 -13 -45 -21 -95 -26 -95 -9 0 7 -12
10 -30 7 -16 -3 -30 -1 -30 4 0 4 -9 8 -20 8 -36 0 -21 20 25 32 25 7 45 16
45 20 0 11 28 10 35 -2z"/>
<path d="M1897 1954 c6 -15 24 -16 63 -4 25 8 21 10 -37 15 -23 2 -30 -1 -26
-11z"/>
<path d="M2265 1962 c-10 -10 -5 -22 10 -22 8 0 15 6 15 13 0 8 3 8 9 -2 5 -8
23 -16 40 -17 25 -2 31 2 31 17 0 14 -7 19 -25 19 -14 0 -25 -6 -25 -12 0 -9
-3 -10 -8 -2 -7 11 -38 15 -47 6z"/>
<path d="M2380 1949 c0 -21 16 -26 23 -6 4 9 6 8 6 -2 1 -11 4 -11 16 -1 10 9
15 9 15 1 0 -18 28 -13 33 7 4 16 5 16 6 0 1 -25 21 -23 21 1 0 18 -7 20 -60
20 -52 -1 -60 -3 -60 -20z"/>
<path d="M1056 1916 c-9 -14 -16 -30 -16 -37 0 -6 -7 -8 -17 -4 -14 5 -15 3
-7 -5 9 -9 8 -18 -2 -38 -8 -15 -14 -36 -13 -47 0 -12 6 -3 14 20 12 33 13 35
9 8 -3 -17 -1 -34 4 -37 6 -3 13 16 17 45 7 48 9 50 32 44 22 -5 23 -4 13 15
-9 17 -14 19 -26 9 -19 -16 -18 0 3 23 9 10 14 20 11 23 -3 3 -13 -6 -22 -19z"/>
<path d="M2945 1914 c-9 -9 -15 -28 -13 -42 2 -21 10 -28 36 -33 24 -5 32 -3
32 7 0 8 -4 14 -8 14 -5 0 -17 6 -27 14 -16 12 -17 16 -6 29 7 9 19 13 27 10
8 -3 14 0 14 6 0 17 -36 13 -55 -5z"/>
<path d="M2300 1909 c-23 -4 -5 -6 52 -7 48 -1 89 2 92 6 5 9 -97 10 -144 1z"/>
<path d="M2530 1911 c26 -6 35 -41 12 -49 -6 -2 -12 0 -12 5 0 13 -58 3 -63
-11 -3 -7 10 -10 41 -7 31 2 42 0 38 -8 -5 -7 5 -11 31 -10 27 1 32 3 17 7
-16 6 -20 14 -19 45 2 36 1 37 -34 36 -31 -1 -32 -2 -11 -8z"/>
<path d="M2658 1893 c34 -2 88 -2 120 0 31 2 3 3 -63 3 -66 0 -92 -1 -57 -3z"/>
<path d="M1890 1870 c0 -6 20 -10 45 -10 25 0 45 4 45 8 0 4 -20 9 -45 10 -25
1 -45 -3 -45 -8z"/>
<path d="M2360 1877 c0 -18 32 -33 59 -29 39 5 41 22 2 22 -16 0 -36 3 -45 6
-9 3 -16 4 -16 1z"/>
<path d="M2803 1873 c20 -2 54 -2 75 0 20 2 3 4 -38 4 -41 0 -58 -2 -37 -4z"/>
<path d="M2280 1860 c0 -5 16 -10 35 -10 19 0 35 5 35 10 0 6 -16 10 -35 10
-19 0 -35 -4 -35 -10z"/>
<path d="M1102 1808 c-1 -24 3 -50 8 -58 7 -11 10 -5 10 25 0 31 3 36 12 27 7
-7 11 -33 10 -62 -2 -53 12 -78 15 -27 3 40 23 61 23 24 0 -15 5 -26 10 -24 6
1 24 -20 40 -48 l31 -50 -5 50 c-2 28 -9 64 -14 80 -6 17 -13 42 -16 57 -6 24
-9 26 -31 18 -27 -10 -75 2 -75 20 0 5 -4 10 -8 10 -5 0 -9 -19 -10 -42z"/>
<path d="M2910 1833 c0 -27 20 -42 59 -47 25 -3 31 0 31 15 0 14 -7 19 -27 19
-14 0 -35 7 -45 17 -17 15 -18 15 -18 -4z"/>
<path d="M2318 1832 c-40 -5 -34 -22 7 -22 19 0 35 4 35 9 0 14 -11 17 -42 13z"/>
<path d="M2377 1834 c-13 -13 -7 -24 12 -24 11 0 22 -6 24 -12 4 -10 6 -10 6
0 1 7 16 12 39 13 33 0 35 1 14 10 -13 5 -28 7 -33 3 -5 -3 -9 0 -9 7 0 8 -4
9 -13 0 -9 -7 -17 -7 -23 -1 -6 6 -13 7 -17 4z"/>
<path d="M2320 1783 c0 -17 6 -21 40 -21 28 -1 40 4 40 13 0 8 -4 17 -10 20
-5 3 -10 1 -10 -4 0 -15 -33 -14 -48 1 -9 9 -12 7 -12 -9z"/>
<path d="M2567 1789 c-10 -6 -25 -8 -34 -4 -9 3 -20 0 -25 -7 -6 -10 -10 -10
-18 2 -8 12 -9 9 -8 -12 3 -34 9 -35 27 -7 10 18 15 19 22 8 5 -10 3 -16 -9
-21 -12 -5 -10 -7 11 -7 15 -1 26 -6 25 -12 -2 -6 3 -14 10 -16 8 -3 12 5 12
22 0 20 -4 26 -15 21 -8 -3 -15 -1 -15 4 0 6 7 10 15 10 8 0 15 4 15 9 0 5 8
12 18 14 12 3 13 5 2 6 -8 0 -23 -4 -33 -10z"/>
<path d="M1008 1745 c-3 -3 1 -36 8 -73 19 -96 17 -127 -11 -182 -25 -49 -44
-65 -94 -81 -25 -7 -25 -7 -3 -8 29 -1 92 25 92 38 0 6 6 11 14 11 35 0 52
114 32 213 -9 42 -16 79 -16 82 0 6 -15 7 -22 0z"/>
<path d="M1087 1715 c3 -22 7 -77 9 -122 1 -60 6 -87 18 -98 9 -9 16 -25 16
-35 0 -19 -75 -90 -95 -90 -6 0 -22 -12 -36 -26 -36 -38 -77 -56 -158 -69 -13
-2 -28 -8 -34 -14 -13 -13 -17 -12 55 -13 47 -1 59 -5 64 -20 4 -15 9 -17 20
-7 8 6 14 20 14 30 0 12 5 16 15 13 10 -4 13 -2 10 8 -8 21 29 62 56 63 13 0
34 -11 46 -25 19 -21 24 -23 33 -10 30 45 37 112 25 265 -5 66 -4 68 8 35 10
-24 16 -30 20 -20 4 12 6 12 6 -2 1 -9 -5 -19 -11 -22 -10 -5 -10 -7 0 -12 6
-3 12 -12 12 -20 0 -9 -4 -12 -10 -9 -12 7 -12 -12 0 -40 8 -19 9 -19 9 -1 1
10 9 24 18 31 15 11 15 16 3 46 -22 56 -83 158 -91 153 -4 -2 -12 8 -18 23
-10 25 -10 24 -4 -12z m46 -170 c5 -49 3 -63 -3 -47 -6 14 -14 20 -21 16 -8
-5 -9 -3 -4 6 11 17 13 66 5 105 -4 17 -4 37 -1 45 6 19 17 -35 24 -125z m-29
-173 c-12 -25 -18 -29 -28 -20 -9 9 -10 15 -2 24 6 7 14 10 17 8 4 -2 10 3 13
12 4 9 9 15 11 12 3 -3 -2 -19 -11 -36z"/>
<path d="M2295 1739 l-30 -7 30 -2 c67 -4 159 0 168 9 10 10 -121 10 -168 0z"/>
<path d="M2700 1733 c8 -3 18 -11 22 -17 5 -8 8 -7 8 2 0 7 14 12 35 12 19 0
35 -4 35 -10 0 -5 5 -10 11 -10 5 0 8 4 5 9 -4 5 0 12 6 14 7 3 -21 5 -62 5
-41 0 -68 -2 -60 -5z"/>
<path d="M2923 1728 c-12 -6 -24 -17 -27 -24 -6 -17 10 -19 20 -3 4 7 22 9 45
6 34 -4 39 -2 39 14 0 22 -39 25 -77 7z"/>
<path d="M2477 1710 c4 -14 11 -19 23 -15 10 3 21 1 25 -5 3 -5 -2 -10 -11
-10 -10 0 -14 -3 -11 -7 4 -3 17 -1 30 5 12 6 29 13 37 15 9 4 7 6 -7 6 -12 1
-25 6 -28 12 -4 6 -13 8 -21 5 -8 -3 -14 -1 -14 4 0 6 -6 10 -14 10 -9 0 -12
-7 -9 -20z"/>
<path d="M2323 1714 c-7 -3 -10 -11 -7 -19 4 -9 -2 -13 -20 -11 -14 2 -26 -1
-26 -5 0 -5 19 -9 43 -9 28 0 37 3 28 9 -11 7 -9 10 9 16 18 6 20 9 9 16 -15
10 -18 10 -36 3z"/>
<path d="M2410 1713 c-8 -3 -23 -14 -33 -24 -17 -18 -17 -19 3 -19 11 0 20 7
20 15 0 8 3 14 8 14 18 -3 32 2 32 11 0 11 -7 11 -30 3z"/>
<path d="M1188 1671 c2 -17 8 -28 13 -25 5 3 6 -2 3 -10 -3 -8 2 -26 12 -41
14 -21 16 -41 12 -108 -3 -45 -2 -73 2 -62 7 17 9 16 16 -13 4 -21 11 -31 19
-28 13 5 10 -29 -5 -49 -16 -22 -18 -55 -4 -55 8 0 14 10 15 23 0 21 1 21 10
-3 6 -14 8 -38 5 -55 -3 -16 -7 -39 -9 -50 -2 -11 -9 -31 -16 -43 -7 -13 -10
-26 -7 -29 6 -7 36 59 36 78 0 7 2 10 5 7 7 -7 -19 -133 -38 -183 -10 -28 -13
-52 -7 -80 6 -31 8 -34 9 -13 0 15 7 42 15 60 28 69 37 106 43 186 4 55 2 82
-5 82 -5 0 -8 8 -5 19 3 10 0 22 -6 25 -6 4 -11 17 -11 28 0 20 1 20 18 5 10
-10 24 -17 31 -17 6 0 14 -7 17 -15 4 -8 17 -15 31 -15 22 0 24 2 13 15 -11
13 -10 14 5 9 13 -5 16 -4 11 5 -4 6 -16 9 -27 6 -25 -8 -46 4 -28 17 10 7 5
8 -14 3 -20 -4 -27 -2 -22 5 4 6 -1 20 -10 30 -12 13 -19 46 -24 107 -4 49
-13 98 -20 108 -9 14 -11 15 -7 3 3 -9 8 -32 11 -50 6 -30 4 -34 -15 -35 -18
-2 -21 2 -15 20 14 46 2 89 -43 146 l-19 23 5 -31z"/>
<path d="M1298 1638 c39 -69 109 -151 147 -174 17 -10 36 -24 44 -32 8 -7 22
-11 32 -9 11 3 19 1 19 -4 0 -5 7 -9 16 -9 14 0 14 3 4 15 -7 8 -19 15 -26 15
-7 0 -21 11 -30 25 -9 14 -20 25 -23 25 -4 0 -32 23 -62 51 -30 28 -46 49 -37
46 45 -15 168 -36 194 -33 16 2 57 7 91 11 61 7 62 7 51 31 -12 26 -19 29 -34
15 -5 -4 -33 -16 -62 -25 -40 -13 -61 -14 -85 -7 -18 5 -66 17 -108 26 -62 13
-82 22 -109 51 -48 49 -56 42 -22 -18z"/>
<path d="M2545 1655 l2 -25 -138 0 c-77 0 -139 -4 -139 -8 0 -5 25 -7 55 -4
48 4 55 2 49 -12 -3 -9 -1 -16 6 -16 6 0 8 -5 4 -11 -3 -6 -16 -8 -28 -5 -11
2 -37 1 -56 -4 l-35 -8 30 -3 c17 -1 38 -3 47 -4 40 -2 26 -14 -16 -13 -26 0
-50 -2 -53 -6 -4 -3 24 -6 61 -6 62 0 68 2 63 19 -2 10 0 26 5 35 6 10 5 16
-2 16 -5 0 -10 5 -10 10 0 6 38 10 93 10 l93 0 -1 30 c0 21 -5 30 -17 30 -11
0 -15 -7 -13 -25z"/>
<path d="M2900 1664 c0 -8 10 -14 23 -15 88 -4 110 18 23 25 -34 2 -46 0 -46
-10z"/>
<path d="M1800 1640 c-14 -11 -29 -24 -35 -28 -5 -4 -13 -9 -17 -10 -19 -5 0
-17 22 -14 14 1 36 3 49 3 15 1 20 4 12 9 -8 4 -1 10 21 15 18 4 28 9 21 12
-7 2 -9 11 -6 19 8 21 -37 17 -67 -6z"/>
<path d="M2200 1650 c0 -5 14 -10 30 -10 17 0 30 5 30 10 0 6 -13 10 -30 10
-16 0 -30 -4 -30 -10z"/>
<path d="M2884 1608 c-4 -7 -3 -8 4 -4 7 4 12 4 12 -1 0 -4 23 -9 50 -9 44 -1
48 0 33 12 -22 16 -89 18 -99 2z"/>
<path d="M2295 1600 c-26 -6 -24 -7 17 -7 26 0 45 3 42 8 -6 10 -16 10 -59 -1z"/>
<path d="M2471 1584 c-8 -10 -22 -13 -37 -10 -18 5 -24 2 -24 -9 0 -9 5 -13
10 -10 6 3 10 2 10 -4 0 -5 -6 -12 -12 -14 -7 -3 3 -5 22 -5 19 0 27 2 17 5
-18 5 -18 5 0 19 22 17 37 18 27 2 -5 -8 -2 -9 9 -5 10 3 17 2 17 -3 0 -5 -8
-11 -17 -13 -10 -3 4 -5 30 -6 27 0 46 3 43 8 -4 5 -1 11 5 13 7 2 9 13 4 27
-7 23 -15 23 -19 -1 -3 -21 -16 -38 -29 -38 -8 0 -7 3 2 9 19 12 3 34 -20 28
-11 -3 -19 -1 -19 3 0 5 15 11 33 13 l32 4 -35 1 c-20 1 -41 -5 -49 -14z"/>
<path d="M2890 1560 c0 -5 7 -7 17 -3 14 5 15 1 10 -25 -5 -23 -3 -32 7 -32 8
0 11 10 8 29 -3 22 0 30 15 34 10 3 1 5 -19 6 -21 0 -38 -3 -38 -9z"/>
<path d="M2063 1538 c-10 -4 8 -7 41 -7 33 -1 57 2 53 5 -8 9 -74 10 -94 2z"/>
<path d="M2959 1548 c-11 -37 -7 -48 15 -48 19 0 22 4 18 25 -2 14 -11 25 -18
25 -8 0 -14 -1 -15 -2z"/>
<path d="M1080 1483 c0 -15 -56 -69 -94 -93 -21 -13 -51 -24 -67 -25 -39 -3
-172 -47 -181 -60 -4 -5 -17 -10 -29 -10 -12 0 -24 -5 -26 -12 -3 -9 4 -10 27
-3 48 14 26 -8 -37 -36 -31 -13 -65 -24 -77 -24 -20 1 -20 2 4 15 30 17 15 19
-28 4 -18 -6 -30 -15 -27 -19 6 -9 -44 -26 -87 -29 -18 -1 -58 -38 -58 -53 0
-5 9 -4 20 2 11 6 20 8 20 4 0 -3 19 5 43 19 35 20 68 31 132 43 6 1 20 2 33
3 15 1 21 5 16 13 -4 6 -3 8 3 5 6 -4 26 3 44 16 54 36 144 77 169 77 39 0
109 42 160 96 28 29 50 58 50 63 0 12 -10 15 -10 4z"/>
<path d="M2100 1478 c0 -4 14 -8 30 -8 17 0 30 4 30 9 0 5 -13 9 -30 9 -16 -1
-30 -5 -30 -10z"/>
<path d="M649 1458 c-29 -25 -38 -43 -49 -100 -8 -41 6 -52 30 -23 15 18 34
20 24 3 -6 -10 -4 -10 7 0 7 6 20 12 29 12 12 -1 11 -4 -4 -15 -27 -20 -17
-19 30 4 25 13 43 16 50 10 8 -6 29 -2 60 11 35 14 40 19 19 15 -16 -3 -47 -7
-67 -9 -21 -2 -42 -7 -48 -11 -5 -3 -16 -3 -22 2 -9 5 1 12 27 19 22 7 31 13
20 13 -12 1 -38 -8 -59 -19 l-39 -19 24 25 c13 15 33 30 44 34 17 7 17 9 3 9
-10 1 -36 -15 -58 -35 -22 -20 -43 -35 -45 -32 -10 9 32 73 55 85 14 7 25 18
25 25 0 22 -29 19 -56 -4z"/>
<path d="M788 1469 c-10 -5 -18 -14 -18 -19 0 -17 25 -11 38 10 13 22 7 25
-20 9z"/>
<path d="M2275 1471 l50 -6 0 -55 c0 -37 5 -59 15 -67 27 -22 34 -14 11 11
-23 24 -23 25 -2 19 11 -3 21 -10 21 -16 0 -7 3 -7 9 -1 12 13 -1 96 -16 101
-10 4 -10 -3 -2 -27 6 -17 9 -34 5 -37 -11 -11 -18 5 -19 46 l-2 41 -60 -2
-60 -1 50 -6z"/>
<path d="M2398 1473 c-20 -5 -23 -18 -7 -28 6 -4 9 -21 7 -38 -2 -17 2 -32 7
-34 6 -2 10 20 11 52 0 30 0 54 0 54 -1 -1 -9 -3 -18 -6z"/>
<path d="M2440 1461 c5 -11 15 -23 20 -26 13 -8 13 -45 0 -45 -5 0 -10 11 -10
25 0 14 -4 25 -10 25 -5 0 -10 -16 -10 -35 0 -33 2 -35 28 -32 24 3 27 8 25
38 -2 50 -2 49 -18 49 -8 0 -15 5 -15 10 0 6 -5 10 -10 10 -7 0 -7 -6 0 -19z"/>
<path d="M2497 1448 c3 -18 7 -42 8 -53 1 -11 3 -22 4 -25 0 -3 10 -6 21 -7
18 -2 19 0 5 13 -15 16 -21 56 -7 52 4 -2 8 2 9 7 0 6 -3 9 -8 8 -5 -2 -9 6
-9 17 0 11 -6 20 -14 20 -11 0 -13 -9 -9 -32z"/>
<path d="M2583 1450 c3 -11 2 -20 -2 -20 -4 0 -7 -10 -7 -22 1 -26 34 -44 50
-28 7 7 3 10 -12 10 -12 0 -22 5 -22 11 0 7 10 9 27 4 23 -5 25 -4 13 10 -11
13 -10 15 4 9 30 -11 17 6 -16 21 -22 10 -25 14 -10 11 12 -2 22 0 22 5 0 5
-12 9 -26 9 -21 0 -25 -4 -21 -20z"/>
<path d="M2808 1458 c-11 -9 -14 -24 -11 -50 3 -21 9 -38 14 -38 5 0 6 13 3
28 -4 19 0 34 10 45 27 27 15 39 -16 15z"/>
<path d="M2050 1450 c0 -6 23 -9 55 -8 30 1 55 6 55 10 0 4 -25 8 -55 8 -31 0
-55 -5 -55 -10z"/>
<path d="M2190 1451 c8 -6 18 -7 23 -4 5 3 6 -4 3 -15 -4 -11 -2 -23 4 -27 5
-3 10 2 10 13 0 22 26 37 33 19 2 -7 8 -8 13 -4 14 13 -18 27 -61 27 -28 0
-36 -3 -25 -9z"/>
<path d="M2843 1449 c-6 -6 -10 -17 -8 -23 2 -6 6 -24 9 -39 9 -41 24 -24 20
24 -3 47 -6 53 -21 38z"/>
<path d="M1185 1383 c-9 -38 -26 -83 -36 -101 -24 -43 -24 -60 0 -38 19 17 38
70 33 90 -2 4 1 13 6 20 9 11 25 96 19 96 -2 0 -12 -30 -22 -67z"/>
<path d="M2290 1420 c0 -16 -5 -30 -11 -30 -6 0 -8 7 -5 15 5 14 4 14 -16 0
-35 -24 -58 -19 -58 12 0 20 -3 24 -11 16 -28 -28 16 -77 51 -56 11 7 21 9 25
3 3 -5 14 -8 25 -7 16 1 20 9 20 39 0 21 -4 38 -10 38 -5 0 -10 -13 -10 -30z"/>
<path d="M2890 1441 c0 -6 5 -13 11 -17 8 -4 7 -9 -2 -15 -10 -6 -8 -9 9 -9
23 0 30 14 11 26 -8 4 -7 9 2 15 10 6 8 9 -8 9 -13 0 -23 -4 -23 -9z"/>
<path d="M2940 1439 c0 -20 13 -34 30 -34 18 0 30 14 30 35 0 13 -1 13 -10 0
-6 -10 -10 -11 -10 -2 0 6 -4 12 -10 12 -5 0 -7 -8 -4 -17 5 -15 3 -15 -10 1
-12 14 -16 16 -16 5z"/>
<path d="M2660 1411 c0 -17 5 -33 10 -36 6 -4 10 8 10 29 0 20 -4 36 -10 36
-5 0 -10 -13 -10 -29z"/>
<path d="M2690 1405 c0 -19 5 -35 10 -35 6 0 10 16 10 35 0 19 -4 35 -10 35
-5 0 -10 -16 -10 -35z"/>
<path d="M2720 1410 c0 -16 5 -30 10 -30 6 0 10 14 10 30 0 17 -4 30 -10 30
-5 0 -10 -13 -10 -30z"/>
<path d="M2754 1424 c3 -9 6 -24 6 -35 0 -10 4 -19 8 -19 4 0 8 16 8 35 0 23
-5 35 -14 35 -9 0 -12 -6 -8 -16z"/>
<path d="M2899 1363 c-2 -16 -2 -40 0 -53 0 -5 16 -10 35 -10 30 0 33 2 28 25
-4 24 -32 36 -32 14 0 -5 4 -8 8 -5 5 3 9 0 9 -7 0 -7 -9 -13 -19 -13 -13 0
-18 6 -15 17 3 9 1 23 -4 30 -7 11 -9 11 -10 2z"/>
<path d="M504 1340 c-11 -4 -45 -36 -75 -71 -38 -44 -47 -59 -29 -49 35 18 79
55 58 47 -10 -4 -18 -2 -18 3 0 11 63 60 78 60 6 0 14 5 17 10 7 12 -2 12 -31
0z"/>
<path d="M1210 1330 c-14 -10 -21 -22 -17 -26 11 -11 40 9 43 29 3 21 4 21
-26 -3z"/>
<path d="M2510 1341 c-23 -7 -22 -8 12 -12 20 -3 35 -2 32 2 -2 4 2 10 8 12
20 8 -24 6 -52 -2z"/>
<path d="M2974 1335 c3 -8 9 -22 12 -30 3 -8 1 -15 -5 -15 -6 0 -11 -5 -11
-12 0 -8 5 -7 16 3 16 17 10 69 -8 69 -6 0 -7 -7 -4 -15z"/>
<path d="M2698 1323 c12 -2 22 -9 22 -14 0 -5 8 -9 18 -9 13 0 14 2 3 9 -11 7
-11 9 0 14 8 3 -4 5 -26 5 -22 0 -30 -3 -17 -5z"/>
<path d="M2365 1310 l-30 -7 30 -4 30 -5 -35 -11 -35 -11 32 -1 c24 -1 33 4
38 20 8 26 7 27 -30 19z"/>
<path d="M503 1274 c-64 -43 -70 -62 -10 -32 47 24 77 47 77 60 0 14 -13 8
-67 -28z"/>
<path d="M1433 1296 c-7 -8 -18 -16 -25 -19 -23 -8 -1 -18 26 -11 17 4 26 13
26 25 0 22 -10 24 -27 5z"/>
<path d="M1005 1291 c-9 -15 1 -28 25 -34 25 -6 26 5 1 27 -12 11 -21 14 -26
7z"/>
<path d="M1075 1258 c8 -21 15 -48 16 -60 1 -17 3 -15 11 11 8 30 6 37 -17 60
l-26 26 16 -37z"/>
<path d="M2100 1280 c0 -5 14 -10 30 -10 17 0 30 5 30 10 0 6 -13 10 -30 10
-16 0 -30 -4 -30 -10z"/>
<path d="M1462 1266 c-19 -11 -21 -15 -8 -25 16 -13 40 -6 31 9 -3 4 1 7 8 6
6 0 13 4 15 9 5 15 -20 15 -46 1z"/>
<path d="M1205 1250 c-10 -11 -24 -20 -31 -20 -7 0 -20 -14 -28 -32 -19 -38
-20 -39 -2 -32 22 9 9 -30 -20 -57 -13 -12 -24 -28 -24 -36 0 -7 -5 -13 -10
-13 -6 0 -16 -13 -23 -28 -9 -22 -18 -29 -39 -28 -14 1 -24 -2 -22 -6 3 -4 -9
-14 -25 -23 -29 -14 -33 -38 -11 -55 4 -3 11 -18 17 -35 12 -37 43 -47 43 -13
0 26 -13 50 -26 48 -5 0 -11 9 -12 21 -3 16 0 20 11 16 9 -3 18 -1 20 6 9 25
20 -5 19 -50 -1 -27 3 -55 8 -63 5 -8 10 -11 10 -6 0 5 9 1 20 -9 11 -10 23
-15 27 -12 3 4 1 7 -5 7 -7 0 -12 5 -12 10 0 6 7 10 15 10 8 0 24 5 34 12 15
9 17 16 10 31 -6 10 -8 23 -6 30 2 7 11 -3 21 -20 9 -18 19 -33 22 -33 2 0 0
9 -6 20 -11 21 -1 27 16 10 7 -7 9 7 6 45 -2 30 1 75 8 99 11 40 10 47 -16 95
l-27 52 39 40 c21 21 33 39 28 39 -6 0 -19 -9 -29 -20z m-26 -191 c-1 -32 -5
-59 -8 -59 -4 0 -14 -13 -24 -29 -15 -26 -73 -71 -91 -71 -3 0 -6 7 -6 16 0 9
5 12 13 8 9 -6 9 -5 0 7 -11 13 -8 20 12 39 13 13 29 39 36 59 21 67 32 87 51
88 17 2 19 -5 17 -58z"/>
<path d="M1534 1252 c-11 -10 -26 -16 -34 -14 -11 4 -10 0 3 -15 11 -12 26
-19 36 -16 11 3 22 0 25 -6 9 -14 56 -15 56 -1 0 6 -12 10 -27 10 -29 1 -67
23 -57 33 3 3 12 3 20 0 10 -4 12 0 8 11 -8 20 -6 20 -30 -2z"/>
<path d="M2035 1250 c3 -5 17 -10 31 -10 13 0 24 5 24 10 0 6 -14 10 -31 10
-17 0 -28 -4 -24 -10z"/>
<path d="M2285 1249 c-13 -5 -1 -8 39 -8 33 -1 57 2 54 5 -10 9 -72 12 -93 3z"/>
<path d="M2390 1250 c0 -6 3 -10 8 -10 4 0 8 -22 10 -50 l3 -49 -108 -4 -108
-3 108 -2 107 -2 0 -88 c0 -72 3 -89 15 -89 8 0 15 4 15 9 0 4 -4 8 -10 8 -5
0 -10 5 -10 11 0 5 5 7 10 4 6 -3 10 -1 10 4 0 6 -4 11 -10 11 -5 0 -10 9 -10
21 0 11 5 17 10 14 6 -3 10 1 10 9 0 9 -5 16 -12 16 -9 0 -9 3 0 12 14 14 16
52 2 43 -6 -4 -10 10 -10 34 0 23 5 41 10 41 6 0 10 13 10 29 l0 28 225 -1
226 -1 8 -30 9 -30 1 27 c1 25 21 52 21 28 0 -6 4 -9 8 -6 5 3 9 -1 9 -9 0 -8
-3 -13 -6 -12 -3 1 -7 -1 -8 -5 -2 -5 -1 -8 2 -8 3 0 11 0 19 0 11 0 12 7 7
28 l-7 27 -282 2 c-174 1 -282 -2 -282 -7z"/>
<path d="M747 1231 c-15 -10 -62 -26 -103 -36 -48 -11 -72 -21 -66 -27 6 -6
17 -6 28 0 11 5 75 20 144 32 69 13 130 28 135 33 6 6 -6 8 -32 4 -24 -3 -46
-1 -49 4 -8 13 -25 10 -57 -10z"/>
<path d="M2970 1244 c0 -3 5 -15 11 -26 8 -16 8 -22 -2 -29 -7 -4 -10 -11 -6
-15 4 -4 12 -3 18 3 13 13 3 73 -12 73 -5 0 -9 -3 -9 -6z"/>
<path d="M985 1218 c30 -17 47 -37 41 -47 -3 -5 4 -8 17 -8 17 0 22 6 23 26 1
14 -1 20 -3 14 -3 -9 -15 -7 -43 7 -42 21 -69 27 -35 8z"/>
<path d="M1639 1223 c0 -5 -2 -16 -4 -25 -2 -13 3 -18 21 -18 13 0 24 5 24 10
0 6 -7 10 -16 10 -8 0 -12 5 -9 10 4 6 10 8 14 6 4 -3 13 -1 21 5 11 6 6 9
-17 9 -18 0 -33 -3 -34 -7z"/>
<path d="M2230 1220 c0 -5 14 -10 30 -10 17 0 30 5 30 10 0 6 -13 10 -30 10
-16 0 -30 -4 -30 -10z"/>
<path d="M2513 1213 c-38 -5 -45 -23 -9 -23 13 0 31 -3 40 -6 12 -4 16 0 16
15 0 12 -3 20 -7 19 -5 0 -23 -3 -40 -5z"/>
<path d="M2618 1213 c-39 -6 -35 -20 7 -25 29 -3 35 -1 35 14 0 10 -3 17 -7
17 -5 -1 -20 -4 -35 -6z"/>
<path d="M2723 1213 c-38 -5 -45 -23 -9 -23 13 0 31 -3 40 -6 12 -4 16 0 16
15 0 12 -3 20 -7 19 -5 0 -23 -3 -40 -5z"/>
<path d="M2833 1213 c-43 -6 -42 -20 2 -25 29 -3 35 -1 35 14 0 10 -1 17 -2
16 -2 0 -18 -3 -35 -5z"/>
<path d="M2200 1190 c0 -5 14 -10 30 -10 17 0 30 5 30 10 0 6 -13 10 -30 10
-16 0 -30 -4 -30 -10z"/>
<path d="M2486 1173 c-16 -16 -4 -33 23 -33 32 0 44 10 33 25 -8 12 -47 17
-56 8z"/>
<path d="M2590 1160 c0 -16 7 -20 30 -20 30 0 42 21 20 35 -5 3 -10 1 -10 -6
0 -10 -3 -10 -12 -1 -18 18 -28 15 -28 -8z"/>
<path d="M2690 1160 c0 -16 7 -20 30 -20 31 0 42 22 18 36 -8 5 -9 2 -4 -11 6
-18 6 -18 -12 -2 -24 22 -32 21 -32 -3z"/>
<path d="M2800 1160 c0 -16 7 -20 30 -20 30 0 42 21 20 35 -5 3 -10 1 -10 -6
0 -10 -3 -10 -12 -1 -18 18 -28 15 -28 -8z"/>
<path d="M772 1148 c-29 -12 -51 -23 -48 -25 7 -7 105 27 111 38 8 12 -1 10
-63 -13z"/>
<path d="M466 1123 c-31 -21 -56 -41 -56 -46 0 -5 15 2 33 15 17 14 42 28 54
32 11 4 24 13 27 21 7 20 6 20 -58 -22z"/>
<path d="M1090 1141 c0 -12 -4 -21 -10 -21 -5 0 -7 -6 -4 -14 3 -8 1 -17 -5
-21 -6 -3 -11 1 -11 11 0 16 -2 15 -22 -3 -13 -11 -37 -28 -55 -38 -30 -17
-53 -52 -53 -78 1 -7 11 0 23 14 12 15 37 34 55 43 17 9 32 23 32 32 0 10 6
14 18 10 11 -3 25 6 40 25 21 26 22 30 8 45 -15 14 -16 14 -16 -5z"/>
<path d="M2899 1148 c-8 -31 -5 -58 6 -58 21 0 28 19 13 37 -11 14 -11 16 1 8
10 -5 12 -4 7 3 -6 10 -25 17 -27 10z"/>
<path d="M2940 1139 c0 -22 15 -40 31 -37 16 3 29 18 29 33 0 6 -5 3 -10 -5
-8 -13 -10 -12 -10 3 0 9 -5 17 -11 17 -6 0 -8 -8 -5 -17 5 -15 4 -15 -9 1
-11 14 -15 16 -15 5z"/>
<path d="M650 1132 c0 -7 -10 -12 -22 -12 -13 0 -30 -5 -38 -10 -13 -8 -12
-11 5 -24 73 -52 70 -56 -19 -26 -69 23 -66 23 -66 11 0 -5 22 -24 50 -42 27
-18 49 -33 47 -35 -5 -5 -127 29 -127 36 0 4 -11 5 -24 3 l-25 -5 27 -23 c15
-12 43 -32 62 -45 l35 -22 -48 7 c-26 3 -64 13 -83 21 -43 18 -59 9 -26 -14
100 -67 104 -83 16 -61 -25 6 -48 9 -51 5 -4 -3 6 -20 22 -36 16 -17 23 -30
17 -30 -7 0 -12 -4 -12 -9 0 -4 11 -6 25 -3 30 5 32 18 5 32 -35 19 -22 26 41
23 56 -2 130 19 116 33 -3 3 -18 -1 -34 -9 -28 -15 -30 -14 -68 18 l-40 33 67
-16 c65 -15 69 -15 104 4 21 10 39 25 41 31 3 7 -16 27 -41 45 -25 17 -44 34
-41 36 2 2 33 -6 69 -18 62 -20 86 -20 86 0 0 5 -7 7 -15 4 -19 -8 -90 47 -74
57 8 5 6 9 -7 13 -10 3 0 4 23 2 26 -3 46 1 50 7 3 7 2 9 -2 4 -5 -4 -17 0
-27 10 -11 9 -18 11 -18 5z m-76 -148 c60 -16 65 -20 34 -35 -21 -9 -32 -6
-76 21 -56 34 -66 46 -29 34 12 -4 44 -13 71 -20z"/>
<path d="M920 1126 c0 -11 -17 -15 -72 -15 -80 -1 -212 -25 -188 -35 71 -27
87 -27 58 2 -9 9 -3 12 28 13 21 1 70 3 107 5 38 1 71 5 74 8 4 3 12 1 20 -6
20 -16 27 -3 11 21 -15 24 -38 28 -38 7z"/>
<path d="M2503 1123 c-13 -2 -23 -8 -23 -13 0 -7 34 -20 57 -20 6 0 9 8 6 20
-3 11 -8 19 -12 19 -3 -1 -16 -4 -28 -6z"/>
<path d="M2607 1123 c-39 -6 -29 -28 14 -30 19 -1 26 1 16 4 -18 5 -18 5 0 19
10 7 14 13 8 12 -5 0 -23 -3 -38 -5z"/>
<path d="M2707 1123 c-38 -6 -29 -27 14 -31 26 -2 30 0 19 8 -10 6 -11 10 -2
10 6 0 12 5 12 10 0 6 -3 9 -7 9 -5 -1 -21 -4 -36 -6z"/>
<path d="M2817 1123 c-39 -6 -29 -27 14 -30 27 -2 30 -1 14 7 -17 7 -18 9 -2
9 9 1 17 6 17 11 0 6 -3 9 -7 9 -5 -1 -21 -4 -36 -6z"/>
<path d="M332 1063 c-29 -30 -51 -57 -48 -60 3 -3 19 11 36 31 38 43 49 45 43
9 l-4 -28 15 25 c8 15 10 27 5 31 -6 3 -3 11 6 19 16 13 20 30 8 30 -5 -1 -32
-26 -61 -57z"/>
<path d="M2325 1080 l-50 -7 58 -1 c37 -1 56 2 52 8 -3 6 -7 9 -8 8 -1 0 -24
-4 -52 -8z"/>
<path d="M2484 1071 c3 -5 22 -9 41 -9 19 0 35 4 35 9 0 5 -18 9 -41 9 -22 0
-38 -4 -35 -9z"/>
<path d="M2590 1070 c0 -5 16 -10 35 -10 19 0 35 5 35 10 0 6 -16 10 -35 10
-19 0 -35 -4 -35 -10z"/>
<path d="M2690 1070 c0 -5 15 -10 34 -10 19 0 38 5 41 10 4 6 -10 10 -34 10
-23 0 -41 -4 -41 -10z"/>
<path d="M2800 1070 c0 -5 16 -10 35 -10 19 0 35 5 35 10 0 6 -16 10 -35 10
-19 0 -35 -4 -35 -10z"/>
<path d="M2896 1046 c3 -7 24 -10 57 -7 58 4 55 7 -15 14 -32 3 -45 1 -42 -7z"/>
<path d="M2482 1033 c4 -22 47 -30 59 -12 12 20 1 29 -32 29 -24 0 -30 -4 -27
-17z"/>
<path d="M2587 1043 c-10 -16 10 -35 34 -31 33 4 31 32 -3 36 -14 2 -28 -1
-31 -5z"/>
<path d="M2692 1033 c2 -12 12 -18 28 -18 16 0 26 6 28 18 3 13 -3 17 -28 17
-25 0 -31 -4 -28 -17z"/>
<path d="M2797 1043 c-10 -16 10 -35 34 -31 33 4 31 32 -3 36 -14 2 -28 -1
-31 -5z"/>
<path d="M300 998 c-25 -22 -37 -38 -27 -35 23 8 22 -4 -4 -37 -11 -14 -16
-26 -11 -26 6 0 20 16 31 35 12 19 30 51 42 70 11 19 19 35 17 35 -2 -1 -23
-19 -48 -42z"/>
<path d="M2893 1006 c14 -15 34 -19 80 -17 31 1 36 16 7 24 -11 3 -20 1 -20
-4 0 -5 -9 -9 -20 -9 -11 0 -20 5 -20 10 0 6 -9 10 -21 10 -18 0 -18 -2 -6
-14z"/>
<path d="M2484 991 c10 -15 55 -19 60 -5 4 10 -4 14 -30 14 -19 0 -33 -4 -30
-9z"/>
<path d="M2586 991 c5 -4 21 -11 37 -15 20 -5 27 -3 27 9 0 11 -11 15 -37 15
-22 0 -33 -4 -27 -9z"/>
<path d="M2690 990 c0 -5 6 -10 14 -10 8 0 21 -3 30 -6 11 -4 16 -1 16 10 0
11 -9 16 -30 16 -16 0 -30 -4 -30 -10z"/>
<path d="M2800 990 c0 -5 6 -10 14 -10 8 0 21 -3 30 -6 11 -4 16 -1 16 10 0
11 -9 16 -30 16 -16 0 -30 -4 -30 -10z"/>
<path d="M2483 934 c-10 -27 14 -40 37 -19 11 10 20 13 20 7 0 -7 5 -12 10
-12 13 0 13 27 -1 35 -5 4 -19 -1 -30 -11 -18 -16 -19 -16 -13 -1 3 10 1 17
-5 17 -7 0 -14 -7 -18 -16z"/>
<path d="M2591 936 c-20 -24 11 -39 39 -19 13 9 20 11 16 5 -4 -7 -2 -12 3
-12 14 0 14 27 0 35 -5 4 -19 -1 -30 -11 -18 -16 -19 -16 -13 -1 7 20 1 22
-15 3z"/>
<path d="M2694 935 c-11 -27 13 -41 35 -21 19 17 19 17 17 -1 -2 -11 -13 -19
-29 -21 -28 -3 -36 -17 -14 -25 10 -4 10 -6 0 -6 -29 -2 -10 -21 20 -21 22 0
28 3 18 9 -11 7 -11 9 0 14 11 4 11 6 1 6 -8 1 -6 8 8 23 34 37 17 76 -19 44
-10 -9 -22 -16 -27 -16 -5 0 -3 4 5 9 9 6 10 11 2 15 -6 4 -14 0 -17 -9z"/>
<path d="M2802 937 c-6 -7 -7 -18 -2 -27 7 -11 13 -11 35 4 26 17 26 17 15 -3
-6 -12 -19 -21 -29 -21 -13 0 -18 -7 -18 -25 0 -21 4 -25 31 -25 24 0 27 3 16
10 -13 9 -13 10 0 10 13 0 13 1 0 10 -10 6 -11 10 -2 10 6 0 11 3 10 8 0 4 2
15 7 25 13 30 -11 44 -35 22 -18 -16 -20 -17 -14 -2 7 20 1 22 -14 4z"/>
<path d="M2507 893 c-23 -4 -26 -7 -16 -19 9 -11 9 -14 0 -14 -7 0 -9 -4 -6
-10 3 -5 16 -10 28 -10 18 0 23 6 25 30 1 17 1 29 0 29 -2 -1 -16 -4 -31 -6z"/>
<path d="M2614 892 c-15 -2 -21 -10 -21 -28 0 -20 4 -24 31 -24 21 0 27 3 17
9 -11 7 -11 9 0 14 11 4 11 6 -1 6 -12 1 -13 3 -1 10 17 11 3 18 -25 13z"/>
<path d="M951 868 c25 -47 62 -98 71 -98 5 0 0 12 -11 26 -12 15 -21 32 -21
38 -1 12 -35 56 -44 56 -4 0 -1 -10 5 -22z"/>
<path d="M1495 879 c-9 -14 -1 -80 11 -90 14 -11 34 -4 34 12 0 6 -5 7 -12 3
-6 -4 -8 -3 -5 3 4 6 8 26 11 44 3 29 1 35 -16 35 -11 0 -21 -3 -23 -7z"/>
<path d="M2900 874 c0 -8 10 -14 23 -15 88 -4 110 18 23 25 -34 2 -46 0 -46
-10z"/>
<path d="M1681 815 c-12 -61 -21 -145 -14 -145 6 0 33 61 33 76 0 10 7 25 15
33 11 13 12 25 3 59 -6 23 -14 42 -17 42 -4 0 -13 -29 -20 -65z"/>
<path d="M1179 845 c0 0 -2 -13 -4 -29 -2 -15 -1 -26 2 -22 9 9 32 -26 33 -48
0 -15 3 -17 11 -9 13 13 2 56 -12 48 -13 -9 -11 9 4 24 10 11 10 13 0 7 -7 -4
-13 -3 -13 3 0 5 8 14 17 20 14 7 12 9 -10 8 -15 -1 -27 -2 -28 -2z"/>
<path d="M1255 815 c3 -8 8 -23 12 -32 3 -10 7 -31 8 -48 1 -16 3 -38 4 -48 1
-22 21 -18 44 11 10 12 23 20 28 17 5 -4 6 1 2 11 -5 13 -2 15 18 10 22 -6 22
-6 5 5 -17 10 -23 8 -43 -17 -25 -31 -30 -27 -11 9 10 21 10 21 -7 7 -17 -14
-18 -14 -5 10 12 23 12 24 -4 11 -14 -12 -16 -12 -10 2 3 9 -3 27 -13 41 -20
28 -35 34 -28 11z"/>
<path d="M2480 820 c0 -5 18 -10 40 -10 22 0 40 5 40 10 0 6 -18 10 -40 10
-22 0 -40 -4 -40 -10z"/>
<path d="M2590 820 c0 -5 16 -10 35 -10 19 0 35 5 35 10 0 6 -16 10 -35 10
-19 0 -35 -4 -35 -10z"/>
<path d="M2690 820 c0 -5 18 -10 41 -10 24 0 38 4 34 10 -3 6 -22 10 -41 10
-19 0 -34 -4 -34 -10z"/>
<path d="M2800 820 c0 -5 16 -10 35 -10 19 0 35 5 35 10 0 6 -16 10 -35 10
-19 0 -35 -4 -35 -10z"/>
<path d="M1126 788 c10 -12 32 -36 47 -53 26 -27 28 -27 16 -5 -7 13 -17 30
-23 37 -6 7 -17 19 -24 28 -7 8 -18 15 -24 15 -6 0 -3 -10 8 -22z"/>
<path d="M2480 790 c0 -5 18 -10 40 -10 22 0 40 5 40 10 0 6 -18 10 -40 10
-22 0 -40 -4 -40 -10z"/>
<path d="M2590 790 c0 -5 16 -10 35 -10 19 0 35 5 35 10 0 6 -16 10 -35 10
-19 0 -35 -4 -35 -10z"/>
<path d="M2690 790 c0 -5 18 -10 41 -10 24 0 38 4 34 10 -3 6 -22 10 -41 10
-19 0 -34 -4 -34 -10z"/>
<path d="M2800 790 c0 -5 16 -10 35 -10 19 0 35 5 35 10 0 6 -16 10 -35 10
-19 0 -35 -4 -35 -10z"/>
<path d="M2903 784 c0 -11 7 -14 23 -11 13 2 25 -1 28 -7 2 -6 5 -3 5 8 1 14
-4 17 -19 13 -11 -3 -20 -1 -20 4 0 5 -4 9 -8 9 -5 0 -9 -7 -9 -16z"/>
<path d="M2485 760 c-4 -6 8 -10 29 -10 20 0 36 5 36 10 0 6 -13 10 -29 10
-17 0 -33 -4 -36 -10z"/>
<path d="M2590 760 c0 -5 16 -10 36 -10 21 0 33 4 29 10 -3 6 -19 10 -36 10
-16 0 -29 -4 -29 -10z"/>
<path d="M2690 760 c0 -5 16 -10 35 -10 19 0 35 5 35 10 0 6 -16 10 -35 10
-19 0 -35 -4 -35 -10z"/>
<path d="M2800 760 c0 -5 16 -10 36 -10 21 0 33 4 29 10 -3 6 -19 10 -36 10
-16 0 -29 -4 -29 -10z"/>
<path d="M1228 728 c-12 -24 -18 -128 -7 -128 6 0 -3 -58 -11 -70 -2 -3 2 -15
9 -27 9 -18 9 -23 0 -23 -7 0 -10 -2 -7 -5 3 -3 13 -2 22 1 14 5 15 9 4 15
-10 7 -10 9 0 9 9 0 10 5 2 19 -15 29 -12 51 6 51 14 0 15 2 3 17 -13 15 -21
123 -9 123 3 0 6 9 7 20 2 26 -3 25 -19 -2z"/>
<path d="M2918 743 c18 -2 45 -2 60 0 15 2 0 4 -33 4 -33 0 -45 -2 -27 -4z"/>
<path d="M1504 717 c-12 -15 -28 -27 -35 -28 -8 0 -4 -5 8 -11 28 -13 56 11
51 44 -3 22 -3 22 -24 -5z"/>
<path d="M2480 730 c0 -5 18 -10 40 -10 22 0 40 5 40 10 0 6 -18 10 -40 10
-22 0 -40 -4 -40 -10z"/>
<path d="M2590 728 c0 -4 16 -8 35 -8 19 0 35 5 35 10 0 6 -16 10 -35 8 -19
-1 -35 -6 -35 -10z"/>
<path d="M2690 728 c0 -5 18 -8 41 -8 24 0 38 4 34 10 -7 11 -75 9 -75 -2z"/>
<path d="M2794 728 c-3 -4 13 -8 35 -8 23 0 41 5 41 10 0 12 -69 10 -76 -2z"/>
<path d="M1365 701 c-3 -6 -10 -9 -15 -6 -5 3 -14 -4 -20 -15 -6 -12 -7 -20
-1 -20 5 0 12 -8 16 -18 8 -27 51 -46 59 -26 3 9 1 12 -4 9 -6 -3 -10 -2 -10
2 0 5 -10 13 -22 18 -13 6 -24 19 -25 30 -2 11 0 14 3 8 4 -10 9 -9 21 3 8 8
13 17 10 20 -3 3 -8 0 -12 -5z"/>
<path d="M2894 703 c7 -7 97 -5 105 3 2 2 -22 4 -54 4 -32 0 -55 -3 -51 -7z"/>
<path d="M616 679 c-10 -10 -16 -23 -14 -29 5 -17 41 13 37 32 -4 13 -7 13
-23 -3z"/>
<path d="M1382 688 c-8 -11 1 -20 44 -42 30 -16 54 -34 54 -40 0 -6 5 -4 10 4
5 8 10 10 10 4 0 -6 6 -11 13 -11 22 -1 42 -8 49 -17 3 -5 17 -10 30 -12 12
-1 34 -5 48 -8 14 -3 56 -8 94 -11 39 -3 77 -11 85 -18 11 -8 37 -10 81 -6 36
3 56 6 46 7 -25 2 -14 14 16 17 38 4 39 5 33 14 -3 5 -17 6 -33 2 -15 -5 -46
-8 -70 -7 -27 1 -42 -3 -42 -11 0 -7 -8 -13 -17 -12 -11 0 -13 3 -5 6 23 9 12
19 -20 20 -75 0 -297 58 -345 91 -13 8 -23 11 -23 6 0 -4 -7 1 -15 12 -8 10
-15 15 -15 9 0 -5 -4 -4 -9 3 -6 11 -10 11 -19 0z"/>
<path d="M2480 610 l0 -80 93 0 c52 0 96 2 98 4 2 2 3 38 1 80 l-4 76 -94 0
-94 0 0 -80z m64 -2 c3 -58 0 -64 -19 -50 -11 8 -12 13 -15 62 -3 49 -2 52 16
48 11 -2 16 -18 18 -60z m52 2 c1 -33 0 -60 -1 -60 -2 0 -11 3 -21 7 -16 6
-16 7 2 14 17 7 17 8 2 8 -26 1 -26 91 0 91 14 0 17 -10 18 -60z m54 0 c0 -33
-2 -60 -4 -60 -2 0 -12 3 -22 7 -16 6 -16 7 2 14 17 7 17 8 2 8 -14 1 -18 10
-18 46 0 38 3 45 20 45 18 0 20 -7 20 -60z"/>
<path d="M1250 661 c0 -17 120 -96 210 -139 117 -56 203 -76 330 -76 58 -1
108 -5 113 -11 4 -6 11 -4 17 5 6 10 10 11 10 3 0 -7 7 -13 15 -13 8 0 15 5
15 11 0 5 4 8 10 4 5 -3 6 -13 3 -22 -5 -11 -3 -14 6 -9 7 5 11 17 8 27 -3 12
0 19 10 19 9 0 13 -6 9 -15 -3 -8 -1 -15 4 -15 5 0 11 10 13 23 l4 22 2 -22
c1 -27 31 -32 31 -5 0 15 -2 15 -11 2 -8 -12 -10 -12 -7 -1 6 20 23 27 103 41
74 13 117 29 80 30 -11 0 -51 -7 -90 -14 -38 -8 -81 -16 -95 -18 -14 -2 -29
-6 -35 -9 -16 -9 -95 -7 -95 2 0 5 -5 9 -11 9 -6 0 -9 -6 -6 -14 4 -11 -16
-13 -111 -10 -98 2 -132 8 -209 33 -95 31 -215 87 -221 102 -2 5 -17 16 -33
25 -18 9 -27 20 -23 27 4 7 4 9 -1 5 -4 -4 -16 -3 -26 3 -12 6 -19 6 -19 0z"/>
<path d="M1643 635 c-10 -11 -3 -16 40 -25 68 -15 239 -21 257 -10 12 8 11 10
-5 11 -20 0 -20 0 0 9 17 7 16 9 -10 9 -17 1 -36 -4 -43 -11 -9 -9 -12 -9 -12
0 0 8 -26 10 -92 8 -68 -3 -97 -1 -108 9 -12 11 -17 11 -27 0z"/>
<path d="M2750 580 c30 -4 62 -3 70 1 9 5 -14 8 -55 7 l-70 -1 55 -7z"/>
<path d="M210 570 c0 -6 -4 -9 -8 -6 -5 3 -9 -1 -9 -9 0 -8 6 -15 12 -15 7 0
18 -7 25 -15 11 -13 10 -14 -4 -9 -15 6 -17 2 -14 -22 2 -23 9 -30 29 -32 27
-3 27 -2 25 56 0 33 -4 55 -7 50 -4 -7 -14 -6 -28 1 -15 8 -21 9 -21 1z"/>
<path d="M1492 571 c5 -16 78 -45 78 -30 0 5 -7 9 -15 9 -8 0 -15 4 -15 9 0 5
-8 8 -17 7 -10 -2 -22 2 -26 8 -6 7 -7 6 -5 -3z"/>
<path d="M743 563 c-16 -6 -17 -33 -1 -33 8 0 9 -3 2 -10 -13 -13 13 -100 30
-100 15 0 44 20 30 20 -11 0 -39 49 -36 62 1 4 -2 18 -8 32 -6 17 -5 26 3 30
7 2 8 4 2 4 -5 0 -16 -2 -22 -5z"/>
<path d="M779 553 c-12 -15 -12 -16 6 -9 11 4 25 9 32 10 25 4 26 16 1 16 -14
0 -32 -8 -39 -17z"/>
<path d="M2880 560 c-8 -6 -27 -8 -41 -5 -18 4 -26 2 -26 -8 0 -10 17 -14 64
-15 35 0 63 3 63 8 0 4 -9 6 -20 3 -11 -3 -20 -1 -20 5 0 6 12 13 28 15 l27 4
-30 1 c-16 1 -37 -3 -45 -8z"/>
<path d="M2700 544 c0 -15 87 -18 96 -3 3 5 -1 9 -8 10 -7 0 -30 1 -50 3 -26
2 -38 -1 -38 -10z"/>
<path d="M1585 533 c13 -13 125 -37 132 -29 10 10 -3 17 -38 20 -19 2 -50 7
-69 11 -22 4 -31 4 -25 -2z"/>
<path d="M1791 525 c-1 -17 -3 -18 -11 -5 -9 13 -10 13 -10 0 0 -13 -1 -13
-10 0 -7 11 -10 11 -10 2 0 -7 -4 -10 -10 -7 -5 3 -10 1 -10 -4 0 -7 30 -10
83 -9 52 1 65 3 35 5 -33 3 -48 9 -51 21 -4 14 -5 13 -6 -3z"/>
<path d="M1967 526 c-5 -11 1 -13 26 -10 18 3 59 9 92 13 l60 9 -86 1 c-67 1
-88 -2 -92 -13z"/>
<path d="M2890 510 c0 -5 14 -10 30 -10 17 0 30 4 30 8 0 4 -13 9 -30 10 -16
1 -30 -2 -30 -8z"/>
<path d="M2630 499 c0 -4 -30 -9 -67 -11 -38 -2 -59 -5 -48 -8 11 -3 126 -3
255 0 129 3 196 7 148 8 -49 1 -88 6 -88 11 0 5 -20 9 -45 9 -25 -1 -42 -5
-38 -11 3 -5 -4 -6 -18 -2 -34 11 -99 14 -99 4z"/>
<path d="M492 449 c6 -4 7 -12 4 -18 -4 -6 -11 -9 -15 -7 -4 3 -8 -5 -8 -17
-2 -21 -1 -21 19 3 11 14 26 24 33 22 7 -1 17 4 23 11 8 10 2 12 -28 12 -21 0
-34 -3 -28 -6z"/>
<path d="M2710 450 c0 -4 5 -11 12 -18 7 -7 8 -12 3 -12 -14 0 -17 -79 -4
-117 20 -61 95 -83 144 -40 14 12 39 47 54 77 24 46 33 55 55 55 32 -1 36 29
7 45 -48 25 -104 -8 -141 -84 -11 -25 -27 -50 -35 -56 -22 -19 -64 -4 -71 25
-11 46 3 73 51 95 25 11 45 24 45 28 0 4 -27 7 -60 7 -33 0 -60 -2 -60 -5z"/>
<path d="M230 430 c0 -11 6 -20 14 -20 8 0 17 -6 19 -12 3 -7 6 -4 6 8 1 20
-16 44 -31 44 -4 0 -8 -9 -8 -20z"/>
<path d="M106 429 c-7 -20 -29 -129 -32 -159 -3 -32 -11 -95 -19 -156 -4 -33
-3 -44 4 -34 5 8 14 60 21 115 6 55 18 131 26 169 7 38 12 72 9 74 -2 3 -7 -1
-9 -9z"/>
<path d="M629 424 c-13 -16 -21 -44 -12 -44 9 0 28 25 31 43 4 21 -2 22 -19 1z"/>
<path d="M2626 416 c3 -8 13 -13 22 -11 9 2 26 4 36 4 30 1 11 13 -28 18 -28
3 -34 0 -30 -11z"/>
<path d="M542 397 c-27 -28 -29 -47 -4 -24 10 10 22 14 25 10 4 -3 7 3 7 15 0
27 -2 27 -28 -1z"/>
<path d="M766 388 c2 -13 7 -41 10 -63 3 -22 10 -65 16 -95 6 -30 12 -63 13
-72 1 -10 4 -20 7 -24 4 -3 4 -13 1 -21 -3 -8 -1 -24 5 -36 6 -12 13 -34 16
-49 9 -38 33 -36 33 2 0 17 -3 30 -7 30 -3 0 -5 16 -4 35 2 19 -1 35 -6 35 -6
0 -10 5 -10 11 0 5 5 7 10 4 6 -3 10 1 10 10 0 9 -4 13 -10 10 -5 -3 -10 -1
-10 4 0 6 6 11 13 11 8 0 7 4 -3 10 -13 8 -13 11 -1 19 11 7 10 10 -6 15 -22
7 -27 36 -6 36 7 0 13 5 13 10 0 6 -8 10 -18 10 -15 0 -18 7 -17 30 1 17 -2
30 -7 30 -5 0 -7 4 -4 9 10 15 -12 61 -28 61 -10 0 -13 -7 -10 -22z"/>
<path d="M878 401 c12 -6 24 -9 26 -8 1 1 9 -3 17 -9 9 -8 21 -8 34 -3 19 9
19 9 -2 5 -12 -2 -23 0 -25 5 -2 5 -19 11 -38 14 -29 5 -31 4 -12 -4z"/>
<path d="M1910 397 c0 -7 6 -19 13 -26 10 -10 8 -11 -7 -5 -13 5 -17 4 -12 -4
11 -18 36 -14 36 6 0 14 2 14 9 3 13 -21 38 -22 44 -2 2 11 -1 18 -9 18 -8 0
-14 -4 -14 -9 0 -5 -10 0 -22 12 -25 23 -38 26 -38 7z"/>
<path d="M2030 382 c0 -24 4 -29 24 -29 21 0 23 3 17 26 -11 38 -41 41 -41 3z"/>
<path d="M2555 370 c3 -5 19 -10 36 -10 16 0 29 5 29 10 0 6 -16 10 -36 10
-21 0 -33 -4 -29 -10z"/>
<path d="M2563 343 c8 -7 108 -5 116 3 2 2 -24 4 -59 4 -35 0 -60 -3 -57 -7z"/>
<path d="M664 289 c-5 -8 -3 -9 6 -4 9 6 11 4 5 -4 -4 -8 -17 -10 -32 -6 -18
4 -24 2 -20 -7 2 -7 10 -12 16 -10 6 1 11 -3 11 -10 0 -9 3 -9 12 0 14 14 32
16 23 2 -3 -6 1 -7 10 -4 13 5 13 9 3 22 -7 8 -12 18 -10 21 7 11 -16 12 -24
0z"/>
<path d="M1903 294 c7 -7 168 -6 175 1 3 3 -37 5 -88 5 -51 0 -91 -3 -87 -6z"/>
<path d="M2620 290 c0 -6 17 -10 37 -10 42 0 38 11 -7 16 -16 2 -30 -1 -30 -6z"/>
<path d="M2980 285 c-7 -8 -19 -15 -26 -15 -8 0 -14 -4 -14 -10 0 -5 14 -10
30 -10 25 0 30 4 30 25 0 29 -3 31 -20 10z"/>
<path d="M933 273 c-7 -2 -13 -11 -13 -18 0 -7 -6 -16 -12 -19 -7 -3 -4 -4 7
-3 11 2 19 9 18 15 -2 7 9 12 25 12 21 0 24 2 12 10 -16 11 -19 11 -37 3z"/>
<path d="M1503 274 c3 -4 2 -15 -3 -24 -7 -13 -6 -20 6 -24 12 -4 14 -1 9 13
-4 13 0 23 12 30 16 9 15 10 -6 11 -13 0 -21 -3 -18 -6z"/>
<path d="M590 245 c-7 -8 -16 -12 -21 -9 -5 3 -9 1 -9 -5 0 -6 -8 -8 -17 -5
-10 3 -7 -1 7 -10 23 -13 26 -13 34 2 5 9 14 20 20 24 6 4 8 10 5 13 -4 3 -12
-1 -19 -10z"/>
<path d="M1900 230 c0 -6 36 -10 89 -10 50 0 93 5 96 10 4 6 -28 10 -89 10
-57 0 -96 -4 -96 -10z"/>
<path d="M677 223 c-22 -6 -18 -37 6 -41 12 -3 17 3 17 22 0 14 -1 25 -2 25
-2 -1 -11 -3 -21 -6z"/>
<path d="M928 196 c-3 -14 1 -35 9 -46 10 -14 11 -20 2 -20 -8 0 -8 -4 -1 -12
5 -7 13 -37 17 -65 4 -33 12 -53 20 -53 10 0 11 9 4 39 -5 21 -7 48 -4 60 2
14 0 19 -7 15 -7 -5 -9 0 -6 14 4 12 2 20 -3 16 -5 -3 -9 1 -10 8 -4 63 -14
83 -21 44z"/>
<path d="M1007 186 c-6 -14 1 -153 8 -173 8 -24 33 -14 31 12 0 14 -3 25 -6
25 -11 0 -9 44 2 57 6 8 6 13 1 13 -18 0 -35 51 -22 66 7 9 8 14 1 14 -5 0
-12 -6 -15 -14z"/>
<path d="M2201 106 c0 -65 2 -78 12 -66 7 9 21 14 32 13 17 -3 17 -2 -2 7 -19
8 -22 16 -21 55 2 29 7 45 15 45 23 0 14 18 -11 22 -24 5 -24 4 -25 -76z"/>
<path d="M2803 183 c9 -2 17 -8 17 -13 0 -5 -8 -11 -17 -13 -10 -3 -2 -5 17
-6 24 0 30 2 21 8 -7 5 -10 14 -7 20 5 7 -3 11 -21 10 -17 -1 -21 -3 -10 -6z"/>
<path d="M2974 181 c7 -11 -17 -21 -49 -21 -13 0 -25 -4 -27 -8 -1 -5 -43 -22
-91 -38 -49 -16 -89 -34 -90 -39 -1 -4 36 -24 83 -42 71 -28 93 -33 133 -27
26 3 47 10 47 16 0 5 -9 6 -22 1 -30 -10 -66 -8 -101 6 -35 14 -27 28 20 37
20 4 48 13 62 20 14 8 34 14 44 14 23 0 25 75 1 84 -8 3 -13 2 -10 -3z"/>
<path d="M2296 134 c-8 -63 -8 -84 3 -84 5 0 11 22 15 50 5 34 13 53 26 60 27
14 33 13 27 -9 -3 -13 0 -18 8 -15 7 3 11 14 8 25 -4 14 -14 19 -43 19 -37 0
-37 -1 -44 -46z"/>
<path d="M257 155 c66 -138 76 -154 96 -155 5 0 0 12 -11 28 -11 15 -32 50
-47 77 -28 51 -56 88 -38 50z"/>
<path d="M656 155 c-3 -8 -1 -15 5 -15 6 0 7 -5 3 -11 -4 -7 7 -4 25 7 30 18
41 34 22 34 -5 0 -12 -8 -16 -17 -6 -17 -7 -17 -20 0 -11 15 -13 16 -19 2z"/>
<path d="M1230 150 c-16 -12 -27 -15 -31 -8 -4 5 -6 -1 -6 -14 l0 -25 21 22
c12 12 29 24 37 27 8 3 12 8 9 11 -3 3 -16 -3 -30 -13z"/>
<path d="M698 121 c-19 -19 -25 -46 -8 -36 6 4 8 11 5 16 -4 5 3 9 14 9 12 0
21 7 21 15 0 19 -11 18 -32 -4z"/>
<path d="M2540 120 c0 -16 7 -20 35 -20 28 0 35 4 35 20 0 11 -5 20 -11 20 -5
0 -7 -4 -4 -10 3 -5 1 -10 -4 -10 -6 0 -11 5 -11 10 0 6 -9 10 -20 10 -13 0
-20 -7 -20 -20z"/>
<path d="M559 93 c-13 -16 -23 -31 -21 -35 1 -5 -2 -8 -7 -8 -5 0 -11 -6 -14
-14 -4 -10 0 -12 14 -9 11 3 21 -1 25 -11 9 -23 21 -20 30 7 l7 22 10 -22 c6
-13 18 -23 29 -23 22 0 23 13 2 45 -9 14 -14 36 -12 50 4 20 1 25 -17 25 -12
0 -32 -12 -46 -27z"/>
<path d="M2533 76 c4 -12 67 -30 75 -21 4 3 0 10 -7 14 -11 7 -11 9 0 14 8 3
-5 4 -29 4 -23 -1 -41 -6 -39 -11z"/>
<path d="M2540 33 c0 -5 20 -9 45 -10 25 -1 45 3 45 8 0 5 -20 9 -45 9 -25 0
-45 -3 -45 -7z"/>
<path d="M1884 18 c9 -5 33 -9 53 -10 53 -1 63 1 63 10 0 4 -30 8 -66 8 -42 0
-60 -2 -50 -8z"/>
</g>
</svg>
