<?xml version="1.0" standalone="no"?>
<!DOCTYPE svg PUBLIC "-//W3C//DTD SVG 20010904//EN"
 "http://www.w3.org/TR/2001/REC-SVG-20010904/DTD/svg10.dtd">
<svg version="1.0" xmlns="http://www.w3.org/2000/svg"
 width="900.000000pt" height="900.000000pt" viewBox="0 0 900.000000 900.000000"
 preserveAspectRatio="xMidYMid meet">
<metadata>
Created by potrace 1.10, written by Peter Selinger 2001-2011
</metadata>
<g transform="translate(0.000000,900.000000) scale(0.100000,-0.100000)"
fill="#984cd6" stroke="none">
<path d="M3947 8593 c-5 -4 -29 -9 -55 -10 -27 -2 -52 -10 -58 -18 -6 -8 -18
-15 -27 -15 -45 0 -187 -70 -187 -92 0 -14 28 -9 34 7 3 10 19 15 43 15 21 0
49 6 64 13 14 8 47 16 75 20 27 3 63 13 79 21 33 17 61 21 69 8 3 -5 28 -6 56
-2 43 6 53 4 61 -12 12 -21 39 -24 39 -4 0 10 13 16 38 18 52 4 41 23 -16 25
-54 3 -158 18 -187 27 -11 4 -24 4 -28 -1z"/>
<path d="M4770 8560 c-8 -5 -29 -10 -45 -10 -17 0 -39 -6 -50 -14 -11 -7 -40
-16 -65 -20 -25 -4 -55 -16 -67 -28 -23 -22 -22 -22 -137 2 -27 5 -51 8 -54 5
-8 -8 26 -35 45 -35 28 0 63 -11 63 -20 0 -9 -97 -36 -120 -33 -8 1 -32 -3
-53 -9 -29 -9 -43 -8 -62 2 -19 10 -27 11 -39 1 -10 -8 -29 -11 -53 -6 -37 6
-38 5 -58 -37 -11 -24 -21 -46 -23 -49 -1 -4 7 -9 18 -12 17 -4 20 -11 15 -26
-6 -20 -5 -20 32 -5 21 9 42 20 47 25 6 5 20 9 32 9 12 0 37 13 55 30 31 27
41 30 105 30 46 0 77 5 90 15 10 8 28 15 39 15 11 0 38 10 60 21 127 69 193
99 217 99 15 0 29 4 32 8 6 10 144 -5 168 -18 10 -6 27 -10 39 -10 11 0 28 -9
37 -20 12 -13 21 -17 31 -11 10 7 4 15 -25 35 -21 14 -47 26 -56 26 -10 0 -18
7 -18 15 0 8 -9 19 -19 25 -25 13 -161 13 -181 0z"/>
<path d="M4217 8520 c-69 -13 -68 -30 1 -30 34 0 62 2 62 4 0 12 -13 36 -19
35 -3 -1 -23 -5 -44 -9z"/>
<path d="M4872 8372 c-46 -31 -45 -42 3 -42 18 0 39 -7 46 -16 15 -19 89 -15
114 6 14 12 13 16 -6 37 -13 12 -30 23 -40 23 -10 0 -21 5 -24 10 -11 18 -49
10 -93 -18z"/>
<path d="M3615 8380 c-4 -6 -14 -10 -23 -9 -26 4 -128 -29 -141 -45 -7 -8 -34
-20 -62 -27 -30 -8 -55 -21 -64 -35 -9 -13 -30 -26 -50 -30 -21 -4 -35 -12
-35 -20 0 -8 -19 -23 -42 -33 -62 -26 -157 -123 -204 -206 -9 -16 -22 -33 -28
-37 -6 -4 -7 -10 -4 -13 4 -4 17 2 29 14 12 11 41 33 63 48 23 16 58 44 79 63
39 35 62 49 149 89 26 12 50 26 53 32 4 5 16 9 28 9 11 0 35 13 52 29 20 20
44 31 72 35 23 3 51 10 62 15 11 6 34 11 50 11 21 0 39 8 53 25 12 14 32 25
44 25 16 0 22 5 18 14 -3 8 7 18 25 26 17 7 31 16 31 21 0 13 -147 11 -155 -1z"/>
<path d="M3890 8375 c0 -27 38 -38 87 -23 80 23 75 38 -11 38 -60 0 -76 -3
-76 -15z"/>
<path d="M4550 8315 c-14 -8 -36 -14 -49 -15 -14 0 -32 -7 -42 -16 -10 -9 -35
-17 -56 -19 -41 -2 -144 -52 -220 -107 -26 -19 -56 -37 -65 -41 -10 -3 -18
-11 -18 -17 0 -15 57 -12 63 3 3 7 28 19 57 27 28 8 53 18 56 22 3 4 27 8 55
8 50 0 58 6 37 29 -11 11 -4 12 38 7 45 -6 53 -4 74 19 13 14 33 25 45 25 11
0 26 5 32 11 7 7 22 9 40 4 45 -12 141 -15 253 -8 104 6 105 6 70 21 -19 8
-37 17 -40 22 -3 4 -56 7 -118 8 -89 0 -118 4 -131 16 -22 20 -48 20 -81 1z"/>
<path d="M5275 8280 c-4 -6 -3 -16 3 -22 6 -6 12 -6 17 2 4 6 3 16 -3 22 -6 6
-12 6 -17 -2z"/>
<path d="M3625 8221 c-6 -11 9 -23 19 -14 9 9 7 23 -3 23 -6 0 -12 -4 -16 -9z"/>
<path d="M3875 8169 c-4 -6 -5 -13 -2 -16 7 -7 27 6 27 18 0 12 -17 12 -25 -2z"/>
<path d="M4560 8171 c-12 -9 -12 -11 2 -16 23 -9 83 -2 83 10 0 13 -66 18 -85
6z"/>
<path d="M4807 8166 c-9 -7 -44 -16 -76 -20 -38 -4 -61 -12 -65 -21 -3 -8 -13
-15 -22 -15 -13 0 -14 -3 -5 -14 17 -21 -6 -34 -72 -42 -69 -8 -75 -24 -9 -25
26 0 56 -4 67 -9 19 -9 19 -9 -2 -16 -13 -3 -23 -10 -23 -15 0 -14 40 -11 45
4 3 6 18 12 34 13 44 2 140 45 147 67 5 16 8 17 22 4 10 -8 40 -17 67 -20 28
-3 62 -8 76 -12 21 -5 32 0 57 25 42 42 40 56 -8 64 -23 3 -49 11 -58 17 -14
9 -27 7 -59 -10 -23 -11 -44 -25 -48 -31 -15 -24 -25 -8 -19 30 6 35 4 40 -12
40 -11 0 -27 -7 -37 -14z"/>
<path d="M3675 8135 c-19 -15 -19 -15 10 -13 17 2 29 7 28 13 -3 16 -18 16
-38 0z"/>
<path d="M3619 8104 c-11 -14 -10 -16 9 -12 13 1 23 7 23 13 1 17 -17 16 -32
-1z"/>
<path d="M4365 8090 c-3 -5 3 -10 15 -10 12 0 18 5 15 10 -3 6 -10 10 -15 10
-5 0 -12 -4 -15 -10z"/>
<path d="M4163 8050 c-22 -22 -53 -44 -69 -51 -27 -10 -27 -12 -9 -19 11 -5
53 -9 94 -9 57 -1 79 3 93 16 13 11 45 19 96 24 l77 6 -95 3 c-52 1 -108 5
-124 9 -31 6 -41 25 -15 28 71 9 92 15 78 24 -8 5 -30 9 -50 9 -29 0 -45 -8
-76 -40z"/>
<path d="M3362 8059 c-18 -5 -30 -14 -27 -19 11 -17 50 -11 63 10 13 22 12 22
-36 9z"/>
<path d="M3270 8012 c-35 -16 -132 -84 -187 -129 -32 -26 -25 -42 9 -19 12 9
30 16 40 16 10 0 18 4 18 9 0 5 13 13 28 19 16 5 46 26 68 46 21 20 47 39 57
42 9 3 17 12 17 20 0 17 -6 17 -50 -4z"/>
<path d="M3942 8023 c-19 -8 -4 -23 24 -23 16 0 24 5 22 13 -5 13 -26 18 -46
10z"/>
<path d="M4870 8020 c0 -5 11 -10 24 -10 14 0 28 5 31 10 4 6 -7 10 -24 10
-17 0 -31 -4 -31 -10z"/>
<path d="M5095 8020 c8 -13 35 -13 55 0 11 7 5 10 -23 10 -23 0 -36 -4 -32
-10z"/>
<path d="M3520 7986 c-30 -12 -65 -27 -77 -34 -12 -6 -29 -12 -38 -12 -8 0
-18 -6 -21 -14 -3 -8 -19 -19 -35 -25 -19 -7 -29 -17 -29 -30 0 -12 5 -21 10
-21 13 0 50 37 50 51 0 6 8 8 19 4 20 -6 133 44 146 65 3 5 15 10 26 10 19 0
26 15 12 23 -5 2 -33 -6 -63 -17z"/>
<path d="M3991 7981 c-8 -5 -36 -7 -61 -4 -39 5 -50 2 -67 -16 -12 -13 -26
-19 -36 -15 -10 3 -20 -2 -27 -15 -10 -19 -20 -21 -114 -21 -80 0 -106 -3
-116 -15 -11 -13 -5 -15 47 -15 38 0 67 -6 82 -16 20 -14 31 -15 75 -6 28 6
58 11 66 10 8 0 43 2 77 6 59 8 63 7 87 -19 22 -24 31 -26 63 -21 21 4 69 9
106 12 79 7 84 22 11 40 -27 6 -75 24 -107 39 -47 22 -57 30 -52 46 7 21 -10
25 -34 10z"/>
<path d="M4920 7950 c0 -6 16 -10 35 -10 36 0 48 -15 18 -23 -10 -3 -58 -5
-108 -6 -49 0 -102 -6 -117 -12 -25 -10 -65 -9 -225 7 -67 6 -82 -4 -36 -25
26 -12 27 -13 9 -26 -14 -11 -39 -13 -96 -8 -49 4 -84 2 -96 -5 -16 -9 -9 -11
37 -12 30 0 64 -6 74 -14 18 -13 18 -14 -5 -26 -13 -7 -41 -10 -64 -8 -23 3
-50 1 -61 -4 -12 -5 43 -7 133 -5 119 3 152 1 152 -9 0 -24 23 -27 41 -6 15
19 21 21 44 12 20 -8 31 -7 42 2 8 6 41 15 74 19 41 5 70 15 93 33 19 14 38
26 42 26 4 0 15 7 25 16 10 9 25 14 34 10 14 -5 14 -8 -2 -30 -22 -30 -91 -76
-114 -76 -10 0 -21 -9 -24 -20 -3 -11 -10 -20 -14 -20 -5 0 -30 -22 -57 -50
-33 -34 -57 -50 -74 -50 -14 0 -42 -14 -63 -31 -30 -25 -36 -35 -31 -55 5 -18
2 -24 -10 -24 -9 0 -16 -7 -16 -15 0 -13 4 -14 20 -5 11 6 20 17 20 24 0 8 11
21 25 30 14 9 25 25 25 35 0 24 28 35 47 20 20 -18 108 28 124 64 10 24 30 45
98 100 24 19 47 22 56 6 7 -11 64 -3 80 12 5 5 22 9 37 9 23 0 28 4 28 25 0
20 5 25 24 25 14 0 28 -4 31 -10 3 -5 23 -10 44 -10 22 0 44 -6 51 -15 7 -8
20 -15 30 -15 10 0 23 -7 30 -15 7 -8 19 -15 27 -15 7 0 16 -7 19 -15 4 -8 10
-15 15 -15 15 0 -6 31 -56 83 -25 26 -54 47 -64 47 -10 0 -26 9 -35 19 -10 11
-37 23 -59 26 -23 4 -55 14 -71 22 -33 17 -186 28 -186 13z"/>
<path d="M4215 7930 c-8 -12 -20 -10 113 -17 71 -3 112 -2 112 5 0 5 -10 12
-22 16 -38 10 -196 7 -203 -4z"/>
<path d="M3211 7893 c-1 -7 -14 -13 -30 -13 -16 0 -31 -6 -35 -15 -3 -8 -12
-15 -21 -15 -8 0 -15 -7 -15 -15 0 -8 6 -15 13 -15 6 0 22 -3 33 -6 17 -4 26
2 44 30 12 20 19 42 17 49 -4 9 -6 9 -6 0z"/>
<path d="M2886 7835 c-11 -19 -16 -38 -13 -41 4 -4 10 2 14 12 3 10 12 23 20
27 14 9 18 37 5 37 -4 0 -16 -16 -26 -35z"/>
<path d="M3020 7830 c0 -5 9 -10 20 -10 11 0 20 5 20 10 0 6 -9 10 -20 10 -11
0 -20 -4 -20 -10z"/>
<path d="M3433 7819 c-12 -4 -24 -12 -27 -18 -3 -5 -19 -12 -35 -16 -25 -5
-29 -11 -29 -41 0 -34 1 -34 43 -34 24 0 47 -5 51 -11 3 -6 16 -8 27 -5 12 3
27 1 33 -5 13 -11 122 -7 244 8 56 7 65 11 68 30 3 18 -3 22 -38 28 -42 7 -63
31 -41 45 9 5 4 10 -14 14 -16 4 -33 2 -41 -5 -11 -9 -18 -8 -30 1 -17 15
-178 22 -211 9z m185 -53 c3 -16 0 -18 -21 -12 -19 4 -29 1 -35 -10 -7 -13
-19 -16 -56 -12 -54 6 -61 11 -52 34 5 13 15 15 50 10 28 -5 47 -3 51 4 11 18
59 7 63 -14z"/>
<path d="M2996 7813 c-11 -11 -6 -23 9 -23 20 0 19 -26 0 -34 -13 -4 -14 -10
-5 -26 9 -16 8 -20 -4 -20 -15 0 -36 -29 -36 -49 0 -20 23 -11 74 28 90 68
109 88 96 96 -8 5 -16 1 -21 -7 -5 -9 -20 -19 -34 -22 -14 -4 -25 -11 -25 -16
0 -6 -7 -10 -15 -10 -19 0 -19 20 0 34 12 9 11 14 -9 33 -13 12 -26 20 -30 16z"/>
<path d="M2810 7743 c-38 -45 -99 -114 -145 -163 -18 -19 -36 -45 -39 -57 -4
-13 -11 -23 -16 -23 -11 0 -35 -37 -45 -67 -5 -17 -2 -23 9 -23 9 0 16 8 16
19 0 10 7 24 15 31 8 7 15 16 15 21 0 12 38 49 50 49 6 0 10 8 10 17 0 17 93
113 109 113 5 0 12 11 15 25 4 14 12 25 20 25 20 0 49 37 43 55 -10 23 -22 18
-57 -22z"/>
<path d="M3883 7743 c9 -2 25 -2 35 0 9 3 1 5 -18 5 -19 0 -27 -2 -17 -5z"/>
<path d="M3203 7695 c-17 -18 -52 -47 -76 -62 -68 -42 -134 -133 -97 -133 6 0
28 17 49 38 21 20 54 48 74 62 21 14 37 34 37 45 1 11 14 31 30 45 29 23 38
40 22 40 -4 0 -21 -16 -39 -35z"/>
<path d="M5300 7712 c0 -14 23 -32 41 -32 26 0 33 -19 15 -39 -16 -17 -16 -21
2 -52 10 -19 28 -35 40 -37 34 -5 40 -34 50 -252 4 -80 12 -154 19 -165 6 -11
13 -45 15 -75 3 -54 3 -55 -27 -60 -51 -9 -151 -77 -219 -151 -63 -68 -82
-123 -64 -183 7 -20 23 -45 37 -55 26 -17 92 -38 141 -43 24 -3 25 -7 27 -68
1 -36 4 -83 8 -106 5 -27 2 -53 -9 -78 -9 -21 -16 -48 -16 -60 0 -12 -6 -31
-14 -42 -8 -12 -25 -56 -37 -100 -37 -137 -44 -159 -52 -171 -13 -21 -37 -122
-37 -157 0 -19 -7 -39 -15 -46 -8 -7 -15 -18 -15 -25 0 -8 -12 -37 -26 -66
-25 -50 -26 -54 -12 -98 21 -69 42 -61 50 21 7 80 14 94 34 77 12 -10 18 -8
30 7 21 27 44 80 44 103 0 10 9 21 20 24 16 4 20 14 20 43 0 30 -3 35 -12 26
-27 -27 -40 -14 -33 31 4 23 11 45 16 48 13 8 49 80 49 97 0 10 7 12 23 9 13
-4 31 1 47 13 25 19 24 28 -9 80 -6 8 -18 32 -27 53 -15 33 -15 40 -3 48 14
10 69 7 99 -5 8 -3 22 -1 30 4 12 8 6 17 -32 51 -28 24 -48 50 -48 61 0 29 36
57 63 50 21 -5 21 -4 5 15 -10 11 -18 24 -18 30 0 6 -11 18 -25 27 -38 25 -50
54 -34 83 10 19 10 31 1 55 -10 28 -9 33 8 45 11 8 20 22 20 31 0 29 -60 142
-75 142 -7 0 -26 5 -41 10 l-27 11 23 24 c13 14 28 25 34 25 6 0 28 12 49 26
61 41 105 8 73 -55 -9 -17 -16 -38 -16 -48 1 -14 7 -10 32 16 28 32 30 38 25
88 -3 30 -2 65 3 76 27 72 34 109 20 117 -9 6 -15 36 -17 97 -6 159 -10 248
-12 256 0 4 -10 7 -21 7 -13 0 -20 7 -20 19 0 10 -7 24 -15 31 -8 7 -15 20
-15 30 0 9 -12 30 -26 46 -16 16 -22 30 -15 32 22 7 11 33 -19 44 -17 5 -35
19 -41 29 -10 19 -69 28 -69 11z m24 -984 c33 -14 40 -39 26 -84 -12 -36 -13
-36 -54 -30 -50 8 -62 19 -41 36 8 7 15 27 15 45 0 47 10 54 54 33z"/>
<path d="M4170 7685 c0 -13 15 -15 100 -13 134 4 135 22 3 26 -88 2 -103 0
-103 -13z"/>
<path d="M3263 7652 c-38 -42 -41 -62 -14 -86 17 -16 20 -15 47 21 15 21 33
41 38 45 18 13 36 9 36 -7 0 -8 -4 -15 -10 -15 -5 0 -10 -7 -10 -15 0 -18 14
-19 39 -3 24 15 51 4 51 -22 0 -21 7 -24 50 -20 40 3 48 14 15 20 -20 3 -34
14 -43 33 -7 15 -21 27 -31 27 -10 0 -24 7 -31 15 -7 8 -20 15 -30 15 -10 0
-23 7 -30 15 -20 24 -42 17 -77 -23z"/>
<path d="M3810 7674 c-89 -7 -97 -10 -96 -41 0 -16 -3 -38 -7 -50 -5 -14 -4
-23 2 -23 12 0 38 25 43 42 3 9 54 11 196 10 163 -2 192 0 192 12 0 10 -16 17
-47 22 -27 3 -54 11 -61 17 -14 11 -132 17 -222 11z"/>
<path d="M5037 7647 c-3 -7 -3 -25 0 -40 4 -20 1 -27 -11 -27 -8 0 -33 -9 -55
-21 -39 -20 -39 -21 -38 -74 1 -44 -3 -59 -21 -75 -12 -12 -22 -24 -22 -29 0
-17 -71 -82 -104 -96 -19 -8 -37 -19 -41 -25 -3 -5 -17 -10 -30 -10 -29 0 -41
-16 -19 -24 45 -17 91 5 176 83 32 30 68 61 78 68 11 8 20 26 20 40 0 36 50
95 104 121 57 29 63 56 10 46 l-35 -6 6 35 c7 34 -8 61 -18 34z"/>
<path d="M2903 7633 c-18 -7 -16 -23 2 -23 8 0 15 7 15 15 0 8 -1 15 -2 14 -2
0 -9 -3 -15 -6z"/>
<path d="M4343 7633 c-36 -7 -27 -20 14 -19 20 1 38 7 41 14 4 12 -11 13 -55
5z"/>
<path d="M4404 7579 c-16 -17 -49 -44 -74 -61 -38 -26 -60 -33 -114 -37 -4 -1
-6 -8 -3 -15 10 -24 -54 -57 -94 -50 -28 6 -32 4 -21 -7 6 -7 12 -21 12 -31 0
-15 8 -18 44 -18 47 0 39 -4 271 154 105 72 117 96 46 96 -29 0 -44 -7 -67
-31z"/>
<path d="M4255 7570 c-4 -6 5 -10 19 -10 14 0 26 5 26 10 0 6 -9 10 -19 10
-11 0 -23 -4 -26 -10z"/>
<path d="M5275 7571 c-6 -11 9 -23 19 -14 9 9 7 23 -3 23 -6 0 -12 -4 -16 -9z"/>
<path d="M3337 7533 c-12 -11 -8 -31 7 -36 9 -3 21 4 30 19 16 23 16 24 -7 24
-13 0 -27 -3 -30 -7z"/>
<path d="M4882 7518 c-7 -7 -12 -20 -12 -30 0 -10 -20 -39 -45 -65 -49 -51
-50 -53 -34 -53 20 0 131 118 127 136 -4 22 -20 28 -36 12z"/>
<path d="M3511 7497 c-6 -14 -5 -27 3 -37 25 -30 39 -79 27 -94 -9 -10 -8 -16
4 -26 13 -11 13 -15 0 -40 -8 -16 -20 -30 -27 -32 -10 -4 -10 -8 -1 -20 15
-17 7 -28 -19 -28 -13 0 -18 -7 -18 -26 0 -23 2 -25 15 -14 13 10 19 9 35 -5
20 -18 21 -18 35 1 8 10 15 32 15 47 0 15 9 45 20 66 25 51 15 125 -23 171
-15 17 -27 35 -27 40 0 4 -7 11 -15 14 -10 4 -19 -2 -24 -17z"/>
<path d="M3663 7507 c-3 -5 5 -20 18 -33 20 -21 21 -28 11 -45 -7 -11 -10 -24
-7 -29 9 -15 58 1 82 27 21 22 63 30 131 24 12 -1 22 4 22 11 0 21 -245 64
-257 45z"/>
<path d="M5244 7495 c-4 -10 -20 -15 -47 -15 -27 0 -50 -8 -73 -25 -18 -14
-42 -25 -53 -25 -11 0 -28 -12 -38 -27 -49 -72 -109 -120 -233 -186 -43 -23
-144 -34 -163 -18 -11 8 -22 7 -45 -5 -18 -8 -75 -24 -128 -35 -53 -10 -100
-22 -105 -25 -17 -10 -9 -22 21 -27 32 -7 40 -31 14 -41 -9 -4 -15 -9 -12 -11
6 -7 109 20 137 34 11 6 49 11 85 11 60 0 93 9 166 45 14 7 55 22 92 34 37 13
70 26 73 31 7 11 65 40 80 40 7 0 18 6 24 14 6 7 25 16 41 20 20 3 34 14 40
30 5 13 14 27 19 31 6 3 11 13 11 20 0 20 81 94 103 95 11 0 17 8 17 25 0 27
-17 34 -26 10z"/>
<path d="M3277 7474 c-3 -3 -3 -12 0 -19 2 -8 5 -29 6 -47 1 -22 7 -33 17 -33
8 0 15 8 14 18 0 9 -1 33 -2 52 -2 32 -18 46 -35 29z"/>
<path d="M4640 7470 c0 -5 7 -10 15 -10 8 0 15 5 15 10 0 6 -7 10 -15 10 -8 0
-15 -4 -15 -10z"/>
<path d="M3170 7439 c0 -11 5 -17 10 -14 6 3 10 13 10 21 0 8 -4 14 -10 14 -5
0 -10 -9 -10 -21z"/>
<path d="M4430 7451 c0 -5 -8 -12 -18 -16 -20 -6 -45 -49 -35 -59 4 -3 14 1
24 10 27 25 33 -1 8 -36 -13 -16 -29 -30 -36 -30 -8 0 -27 -10 -44 -22 -26
-19 -42 -23 -107 -22 -42 1 -89 6 -104 12 -17 7 -29 8 -33 2 -9 -15 -59 -12
-81 5 -10 8 -26 15 -35 15 -9 0 -34 12 -55 26 -30 21 -51 26 -103 28 -63 1
-66 0 -79 -28 -8 -16 -22 -31 -33 -33 -10 -3 -22 -18 -28 -33 -8 -25 -5 -33
26 -69 19 -23 41 -41 50 -41 11 0 13 -5 8 -17 -9 -22 -9 -25 5 -88 7 -27 14
-60 16 -72 6 -31 18 -29 34 5 25 49 63 81 95 82 33 0 135 80 135 106 0 16 -61
44 -96 44 -13 0 -24 4 -24 9 0 5 -10 12 -22 15 -32 8 -117 86 -95 86 10 0 25
-4 35 -9 143 -72 253 -121 275 -121 31 0 34 7 10 26 -16 12 -13 13 23 14 29 0
44 -5 48 -16 4 -12 14 -14 38 -9 72 14 118 30 118 42 0 7 16 15 35 19 23 4 49
22 80 55 50 53 51 69 4 69 -34 0 -38 14 -9 30 28 15 25 30 -5 30 -14 0 -25 -4
-25 -9z m-646 -198 c0 -16 5 -23 18 -23 10 0 18 -4 18 -10 0 -5 9 -19 20 -30
22 -22 19 -40 -6 -40 -18 0 -94 69 -104 95 -11 28 -3 37 28 33 21 -2 27 -8 26
-25z"/>
<path d="M5006 7452 c-3 -6 -1 -14 5 -17 15 -10 25 3 12 16 -7 7 -13 7 -17 1z"/>
<path d="M5280 7450 c-12 -7 -12 -12 -2 -22 15 -15 15 -28 0 -28 -21 -1 -81
-57 -69 -64 23 -15 121 69 121 103 0 23 -24 28 -50 11z"/>
<path d="M2748 7384 c-15 -33 -15 -40 -1 -75 18 -46 24 -48 39 -14 9 19 9 36
-3 75 -8 27 -15 50 -17 50 -1 0 -9 -16 -18 -36z"/>
<path d="M2515 7346 c-14 -30 -35 -66 -46 -80 -27 -35 -20 -41 23 -20 31 14
36 23 45 68 6 28 13 59 18 69 4 10 3 17 -4 17 -6 0 -22 -24 -36 -54z"/>
<path d="M2640 7388 c0 -6 -10 -22 -22 -35 -17 -18 -19 -26 -10 -35 9 -9 12
-9 12 3 0 8 14 25 30 37 35 26 39 42 10 42 -11 0 -20 -5 -20 -12z"/>
<path d="M2990 7385 c0 -9 5 -15 11 -13 6 2 11 8 11 13 0 5 -5 11 -11 13 -6 2
-11 -4 -11 -13z"/>
<path d="M3971 7366 c13 -14 27 -22 32 -19 10 6 -27 43 -44 43 -6 0 -1 -11 12
-24z"/>
<path d="M3365 7340 c-8 -14 3 -30 21 -30 8 0 14 9 14 20 0 21 -24 28 -35 10z"/>
<path d="M3292 7329 c2 -6 8 -10 13 -10 5 0 11 4 13 10 2 6 -4 11 -13 11 -9 0
-15 -5 -13 -11z"/>
<path d="M4025 7330 c-8 -12 20 -24 35 -15 6 3 8 11 5 16 -8 12 -32 12 -40 -1z"/>
<path d="M3271 7260 c-1 -18 18 -40 34 -40 5 0 3 6 -6 13 -9 7 -18 19 -22 27
-5 13 -6 13 -6 0z"/>
<path d="M2773 7223 c-7 -16 -15 -41 -19 -57 -4 -16 -13 -41 -20 -55 -15 -28
-19 -71 -6 -71 9 0 42 79 42 101 0 8 7 24 15 35 15 20 21 74 7 74 -4 0 -12
-12 -19 -27z"/>
<path d="M2664 7185 c-3 -17 -12 -37 -20 -45 -7 -8 -15 -28 -19 -45 -4 -16
-12 -40 -18 -53 -16 -33 4 -47 31 -22 14 13 22 33 22 52 0 17 6 39 14 47 22
26 27 56 12 77 -14 18 -15 18 -22 -11z"/>
<path d="M4191 7186 c-7 -8 -36 -26 -66 -42 -54 -27 -64 -37 -46 -48 8 -5 207
59 220 71 10 8 -16 21 -55 27 -30 4 -45 2 -53 -8z"/>
<path d="M3576 7165 c-4 -14 -4 -30 -1 -36 4 -5 -3 -22 -14 -38 -12 -16 -21
-39 -21 -50 0 -12 -7 -24 -15 -27 -18 -7 -20 -50 -3 -60 11 -7 41 22 51 49 4
9 7 9 18 0 7 -7 15 -13 19 -13 3 0 5 44 5 97 0 82 -3 98 -16 101 -11 2 -19 -6
-23 -23z"/>
<path d="M3296 7138 c-3 -7 -7 -25 -10 -40 -4 -16 -13 -28 -21 -28 -23 0 -26
-17 -6 -41 16 -19 21 -21 34 -11 10 9 17 10 22 2 10 -17 35 -11 35 8 0 10 -7
27 -15 38 -8 10 -15 22 -15 27 0 14 51 7 56 -8 4 -8 17 -15 31 -15 37 0 28 42
-12 53 -16 5 -38 13 -47 18 -25 13 -48 11 -52 -3z"/>
<path d="M2977 7113 c-5 -4 -31 -54 -57 -111 -27 -56 -56 -105 -64 -108 -9 -3
-16 -12 -16 -19 0 -12 -29 -45 -66 -76 -10 -9 -32 -32 -49 -53 -16 -20 -45
-54 -62 -74 -18 -20 -28 -39 -22 -41 16 -5 62 32 77 62 7 15 35 45 62 68 28
23 50 48 50 55 0 7 12 22 28 33 46 35 63 55 57 69 -7 18 10 49 47 88 25 26 29
38 26 74 -2 23 -7 38 -11 33z"/>
<path d="M3080 7105 c-14 -17 -5 -48 13 -43 14 5 23 58 9 58 -5 0 -15 -7 -22
-15z"/>
<path d="M2440 7094 c-24 -13 -24 -14 -4 -14 12 0 24 7 28 15 3 8 4 15 3 14
-1 -1 -13 -7 -27 -15z"/>
<path d="M2845 7032 c-3 -18 -11 -32 -16 -32 -5 0 -9 -7 -9 -16 0 -10 9 -5 26
15 19 23 23 35 16 47 -8 15 -11 12 -17 -14z"/>
<path d="M3476 7043 c-11 -11 -6 -23 9 -23 8 0 15 4 15 9 0 13 -16 22 -24 14z"/>
<path d="M4853 7032 c-8 -14 -13 -15 -26 -3 -9 7 -22 11 -29 9 -8 -3 -2 -12
16 -23 22 -15 29 -16 36 -5 6 9 12 5 24 -17 21 -42 76 -59 103 -32 8 8 13 8
17 0 10 -16 26 -13 26 4 0 8 -6 15 -14 15 -8 0 -17 9 -21 19 -4 13 -19 22 -48
26 -23 4 -49 11 -58 15 -10 6 -19 3 -26 -8z"/>
<path d="M3057 7034 c-10 -11 -9 -52 2 -59 13 -8 24 32 14 50 -5 9 -12 12 -16
9z"/>
<path d="M2370 7006 c0 -32 13 -46 41 -46 36 0 37 12 3 39 -31 25 -44 26 -44
7z"/>
<path d="M3160 6980 c0 -11 -4 -20 -10 -20 -5 0 -10 -7 -10 -15 0 -9 -11 -20
-25 -25 -33 -13 -43 -39 -21 -56 11 -8 16 -20 12 -32 -4 -11 -1 -24 8 -31 11
-9 15 -7 19 9 3 11 13 20 24 20 26 0 48 52 33 81 -9 16 -9 28 -1 46 13 27 7
43 -15 43 -8 0 -14 -9 -14 -20z"/>
<path d="M3689 7000 c-4 -28 -9 -41 -24 -64 -10 -14 -21 -26 -25 -26 -13 0
-18 -23 -10 -45 7 -19 8 -18 20 7 11 23 16 26 32 17 11 -6 17 -17 14 -25 -3
-8 0 -23 6 -33 9 -15 8 -25 -6 -46 -21 -32 -8 -57 19 -35 13 11 15 7 15 -26 0
-22 7 -47 14 -57 12 -16 14 -13 20 27 5 30 3 52 -6 65 -10 17 -10 25 0 41 18
29 15 61 -11 111 -23 46 -56 97 -58 89z"/>
<path d="M3004 6959 c-12 -20 -31 -110 -21 -100 19 19 47 13 47 -9 0 -11 5
-20 10 -20 13 0 13 23 0 36 -8 8 -8 19 0 38 5 15 10 33 10 40 0 16 -37 28 -46
15z"/>
<path d="M3380 6955 c-13 -15 -7 -45 8 -45 11 0 27 19 35 43 8 22 -25 24 -43
2z"/>
<path d="M3477 6944 c-13 -14 -7 -45 16 -77 37 -53 55 -69 66 -62 18 10 13 25
-9 25 -11 0 -20 5 -20 10 0 6 11 10 25 10 36 0 44 28 14 51 -15 11 -28 14 -33
8 -16 -15 -24 -11 -28 13 -3 22 -19 33 -31 22z"/>
<path d="M4538 6934 c-21 -7 -55 -31 -78 -54 -31 -31 -48 -40 -74 -40 -19 0
-38 5 -41 10 -3 6 -10 10 -15 10 -13 0 16 -64 32 -69 7 -2 32 -19 56 -37 36
-27 49 -32 79 -27 35 6 36 5 29 -20 -3 -15 -4 -27 -1 -27 16 0 45 22 45 34 0
7 9 21 20 31 11 10 20 31 20 47 0 26 3 28 38 28 27 0 44 -7 58 -22 51 -57 66
-106 29 -91 -9 3 -21 1 -28 -5 -6 -6 -37 -13 -69 -17 -45 -6 -57 -11 -62 -28
-8 -32 1 -37 61 -37 62 0 123 24 130 51 3 10 15 19 27 21 24 3 34 41 16 63 -7
8 -9 26 -5 43 6 28 4 30 -32 38 l-38 7 40 8 c22 4 52 11 67 15 29 7 31 5 42
-48 5 -21 14 -29 42 -34 53 -10 61 6 30 58 -30 51 -49 61 -183 88 -114 23
-181 24 -235 4z m190 -63 c4 -12 -6 -13 -54 -7 -85 10 -96 28 -15 24 44 -2 66
-7 69 -17z"/>
<path d="M3294 6879 c-7 -12 15 -31 31 -26 6 2 11 11 13 20 4 19 -32 24 -44 6z"/>
<path d="M2305 6850 c-8 -13 4 -32 16 -25 12 8 12 35 0 35 -6 0 -13 -4 -16
-10z"/>
<path d="M2514 6846 c-8 -22 3 -33 18 -18 9 9 9 15 0 24 -9 9 -13 7 -18 -6z"/>
<path d="M2670 6845 c0 -9 6 -12 15 -9 8 4 15 10 15 15 0 5 -7 9 -15 9 -8 0
-15 -7 -15 -15z"/>
<path d="M2630 6814 c0 -9 5 -14 12 -12 18 6 21 28 4 28 -9 0 -16 -7 -16 -16z"/>
<path d="M2467 6780 c-30 -32 -26 -41 15 -33 33 6 52 27 44 48 -8 22 -28 18
-59 -15z"/>
<path d="M3200 6781 c0 -16 7 -34 15 -41 8 -7 15 -21 15 -31 0 -26 12 -29 38
-9 30 24 41 77 18 86 -10 4 -22 0 -29 -11 -12 -15 -14 -15 -25 9 -15 34 -32
33 -32 -3z"/>
<path d="M2575 6791 c-3 -5 -1 -12 5 -16 12 -7 30 2 30 16 0 12 -27 12 -35 0z"/>
<path d="M2888 6786 c-18 -13 -25 -46 -10 -46 14 0 53 46 45 53 -9 10 -15 8
-35 -7z"/>
<path d="M2270 6783 c-36 -5 -60 -18 -60 -34 0 -10 104 -4 121 7 10 6 -8 35
-20 32 -3 0 -22 -3 -41 -5z"/>
<path d="M2960 6780 c0 -5 7 -10 15 -10 8 0 15 5 15 10 0 6 -7 10 -15 10 -8 0
-15 -4 -15 -10z"/>
<path d="M3516 6728 c-21 -157 -16 -208 18 -195 14 6 15 11 6 28 -14 26 -3 99
15 99 17 0 25 59 12 88 -18 38 -44 28 -51 -20z"/>
<path d="M2934 6706 c-8 -22 3 -33 18 -18 9 9 9 15 0 24 -9 9 -13 7 -18 -6z"/>
<path d="M3106 6691 c-18 -20 -21 -41 -6 -41 6 0 10 -7 10 -15 0 -20 16 -19
24 1 9 23 7 62 -3 68 -4 3 -16 -3 -25 -13z"/>
<path d="M3290 6663 c0 -41 27 -104 48 -111 17 -5 15 46 -3 78 -8 14 -14 35
-15 48 0 13 -6 22 -15 22 -11 0 -15 -11 -15 -37z"/>
<path d="M2811 6668 c-5 -13 -20 -34 -33 -48 -33 -33 -58 -86 -58 -122 0 -15
-4 -28 -10 -28 -5 0 -10 -9 -10 -20 0 -11 5 -20 10 -20 6 0 10 7 10 14 0 8 11
27 25 42 13 14 34 47 46 73 12 25 31 54 41 64 21 20 21 58 1 65 -7 2 -17 -7
-22 -20z"/>
<path d="M3664 6667 c-8 -22 24 -90 39 -84 18 6 9 59 -13 81 -18 18 -20 18
-26 3z"/>
<path d="M2195 6660 c3 -5 12 -10 20 -10 8 0 17 5 20 10 4 6 -5 10 -20 10 -15
0 -24 -4 -20 -10z"/>
<path d="M3595 6598 c-4 -10 -7 -28 -7 -40 1 -13 1 -56 1 -95 0 -40 4 -73 10
-73 11 0 24 47 16 60 -3 5 -1 29 5 54 8 35 7 54 -4 78 -11 27 -15 30 -21 16z"/>
<path d="M2390 6575 c-6 -8 -22 -17 -33 -21 -33 -10 -77 -55 -76 -78 0 -20 1
-20 9 2 7 17 17 22 43 22 19 0 40 7 47 15 7 8 18 15 24 15 24 0 38 18 31 39
-7 24 -27 27 -45 6z"/>
<path d="M2927 6564 c-15 -20 -16 -24 -3 -24 17 0 40 36 29 43 -5 3 -16 -6
-26 -19z"/>
<path d="M2622 6540 c-12 -16 -22 -36 -22 -44 0 -8 -4 -18 -10 -21 -5 -3 -10
-14 -10 -24 0 -10 -9 -26 -20 -36 -11 -10 -20 -25 -20 -33 0 -9 -9 -34 -20
-57 -19 -39 -19 -75 -1 -75 4 0 16 18 27 40 21 44 26 47 48 25 8 -8 17 -15 19
-15 5 0 18 145 18 193 0 15 6 30 14 34 16 5 21 43 7 43 -5 0 -18 -13 -30 -30z
m-22 -174 c0 -16 -18 -31 -27 -22 -8 8 5 36 17 36 5 0 10 -6 10 -14z"/>
<path d="M3382 6546 c1 -10 8 -17 13 -17 15 1 12 24 -3 29 -9 3 -13 -2 -10
-12z"/>
<path d="M3080 6500 c0 -35 17 -40 29 -7 5 14 4 25 -3 29 -20 14 -26 8 -26
-22z"/>
<path d="M3770 6509 c0 -23 39 -93 47 -85 3 3 -2 15 -11 28 -9 12 -16 32 -16
45 0 12 -4 25 -10 28 -6 3 -10 -4 -10 -16z"/>
<path d="M3709 6503 c-29 -36 -51 -84 -45 -100 5 -12 9 -13 21 -3 13 11 15 3
15 -58 0 -56 4 -73 17 -80 14 -8 15 -14 4 -40 -13 -30 -9 -52 10 -52 5 0 9 8
9 17 0 9 7 25 16 35 15 16 16 26 5 95 -7 43 -15 85 -19 93 -3 8 -4 36 -3 63 3
49 -6 59 -30 30z"/>
<path d="M2983 6490 c-13 -5 -23 -16 -23 -24 0 -24 15 -26 33 -5 9 10 24 19
32 19 8 0 15 5 15 10 0 12 -27 12 -57 0z"/>
<path d="M3350 6481 c-13 -25 -13 -42 1 -18 5 9 17 17 24 17 8 0 15 5 15 10 0
18 -29 11 -40 -9z"/>
<path d="M3519 6498 c0 -2 -2 -14 -3 -28 -10 -93 -29 -231 -37 -261 -5 -20 -9
-46 -9 -57 0 -11 -6 -27 -14 -34 -9 -9 -16 -51 -21 -116 -6 -87 -9 -101 -21
-91 -8 7 -17 9 -20 6 -4 -3 -15 -47 -25 -97 -22 -106 -25 -113 -49 -107 -23 6
-50 -10 -50 -29 0 -11 6 -13 20 -9 18 6 20 2 20 -33 0 -39 0 -40 26 -29 15 7
27 23 31 39 3 15 12 33 19 39 8 6 14 19 14 28 0 9 7 25 15 35 8 11 15 32 15
48 0 15 9 37 20 48 11 11 20 33 20 50 0 17 4 38 9 48 5 9 14 64 19 122 6 58
18 138 26 178 8 40 13 86 9 102 -4 21 -1 31 10 36 23 8 17 108 -6 112 -10 2
-17 2 -18 0z"/>
<path d="M5610 6429 c0 -14 7 -19 30 -19 17 0 30 4 30 9 0 5 -13 14 -30 20
-27 9 -30 8 -30 -10z"/>
<path d="M2694 6406 c-8 -22 0 -69 12 -73 12 -4 23 54 16 76 -5 16 -22 14 -28
-3z"/>
<path d="M2818 6404 c-5 -4 -8 -21 -8 -38 0 -21 3 -27 11 -19 6 6 9 23 7 38
-2 15 -6 23 -10 19z"/>
<path d="M2960 6385 c0 -9 -7 -18 -15 -21 -8 -3 -17 -15 -20 -25 -5 -14 -12
-18 -26 -14 -15 5 -19 1 -19 -20 0 -14 -7 -28 -15 -31 -8 -4 -15 -14 -15 -24
0 -15 8 -17 53 -15 28 2 58 -2 65 -7 9 -8 12 -4 12 16 0 28 -9 33 -28 14 -9
-9 -12 -8 -12 4 0 9 8 19 18 22 38 15 62 32 67 47 3 10 12 20 20 23 19 7 19
46 1 46 -8 0 -18 -9 -21 -20 -3 -11 -13 -20 -21 -20 -8 0 -14 9 -14 20 0 11
-7 20 -15 20 -8 0 -15 -7 -15 -15z"/>
<path d="M2450 6344 c0 -14 4 -23 10 -19 6 3 10 15 10 26 0 10 -4 19 -10 19
-5 0 -10 -12 -10 -26z"/>
<path d="M3300 6346 c0 -7 7 -21 15 -32 15 -19 15 -19 30 0 8 10 12 22 10 26
-8 13 -55 18 -55 6z"/>
<path d="M2387 6308 c-16 -38 -12 -55 14 -63 10 -4 19 -11 19 -16 0 -5 5 -9
10 -9 6 0 10 7 10 15 0 8 -4 15 -10 15 -17 0 -11 37 7 44 14 6 14 9 -5 26 -28
26 -30 26 -45 -12z"/>
<path d="M5590 6301 c0 -11 25 -21 51 -21 23 0 25 15 3 24 -23 9 -54 7 -54 -3z"/>
<path d="M2455 6269 c-4 -6 -5 -13 -2 -16 7 -7 27 6 27 18 0 12 -17 12 -25 -2z"/>
<path d="M2790 6254 c0 -14 4 -23 9 -20 5 3 7 15 4 26 -7 28 -13 25 -13 -6z"/>
<path d="M3648 6253 c-7 -16 -21 -38 -32 -51 -23 -26 -32 -127 -13 -151 16
-18 37 -83 31 -93 -3 -4 4 -13 16 -20 16 -10 20 -23 20 -65 0 -46 3 -53 19
-53 25 0 36 46 23 94 -6 20 -8 44 -5 54 2 10 -2 43 -11 73 -18 63 -22 137 -11
197 6 35 5 42 -9 42 -9 0 -22 -12 -28 -27z"/>
<path d="M2697 6263 c-4 -3 -7 -17 -7 -30 0 -33 24 -24 28 10 3 26 -7 35 -21
20z"/>
<path d="M3387 6254 c-4 -4 2 -13 13 -21 11 -8 17 -20 14 -28 -4 -8 -3 -27 1
-42 11 -45 26 -4 17 48 -7 41 -27 60 -45 43z"/>
<path d="M4857 6233 c-20 -19 6 -105 42 -137 22 -20 47 -19 139 8 77 22 87 15
57 -45 -27 -53 -31 -69 -13 -51 19 19 45 14 66 -13 11 -14 23 -25 26 -25 3 0
6 24 6 53 0 47 4 57 30 80 38 34 41 62 6 53 -16 -4 -37 1 -61 16 -35 20 -42
20 -113 10 -112 -17 -118 -17 -142 23 -22 35 -31 41 -43 28z"/>
<path d="M3014 6213 c-3 -10 -10 -26 -15 -35 -22 -43 -3 -50 35 -14 32 29 35
66 6 66 -11 0 -23 -8 -26 -17z"/>
<path d="M3290 6222 c0 -19 12 -42 22 -42 14 0 5 43 -9 48 -7 2 -13 -1 -13 -6z"/>
<path d="M3350 6200 c0 -32 14 -40 24 -14 10 27 7 44 -9 44 -10 0 -15 -10 -15
-30z"/>
<path d="M2814 6148 c3 -55 22 -98 43 -98 18 0 16 29 -2 36 -11 5 -15 21 -15
60 0 41 -4 54 -15 54 -11 0 -14 -12 -11 -52z"/>
<path d="M2908 6188 c-31 -11 -34 -24 -16 -63 15 -34 30 -31 51 11 30 61 22
73 -35 52z"/>
<path d="M3136 6193 c-12 -12 -6 -33 9 -33 8 0 15 6 15 14 0 17 -14 28 -24 19z"/>
<path d="M5513 6188 c2 -7 10 -13 17 -13 7 0 15 6 18 13 2 7 -5 12 -18 12 -13
0 -20 -5 -17 -12z"/>
<path d="M2577 6183 c-2 -5 -5 -57 -6 -117 -1 -73 -6 -115 -16 -130 -17 -25
-9 -106 10 -106 29 0 34 29 34 193 1 146 -6 190 -22 160z"/>
<path d="M2666 6161 c-4 -6 -3 -18 2 -27 8 -15 10 -14 16 2 8 20 -8 42 -18 25z"/>
<path d="M3266 6163 c-3 -3 -6 -15 -6 -25 0 -10 -7 -21 -15 -24 -8 -4 -15 -11
-15 -16 0 -5 -16 -28 -35 -51 -22 -25 -31 -43 -24 -46 6 -2 21 9 33 24 11 15
36 41 54 57 18 18 32 41 32 54 0 24 -13 38 -24 27z"/>
<path d="M2495 6119 c-9 -17 -14 -38 -10 -47 5 -15 9 -13 25 8 11 14 20 33 20
42 0 31 -19 29 -35 -3z"/>
<path d="M2740 6125 c0 -10 7 -15 18 -13 21 4 19 22 -2 26 -10 2 -16 -3 -16
-13z"/>
<path d="M3740 6088 c0 -29 7 -66 15 -82 8 -15 15 -44 15 -62 0 -24 5 -34 15
-34 8 0 15 -8 15 -18 0 -19 36 -59 45 -50 7 7 -24 68 -35 68 -8 0 -14 33 -28
160 -5 50 -11 66 -24 68 -15 3 -18 -4 -18 -50z"/>
<path d="M1975 6100 c-17 -19 -15 -70 3 -70 7 0 62 48 62 54 0 2 -11 11 -24
19 -22 15 -25 15 -41 -3z"/>
<path d="M3027 6104 c-13 -13 -7 -24 14 -24 11 0 19 5 17 12 -5 14 -22 21 -31
12z"/>
<path d="M2682 6088 c-5 -7 -13 -49 -16 -93 -5 -54 -11 -82 -21 -88 -17 -9
-20 -33 -5 -42 6 -3 14 5 20 19 7 19 17 26 35 26 20 0 25 5 25 23 0 13 3 27 6
30 10 10 12 77 2 83 -4 3 -8 16 -8 30 0 26 -21 32 -38 12z"/>
<path d="M3342 6080 c-10 -16 -10 -24 0 -40 19 -29 25 -25 30 20 4 44 -9 53
-30 20z"/>
<path d="M2776 6071 c-4 -5 -1 -22 5 -38 7 -15 11 -38 10 -50 -3 -28 7 -28 39
-1 l25 20 -22 15 c-13 9 -23 26 -23 39 0 24 -23 33 -34 15z"/>
<path d="M2403 6034 c-13 -20 -23 -50 -23 -68 0 -18 -9 -50 -19 -72 -26 -52
-6 -57 50 -14 l40 32 -3 76 c-2 41 -7 77 -13 78 -5 2 -20 -13 -32 -32z"/>
<path d="M2210 6048 c0 -7 -9 -24 -19 -37 -14 -18 -24 -22 -43 -18 -21 6 -24
11 -20 32 3 19 0 25 -13 25 -15 0 -17 -6 -11 -46 5 -39 3 -48 -18 -67 -18 -17
-22 -29 -19 -54 4 -24 1 -34 -11 -39 -9 -3 -16 -15 -16 -26 0 -17 4 -19 28
-13 47 11 99 100 78 134 -4 6 6 17 21 25 29 14 73 67 73 86 0 15 -30 12 -30
-2z"/>
<path d="M3293 6023 c-3 -10 -20 -35 -36 -56 -29 -38 -30 -67 -2 -67 8 0 20
-12 25 -26 11 -29 33 -28 39 2 1 10 9 26 16 34 16 20 27 80 15 80 -6 0 -15 11
-20 25 -11 29 -28 33 -37 8z"/>
<path d="M1784 6009 c-15 -17 -16 -23 -6 -40 7 -11 10 -24 7 -29 -6 -10 -56
-35 -93 -45 -12 -4 -39 -24 -59 -46 -36 -38 -37 -39 -109 -39 -40 0 -76 -4
-79 -10 -4 -6 32 -9 95 -8 55 0 103 5 106 9 3 5 19 9 36 9 34 0 98 37 98 56 0
7 7 14 15 18 8 3 24 26 36 52 21 43 21 48 6 59 -9 7 -17 17 -17 24 0 17 -15
13 -36 -10z"/>
<path d="M2300 6006 c0 -8 5 -18 10 -21 6 -3 10 3 10 14 0 12 -4 21 -10 21 -5
0 -10 -6 -10 -14z"/>
<path d="M1950 5976 c0 -8 5 -18 10 -21 13 -8 42 14 34 26 -9 15 -44 10 -44
-5z"/>
<path d="M3546 5938 c-3 -13 -8 -41 -11 -63 -4 -22 -10 -44 -13 -50 -15 -22
-34 -134 -33 -188 1 -49 -2 -60 -17 -63 -9 -3 -28 -22 -42 -42 -13 -20 -39
-53 -58 -72 -18 -19 -35 -46 -39 -60 -3 -14 -20 -38 -38 -55 -18 -16 -36 -44
-39 -62 -4 -17 -23 -48 -43 -68 -34 -35 -35 -39 -30 -87 4 -34 13 -55 25 -64
12 -8 21 -30 24 -59 4 -34 12 -51 34 -68 56 -43 72 -12 24 48 -33 42 -39 87
-14 112 11 11 14 26 10 48 -5 24 -2 34 9 39 8 3 15 16 15 29 0 17 11 32 35 48
22 15 35 32 35 46 0 19 83 113 101 113 4 0 10 14 14 30 5 21 14 32 31 36 13 3
24 10 24 15 0 5 6 9 14 9 7 0 21 11 30 25 9 14 23 25 31 25 8 0 19 9 26 21 6
11 30 30 54 40 38 17 44 23 43 49 -1 32 12 53 19 32 3 -7 20 -19 39 -27 43
-18 43 -30 1 -46 -23 -8 -43 -27 -61 -57 -26 -43 -28 -68 -4 -44 16 16 45 15
55 -1 4 -8 20 -20 34 -28 56 -31 99 -62 99 -71 0 -6 11 -24 25 -42 60 -75 85
-88 85 -45 0 12 10 23 26 29 38 15 24 43 -67 131 -43 42 -79 82 -79 88 0 6
-10 21 -22 33 -12 12 -31 40 -43 62 -12 23 -32 46 -45 53 -27 13 -50 51 -43
70 8 21 -7 65 -20 60 -7 -2 -11 -15 -9 -29 2 -16 -3 -28 -12 -31 -12 -5 -16
-21 -16 -65 0 -41 -5 -64 -15 -72 -8 -7 -15 -21 -15 -31 0 -27 -14 -23 -52 15
-36 36 -54 65 -67 111 -5 17 -12 37 -16 46 -4 11 0 18 15 22 19 5 21 12 18 63
-3 59 -23 85 -32 42z"/>
<path d="M2187 5924 c-16 -17 -6 -44 16 -44 33 0 72 29 57 44 -8 8 -15 7 -24
-6 -11 -15 -14 -15 -27 -2 -9 8 -18 11 -22 8z"/>
<path d="M3056 5915 c-3 -8 -12 -15 -20 -15 -7 0 -16 -7 -20 -15 -3 -8 -15
-15 -26 -15 -28 0 -61 -18 -82 -44 -15 -18 -20 -19 -38 -8 -15 9 -26 10 -41 2
-25 -14 -15 -30 19 -30 15 -1 45 -9 67 -20 48 -23 75 -25 75 -5 0 11 -11 15
-40 15 -41 0 -55 16 -22 26 9 3 25 10 34 15 27 14 38 11 38 -11 0 -24 9 -25
36 -6 16 13 17 18 7 35 -17 27 -16 34 2 27 10 -4 15 1 15 14 0 11 5 20 10 20
6 0 10 7 10 15 0 8 -4 15 -9 15 -5 0 -11 -7 -15 -15z"/>
<path d="M4990 5880 c-8 -5 -51 -16 -95 -25 -44 -10 -93 -21 -109 -26 -16 -5
-51 -6 -76 -3 -50 7 -90 -7 -90 -30 0 -22 26 -27 177 -37 90 -5 155 -14 180
-24 28 -12 54 -15 99 -10 60 6 62 7 79 46 18 40 24 93 12 106 -7 6 -15 3 -77
-32 -25 -13 -80 -10 -80 5 0 4 11 11 25 14 14 4 25 11 25 16 0 12 -49 12 -70
0z"/>
<path d="M1910 5835 c0 -9 5 -15 11 -13 6 2 11 8 11 13 0 5 -5 11 -11 13 -6 2
-11 -4 -11 -13z"/>
<path d="M1860 5827 c0 -7 9 -18 20 -25 23 -14 26 -5 6 21 -16 20 -26 22 -26
4z"/>
<path d="M2631 5814 c-6 -14 -8 -31 -4 -37 4 -7 6 -22 4 -34 -1 -13 2 -23 8
-23 6 0 11 9 11 20 0 11 9 29 20 40 28 28 26 60 -3 60 -16 0 -28 -9 -36 -26z"/>
<path d="M2450 5808 c-1 -27 -68 -108 -133 -161 -37 -31 -73 -57 -80 -60 -9
-3 -8 -8 3 -21 13 -16 12 -20 -3 -31 -9 -7 -17 -15 -17 -19 0 -13 61 1 80 19
20 18 21 18 43 -3 13 -12 30 -22 38 -22 24 0 29 -10 16 -31 -17 -27 -2 -34 22
-10 17 17 22 37 25 94 3 40 11 98 20 128 24 85 24 129 1 129 -8 0 -15 -6 -15
-12z"/>
<path d="M1803 5785 c-13 -12 -23 -25 -23 -29 0 -13 31 -5 36 9 4 8 12 15 20
15 8 0 14 7 14 15 0 21 -21 17 -47 -10z"/>
<path d="M2565 5723 c4 -99 10 -141 18 -149 3 -4 18 3 33 15 14 11 30 18 35
15 14 -8 10 -31 -6 -38 -21 -8 -19 -55 5 -111 11 -26 20 -57 20 -70 0 -12 7
-25 15 -29 8 -3 15 -14 15 -24 0 -11 7 -25 15 -32 8 -7 15 -19 15 -26 0 -7 14
-39 30 -69 17 -30 30 -62 30 -70 0 -8 9 -15 20 -15 16 0 20 7 20 33 0 17 9 43
20 57 20 26 27 60 11 60 -5 0 -13 12 -19 28 -15 42 -49 71 -98 83 -25 7 -48
18 -51 26 -8 19 7 123 17 123 5 0 10 -10 12 -22 2 -15 11 -24 26 -26 13 -2 26
-11 29 -20 4 -9 18 -27 31 -40 22 -21 26 -22 40 -8 14 14 14 18 -4 38 -11 13
-25 35 -32 51 -7 16 -19 27 -31 27 -11 0 -27 14 -39 34 -13 23 -33 38 -59 46
-63 21 -81 43 -42 53 13 3 18 10 14 17 -4 7 -16 10 -26 7 -21 -6 -22 -3 -23
68 -1 44 -4 50 -23 53 -22 3 -23 2 -18 -85z"/>
<path d="M5448 5776 c-9 -21 -9 -29 1 -39 10 -9 15 -8 27 8 8 11 13 26 12 34
-5 25 -27 23 -40 -3z"/>
<path d="M2720 5751 c0 -10 -6 -21 -14 -24 -18 -7 -26 -54 -11 -67 16 -13 30
4 38 45 3 17 9 38 12 48 5 12 2 17 -9 17 -9 0 -16 -8 -16 -19z"/>
<path d="M3122 5740 c-7 -11 -17 -20 -24 -20 -6 0 -19 -6 -27 -14 -9 -8 -43
-23 -76 -34 -51 -17 -60 -24 -63 -47 -6 -47 33 -71 64 -40 9 8 27 18 42 21 15
4 41 20 58 36 26 25 32 27 38 13 3 -9 0 -18 -9 -21 -19 -8 -21 -68 -2 -62 6 3
13 14 15 26 2 12 16 32 32 46 36 30 49 73 26 82 -9 3 -16 12 -16 20 0 21 -43
17 -58 -6z m-82 -95 c0 -9 -6 -12 -15 -9 -8 4 -15 10 -15 15 0 5 7 9 15 9 8 0
15 -7 15 -15z"/>
<path d="M1971 5721 c-7 -5 -36 -9 -64 -10 -55 -1 -66 -6 -50 -22 7 -7 18 -6
37 2 37 17 55 0 37 -35 -14 -26 -2 -65 22 -67 71 -9 92 -5 110 17 10 13 26 24
35 24 18 0 82 41 82 53 0 19 -33 18 -51 -2 -15 -16 -32 -21 -70 -21 -60 0 -65
23 -6 28 50 4 47 17 -7 31 -53 13 -57 13 -75 2z"/>
<path d="M5520 5704 c0 -14 4 -23 10 -19 6 3 10 15 10 26 0 10 -4 19 -10 19
-5 0 -10 -12 -10 -26z"/>
<path d="M5574 5668 c-4 -13 -6 -38 -5 -56 1 -18 -3 -40 -10 -49 -11 -13 -9
-18 14 -35 15 -11 27 -26 27 -34 0 -28 40 -104 55 -104 20 0 19 -27 -1 -38
-13 -7 -11 -13 14 -40 19 -20 40 -32 56 -32 31 0 33 11 7 34 -12 11 -20 37
-25 74 -14 134 -19 160 -43 210 -13 29 -28 50 -33 47 -5 -3 -10 5 -12 17 -4
31 -34 35 -44 6z"/>
<path d="M1433 5642 c-3 -7 -4 -15 -2 -17 10 -9 143 11 147 23 6 18 -138 12
-145 -6z"/>
<path d="M4754 5649 c-3 -6 5 -31 18 -57 23 -45 28 -48 104 -74 43 -15 93 -27
111 -27 27 -1 32 3 38 28 3 16 15 37 26 47 30 27 23 34 -35 34 -37 0 -61 6
-77 18 -40 32 -171 53 -185 31z"/>
<path d="M5852 5614 c0 -24 4 -44 9 -44 5 0 8 -13 7 -29 -2 -34 17 -61 43 -61
24 0 24 9 2 26 -15 11 -16 16 -5 33 16 28 15 31 -8 31 -11 0 -20 7 -20 15 0 8
7 15 15 15 22 0 17 12 -14 37 l-28 22 -1 -45z"/>
<path d="M1750 5621 c-14 -14 -35 -32 -45 -38 -18 -11 -16 -13 15 -10 25 1 38
8 45 25 5 12 13 22 17 22 5 0 8 7 8 15 0 21 -11 17 -40 -14z"/>
<path d="M3230 5625 c-13 -16 -7 -45 10 -45 5 0 10 14 10 30 0 34 -3 36 -20
15z"/>
<path d="M2802 5618 c3 -7 13 -15 22 -16 12 -3 17 1 14 10 -3 7 -13 15 -22 16
-12 3 -17 -1 -14 -10z"/>
<path d="M5385 5609 c-4 -6 -19 -7 -36 -4 -25 6 -29 4 -29 -15 0 -19 16 -41
83 -111 19 -21 23 -55 6 -61 -7 -2 10 -35 39 -77 40 -58 52 -85 58 -127 5 -46
13 -61 54 -104 47 -49 90 -66 90 -35 0 8 -9 15 -20 15 -11 0 -23 7 -25 15 -9
27 -15 40 -40 80 -13 22 -24 55 -25 74 0 33 -36 101 -52 101 -5 0 -8 6 -8 14
0 8 -7 16 -15 20 -31 11 -15 27 20 20 19 -3 35 -4 35 -1 0 22 -23 56 -40 62
-12 4 -35 21 -50 38 -23 26 -27 38 -22 69 4 37 -8 52 -23 27z"/>
<path d="M3990 5585 c0 -8 4 -15 9 -15 5 0 12 -11 15 -25 7 -26 20 -32 31 -15
3 5 -3 18 -15 30 -11 11 -20 25 -20 30 0 6 -4 10 -10 10 -5 0 -10 -7 -10 -15z"/>
<path d="M6120 5566 c0 -16 53 -46 82 -46 25 0 23 7 -9 35 -31 27 -73 33 -73
11z"/>
<path d="M2180 5554 c0 -17 22 -14 28 4 2 7 -3 12 -12 12 -9 0 -16 -7 -16 -16z"/>
<path d="M1610 5550 c25 -4 49 -4 55 1 5 5 -13 8 -45 8 l-55 -2 45 -7z"/>
<path d="M5076 5520 c-17 -22 -33 -40 -38 -40 -4 0 -8 -32 -8 -70 0 -108 -45
-168 -152 -202 -32 -10 -50 -12 -57 -5 -6 6 -50 13 -98 15 -49 2 -92 8 -98 12
-42 31 -320 160 -345 160 -10 0 -23 6 -27 13 -12 18 -116 107 -126 107 -5 0
-6 -8 -2 -17 4 -10 11 -43 16 -73 14 -96 26 -150 32 -156 4 -4 11 6 17 21 9
24 14 27 41 21 17 -3 45 -12 62 -20 18 -8 50 -17 72 -21 22 -3 55 -11 73 -16
30 -10 33 -14 27 -40 -8 -36 -34 -89 -43 -89 -4 0 -16 -15 -26 -34 -19 -36
-117 -119 -154 -130 -24 -8 -37 8 -37 44 0 20 -7 26 -38 33 -34 8 -42 6 -65
-15 -15 -14 -35 -28 -44 -31 -10 -4 -18 -11 -18 -17 0 -5 -17 -10 -39 -10 -36
0 -72 -22 -58 -36 9 -9 129 -35 182 -40 132 -11 313 -37 343 -50 18 -8 45 -14
60 -14 15 0 36 -7 46 -15 11 -8 28 -15 37 -15 10 0 30 -7 46 -15 15 -7 49 -24
75 -35 27 -12 50 -26 54 -31 3 -5 12 -9 20 -9 23 0 126 -82 177 -141 47 -53
107 -157 107 -185 0 -8 7 -29 16 -46 16 -31 39 -183 48 -313 2 -38 9 -83 15
-98 6 -16 11 -64 11 -108 0 -44 5 -90 11 -101 11 -20 32 -163 48 -324 4 -44
11 -85 15 -92 3 -6 11 -51 16 -99 11 -109 35 -248 48 -288 17 -50 34 -127 42
-189 5 -32 13 -63 19 -69 6 -6 11 -27 11 -47 0 -35 23 -70 46 -70 10 0 74 85
74 98 0 4 -13 13 -29 19 -39 14 -51 67 -27 118 15 31 15 37 1 64 -8 17 -15 51
-15 77 0 37 -3 45 -15 40 -20 -7 -32 21 -18 43 15 24 5 45 -14 30 -11 -10 -16
-10 -22 -1 -10 16 -5 108 7 157 9 30 8 43 -2 55 -7 8 -16 28 -20 43 -4 19 -12
27 -24 25 -14 -3 -18 9 -26 71 -6 52 -5 80 3 93 6 10 11 43 11 73 0 52 -1 55
-25 55 -14 0 -25 6 -25 13 0 20 66 77 90 77 13 0 20 7 20 19 0 15 -8 21 -32
24 -30 4 -31 5 -10 12 32 11 27 23 -10 27 l-33 3 -5 71 c-5 71 -16 95 -64 147
-14 15 -26 32 -26 37 0 25 23 16 66 -25 52 -49 62 -53 70 -30 4 8 17 15 30 15
35 0 30 16 -19 63 -44 43 -87 114 -87 145 0 9 -7 26 -15 36 -8 11 -15 30 -15
42 0 12 -7 24 -15 28 -19 7 -19 43 0 80 8 15 15 34 15 41 0 7 7 15 15 19 17 6
20 47 5 62 -14 14 -1 47 15 40 21 -8 65 65 65 107 0 41 5 45 31 21 16 -14 19
-14 35 13 10 15 26 37 36 49 11 12 16 28 12 37 -10 26 -24 20 -24 -9 0 -22 -3
-25 -23 -20 -19 4 -26 0 -35 -18 -6 -13 -20 -27 -30 -30 -11 -4 -23 -14 -26
-24 -9 -25 -30 -59 -49 -80 -10 -10 -17 -24 -17 -30 0 -7 -4 -12 -8 -12 -5 0
-21 -25 -37 -55 -15 -31 -33 -54 -39 -52 -6 2 -12 33 -14 71 -3 61 -5 68 -28
76 -20 8 -23 14 -18 35 4 17 2 25 -7 25 -8 0 -41 20 -74 45 -33 25 -63 45 -67
45 -3 0 -19 11 -35 24 -35 29 -157 96 -176 96 -8 0 -22 9 -32 20 -10 11 -23
20 -28 20 -6 0 -40 12 -75 26 -44 18 -76 24 -98 21 -34 -6 -86 20 -107 53 -11
19 67 143 101 159 24 12 72 7 158 -14 29 -8 70 -11 92 -8 24 3 42 1 46 -6 10
-16 41 -14 57 5 10 12 23 14 61 9 38 -5 48 -4 48 7 0 19 58 61 74 55 8 -3 19
0 25 6 13 13 47 -18 52 -48 5 -24 20 -28 43 -10 19 14 18 16 -17 50 -44 43
-69 88 -61 109 8 21 52 32 67 17 6 -6 15 -11 19 -11 13 0 9 28 -6 37 -27 16
-39 58 -39 135 0 43 -2 78 -6 78 -3 0 -19 -18 -35 -40z"/>
<path d="M2847 5534 c-8 -8 1 -24 14 -24 5 0 9 7 9 15 0 15 -12 20 -23 9z"/>
<path d="M3113 5514 c-6 -13 -7 -24 -2 -24 12 0 31 38 21 44 -4 2 -12 -7 -19
-20z"/>
<path d="M2954 5507 c-16 -43 19 -93 52 -72 22 14 50 63 40 72 -4 4 -14 -1
-22 -11 -14 -19 -14 -19 -39 4 -21 20 -25 21 -31 7z"/>
<path d="M2067 5493 c-12 -11 -8 -23 7 -23 7 0 19 7 26 15 10 12 9 15 -7 15
-11 0 -23 -3 -26 -7z"/>
<path d="M2420 5430 c0 -11 7 -20 15 -20 8 0 15 6 15 14 0 8 -7 16 -15 20 -10
4 -15 -1 -15 -14z"/>
<path d="M2501 5421 c-26 -36 -30 -138 -6 -147 8 -4 15 -13 15 -20 0 -8 7 -17
15 -20 8 -4 15 -15 15 -25 0 -11 7 -22 15 -25 10 -4 15 -20 15 -50 0 -40 -2
-44 -24 -44 -34 0 -82 -44 -105 -96 -11 -24 -27 -47 -35 -50 -9 -3 -16 -12
-16 -20 0 -26 27 -14 63 29 21 23 44 49 52 58 8 9 15 21 15 28 0 8 6 11 16 7
11 -4 22 1 30 12 12 17 18 18 49 8 38 -12 46 -30 18 -40 -61 -21 -99 -55 -130
-119 -24 -50 -39 -68 -58 -73 -14 -3 -25 -11 -25 -16 0 -6 -11 -21 -25 -34
-30 -28 -37 -68 -7 -42 9 9 27 19 39 22 11 4 27 13 33 21 7 8 19 15 26 15 18
0 64 40 64 56 0 6 7 14 15 18 8 3 15 12 15 20 0 22 39 44 84 49 28 3 45 11 59
31 24 33 26 99 4 124 -15 17 -17 21 -17 42 0 5 -10 9 -22 7 -17 -1 -24 4 -26
21 -2 12 -8 22 -13 22 -5 0 -9 6 -9 14 0 7 -11 25 -25 40 -14 15 -25 38 -25
51 0 13 -5 27 -10 30 -15 9 -40 73 -40 101 0 32 -14 30 -39 -5z"/>
<path d="M2875 5390 c-9 -14 4 -52 16 -45 12 8 12 42 0 50 -5 3 -12 1 -16 -5z"/>
<path d="M5216 5391 c-7 -11 9 -56 23 -66 6 -3 11 -18 11 -33 1 -36 38 -82 50
-62 7 12 12 12 35 0 41 -22 51 0 21 45 -14 21 -26 44 -26 51 0 20 -42 55 -59
49 -7 -3 -22 2 -31 10 -11 10 -20 12 -24 6z"/>
<path d="M2223 5383 c-25 -5 -30 -18 -10 -26 16 -6 57 10 57 23 0 10 -7 11
-47 3z"/>
<path d="M2387 5363 c-7 -15 -19 -47 -27 -71 -11 -34 -17 -41 -32 -36 -13 4
-18 0 -18 -13 0 -32 -24 -73 -42 -73 -10 0 -18 -7 -18 -15 0 -9 -9 -15 -25
-15 -27 0 -30 10 -26 83 3 41 -14 50 -28 15 -5 -13 -15 -39 -24 -58 l-15 -35
-14 30 c-23 50 -59 105 -69 105 -14 0 -10 -65 6 -96 8 -16 15 -37 15 -46 0 -9
5 -20 10 -23 31 -19 -8 -182 -57 -237 -11 -12 -42 -47 -69 -76 -40 -45 -46
-56 -37 -71 9 -15 6 -23 -19 -45 -16 -14 -34 -26 -39 -26 -5 0 -9 -5 -9 -11 0
-13 73 -2 78 12 2 5 9 9 15 9 7 0 23 16 36 35 13 19 31 35 39 35 13 0 13 3 4
12 -10 10 -19 8 -42 -5 -44 -26 -37 -11 25 54 30 32 55 67 55 78 0 12 4 21 10
21 18 0 122 115 141 156 12 27 30 47 52 58 22 10 43 32 58 61 13 25 31 47 40
50 30 10 61 66 63 113 1 54 -17 66 -37 25z"/>
<path d="M3157 5372 c-18 -19 -23 -52 -9 -52 16 0 54 48 47 59 -9 16 -20 14
-38 -7z"/>
<path d="M5876 5381 c-8 -12 68 -23 100 -15 19 5 22 9 12 15 -17 11 -105 11
-112 0z"/>
<path d="M3511 5349 c-25 -15 -36 -17 -41 -9 -5 8 -20 -7 -40 -39 -18 -28 -41
-53 -52 -56 -12 -4 -18 -16 -18 -35 0 -16 -4 -32 -10 -35 -5 -3 -10 -15 -10
-25 0 -10 -4 -20 -8 -22 -5 -1 -12 -16 -16 -31 -6 -25 -4 -28 15 -25 14 2 25
15 34 42 8 21 19 42 26 47 10 6 10 11 -2 25 -13 16 -12 17 14 10 37 -9 71 15
91 65 9 21 19 39 24 39 8 0 34 61 29 66 -2 2 -18 -6 -36 -17z"/>
<path d="M3681 5349 c8 -16 14 -18 22 -10 9 9 8 14 -3 21 -24 16 -31 11 -19
-11z"/>
<path d="M1698 5319 c-10 -5 -18 -21 -18 -34 0 -13 -7 -30 -15 -39 -8 -8 -15
-24 -15 -36 0 -11 -7 -23 -15 -26 -8 -4 -15 -12 -15 -18 0 -18 -135 -153 -171
-171 -31 -16 -31 -35 0 -35 12 0 17 -7 17 -22 -1 -20 3 -23 34 -20 38 4 60 17
60 37 0 7 9 24 20 38 11 14 20 39 20 56 0 20 7 34 20 41 11 6 20 18 20 28 0 9
7 30 15 46 8 15 15 39 15 51 0 15 8 26 19 30 16 5 36 40 41 72 2 12 -14 13
-32 2z"/>
<path d="M6044 5305 c19 -14 36 -12 36 6 0 5 -12 9 -27 9 -27 -1 -27 -1 -9
-15z"/>
<path d="M6162 5300 c-12 -20 -11 -21 15 -18 17 2 28 9 28 18 0 23 -29 23 -43
0z"/>
<path d="M3110 5292 c0 -12 -9 -22 -22 -26 l-23 -5 25 -25 c14 -13 29 -20 34
-16 14 13 13 82 -1 87 -8 3 -13 -4 -13 -15z"/>
<path d="M3045 5287 c-11 -7 -22 -15 -25 -19 -3 -3 -21 -6 -40 -5 -26 2 -35
-2 -38 -16 -3 -15 1 -17 22 -11 24 6 26 4 26 -25 0 -26 4 -31 25 -31 13 0 28
8 33 18 10 17 26 102 20 101 -1 0 -12 -6 -23 -12z"/>
<path d="M2445 5242 c-6 -4 -23 -26 -38 -49 -15 -24 -32 -43 -37 -43 -6 0 -10
-9 -10 -20 0 -29 34 -26 54 5 10 15 22 22 31 19 8 -4 26 4 40 17 27 26 34 69
11 69 -8 0 -20 2 -28 5 -7 3 -18 1 -23 -3z"/>
<path d="M3533 5215 c-7 -17 -8 -27 -1 -31 12 -8 28 14 28 39 0 25 -13 21 -27
-8z"/>
<path d="M5390 5208 c0 -31 17 -45 33 -29 8 8 5 17 -11 33 l-22 22 0 -26z"/>
<path d="M1425 5164 c-48 -43 -78 -54 -90 -34 -12 20 -40 9 -57 -21 -25 -44
-24 -63 3 -48 12 6 32 9 46 6 40 -8 163 78 163 113 0 33 -15 30 -65 -16z"/>
<path d="M1926 5181 c-3 -5 -8 -38 -10 -73 -6 -105 -20 -140 -83 -202 -30 -31
-54 -58 -52 -60 2 -2 29 0 61 6 39 7 66 19 90 39 32 29 33 33 39 127 4 53 10
106 14 118 11 33 -42 73 -59 45z"/>
<path d="M1170 5165 c0 -8 7 -15 15 -15 8 0 15 7 15 15 0 8 -7 15 -15 15 -8 0
-15 -7 -15 -15z"/>
<path d="M2887 5173 c-2 -5 -12 -32 -22 -62 l-17 -54 61 -58 c64 -62 80 -69
101 -44 13 16 11 23 -20 70 -11 17 -25 41 -30 55 -37 85 -45 100 -56 100 -7 0
-15 -3 -17 -7z m43 -121 c0 -13 -12 -22 -22 -16 -10 6 -1 24 13 24 5 0 9 -4 9
-8z"/>
<path d="M3073 5173 c-7 -2 -13 -13 -13 -24 0 -22 17 -24 43 -5 33 25 12 46
-30 29z"/>
<path d="M1770 5170 c-1 -3 -3 -27 -4 -53 -1 -43 -6 -52 -51 -96 -28 -27 -59
-50 -69 -52 -11 -2 -21 -10 -23 -16 -4 -10 8 -11 44 -7 39 5 54 13 80 42 18
21 33 42 33 48 0 6 7 17 15 24 19 16 19 46 1 57 -8 4 -16 19 -19 33 -2 14 -5
23 -7 20z"/>
<path d="M5452 5147 c-15 -35 -15 -47 -2 -47 14 0 22 24 18 52 -4 22 -5 22
-16 -5z"/>
<path d="M5180 5135 c0 -8 5 -15 10 -15 6 0 10 7 10 15 0 8 -4 15 -10 15 -5 0
-10 -7 -10 -15z"/>
<path d="M3457 5106 c-21 -31 -31 -88 -23 -131 7 -36 32 -48 42 -20 4 9 14 14
23 13 12 -2 15 4 13 30 -1 17 2 32 8 32 5 0 10 -4 10 -10 0 -5 5 -10 10 -10
17 0 11 39 -9 59 -11 11 -24 29 -31 40 -14 27 -24 26 -43 -3z"/>
<path d="M843 5086 c4 -14 47 -21 47 -8 0 5 -11 12 -25 15 -16 3 -24 0 -22 -7z"/>
<path d="M5206 5084 c-8 -21 -8 -21 14 -27 11 -3 20 -14 20 -24 0 -22 18 -43
37 -43 24 0 13 34 -22 73 -39 42 -41 43 -49 21z"/>
<path d="M3665 5048 c7 -35 46 -78 71 -78 8 0 26 7 39 16 13 9 33 13 43 10 19
-6 122 32 122 45 0 16 -33 18 -53 4 -12 -8 -39 -15 -60 -15 -21 0 -48 -5 -60
-11 -16 -9 -22 -9 -25 -1 -7 22 -37 50 -61 57 -22 7 -23 5 -16 -27z"/>
<path d="M670 5010 c-21 -39 39 -98 118 -115 20 -4 32 -3 32 4 0 6 -11 11 -25
11 -18 0 -25 5 -25 18 0 20 -39 62 -58 62 -7 0 -12 6 -12 14 0 24 -18 28 -30
6z"/>
<path d="M3312 5013 c2 -10 10 -18 18 -18 8 0 16 8 18 18 2 12 -3 17 -18 17
-15 0 -20 -5 -18 -17z"/>
<path d="M2790 4987 c0 -61 -117 -186 -199 -212 -29 -9 -34 -33 -9 -46 14 -8
27 -8 43 -1 13 6 28 7 36 1 10 -6 19 -2 31 14 13 17 20 19 29 10 21 -21 -8
-68 -62 -102 -28 -17 -47 -36 -44 -41 10 -17 -5 -70 -20 -70 -19 0 -35 -32
-29 -56 5 -22 -11 -52 -23 -41 -4 4 -7 27 -8 50 0 51 -11 53 -59 9 -40 -36
-46 -66 -16 -82 14 -7 20 -21 20 -45 0 -18 4 -36 9 -40 5 -3 7 -21 4 -40 -4
-26 -2 -35 8 -35 21 1 85 61 93 88 4 12 12 22 18 22 7 0 9 15 5 40 -5 37 -3
40 14 35 14 -5 17 -3 13 10 -4 9 0 23 8 33 8 9 18 25 22 36 5 14 14 17 46 14
39 -3 44 0 101 60 43 45 64 60 73 53 6 -5 30 -7 52 -4 39 5 41 6 30 29 -6 13
-17 24 -24 24 -7 0 -20 4 -30 9 -9 5 -29 14 -44 20 -25 9 -51 50 -72 115 -8
24 41 73 57 57 7 -7 6 -15 -1 -24 -9 -11 -9 -23 3 -51 8 -20 20 -36 25 -36 13
0 13 36 0 60 -8 15 -6 17 10 13 12 -3 25 -14 31 -24 12 -23 59 -26 59 -4 0 7
-6 18 -14 22 -38 22 -135 118 -140 139 -4 15 -14 24 -26 24 -16 0 -20 -7 -20
-33z m-5 -327 c0 -8 -10 -16 -22 -18 -22 -3 -32 16 -16 32 12 11 38 2 38 -14z
m-185 -244 c0 -3 -11 -17 -25 -32 -22 -24 -25 -25 -25 -7 0 22 18 43 37 43 7
0 13 -2 13 -4z"/>
<path d="M902 5001 c-44 -8 -45 -25 -3 -29 46 -5 81 5 81 23 0 16 -19 17 -78
6z"/>
<path d="M5827 4978 c-9 -31 17 -55 66 -62 23 -3 62 -8 87 -12 60 -8 43 9 -35
37 -33 11 -65 29 -73 40 -18 25 -38 24 -45 -3z"/>
<path d="M3060 4965 c0 -9 -9 -19 -20 -22 -21 -6 -26 -18 -10 -28 10 -6 50 29
50 44 0 6 -4 13 -10 16 -5 3 -10 -1 -10 -10z"/>
<path d="M3830 4960 c0 -5 15 -10 33 -10 24 0 28 3 17 10 -20 13 -50 13 -50 0z"/>
<path d="M1184 4948 c-3 -4 -13 -8 -22 -8 -9 0 -29 -6 -43 -14 -14 -7 -39 -16
-55 -20 -45 -11 -114 -40 -114 -48 0 -14 53 -8 70 7 15 13 158 33 277 37 22 1
35 7 39 20 3 10 10 18 15 18 5 0 9 4 9 9 0 11 -169 10 -176 -1z"/>
<path d="M5530 4916 c0 -19 39 -66 55 -66 28 0 26 23 -4 51 -35 32 -51 36 -51
15z"/>
<path d="M5400 4881 c0 -11 5 -23 10 -26 6 -3 10 3 10 14 0 11 -4 23 -10 26
-5 3 -10 -3 -10 -14z"/>
<path d="M1547 4874 c-14 -14 -7 -25 13 -22 12 2 21 8 21 13 0 12 -24 18 -34
9z"/>
<path d="M2303 4865 c-3 -9 -3 -19 1 -22 7 -7 36 16 36 28 0 15 -30 10 -37 -6z"/>
<path d="M3120 4865 c0 -8 5 -15 10 -15 6 0 10 7 10 15 0 8 -4 15 -10 15 -5 0
-10 -7 -10 -15z"/>
<path d="M3683 4822 c-8 -14 -20 -17 -47 -14 -31 4 -37 1 -47 -22 -14 -29 -24
-33 -33 -11 -5 13 -9 13 -26 3 -19 -11 -24 -10 -45 15 -48 54 -84 17 -58 -60
8 -24 19 -43 23 -43 5 0 16 -3 25 -7 15 -5 16 -3 6 15 -6 11 -8 27 -5 35 5 13
9 13 34 0 22 -11 34 -11 50 -3 17 9 22 7 30 -15 8 -20 16 -25 45 -25 33 0 46
-12 25 -25 -15 -9 0 -35 22 -35 18 0 18 -1 1 -24 -10 -14 -37 -37 -60 -51 -23
-15 -49 -35 -58 -45 -22 -24 -55 -91 -55 -111 0 -9 -7 -22 -15 -29 -19 -16
-19 -29 1 -37 16 -6 74 42 74 62 0 6 29 38 63 71 63 60 74 79 107 191 14 45 7
105 -15 136 -7 11 -11 26 -8 33 8 21 -20 17 -34 -4z"/>
<path d="M5704 4813 c-3 -10 -12 -30 -20 -45 -12 -23 -13 -28 -2 -28 8 0 18 4
24 9 5 5 30 12 56 15 40 6 50 4 65 -13 10 -12 23 -21 30 -21 6 0 16 -8 22 -17
9 -17 11 -16 30 1 14 13 28 16 46 12 20 -5 25 -3 25 14 0 16 -5 19 -30 14 -41
-9 -162 23 -201 52 -39 29 -38 29 -45 7z"/>
<path d="M800 4800 c0 -5 7 -10 15 -10 8 0 15 5 15 10 0 6 -7 10 -15 10 -8 0
-15 -4 -15 -10z"/>
<path d="M2165 4785 c-16 -14 -35 -25 -42 -25 -11 0 -33 -30 -33 -44 0 -3 9
-6 21 -6 28 0 110 60 107 79 -5 23 -21 22 -53 -4z"/>
<path d="M3084 4771 c3 -22 9 -46 12 -55 13 -34 -66 -6 -89 31 -4 7 -16 13
-26 13 -11 0 -21 7 -25 15 -8 21 -26 19 -26 -2 1 -23 45 -73 64 -73 8 0 19 -7
24 -16 7 -12 19 -15 46 -12 20 2 36 1 36 -2 0 -12 -45 -48 -67 -55 -13 -3 -23
-11 -23 -16 0 -16 30 -22 53 -11 12 6 36 13 52 15 39 6 198 48 205 54 3 2 -3
9 -13 14 -9 6 -17 21 -17 34 0 14 -8 29 -19 35 -11 5 -21 20 -24 32 -4 24 -7
19 -22 -27 -4 -14 -8 -14 -37 1 -18 9 -44 27 -57 40 -37 37 -55 32 -47 -15z"/>
<path d="M6129 4791 c15 -13 37 -21 61 -21 21 0 43 -7 50 -15 7 -8 16 -12 22
-9 5 3 14 1 21 -4 7 -5 22 -13 34 -16 18 -6 20 -4 16 13 -10 39 -38 52 -115
55 -40 2 -82 7 -93 11 -17 6 -17 4 4 -14z"/>
<path d="M5178 4765 c-10 -13 -18 -27 -18 -30 0 -4 -11 -20 -25 -37 -44 -52
-26 -67 26 -21 27 25 59 80 59 104 0 17 -25 8 -42 -16z"/>
<path d="M5570 4765 c0 -8 5 -15 10 -15 6 0 10 7 10 15 0 8 -4 15 -10 15 -5 0
-10 -7 -10 -15z"/>
<path d="M1816 4747 c-16 -12 -14 -13 18 -9 20 2 33 8 30 13 -8 13 -27 11 -48
-4z"/>
<path d="M2520 4731 c0 -26 -17 -36 -36 -20 -12 10 -22 8 -54 -7 -22 -10 -40
-25 -40 -33 0 -21 38 -78 57 -85 19 -8 40 8 24 18 -13 9 -15 46 -2 46 5 0 11
-6 14 -12 3 -9 10 -6 22 10 9 12 22 22 30 22 23 0 28 20 9 34 -12 9 -14 15 -6
20 17 10 15 26 -3 26 -8 0 -15 -9 -15 -19z"/>
<path d="M1634 4729 c-13 -21 10 -31 59 -26 47 6 65 13 56 21 -9 8 -110 12
-115 5z"/>
<path d="M407 4706 c-10 -14 -13 -26 -8 -26 13 0 33 28 29 41 -2 6 -12 0 -21
-15z"/>
<path d="M2285 4721 c-6 -4 -35 -16 -65 -27 -30 -10 -59 -22 -64 -26 -6 -4
-20 -8 -33 -8 -47 0 -52 -66 -7 -95 23 -15 24 -14 24 5 0 36 19 59 55 66 19 3
38 11 41 16 3 5 16 13 27 19 12 5 29 13 37 18 8 5 23 12 33 15 10 3 15 10 12
16 -8 12 -47 13 -60 1z"/>
<path d="M5970 4683 c0 -12 5 -25 10 -28 13 -8 13 15 0 35 -8 12 -10 11 -10
-7z"/>
<path d="M2291 4641 c-17 -13 -22 -24 -17 -37 7 -17 9 -16 24 9 9 15 22 27 29
27 6 0 15 5 18 10 11 17 -29 11 -54 -9z"/>
<path d="M6190 4651 c0 -13 56 -33 77 -28 14 3 9 8 -19 20 -42 19 -58 21 -58
8z"/>
<path d="M1722 4628 c-21 -21 -15 -41 11 -33 12 3 32 9 45 12 12 3 22 12 22
19 0 18 -61 19 -78 2z"/>
<path d="M2957 4603 c-14 -13 -6 -23 18 -23 16 0 25 6 25 15 0 15 -31 21 -43
8z"/>
<path d="M2186 4584 c-4 -9 -4 -19 -2 -21 8 -8 26 8 26 23 0 19 -16 18 -24 -2z"/>
<path d="M2321 4579 c-30 -25 -16 -44 19 -26 25 13 34 38 15 43 -5 2 -21 -6
-34 -17z"/>
<path d="M3294 4586 c-17 -6 -37 -16 -45 -22 -8 -6 -24 -14 -35 -18 -12 -4
-29 -15 -39 -26 -17 -19 -17 -20 1 -27 12 -4 38 4 76 25 63 34 93 34 82 -2 -3
-11 -12 -26 -20 -32 -8 -6 -14 -18 -14 -27 0 -22 -48 -77 -77 -88 -29 -11 -21
-29 13 -29 13 0 24 -4 24 -9 0 -22 -13 -39 -26 -34 -8 3 -30 -7 -48 -21 -26
-19 -47 -26 -80 -26 -47 0 -59 -13 -34 -38 9 -9 7 -13 -5 -18 -20 -7 -22 -33
-4 -40 7 -2 13 -19 13 -37 0 -47 11 -72 27 -59 6 6 23 12 37 14 33 4 37 53 5
53 -11 1 -26 5 -34 9 -11 7 -11 10 0 17 8 5 23 9 34 9 28 0 51 29 59 74 7 37
8 38 41 32 31 -6 34 -5 40 25 6 25 3 36 -10 45 -19 14 -11 38 10 30 20 -7 55
47 43 68 -7 13 -4 22 12 36 12 10 26 20 32 22 6 2 12 27 13 56 l2 52 -31 -1
c-17 -1 -45 -6 -62 -13z"/>
<path d="M913 4528 c-21 -18 -40 -37 -42 -42 -2 -4 -12 -15 -22 -24 -15 -13
-16 -19 -6 -31 9 -11 9 -15 0 -18 -7 -3 -13 -11 -13 -19 0 -28 28 -13 71 37
24 28 52 59 62 69 20 19 20 51 0 57 -6 2 -28 -11 -50 -29z"/>
<path d="M50 4540 c0 -5 12 -10 26 -10 14 0 23 4 19 10 -3 6 -15 10 -26 10
-10 0 -19 -4 -19 -10z"/>
<path d="M2023 4510 c-3 -17 -10 -33 -14 -36 -13 -8 -11 -35 6 -68 8 -15 15
-34 15 -40 0 -17 58 -106 69 -106 5 0 22 12 38 28 17 16 38 26 50 24 14 -2 23
4 28 17 7 24 37 28 55 6 10 -12 9 -16 -6 -22 -23 -8 -34 -22 -34 -45 0 -23 46
-24 70 -3 14 12 23 13 49 4 18 -6 33 -10 35 -8 1 2 -1 22 -6 45 -6 29 -16 44
-33 52 -13 6 -33 29 -44 50 -11 21 -27 44 -35 51 -9 8 -16 22 -16 32 0 53 -57
-4 -67 -67 -6 -33 -33 -49 -33 -19 0 8 -8 22 -19 31 -18 16 -18 17 0 35 11 11
24 19 29 19 6 0 10 9 10 20 0 31 -30 24 -42 -10 -13 -38 -30 -34 -43 8 -7 24
-15 32 -32 32 -18 0 -25 -7 -30 -30z m207 -117 c0 -19 -3 -24 -10 -17 -6 6 -8
18 -4 27 9 24 14 21 14 -10z m-80 -27 c0 -8 -4 -18 -10 -21 -5 -3 -10 3 -10
14 0 12 5 21 10 21 6 0 10 -6 10 -14z"/>
<path d="M1064 4483 c-52 -66 -189 -183 -212 -183 -6 0 -23 -7 -39 -14 -15 -8
-36 -17 -45 -20 -17 -5 -27 -56 -12 -56 4 0 32 16 64 35 32 19 67 35 79 35 11
0 28 11 37 25 9 13 44 39 79 57 37 18 61 37 58 44 -6 15 13 28 22 14 12 -20
27 -10 21 15 -5 18 -2 25 8 25 27 0 29 22 5 41 -13 10 -27 19 -30 19 -3 0 -19
-16 -35 -37z"/>
<path d="M1855 4481 c-3 -6 4 -15 15 -21 17 -9 20 -8 20 10 0 20 -24 28 -35
11z"/>
<path d="M1832 4428 c-28 -14 -38 -52 -22 -83 17 -32 6 -58 -20 -50 -14 4 -22
1 -26 -10 -5 -12 5 -27 31 -51 38 -33 60 -39 35 -9 -16 20 -6 45 20 45 19 0
20 6 20 85 0 47 -3 85 -7 84 -5 0 -18 -5 -31 -11z"/>
<path d="M641 4414 c-26 -12 -40 -13 -68 -3 -29 9 -38 9 -51 -4 -14 -15 -13
-17 14 -27 16 -5 37 -15 46 -20 10 -6 46 -10 81 -10 51 0 68 4 82 20 18 19 17
20 -2 20 -12 0 -23 8 -26 20 -6 23 -28 24 -76 4z"/>
<path d="M2810 4380 c-25 -27 -50 -50 -56 -50 -7 0 -19 -11 -28 -25 -9 -14
-22 -25 -29 -25 -26 -1 -64 -47 -70 -85 -7 -43 -52 -91 -89 -97 -26 -3 -37
-43 -19 -61 8 -8 19 -2 39 20 41 48 64 47 73 -2 11 -60 26 -94 59 -129 45 -48
71 -79 87 -103 15 -23 33 -31 33 -14 0 5 -27 42 -60 84 -50 63 -60 80 -54 101
4 16 1 33 -7 42 -18 22 -22 166 -6 176 7 4 24 8 38 8 15 0 29 7 33 15 3 8 14
15 25 15 29 0 35 17 11 30 -17 9 -19 14 -9 26 16 19 22 18 53 -11 34 -32 54
-32 62 0 8 33 -2 43 -27 26 -31 -19 -35 -6 -16 46 10 26 14 50 10 54 -5 4 -28
-15 -53 -41z"/>
<path d="M5393 4366 c4 -43 13 -53 47 -58 13 -1 29 -12 35 -23 18 -34 114
-127 125 -120 6 4 2 18 -12 36 -13 17 -38 52 -56 77 -19 26 -40 51 -48 55 -8
4 -14 20 -15 35 0 27 0 27 -11 5 -14 -29 -36 -30 -40 -1 -2 12 -9 23 -16 26
-9 3 -12 -6 -9 -32z"/>
<path d="M1917 4384 c-4 -4 -7 -30 -7 -59 0 -28 -6 -60 -14 -70 -9 -13 -11
-28 -6 -46 5 -16 6 -37 3 -49 -8 -30 3 -24 26 14 17 26 21 49 20 107 0 76 -9
116 -22 103z"/>
<path d="M5742 4364 c2 -11 11 -20 22 -22 13 -3 17 1 14 14 -2 11 -11 20 -22
22 -13 3 -17 -1 -14 -14z"/>
<path d="M5573 4350 c4 -14 7 -28 7 -32 0 -5 9 -8 21 -8 27 0 22 28 -10 49
-24 15 -24 15 -18 -9z"/>
<path d="M5270 4311 c0 -22 7 -46 15 -55 8 -8 15 -19 15 -24 0 -12 50 -65 56
-59 4 4 -13 50 -36 97 -4 9 -11 30 -15 48 -10 47 -35 42 -35 -7z"/>
<path d="M3165 4329 c-4 -6 -4 -13 -1 -16 8 -8 36 5 36 17 0 13 -27 13 -35 -1z"/>
<path d="M2925 4300 c-3 -5 3 -10 14 -10 12 0 21 5 21 10 0 6 -6 10 -14 10 -8
0 -18 -4 -21 -10z"/>
<path d="M506 4275 c4 -8 -1 -17 -10 -21 -16 -6 -23 -44 -8 -44 5 0 27 9 50
20 22 11 50 20 62 20 35 0 22 15 -25 28 -60 16 -76 15 -69 -3z"/>
<path d="M3333 4255 c0 -22 2 -30 4 -17 2 12 2 30 0 40 -3 9 -5 -1 -4 -23z"/>
<path d="M3000 4260 c0 -5 -16 -12 -35 -16 -19 -3 -39 -12 -46 -20 -6 -8 -24
-14 -40 -14 -26 0 -29 -4 -29 -30 0 -20 6 -32 18 -36 9 -3 25 -10 35 -15 16
-9 17 -6 11 26 -4 23 -2 35 5 35 6 0 11 -7 11 -15 0 -10 10 -15 31 -15 28 0
31 3 27 25 -3 14 -2 25 2 25 4 0 10 9 13 20 3 12 14 20 26 20 12 0 21 5 21 10
0 6 -11 10 -25 10 -14 0 -25 -4 -25 -10z"/>
<path d="M2381 4218 c-11 -23 -19 -44 -17 -46 2 -2 18 4 35 13 24 12 31 22 31
45 0 44 -24 38 -49 -12z"/>
<path d="M5690 4238 c0 -23 45 -88 61 -88 18 0 8 42 -16 64 -14 13 -25 28 -25
35 0 6 -4 11 -10 11 -5 0 -10 -10 -10 -22z"/>
<path d="M1736 4241 c-7 -11 32 -47 41 -38 3 4 1 7 -5 7 -7 0 -12 6 -12 14 0
18 -17 30 -24 17z"/>
<path d="M1670 4215 c0 -14 5 -25 10 -25 6 0 10 11 10 25 0 14 -4 25 -10 25
-5 0 -10 -11 -10 -25z"/>
<path d="M1516 4175 c-9 -9 -16 -25 -16 -35 0 -10 -7 -20 -15 -24 -8 -3 -15
-12 -15 -19 0 -8 -7 -20 -15 -27 -8 -7 -15 -24 -15 -39 l1 -26 24 30 c14 17
25 38 25 47 0 9 5 20 10 23 12 7 42 76 36 82 -2 2 -11 -3 -20 -12z"/>
<path d="M2190 4170 c0 -13 11 -13 30 0 12 8 11 10 -7 10 -13 0 -23 -4 -23
-10z"/>
<path d="M1370 4145 c0 -8 5 -15 10 -15 6 0 10 7 10 15 0 8 -4 15 -10 15 -5 0
-10 -7 -10 -15z"/>
<path d="M2030 4146 c-6 -6 -10 -17 -10 -25 0 -8 -3 -11 -7 -7 -5 4 -8 13 -8
19 0 7 -14 13 -31 15 -38 4 -53 -22 -28 -49 18 -20 11 -59 -11 -59 -8 0 -21
13 -29 29 -17 32 -45 47 -51 28 -2 -6 -6 -40 -9 -74 -5 -57 -4 -63 14 -63 10
0 21 4 24 9 3 5 22 12 41 15 20 4 39 14 42 22 3 7 13 14 23 14 21 0 36 17 42
45 4 25 37 26 52 3 8 -14 6 -21 -9 -32 -24 -17 -15 -30 14 -21 29 9 28 58 -1
77 -27 18 -16 38 22 38 29 0 53 19 28 22 -47 5 -100 2 -108 -6z"/>
<path d="M2785 4129 l-30 -19 32 0 c22 0 36 6 43 20 14 26 -4 26 -45 -1z"/>
<path d="M3316 4118 c-3 -17 -2 -36 4 -42 5 -5 10 -29 10 -53 0 -24 4 -43 9
-43 5 0 11 -9 14 -20 6 -22 14 -24 37 -10 12 8 13 13 3 30 -7 11 -13 31 -13
45 0 14 -7 28 -15 31 -8 4 -15 18 -15 34 0 61 -23 80 -34 28z"/>
<path d="M5440 4140 c0 -21 34 -80 47 -80 7 0 17 9 23 20 9 17 6 24 -16 45
-27 25 -54 33 -54 15z"/>
<path d="M1760 4116 c0 -10 9 -16 21 -16 24 0 21 23 -4 28 -10 2 -17 -3 -17
-12z"/>
<path d="M2420 4121 c0 -5 -9 -13 -20 -16 -11 -4 -31 -17 -43 -29 -22 -22 -56
-43 -104 -65 -13 -6 -23 -15 -23 -21 0 -5 -9 -10 -19 -10 -19 0 -71 -40 -71
-54 0 -11 38 -6 42 6 2 6 10 8 16 4 9 -5 7 -13 -5 -31 -21 -29 -38 -31 -51 -9
-6 11 -11 13 -16 5 -12 -18 -36 -12 -36 9 0 13 -7 20 -20 20 -11 0 -29 5 -39
12 -24 15 -58 -7 -41 -27 13 -16 0 -28 -17 -14 -15 13 -33 3 -97 -53 -36 -31
-38 -35 -25 -56 8 -12 19 -22 26 -22 7 0 13 -9 13 -20 0 -27 21 -70 35 -70 6
0 16 5 23 12 15 15 23 7 31 -34 8 -41 43 -51 61 -18 13 23 7 35 -40 80 -37 36
-44 59 -24 81 9 10 19 33 23 51 6 30 10 33 49 36 36 3 42 0 42 -17 0 -23 16
-36 25 -21 10 16 45 12 45 -5 0 -8 7 -15 15 -15 19 0 95 75 95 94 0 22 13 27
31 10 20 -18 43 -10 35 12 -8 22 14 28 30 8 13 -17 16 -17 26 -3 9 13 16 14
34 5 25 -11 31 -30 14 -41 -5 -3 -10 -13 -10 -22 0 -9 -8 -22 -17 -29 -22 -15
-18 -20 28 -28 l36 -6 7 61 c5 40 3 66 -3 72 -6 6 -11 27 -12 47 l-1 35 -10
-27 c-5 -16 -17 -28 -25 -28 -15 0 -15 23 3 108 4 21 2 32 -5 32 -6 0 -11 -4
-11 -9z"/>
<path d="M2993 4114 c-39 -17 -41 -26 -10 -47 21 -13 25 -13 46 2 23 17 26 52
6 57 -5 1 -25 -4 -42 -12z"/>
<path d="M1670 4106 c0 -8 -9 -20 -19 -26 -16 -8 -19 -17 -14 -43 3 -23 0 -37
-11 -46 -39 -32 -11 -71 51 -71 33 0 50 7 78 31 46 41 49 73 5 49 -24 -13 -31
-2 -39 64 -5 43 -9 51 -28 54 -15 2 -23 -2 -23 -12z"/>
<path d="M2820 4022 c20 -24 33 -31 63 -31 25 -1 40 4 44 14 7 21 1 26 -38 30
-19 1 -47 6 -64 11 l-29 7 24 -31z"/>
<path d="M3087 4013 c-4 -3 -7 -14 -7 -24 0 -27 -16 -32 -44 -14 -15 10 -33
14 -50 9 -34 -8 -33 -23 3 -35 16 -6 31 -19 34 -30 3 -10 13 -19 24 -19 13 0
19 -8 20 -30 1 -17 6 -38 11 -47 8 -13 14 -7 31 32 24 54 25 74 10 128 -10 36
-18 44 -32 30z"/>
<path d="M2730 4004 c0 -6 151 -156 193 -191 15 -13 33 -23 40 -23 7 0 12 -15
13 -37 1 -21 11 -70 22 -110 20 -70 20 -89 -3 -145 -4 -11 -3 -18 3 -18 6 0
13 9 17 19 3 10 15 21 27 24 16 5 19 11 15 29 -4 12 -1 42 5 65 9 37 8 47 -6
62 -9 9 -16 29 -16 44 0 55 -106 197 -148 197 -7 0 -15 7 -18 15 -4 8 -18 15
-33 15 -19 0 -34 10 -49 30 -19 26 -62 42 -62 24z"/>
<path d="M1410 3970 c0 -11 5 -20 10 -20 6 0 10 9 10 20 0 11 -4 20 -10 20 -5
0 -10 -9 -10 -20z"/>
<path d="M3198 3925 c-8 -19 -13 -37 -10 -40 10 -10 42 28 42 52 0 33 -13 28
-32 -12z"/>
<path d="M2612 3908 c-7 -7 -12 -17 -12 -24 0 -12 -49 -59 -69 -66 -6 -1 -17
-28 -25 -58 -13 -51 -15 -53 -24 -30 -5 14 -6 32 -1 41 4 9 5 19 2 23 -12 12
-34 6 -40 -11 -3 -10 -15 -28 -26 -40 -12 -13 -20 -38 -21 -60 -1 -32 2 -38
19 -38 11 0 26 -8 33 -17 7 -10 24 -18 38 -18 25 0 34 -26 14 -46 -6 -6 -14
-35 -19 -65 -5 -30 -11 -60 -13 -68 -6 -27 30 -23 49 5 19 30 27 132 13 169
-4 12 -3 45 3 76 15 68 70 139 109 139 35 0 37 5 20 55 -15 46 -28 55 -50 33z"/>
<path d="M987 3899 c8 -8 16 -8 30 0 16 9 14 10 -11 11 -22 0 -27 -3 -19 -11z"/>
<path d="M2288 3870 c-7 -11 -20 -20 -28 -20 -8 0 -20 -10 -25 -22 -9 -20 -17
-23 -63 -21 -52 2 -52 2 -52 -27 0 -20 5 -30 15 -30 8 0 15 5 15 10 0 6 7 10
15 10 20 0 19 -5 -9 -34 -13 -15 -31 -26 -41 -26 -17 0 -17 -1 0 -20 22 -25
31 -25 81 -1 43 21 68 59 53 82 -14 22 -11 29 15 29 18 0 25 7 30 31 5 27 9
30 31 25 20 -5 25 -3 25 14 0 27 -45 27 -62 0z"/>
<path d="M3413 3860 c3 -13 0 -20 -8 -20 -8 0 -17 -5 -21 -11 -8 -14 36 -50
54 -44 16 6 45 -11 91 -53 76 -69 82 -76 78 -103 -2 -18 3 -30 16 -38 10 -7
20 -11 20 -9 1 2 8 13 15 25 22 40 15 105 -15 146 -23 30 -111 97 -128 97 -3
0 -4 -10 -2 -22 3 -28 -30 -37 -40 -11 -7 18 -49 63 -60 63 -3 0 -3 -9 0 -20z"/>
<path d="M1275 3840 c-10 -11 -16 -23 -13 -26 7 -6 48 27 48 38 0 14 -17 8
-35 -12z"/>
<path d="M1637 3834 c-18 -24 -13 -31 11 -15 8 5 12 15 10 24 -2 12 -7 10 -21
-9z"/>
<path d="M1493 3830 c-13 -5 -23 -16 -23 -23 0 -8 -9 -22 -20 -32 -30 -27 -25
-34 27 -30 50 3 73 22 73 61 0 17 -21 38 -33 33 -1 0 -12 -4 -24 -9z"/>
<path d="M2330 3826 c0 -8 -3 -21 -6 -30 -4 -10 -1 -16 9 -16 18 0 29 24 21
45 -8 19 -24 20 -24 1z"/>
<path d="M3177 3823 c-9 -9 -8 -83 2 -108 8 -20 8 -20 14 0 3 11 9 41 13 68 5
37 3 47 -8 47 -8 0 -18 -3 -21 -7z"/>
<path d="M1775 3796 c-16 -7 -45 -18 -63 -25 -29 -12 -33 -17 -27 -40 3 -17 2
-21 -3 -13 -5 8 -22 12 -38 10 -23 -2 -30 -8 -32 -31 -2 -16 2 -35 8 -43 15
-18 58 -8 84 18 12 13 27 18 43 15 32 -6 62 32 38 49 -21 15 -19 22 8 26 14 2
23 11 25 26 4 25 -1 26 -43 8z"/>
<path d="M2720 3760 c0 -16 10 -60 22 -96 20 -63 21 -67 4 -79 -16 -12 -16
-14 0 -29 15 -16 17 -16 30 1 13 17 15 17 32 -5 18 -23 18 -23 36 -3 17 19 17
23 2 67 -19 57 -19 54 -2 54 8 0 16 -16 20 -41 7 -46 26 -48 38 -3 12 45 -1
89 -38 129 -32 35 -54 39 -54 9 0 -20 -17 -18 -42 6 -31 29 -48 25 -48 -10z"/>
<path d="M2042 3771 c2 -7 7 -12 11 -12 12 1 9 15 -3 20 -7 2 -11 -2 -8 -8z"/>
<path d="M997 3763 c-4 -3 -7 -13 -7 -21 0 -12 3 -12 15 -2 8 7 15 16 15 21 0
11 -14 12 -23 2z"/>
<path d="M767 3744 c-11 -12 3 -24 28 -24 13 0 26 4 29 9 10 15 -43 29 -57 15z"/>
<path d="M3115 3737 c-4 -10 -3 -28 3 -40 9 -20 10 -21 17 -4 4 10 3 28 -3 40
-9 20 -10 21 -17 4z"/>
<path d="M2321 3711 c-17 -13 -20 -20 -11 -26 14 -8 44 18 39 34 -3 6 -14 3
-28 -8z"/>
<path d="M1129 3704 c-12 -14 -11 -16 5 -13 11 2 21 10 24 17 5 17 -13 15 -29
-4z"/>
<path d="M1484 3677 c-22 -23 -48 -59 -58 -79 -16 -32 -17 -42 -6 -68 7 -16
18 -30 24 -30 21 0 65 54 72 88 4 18 11 35 15 38 11 7 12 81 1 88 -5 3 -26
-14 -48 -37z"/>
<path d="M5417 3613 c-49 -64 -66 -106 -47 -118 18 -11 37 13 44 58 4 24 18
53 33 69 14 14 23 32 21 39 -2 7 -25 -15 -51 -48z"/>
<path d="M3140 3635 c-6 -8 -22 -13 -33 -12 -13 1 -22 -3 -21 -10 1 -7 2 -30
3 -50 l2 -38 14 33 c8 17 21 32 29 32 14 0 46 36 46 52 0 13 -27 9 -40 -7z"/>
<path d="M1705 3621 c-8 -27 11 -54 21 -28 3 9 1 24 -4 33 -9 16 -10 15 -17
-5z"/>
<path d="M1767 3603 c-3 -16 -9 -36 -12 -45 -5 -13 -2 -18 11 -18 16 0 19 8
21 45 2 50 -11 61 -20 18z"/>
<path d="M2310 3586 c-25 -7 -60 -11 -77 -8 -35 5 -43 -7 -18 -28 39 -33 -27
-210 -97 -260 -23 -17 -46 -30 -52 -30 -17 0 -84 -68 -92 -93 -4 -11 -19 -35
-35 -51 -16 -17 -29 -34 -29 -38 0 -4 -20 -21 -45 -39 -25 -18 -45 -38 -45
-46 0 -7 -7 -13 -15 -13 -8 0 -15 -9 -15 -19 0 -11 -4 -23 -10 -26 -5 -3 -10
-32 -10 -63 l0 -57 25 30 c20 25 24 37 19 71 -5 36 -2 45 22 68 16 14 37 26
47 26 33 0 58 20 52 41 -4 11 -2 19 5 19 6 0 31 19 56 42 26 24 61 52 79 63
41 25 105 82 105 93 0 4 20 29 44 55 25 25 46 54 48 63 5 29 23 21 26 -12 2
-20 -4 -36 -17 -48 -17 -15 -18 -22 -9 -40 6 -11 17 -25 24 -29 22 -13 16 -35
-13 -54 -16 -10 -34 -25 -40 -34 -16 -22 -97 -69 -117 -69 -22 0 -20 -23 2
-43 25 -23 29 -22 48 15 l17 32 21 -27 c24 -29 56 -36 56 -12 0 8 -4 15 -10
15 -5 0 -10 6 -10 14 0 16 26 46 40 46 19 0 40 -34 40 -65 0 -19 5 -37 10 -40
6 -4 10 6 10 24 0 34 9 61 19 61 4 0 13 -12 19 -26 7 -15 17 -22 23 -18 14 8
5 140 -11 159 -6 7 -8 20 -4 29 4 10 -1 18 -12 23 -39 14 -46 58 -13 86 21 19
22 38 1 45 -7 2 -12 -6 -12 -18 0 -13 -5 -20 -12 -17 -20 6 -14 87 10 134 24
47 29 84 10 82 -7 -1 -33 -7 -58 -13z m23 -296 c6 -24 3 -25 -17 -4 -9 8 -14
20 -10 25 8 13 21 3 27 -21z m57 -109 c0 -9 -5 -23 -10 -31 -9 -13 -11 -13
-20 0 -5 8 -10 25 -10 38 0 12 -5 22 -11 22 -5 0 -7 4 -4 10 9 14 55 -19 55
-39z"/>
<path d="M5655 3589 c-10 -15 3 -25 16 -12 7 7 7 13 1 17 -6 3 -14 1 -17 -5z"/>
<path d="M1620 3574 c0 -9 5 -14 12 -12 18 6 21 28 4 28 -9 0 -16 -7 -16 -16z"/>
<path d="M2004 3556 c-3 -9 -3 -31 0 -49 10 -48 7 -100 -7 -113 -12 -12 -8
-54 6 -54 23 1 73 58 90 103 4 11 15 21 25 24 22 5 43 38 37 55 -9 22 -44 39
-96 45 -39 5 -50 3 -55 -11z"/>
<path d="M1707 3538 c-7 -25 -3 -33 12 -23 13 8 15 45 2 45 -5 0 -11 -10 -14
-22z"/>
<path d="M2870 3525 c0 -27 -33 -99 -50 -110 -16 -10 -12 -35 6 -35 9 0 28 12
41 26 19 21 25 39 26 82 1 36 -2 56 -10 59 -8 3 -13 -5 -13 -22z"/>
<path d="M3657 3536 c-4 -10 -5 -21 -2 -24 9 -9 17 6 13 25 -3 17 -4 17 -11
-1z"/>
<path d="M1546 3495 c-26 -27 -56 -62 -67 -77 -20 -27 -20 -28 -1 -28 19 0 62
39 62 56 0 5 14 21 31 35 20 16 30 32 27 45 -3 16 -11 11 -52 -31z"/>
<path d="M2787 3498 c-7 -27 2 -45 14 -27 11 18 11 49 0 49 -5 0 -11 -10 -14
-22z"/>
<path d="M1794 3486 c-6 -25 1 -46 15 -46 10 0 19 40 13 58 -6 20 -21 14 -28
-12z"/>
<path d="M3075 3502 c-6 -4 -19 -24 -29 -45 -11 -21 -28 -43 -38 -48 -10 -5
-18 -16 -18 -24 0 -8 -4 -15 -9 -15 -5 0 -12 -11 -15 -25 -4 -14 -11 -25 -16
-25 -6 0 -10 -7 -10 -15 0 -8 5 -15 10 -15 6 0 10 -9 10 -19 0 -11 5 -23 12
-27 8 -5 9 3 5 30 -5 33 -4 36 14 31 14 -5 19 -2 19 11 0 9 18 33 41 52 33 28
40 40 36 61 -3 14 -1 34 5 44 11 21 -1 41 -17 29z"/>
<path d="M1294 3455 c-9 -25 -21 -45 -25 -45 -5 0 -9 -11 -9 -25 0 -28 12 -32
30 -10 7 8 16 15 21 15 5 0 20 10 34 22 27 23 33 56 13 76 -24 24 -46 13 -64
-33z"/>
<path d="M1633 3493 c-8 -3 -11 -14 -7 -29 4 -15 2 -24 -5 -24 -6 0 -11 -13
-11 -30 0 -16 3 -30 8 -30 10 0 40 57 48 93 6 27 -3 33 -33 20z"/>
<path d="M1826 3415 c-3 -9 -6 -29 -6 -44 0 -14 -9 -34 -20 -44 -11 -9 -20
-24 -20 -34 0 -15 -1 -15 -14 2 -13 17 -15 17 -44 -16 -17 -19 -32 -37 -32
-41 0 -13 17 -9 32 6 8 7 33 14 56 14 38 1 42 -1 42 -24 0 -42 23 -22 42 34
17 54 12 104 -17 145 -11 16 -13 16 -19 2z"/>
<path d="M1536 3360 c-43 -66 -32 -90 24 -48 30 21 36 41 24 72 -9 24 -19 20
-48 -24z"/>
<path d="M1119 3370 c-1 -11 -2 -24 -3 -30 -2 -17 18 -12 31 7 10 16 9 21 -7
31 -17 11 -20 10 -21 -8z"/>
<path d="M3077 3374 c-4 -10 -11 -26 -16 -34 -6 -8 -13 -32 -16 -53 -3 -21
-15 -46 -26 -55 -10 -9 -19 -29 -19 -44 0 -18 -5 -28 -15 -28 -8 0 -15 -4 -15
-9 0 -5 7 -11 15 -15 9 -3 15 0 15 9 0 7 10 15 23 17 17 2 23 11 25 38 2 19 8
40 14 47 15 18 48 86 48 98 0 6 -6 19 -13 30 -13 17 -14 17 -20 -1z"/>
<path d="M1388 3362 c-16 -10 -28 -23 -28 -29 0 -20 55 -15 73 5 37 40 7 55
-45 24z"/>
<path d="M2790 3334 c0 -27 0 -27 35 -14 30 12 26 26 -10 32 -21 4 -25 1 -25
-18z"/>
<path d="M813 3337 c-3 -5 2 -16 11 -25 13 -14 19 -14 34 -4 9 7 25 15 35 18
9 4 17 9 17 13 0 9 -91 7 -97 -2z"/>
<path d="M1656 3343 c-11 -11 -6 -23 9 -23 8 0 15 4 15 9 0 13 -16 22 -24 14z"/>
<path d="M2634 3326 c-3 -14 -12 -30 -20 -37 -8 -7 -11 -21 -8 -34 3 -13 1
-26 -5 -29 -6 -4 -8 -30 -5 -64 3 -31 5 -79 4 -107 0 -27 6 -63 15 -79 8 -15
15 -38 15 -50 1 -40 34 -91 60 -94 14 -2 29 -8 34 -12 5 -5 15 -2 24 6 13 13
17 13 35 -3 20 -18 20 -17 13 7 -17 57 -18 73 -6 94 6 13 10 32 8 41 -2 14
-12 4 -38 -35 -19 -30 -40 -55 -46 -57 -17 -5 -54 72 -54 111 0 18 -5 57 -10
87 -7 35 -7 56 0 63 14 14 12 48 -5 70 -20 26 -19 43 4 72 11 14 17 33 14 44
-8 31 -22 34 -29 6z"/>
<path d="M1927 3313 c-4 -3 -7 -21 -7 -40 0 -26 4 -33 20 -33 24 0 26 9 3 25
-15 11 -15 13 5 24 12 6 22 16 22 21 0 11 -33 14 -43 3z"/>
<path d="M1590 3275 c0 -8 5 -15 10 -15 6 0 10 7 10 15 0 8 -4 15 -10 15 -5 0
-10 -7 -10 -15z"/>
<path d="M3385 3280 c-3 -5 3 -10 15 -10 12 0 18 5 15 10 -3 6 -10 10 -15 10
-5 0 -12 -4 -15 -10z"/>
<path d="M1456 3272 c-2 -4 -26 -18 -51 -31 -34 -17 -44 -26 -36 -34 8 -8 20
-7 44 5 17 9 41 18 52 20 24 4 35 48 11 48 -8 0 -17 -4 -20 -8z"/>
<path d="M1272 3258 c6 -18 28 -21 28 -4 0 9 -7 16 -16 16 -9 0 -14 -5 -12
-12z"/>
<path d="M2774 3206 c-43 -42 -46 -47 -40 -83 5 -30 4 -34 -5 -20 -8 14 -14
16 -25 6 -19 -15 -10 -46 24 -81 30 -33 46 -36 37 -8 -5 15 -2 20 13 20 16 0
20 10 26 71 3 39 13 81 21 92 17 25 20 47 5 47 -5 0 -31 -20 -56 -44z"/>
<path d="M6825 3220 c-4 -6 6 -10 24 -10 16 0 33 5 36 10 4 6 -6 10 -24 10
-16 0 -33 -4 -36 -10z"/>
<path d="M1488 3189 c-10 -5 -18 -17 -18 -25 0 -12 -8 -13 -34 -9 -23 5 -42 2
-58 -9 -22 -15 -25 -22 -22 -71 2 -41 -1 -57 -12 -63 -11 -6 -13 -16 -8 -36 5
-21 9 -24 20 -15 8 6 14 22 14 35 0 12 4 25 8 28 5 3 7 19 4 37 -3 21 -1 30 6
25 15 -9 152 5 152 16 0 4 -11 6 -25 2 -41 -10 -45 23 -6 53 17 13 31 29 31
34 0 12 -30 11 -52 -2z"/>
<path d="M1675 3191 c-3 -6 -25 -10 -48 -9 -38 3 -42 1 -45 -22 -2 -17 5 -34
21 -48 24 -22 25 -22 57 -5 19 10 45 28 59 41 14 12 35 22 47 22 12 0 27 7 34
15 11 13 8 15 -17 15 -16 0 -38 -6 -49 -14 -16 -13 -21 -13 -36 0 -11 10 -18
12 -23 5z"/>
<path d="M6695 3190 c-4 -6 8 -10 29 -10 19 0 38 5 41 10 4 6 -8 10 -29 10
-19 0 -38 -4 -41 -10z"/>
<path d="M1275 3177 c-28 -17 -35 -30 -24 -43 7 -9 4 -14 -10 -19 -26 -8 -26
-17 -1 -33 11 -7 20 -20 20 -29 0 -13 4 -11 20 7 15 17 20 37 20 77 0 29 -1
53 -2 52 -2 0 -12 -6 -23 -12z"/>
<path d="M6595 3160 c3 -5 13 -10 21 -10 8 0 14 5 14 10 0 6 -9 10 -21 10 -11
0 -17 -4 -14 -10z"/>
<path d="M1881 3135 c-29 -32 -24 -32 19 0 19 14 27 25 19 25 -8 0 -25 -12
-38 -25z"/>
<path d="M1778 3086 c-19 -14 -24 -36 -9 -36 5 0 16 11 25 25 18 27 11 32 -16
11z"/>
<path d="M2940 3071 c-15 -4 -26 -15 -28 -29 -4 -25 10 -29 28 -7 7 8 19 15
26 15 8 0 14 7 14 15 0 16 -2 17 -40 6z"/>
<path d="M2042 3050 c-16 -27 -15 -40 4 -40 18 0 43 27 44 48 0 19 -34 14 -48
-8z"/>
<path d="M1428 3019 c-30 -31 -19 -40 16 -14 12 9 16 18 10 24 -5 4 -17 0 -26
-10z"/>
<path d="M1637 3026 c-9 -9 -22 -16 -30 -16 -8 0 -20 -7 -27 -15 -7 -8 -21
-15 -31 -15 -12 0 -19 -7 -19 -20 0 -28 27 -36 49 -16 11 10 36 16 69 16 57 0
85 19 80 54 -4 27 -67 35 -91 12z"/>
<path d="M2280 3016 c0 -19 4 -23 20 -19 20 5 20 7 4 24 -22 24 -24 24 -24 -5z"/>
<path d="M8260 3016 c0 -34 14 -40 50 -21 40 21 34 39 -13 43 -34 3 -37 1 -37
-22z"/>
<path d="M3956 2994 c-9 -24 -7 -112 3 -132 71 -136 95 -205 123 -347 5 -27
13 -54 18 -60 4 -5 11 -26 14 -45 4 -19 15 -49 24 -67 13 -25 14 -37 4 -57
-13 -28 -10 -31 33 -40 53 -10 108 62 71 93 -9 8 -16 24 -16 37 0 22 -16 67
-46 127 -8 16 -14 38 -14 50 0 11 -4 34 -9 51 -6 17 -15 63 -21 102 -6 39 -20
85 -31 103 -10 17 -19 40 -19 51 0 10 -5 22 -11 26 -6 3 -20 26 -30 50 -13 27
-31 48 -51 58 -38 19 -35 19 -42 0z"/>
<path d="M1890 2969 c0 -11 5 -17 10 -14 6 3 10 13 10 21 0 8 -4 14 -10 14 -5
0 -10 -9 -10 -21z"/>
<path d="M2694 2977 c-3 -9 -1 -24 4 -33 9 -16 10 -15 17 5 8 27 -11 54 -21
28z"/>
<path d="M1254 2898 c3 -13 6 -29 6 -35 0 -7 4 -13 8 -13 4 0 8 16 9 35 1 25
-3 35 -14 35 -11 0 -14 -6 -9 -22z"/>
<path d="M2087 2883 c-12 -12 -7 -43 7 -43 13 0 26 20 26 41 0 10 -23 12 -33
2z"/>
<path d="M7740 2880 c0 -5 11 -10 24 -10 14 0 28 5 31 10 4 6 -7 10 -24 10
-17 0 -31 -4 -31 -10z"/>
<path d="M1525 2857 c-9 -22 10 -90 29 -106 22 -19 30 5 14 42 -8 18 -19 43
-25 57 -10 22 -12 23 -18 7z"/>
<path d="M8553 2854 c-41 -17 -42 -30 -3 -37 35 -8 60 0 60 18 0 25 -24 33
-57 19z"/>
<path d="M2040 2845 c0 -21 -30 -31 -40 -14 -5 7 -12 11 -15 7 -3 -3 31 -45
77 -92 60 -61 87 -83 94 -76 6 6 9 22 6 36 -3 19 -11 24 -33 24 -24 0 -29 4
-29 24 0 14 -4 28 -10 31 -5 3 -10 16 -10 29 0 22 -17 46 -32 46 -4 0 -8 -7
-8 -15z"/>
<path d="M2272 2785 c-22 -23 -23 -25 -7 -83 8 -33 15 -76 15 -96 0 -20 5 -36
11 -36 7 0 9 -11 6 -27 -3 -16 1 -46 9 -68 7 -22 14 -54 14 -72 0 -17 5 -35
10 -38 6 -3 10 -19 10 -35 0 -16 4 -31 9 -34 4 -3 11 -19 15 -36 8 -43 22 -30
30 26 4 33 2 52 -7 63 -21 24 -69 243 -68 305 0 16 -4 36 -11 43 -6 8 -8 32
-6 58 7 54 0 61 -30 30z"/>
<path d="M1233 2785 c-5 -15 21 -44 40 -45 11 0 8 35 -5 48 -16 16 -27 15 -35
-3z"/>
<path d="M897 2773 c-12 -12 -7 -22 8 -17 8 4 15 10 15 15 0 11 -14 12 -23 2z"/>
<path d="M2830 2773 c1 -13 24 -38 54 -57 23 -15 30 -16 37 -5 5 9 -3 22 -24
41 -30 26 -67 37 -67 21z"/>
<path d="M5620 2752 c-32 -11 -66 -72 -40 -72 19 0 75 58 65 68 -5 5 -17 7
-25 4z"/>
<path d="M1910 2698 c0 -19 5 -39 11 -45 8 -8 8 -25 1 -57 -5 -25 -7 -48 -4
-51 11 -10 21 -5 27 15 4 12 14 19 23 18 28 -5 24 28 -7 63 -17 18 -31 43 -31
56 0 12 -4 25 -10 28 -6 4 -10 -8 -10 -27z"/>
<path d="M2660 2704 c0 -9 9 -28 19 -43 11 -15 23 -39 26 -54 10 -37 31 -53
50 -37 18 15 65 -1 65 -22 0 -7 5 -5 11 5 9 15 5 23 -16 43 -14 13 -30 24 -36
24 -5 0 -9 5 -9 10 0 6 -11 15 -25 20 -14 5 -25 15 -25 21 0 11 -39 48 -52 49
-5 0 -8 -7 -8 -16z"/>
<path d="M1180 2695 c0 -9 5 -15 11 -13 6 2 11 8 11 13 0 5 -5 11 -11 13 -6 2
-11 -4 -11 -13z"/>
<path d="M1345 2669 c-4 -6 -3 -15 3 -21 6 -6 11 -4 15 6 7 18 -9 31 -18 15z"/>
<path d="M2040 2660 c0 -8 5 -22 10 -30 9 -13 10 -13 10 0 0 8 -5 22 -10 30
-9 13 -10 13 -10 0z"/>
<path d="M8775 2620 c-8 -12 20 -24 35 -15 6 3 8 11 5 16 -8 12 -32 12 -40 -1z"/>
<path d="M2125 2609 c-6 -9 43 -65 50 -57 1 2 0 18 -2 36 -4 23 -11 32 -24 32
-10 0 -21 -5 -24 -11z"/>
<path d="M1480 2597 c0 -18 28 -42 37 -33 9 8 -9 38 -25 44 -7 2 -12 -3 -12
-11z"/>
<path d="M2005 2498 c-34 -40 -16 -51 22 -14 18 18 23 30 16 37 -7 7 -19 0
-38 -23z"/>
<path d="M2974 2498 c16 -16 34 -38 40 -51 15 -30 40 -28 44 3 2 14 8 30 13
36 21 26 -1 39 -64 40 l-63 0 30 -28z"/>
<path d="M5497 2524 c-10 -10 -9 -54 2 -54 12 0 22 43 13 52 -5 5 -11 5 -15 2z"/>
<path d="M5733 2519 c-75 -22 -16 -39 135 -39 90 0 123 13 65 26 -16 3 -41 10
-57 15 -36 11 -100 10 -143 -2z"/>
<path d="M2130 2502 c0 -14 35 -42 53 -42 36 0 21 16 -45 48 -5 2 -8 -1 -8 -6z"/>
<path d="M2056 2430 c-18 -45 -21 -90 -6 -90 6 0 10 5 10 10 0 6 11 15 25 20
14 5 25 16 25 23 0 14 -29 77 -35 77 -1 0 -10 -18 -19 -40z"/>
<path d="M5305 2453 c-16 -9 -32 -19 -35 -22 -11 -14 -60 -41 -73 -41 -8 0
-20 -7 -27 -15 -16 -19 -69 -19 -140 0 -81 22 -502 22 -520 0 -7 -8 -20 -15
-30 -15 -9 0 -28 -8 -41 -18 -13 -10 -41 -27 -62 -37 -44 -23 -72 -51 -60 -58
5 -3 30 -1 56 5 35 7 52 7 62 -2 19 -16 34 -5 28 20 -6 23 48 60 89 60 15 0
30 5 33 10 9 14 186 12 339 -4 101 -11 133 -18 142 -31 10 -14 22 -16 56 -11
54 8 115 29 130 44 7 7 16 12 22 12 5 0 22 12 37 26 15 15 38 32 51 38 13 6
23 20 23 31 0 26 -39 29 -80 8z"/>
<path d="M6105 2440 c3 -5 15 -10 26 -10 10 0 19 5 19 10 0 6 -12 10 -26 10
-14 0 -23 -4 -19 -10z"/>
<path d="M5528 2403 c-31 -13 -38 -21 -38 -44 0 -15 4 -31 10 -34 14 -9 70 52
70 75 0 11 -1 20 -2 19 -2 -1 -20 -8 -40 -16z"/>
<path d="M6430 2380 c0 -5 7 -10 15 -10 8 0 15 5 15 10 0 6 -7 10 -15 10 -8 0
-15 -4 -15 -10z"/>
<path d="M6560 2350 c8 -5 36 -10 61 -10 26 0 63 -7 82 -15 41 -17 91 -20 82
-5 -3 6 -19 10 -34 10 -16 0 -34 7 -41 15 -9 11 -33 15 -89 15 -53 0 -71 -3
-61 -10z"/>
<path d="M6802 2299 c2 -8 16 -15 31 -17 14 -2 31 -10 37 -18 7 -8 20 -14 30
-14 10 0 23 -7 30 -15 13 -16 40 -21 40 -7 -1 11 -111 73 -143 79 -23 5 -29 3
-25 -8z"/>
<path d="M4998 2276 c-53 -23 -112 -96 -78 -96 11 0 52 32 90 71 14 14 32 28
40 32 11 4 9 5 -5 5 -11 0 -32 -5 -47 -12z"/>
<path d="M4487 2233 c-14 -14 -6 -33 14 -33 28 0 61 19 54 31 -7 10 -58 12
-68 2z"/>
<path d="M4235 2210 c-3 -5 -15 -10 -26 -10 -11 0 -22 -7 -25 -15 -4 -9 -19
-15 -40 -15 -33 0 -185 -71 -214 -100 -3 -3 -32 -19 -65 -36 -184 -94 -261
-138 -360 -205 -60 -41 -127 -83 -147 -94 -21 -11 -38 -23 -38 -27 0 -5 -5 -8
-11 -8 -12 0 -124 -65 -146 -85 -6 -5 -34 -26 -62 -45 -28 -19 -51 -38 -51
-42 0 -12 28 -10 35 2 3 6 17 10 30 10 13 0 27 5 30 10 9 15 25 12 25 -5 0
-22 21 -18 27 5 6 22 29 27 36 8 7 -16 46 29 47 52 1 8 25 31 55 50 46 30 64
35 115 36 69 2 79 7 62 34 -10 16 -8 19 11 22 14 2 23 11 25 26 2 12 9 22 17
22 7 0 26 11 42 24 15 13 39 26 53 30 14 4 34 11 45 16 11 5 36 16 56 24 20 7
93 46 163 85 106 59 130 69 145 59 14 -9 28 -7 62 9 57 26 140 53 160 53 9 0
22 7 29 15 7 8 21 15 32 15 14 0 19 6 16 23 -2 16 -9 21 -25 19 -25 -4 -76 26
-67 39 3 5 -4 9 -15 9 -11 0 -23 -4 -26 -10z"/>
<path d="M2397 2158 c6 -45 23 -77 23 -42 0 11 5 25 12 32 9 9 7 16 -10 32
-11 11 -23 20 -26 20 -2 0 -2 -19 1 -42z"/>
<path d="M6080 2160 c0 -5 7 -10 15 -10 8 0 15 5 15 10 0 6 -7 10 -15 10 -8 0
-15 -4 -15 -10z"/>
<path d="M4866 2152 c-18 -2 -30 -11 -33 -23 -3 -10 -11 -19 -19 -19 -8 0 -20
-15 -28 -33 -17 -42 -58 -69 -91 -61 -15 4 -25 2 -25 -5 0 -6 5 -11 11 -11 6
0 9 -8 7 -17 -2 -12 -15 -20 -38 -23 -39 -6 -48 -25 -25 -54 10 -13 21 -17 37
-13 25 7 198 168 198 185 0 5 12 22 26 37 29 31 23 42 -20 37z"/>
<path d="M5497 2113 c-4 -3 -7 -14 -7 -23 0 -10 -7 -23 -15 -30 -20 -17 -46
-70 -39 -82 3 -5 14 -2 24 7 10 9 29 19 44 23 33 9 38 26 9 30 -29 4 -29 6 3
37 25 25 25 45 0 45 -7 0 -16 -3 -19 -7z"/>
<path d="M2430 2070 c0 -11 5 -20 10 -20 6 0 10 9 10 20 0 11 -4 20 -10 20 -5
0 -10 -9 -10 -20z"/>
<path d="M6284 2055 c-6 -15 11 -45 25 -45 4 0 16 6 26 14 16 12 17 16 6 30
-17 20 -50 21 -57 1z"/>
<path d="M6333 2003 c-18 -7 -16 -23 2 -23 9 0 18 -7 21 -15 3 -8 15 -17 27
-21 11 -3 25 -10 31 -15 50 -42 61 -49 73 -49 7 0 13 -4 13 -9 0 -5 12 -14 28
-20 15 -5 50 -24 77 -40 28 -17 57 -33 65 -37 8 -3 26 -12 40 -19 15 -8 32
-10 39 -6 9 6 -6 21 -49 50 -34 22 -68 41 -76 41 -7 0 -20 10 -29 23 -8 13
-34 31 -57 42 -23 10 -57 33 -76 52 -22 22 -40 32 -51 28 -10 -3 -24 1 -31 10
-13 15 -25 17 -47 8z"/>
<path d="M2640 1944 c0 -6 8 -29 17 -50 11 -26 18 -33 20 -23 2 9 -5 32 -16
50 -12 19 -21 29 -21 23z"/>
<path d="M6170 1924 c0 -18 47 -67 81 -84 21 -11 45 -33 54 -49 24 -48 62 -71
116 -71 54 0 74 16 32 26 -50 11 -77 27 -144 88 -69 63 -139 108 -139 90z"/>
<path d="M5570 1905 c0 -9 9 -15 22 -15 12 0 29 -7 39 -16 10 -9 30 -14 46
-12 26 3 25 5 -25 31 -61 31 -82 34 -82 12z"/>
<path d="M4488 1870 c-16 -16 -32 -30 -34 -30 -13 0 -94 -63 -148 -114 -32
-31 -62 -56 -66 -56 -4 0 -20 -16 -35 -36 -28 -37 -27 -57 3 -36 9 6 32 19 50
28 19 9 40 28 49 40 8 13 23 24 33 24 19 0 52 16 85 40 12 8 26 34 33 58 13
42 37 56 48 27 8 -20 27 -19 48 3 15 17 15 21 0 50 -19 40 -28 40 -66 2z"/>
<path d="M5023 1874 c-13 -14 -23 -32 -23 -40 0 -20 25 -28 49 -14 16 8 20 18
17 42 -4 41 -15 44 -43 12z"/>
<path d="M2690 1836 c0 -8 5 -18 10 -21 6 -4 8 -16 4 -27 -5 -16 -2 -19 13
-16 24 4 29 41 8 62 -20 20 -35 21 -35 2z"/>
<path d="M5842 1788 c3 -7 17 -15 33 -16 25 -3 27 -2 16 12 -16 19 -55 22 -49
4z"/>
<path d="M5910 1750 c0 -5 14 -10 31 -10 17 0 28 4 24 10 -3 6 -17 10 -31 10
-13 0 -24 -4 -24 -10z"/>
<path d="M6772 1729 c2 -7 10 -15 17 -17 8 -3 12 1 9 9 -2 7 -10 15 -17 17 -8
3 -12 -1 -9 -9z"/>
<path d="M4980 1680 c0 -28 -4 -60 -10 -70 -12 -22 -3 -53 14 -47 6 2 11 22
11 45 0 28 7 48 23 64 25 28 29 48 8 48 -8 0 -21 3 -30 6 -13 5 -16 -3 -16
-46z"/>
<path d="M5980 1720 c0 -5 9 -10 19 -10 11 0 26 -7 35 -15 8 -8 21 -15 28 -15
8 0 23 -7 34 -15 10 -8 29 -15 41 -15 12 0 26 -6 30 -12 10 -17 87 -58 107
-58 9 0 16 -4 16 -10 0 -5 11 -10 25 -10 14 0 28 -6 31 -14 3 -8 16 -17 30
-20 13 -4 24 -11 24 -16 0 -6 9 -10 19 -10 11 0 26 -7 35 -15 8 -8 21 -15 28
-15 8 0 23 -7 34 -15 10 -8 26 -15 35 -15 9 0 22 -7 29 -15 13 -15 50 -21 50
-7 -1 10 -68 52 -84 52 -8 0 -19 7 -26 15 -7 8 -19 15 -28 15 -8 0 -34 16 -58
35 -23 19 -49 35 -57 35 -8 0 -48 17 -88 39 -41 21 -85 42 -99 46 -14 5 -42
19 -62 31 -21 13 -49 24 -62 24 -14 0 -28 5 -31 10 -3 6 -17 10 -31 10 -13 0
-24 -4 -24 -10z"/>
<path d="M6500 1710 c0 -5 12 -10 28 -10 21 0 24 2 12 10 -20 13 -40 13 -40 0z"/>
<path d="M7630 1660 c19 -13 30 -13 30 0 0 6 -10 10 -22 10 -19 0 -20 -2 -8
-10z"/>
<path d="M6940 1603 c0 -5 14 -17 30 -28 16 -11 49 -45 72 -75 37 -49 94 -90
126 -90 6 0 30 -13 54 -29 24 -15 55 -31 71 -35 15 -3 27 -11 27 -16 0 -6 9
-10 19 -10 11 0 26 -7 35 -15 8 -8 21 -15 29 -15 8 0 20 -7 27 -15 7 -8 22
-15 33 -15 11 0 28 -7 38 -16 9 -8 20 -11 23 -6 8 13 -32 52 -54 52 -10 0 -22
5 -25 11 -4 5 -17 15 -28 20 -12 6 -40 21 -62 34 -58 36 -102 55 -123 55 -11
0 -25 7 -32 15 -7 8 -17 15 -22 15 -9 0 -83 59 -146 118 -14 12 -30 22 -37 22
-7 0 -18 7 -25 15 -13 16 -30 20 -30 8z"/>
<path d="M6790 1575 c7 -8 17 -15 22 -15 6 0 5 7 -2 15 -7 8 -17 15 -22 15 -6
0 -5 -7 2 -15z"/>
<path d="M2805 1495 c-29 -28 -31 -43 -10 -51 14 -6 40 14 74 59 12 15 11 17
-13 17 -15 0 -38 -11 -51 -25z"/>
<path d="M2648 1391 c-16 -15 -28 -31 -28 -34 0 -14 41 -7 46 8 4 8 14 15 24
15 27 0 34 17 11 29 -25 14 -21 15 -53 -18z"/>
<path d="M6642 1398 c3 -7 17 -15 33 -16 25 -3 27 -2 16 12 -16 19 -55 22 -49
4z"/>
<path d="M2575 1339 c-10 -15 1 -23 20 -15 9 3 13 10 10 16 -8 13 -22 13 -30
-1z"/>
<path d="M2410 1321 c0 -4 6 -15 13 -26 10 -13 21 -16 40 -11 38 9 33 20 -13
33 -22 5 -40 7 -40 4z"/>
<path d="M7554 1224 c3 -9 6 -18 6 -20 0 -2 8 -4 19 -4 10 0 24 -7 31 -15 14
-16 50 -21 50 -6 0 5 -10 13 -22 17 -13 4 -34 15 -47 25 -29 23 -45 24 -37 3z"/>
<path d="M2105 1189 c-14 -15 -27 -18 -48 -13 l-29 6 21 -21 c27 -27 61 -27
68 0 4 16 11 19 29 15 23 -6 24 -6 7 14 -21 24 -23 24 -48 -1z"/>
<path d="M5470 1180 c0 -5 9 -10 20 -10 11 0 20 5 20 10 0 6 -9 10 -20 10 -11
0 -20 -4 -20 -10z"/>
<path d="M7680 1156 c0 -9 7 -16 16 -16 9 0 14 5 12 12 -6 18 -28 21 -28 4z"/>
<path d="M7732 1128 c5 -15 48 -24 48 -10 0 10 -23 22 -42 22 -5 0 -8 -6 -6
-12z"/>
<path d="M1500 1120 c0 -5 11 -10 25 -10 14 0 25 5 25 10 0 6 -11 10 -25 10
-14 0 -25 -4 -25 -10z"/>
<path d="M7511 1053 c-19 -8 -51 -41 -51 -53 0 -5 15 -10 33 -10 18 0 42 -7
53 -15 10 -8 31 -15 45 -15 14 0 34 -7 45 -15 10 -8 31 -15 46 -15 29 0 58
-23 58 -46 0 -27 47 -16 70 16 25 36 17 55 -30 65 -16 3 -34 13 -41 21 -6 8
-17 14 -23 14 -7 0 -30 13 -52 30 -31 24 -49 29 -89 29 -27 0 -56 -3 -64 -6z"/>
<path d="M6050 1002 c0 -21 123 -102 137 -89 4 5 -68 62 -89 70 -10 3 -18 11
-18 17 0 5 -7 10 -15 10 -8 0 -15 -3 -15 -8z"/>
<path d="M5880 984 c0 -17 22 -14 28 4 2 7 -3 12 -12 12 -9 0 -16 -7 -16 -16z"/>
<path d="M7175 939 c-4 -6 -4 -13 -1 -16 8 -8 36 5 36 17 0 13 -27 13 -35 -1z"/>
<path d="M5760 926 c0 -16 28 -42 36 -33 3 3 3 15 -1 26 -7 23 -35 29 -35 7z"/>
<path d="M7370 887 c0 -18 20 -36 35 -31 7 3 20 -10 29 -30 20 -42 30 -45 52
-11 20 31 11 45 -30 45 -20 0 -40 8 -51 20 -21 23 -35 26 -35 7z"/>
<path d="M6037 873 c-14 -13 -6 -33 13 -33 18 0 67 -18 113 -42 10 -5 22 -6
28 -2 12 7 -36 54 -55 54 -8 0 -19 7 -26 15 -13 15 -61 21 -73 8z"/>
<path d="M7577 873 c-9 -8 48 -33 77 -33 19 0 18 2 -9 20 -31 20 -56 25 -68
13z"/>
<path d="M7912 848 c3 -7 13 -15 24 -17 16 -3 17 -1 5 13 -16 19 -34 21 -29 4z"/>
<path d="M5810 808 c-26 -28 -26 -54 0 -68 16 -9 21 -7 27 7 3 10 12 25 20 34
15 18 8 49 -13 49 -7 0 -22 -10 -34 -22z"/>
<path d="M6222 768 c-18 -18 -15 -51 4 -44 9 3 24 6 35 6 10 0 19 7 19 15 0 8
-7 15 -15 15 -8 0 -15 5 -15 10 0 14 -13 13 -28 -2z"/>
<path d="M5537 723 c-12 -12 -7 -21 22 -42 27 -19 32 -20 62 -7 30 13 32 15
14 21 -11 4 -32 13 -47 21 -29 16 -41 17 -51 7z"/>
<path d="M6292 721 c4 -13 18 -16 19 -4 0 4 -5 9 -11 12 -7 2 -11 -2 -8 -8z"/>
<path d="M7372 700 c-18 -29 -15 -37 16 -44 15 -4 36 -10 47 -13 17 -5 16 -1
-7 24 -16 16 -28 34 -28 41 0 18 -14 14 -28 -8z"/>
<path d="M6345 689 c-8 -12 23 -49 42 -49 21 0 15 23 -12 43 -16 11 -26 13
-30 6z"/>
<path d="M5262 630 c-7 -11 -21 -20 -32 -20 -13 0 -22 -9 -26 -25 -3 -14 -10
-25 -15 -25 -5 0 -9 -4 -9 -10 0 -5 11 -10 25 -10 17 0 29 8 37 24 17 39 58
46 58 10 0 -8 5 -14 10 -14 14 0 13 11 -5 54 -17 41 -25 44 -43 16z"/>
<path d="M7230 613 c-8 -3 -26 -14 -39 -24 -21 -17 -22 -19 -5 -26 10 -4 19
-2 22 5 5 15 48 16 57 2 9 -15 65 -12 65 3 0 34 -56 56 -100 40z"/>
<path d="M6510 578 c0 -16 75 -83 117 -105 19 -10 49 -26 67 -35 32 -17 82
-21 125 -9 23 6 23 7 7 24 -13 13 -35 17 -90 17 -71 0 -74 1 -113 38 -47 45
-113 86 -113 70z"/>
<path d="M7065 541 c-3 -5 -1 -12 5 -16 12 -7 30 2 30 16 0 12 -27 12 -35 0z"/>
<path d="M4126 501 c-17 -19 -15 -41 3 -41 8 0 23 52 17 58 -2 1 -11 -7 -20
-17z"/>
<path d="M7450 504 c0 -12 45 -54 58 -54 20 0 14 17 -14 39 -26 21 -44 27 -44
15z"/>
<path d="M6893 493 c-40 -5 -44 -23 -5 -23 37 0 72 10 72 21 0 9 -7 9 -67 2z"/>
<path d="M7260 475 c0 -8 5 -15 10 -15 6 0 10 7 10 15 0 8 -4 15 -10 15 -5 0
-10 -7 -10 -15z"/>
<path d="M5320 456 c0 -9 7 -16 16 -16 9 0 14 5 12 12 -6 18 -28 21 -28 4z"/>
<path d="M6290 447 c0 -15 145 -157 160 -157 5 0 10 2 10 4 0 7 -155 166 -163
166 -4 0 -7 -6 -7 -13z"/>
<path d="M6506 447 c5 -15 92 -57 115 -56 8 0 -9 11 -38 25 -28 13 -55 29 -58
34 -9 15 -25 12 -19 -3z"/>
<path d="M5760 408 c1 -18 119 -142 128 -134 3 4 2 10 -4 14 -6 4 -14 17 -18
30 -4 12 -12 22 -17 22 -5 0 -9 6 -9 14 0 15 -55 66 -71 66 -5 0 -9 -6 -9 -12z"/>
<path d="M5350 401 c0 -4 9 -20 20 -34 11 -14 20 -30 20 -36 0 -6 5 -11 10
-11 18 0 10 39 -10 50 -11 6 -20 17 -20 25 0 8 -4 15 -10 15 -5 0 -10 -4 -10
-9z"/>
<path d="M7085 373 c-11 -3 -27 -11 -35 -18 -8 -7 -26 -15 -40 -18 -17 -3 -12
-5 16 -6 41 -1 104 23 104 40 0 9 -12 10 -45 2z"/>
<path d="M7420 360 c33 -26 52 -25 21 0 -13 11 -28 20 -35 20 -6 0 0 -9 14
-20z"/>
<path d="M2275 319 c-4 -6 -5 -13 -2 -16 7 -7 27 6 27 18 0 12 -17 12 -25 -2z"/>
<path d="M6547 314 c-22 -23 69 -84 125 -84 32 0 37 16 8 25 -11 3 -20 10 -20
14 0 5 -22 18 -49 30 -56 24 -55 23 -64 15z"/>
<path d="M5280 249 c0 -6 6 -23 14 -37 8 -15 17 -35 20 -44 8 -27 26 -22 26 7
0 14 -9 34 -20 45 -11 11 -20 25 -20 30 0 6 -4 10 -10 10 -5 0 -10 -5 -10 -11z"/>
<path d="M7180 235 c-7 -9 -11 -18 -8 -21 8 -8 137 19 132 28 -9 15 -111 9
-124 -7z"/>
<path d="M7330 242 c0 -8 58 -32 78 -32 9 0 9 5 0 20 -9 13 -24 20 -45 20 -18
0 -33 -4 -33 -8z"/>
<path d="M4620 200 c0 -32 14 -40 24 -14 10 27 7 44 -9 44 -10 0 -15 -10 -15
-30z"/>
<path d="M6120 220 c-12 -8 -9 -10 13 -10 15 0 27 5 27 10 0 13 -20 13 -40 0z"/>
<path d="M5716 180 c6 -6 31 -14 54 -17 34 -5 42 -3 38 8 -3 9 -23 15 -54 17
-37 2 -46 0 -38 -8z"/>
<path d="M8100 169 c0 -9 7 -22 15 -29 19 -16 19 0 0 26 -12 16 -14 16 -15 3z"/>
<path d="M5860 140 c14 -11 33 -20 43 -20 15 0 15 2 -3 20 -11 11 -30 20 -42
20 -23 0 -23 0 2 -20z"/>
<path d="M6590 120 c0 -5 8 -10 18 -10 10 0 28 -7 41 -16 14 -10 43 -16 74
-16 29 0 62 -6 74 -14 32 -20 63 -18 63 5 0 16 -11 19 -82 26 -45 4 -91 13
-102 21 -23 16 -86 19 -86 4z"/>
<path d="M6337 113 c-24 -6 -19 -47 7 -51 20 -4 36 13 36 41 0 17 -8 19 -43
10z"/>
<path d="M5990 106 c0 -2 23 -27 52 -55 l52 -51 65 1 c51 1 59 3 36 9 -38 9
-123 55 -150 80 -19 17 -55 28 -55 16z"/>
<path d="M5200 95 c0 -2 12 -16 26 -30 32 -32 53 -22 22 11 -20 21 -48 32 -48
19z"/>
<path d="M6940 92 c0 -4 14 -16 30 -25 26 -16 31 -16 36 -3 3 8 3 20 -1 26 -7
12 -65 14 -65 2z"/>
<path d="M7998 19 c-17 -18 -17 -19 12 -19 28 0 30 2 20 20 -13 23 -10 23 -32
-1z"/>
<path d="M2518 3 c12 -2 30 -2 40 0 9 3 -1 5 -23 4 -22 0 -30 -2 -17 -4z"/>
</g>
</svg>
